<svg width="66" height="66" viewBox="0 0 66 66" fill="none" xmlns="http://www.w3.org/2000/svg">
<g clip-path="url(#clip0_20760_14222)">
<path d="M28.52 89.4872C28.4864 88.4246 28.4516 87.3614 28.4036 86.2988C28.3069 84.1496 28.1569 82.0004 27.8549 79.8692C27.3493 76.3014 26.0202 73.1262 25.0903 69.6815C24.7217 68.3164 24.4324 66.9302 24.2114 65.5338C23.799 62.929 23.6351 60.3103 23.6573 57.6796C23.6795 55.1012 23.8662 52.4981 24.7715 50.0608C25.2632 48.7358 25.8089 47.0747 26.8859 46.1021C27.0564 45.9485 27.359 45.7792 27.4995 45.6351C27.4995 45.6339 27.4994 45.6326 27.4994 45.6314C27.5527 45.5907 27.6046 45.5486 27.6539 45.5041C27.6908 45.2657 27.7355 45.0283 27.7711 44.7869C27.7741 44.7688 27.7765 44.7501 27.779 44.732C27.2225 44.6872 26.6082 45.0892 26.1188 45.3017C24.9529 45.809 23.7557 46.2422 22.5937 46.7607C22.0589 46.9993 21.516 47.2496 20.9937 47.5034C20.4838 47.7514 20.0832 48.1689 19.571 48.4182C18.9984 48.697 18.4245 48.9729 17.8424 49.2335C17.4023 49.4306 16.9605 49.6256 16.5219 49.8273C16.8356 50.673 17.2436 51.4841 17.7357 52.2401C17.7201 52.2946 17.7046 52.3491 17.6876 52.4033C17.2553 53.7775 16.4125 54.9644 15.8373 56.2755C15.6962 56.5973 15.578 56.9257 15.4609 57.2517L15.4621 57.2523C15.7256 57.3957 15.7364 57.7169 15.8259 57.9943C16.5685 60.2948 15.351 61.6239 15.0166 63.7761C14.7482 65.4997 15.393 67.0582 15.3216 68.7409C15.2754 69.8269 14.6726 70.7568 14.3935 71.7822C14.2686 72.2414 14.1816 72.7091 14.1155 73.1803C13.4917 77.6721 12.4814 82.1404 11.6019 86.5961C11.3912 87.6635 11.2087 88.8167 10.9331 89.9441L10.9355 89.9447C11.2189 93.3913 11.2555 96.9164 11.2291 100.4H28.4996C28.5752 98.8429 28.6323 97.285 28.6371 95.7266C28.6443 93.6301 28.5866 91.5776 28.52 89.4872ZM24.706 83.4562C24.4569 82.8991 24.7847 82.1547 25.4324 82.1097C25.7308 82.0887 25.9151 82.0995 26.1648 82.2939C26.698 82.7106 26.474 83.392 26.1012 83.8338C25.732 84.2727 24.903 83.8962 24.706 83.4562ZM26.71 93.8607C26.3402 94.2989 25.5117 93.9231 25.3148 93.4831C25.0657 92.9254 25.3934 92.1815 26.0406 92.1365C26.339 92.1155 26.5239 92.1263 26.773 92.3209C27.3067 92.7374 27.0822 93.4188 26.71 93.8607Z" fill="#397BA9"/>
<path d="M32.8976 42.2791L32.8987 42.2443C34.4584 42.1926 36.2799 41.2856 37.6204 40.2422L37.6486 40.2776C37.5915 40.7285 37.6186 41.2237 37.585 41.6284C37.5183 42.4214 37.4769 43.2415 37.5375 44.0406C36.6112 44.0964 35.7149 44.3341 34.7562 44.2573C33.6852 44.1714 32.5421 43.8946 31.5413 43.505C30.6601 43.1622 29.8766 42.5937 29.1268 42.0276C28.6147 41.641 28.2125 41.1805 27.7742 40.7189C27.6962 40.6366 27.6139 40.5274 27.5269 40.4163C28.0359 40.702 28.5546 40.9734 29.0817 41.2495C29.7283 41.5881 30.4199 41.8127 31.1253 42.0047C31.6939 42.1603 32.3153 42.2624 32.8976 42.2791Z" fill="#CE82B8"/>
<path d="M53.2665 100.403H39.1346C39.1544 98.2378 39.1826 96.0568 38.9899 93.91C38.8278 92.1047 38.7306 90.2911 38.7792 88.4787C38.8194 86.9893 38.7011 85.4794 38.7515 83.9792C38.8074 82.3012 39.1682 80.6323 39.2372 78.9472C39.2889 77.6907 39.505 76.475 39.771 75.2461C40.0759 73.8365 40.0567 72.3842 40.4421 70.9783C40.8317 69.5585 41.2448 68.1471 41.5263 66.6931C41.7826 65.3706 41.9405 64.0366 42.2113 62.7206C42.826 59.7376 42.841 56.7191 42.3536 53.7138C42.2119 52.8367 42.1507 51.9644 41.9333 51.0975C41.5077 49.4016 40.7344 47.7477 39.4095 46.5686C38.9196 46.1327 38.249 45.922 37.7706 45.5168C37.7262 45.2797 37.674 45.0437 37.6307 44.8036C37.6271 44.7856 37.6241 44.767 37.6211 44.749C38.1758 44.6866 38.8026 45.069 39.2985 45.2659C40.4799 45.7359 41.6902 46.131 42.8681 46.6124C43.4102 46.834 43.9607 47.0669 44.4908 47.3041C45.0082 47.5358 45.4219 47.9404 45.9418 48.1734C46.523 48.4339 47.1053 48.6915 47.6954 48.9334C48.9501 49.4485 50.2186 49.9449 51.3947 50.6275C52.9555 51.5328 54.4228 52.4381 55.6655 53.7805C56.8266 55.0352 57.7505 56.6909 58.5531 58.19C59.4428 59.8493 60.114 61.7043 60.7155 63.485C60.8608 63.9166 61.0745 64.3512 61.1586 64.7985C61.3165 65.6401 61.3735 66.5185 61.5008 67.3697C61.6448 68.3321 61.7751 69.2968 61.8952 70.2628C62.1383 72.227 62.3358 74.1967 62.5063 76.1683C62.7237 78.6824 62.6966 81.2123 62.9662 83.7223C63.2297 86.1812 64.189 88.3875 64.6033 90.8002C64.8717 92.3653 64.5589 93.9352 64.4568 95.4997C64.4016 96.3425 64.712 97.1572 64.7018 97.9959C64.6922 98.8033 64.4755 99.5928 64.4533 100.403H53.2665Z" fill="#4979A0"/>
<path d="M11.6925 100.337H23.1611C23.1413 98.1714 23.1131 95.9904 23.3058 93.8436C23.4679 92.0383 23.5651 90.2247 23.5165 88.4123C23.4763 86.9229 23.5946 85.413 23.5441 83.9128C23.4883 82.2348 23.1275 80.5659 23.0584 78.8808C23.0068 77.6242 22.7907 76.4085 22.5247 75.1797C22.2198 73.7701 22.239 72.3178 21.8536 70.9119C21.464 69.4921 21.0509 68.0807 20.7694 66.6267C20.5131 65.3042 20.3552 63.9702 20.0844 62.6542C19.4697 59.6712 22.118 56.6527 22.6054 53.6474C22.7471 52.7703 22.8083 51.898 23.0257 51.0311C23.4513 49.3352 24.2245 47.6813 25.5495 46.5022C26.0393 46.0663 26.71 45.8556 27.1884 45.4504C27.2328 45.2133 27.285 44.9773 27.3283 44.7372C27.3319 44.7192 27.3349 44.7006 27.3379 44.6826C26.7832 44.6201 26.1564 45.0026 25.6605 45.1995C24.4791 45.6695 23.2688 46.0646 22.0909 46.546C21.5488 46.7676 20.9983 47.0005 20.4682 47.2376C19.9507 47.4694 19.5371 47.874 19.0172 48.107C18.436 48.3675 17.8537 48.6251 17.2636 48.867C16.0089 49.3821 14.7404 49.8785 13.5643 50.5611C12.0034 51.4664 10.5362 52.3717 9.29349 53.7141C8.13243 54.9688 7.20852 56.6245 6.40587 58.1236C5.51616 59.7829 4.84501 61.6379 4.24346 63.4185C4.09818 63.8502 3.88447 64.2848 3.8004 64.7321C3.64251 65.5737 3.58546 66.4521 3.45823 67.3033C3.31417 68.2657 3.1839 69.2304 3.06382 70.1963C2.82068 72.1606 2.62316 74.1303 2.45266 76.1018C2.23532 78.616 2.26234 81.1459 1.99282 83.6559C1.72927 86.1148 0.769957 88.3211 0.355679 90.7338C0.087326 92.2989 0.400122 93.8688 0.502142 95.4333C0.557371 96.2761 0.246981 97.0908 0.257183 97.9295C0.266798 98.7369 0.483503 99.5264 0.505722 100.337H11.6925Z" fill="#407AA7"/>
<path fill-rule="evenodd" clip-rule="evenodd" d="M35.582 33.4537C35.7322 33.5181 35.8018 33.692 35.7374 33.8423C35.2287 35.0292 33.9019 35.5752 32.6356 35.5752C31.367 35.5752 30.0158 35.0292 29.4302 33.858C29.3571 33.7118 29.4164 33.5341 29.5626 33.461C29.7088 33.3879 29.8865 33.4472 29.9596 33.5933C30.4097 34.4936 31.4999 34.9834 32.6356 34.9834C33.7737 34.9834 34.8143 34.4936 35.1934 33.6091C35.2578 33.4589 35.4317 33.3893 35.582 33.4537Z" fill="black"/>
<path d="M19.2353 28.1037C19.1746 27.678 19.1266 27.2512 19.0762 26.8273C19.021 26.3645 18.9819 25.889 18.8385 25.4394C18.5497 24.5359 17.9914 23.7488 17.684 22.8526C17.54 22.4317 17.4577 22.0487 17.4637 21.6014C17.4709 21.1157 17.5351 20.6331 17.5771 20.1492C17.6468 19.3399 17.8161 18.5427 18.0052 17.7539C18.2543 16.7153 18.6284 15.6419 18.5161 14.5631C18.5029 14.4382 18.4867 14.314 18.4711 14.1891C18.3678 13.3751 18.6427 12.7717 19.015 12.0723C19.5895 10.9911 20.4462 9.9885 21.5448 9.41222C22.7521 8.77889 24.2265 8.56512 25.4878 8.01763C26.0299 7.78229 26.5511 7.49952 27.0481 7.17957C27.2516 7.04812 27.4065 6.87879 27.6208 6.76775C27.9438 6.60024 28.286 6.46398 28.618 6.32169C29.016 6.15119 29.4405 6.01792 29.8667 5.9417C31.1683 5.70935 32.5773 5.7892 33.8457 6.15359C35.0902 6.51077 36.3827 7.27261 36.6907 8.62698C36.77 8.97518 37.0305 8.94217 37.3469 8.94217C38.2817 8.72964 39.2848 8.94276 40.1163 9.39844C41.3265 10.0612 41.7354 11.2121 42.3867 12.3347C42.9648 13.3319 43.7741 14.1651 44.4825 15.0668C45.3836 16.2147 46.0698 17.5108 45.8465 19.0141C45.7426 19.7146 45.6352 20.372 45.6567 21.075C45.6784 21.79 45.3374 22.5999 45.1591 23.2855C45.0432 23.7291 45.0006 24.2106 44.8271 24.629C44.4111 25.6298 44.3432 26.6846 44.3907 27.7496C44.3937 27.827 44.3973 27.9045 44.4021 27.9825C44.4171 28.2359 44.3979 28.5799 44.3781 28.8368C44.3619 29.0445 44.3439 29.2354 44.273 29.4317C44.2124 29.5992 44.0719 29.8567 43.8678 29.8874C43.2008 29.9858 43.3287 28.0486 43.3185 27.692C43.2849 26.5147 43.0766 25.1982 42.3987 24.2016C42.047 23.6842 41.8309 23.0298 41.6867 22.4222C41.5264 21.7487 41.4844 21.1141 41.4851 20.4273C41.4862 19.3582 41.5637 18.2787 40.991 17.3068C40.4675 16.4183 39.3923 16.0257 38.4107 15.9524C38.1754 15.9344 38.0259 15.9494 37.7954 15.9356C36.2081 15.8402 34.6448 15.9494 33.1686 16.5696C32.7033 16.7653 32.1936 16.8451 31.6905 16.8355C30.3968 16.8121 29.1727 16.2952 27.9198 16.0323C27.3021 15.902 26.7174 15.872 26.0942 15.9146C25.4482 15.9591 24.8005 15.9993 24.2638 16.4123C23.7799 16.7845 23.4491 17.3212 23.2618 17.8964C23.1315 18.2944 23.0595 18.7098 23.0175 19.1253C22.9653 19.647 23.1159 20.1434 23.0727 20.6603C22.9977 21.5608 22.832 22.4247 22.3961 23.2244C22.2833 23.4327 22.2058 23.6554 22.1104 23.8715C22.024 24.0667 21.8937 24.2107 21.7772 24.3878C21.522 24.7763 21.2387 25.1532 21.0616 25.5867C20.6582 26.5754 20.9127 27.6585 20.9271 28.6874C20.9331 29.1083 20.9295 29.5657 20.6528 29.9115C20.367 30.2681 19.9852 30.1697 19.7126 29.8491C19.4281 29.5159 19.3968 29.0915 19.3248 28.679C19.2911 28.4873 19.2617 28.2958 19.2353 28.1037Z" fill="#4079AB"/>
<path d="M37.6233 44.7461C37.6263 44.7641 37.6293 44.7827 37.633 44.8007C37.6143 44.7893 37.5963 44.7917 37.5903 44.7503C37.6012 44.7485 37.6125 44.7473 37.6233 44.7461Z" fill="#8CC295"/>
<path d="M38.1178 26.6126C38.1904 26.9878 38.0692 27.3876 37.862 27.7004C37.6321 28.0474 37.1248 28.0924 36.7478 27.9886C35.9061 27.7581 35.6582 26.7585 36.2471 26.1335C36.5617 25.7992 37.0948 25.5614 37.5348 25.7943C37.8056 25.9378 38.0601 26.3155 38.1178 26.6126Z" fill="#1E244A"/>
<path d="M27.4851 44.8328C27.4851 44.795 27.4863 44.7578 27.4881 44.7205C27.5223 43.9659 27.5355 43.2083 27.4911 42.4536C27.4688 42.076 27.4322 41.6996 27.3764 41.3262C27.3524 41.1678 27.3013 41.0099 27.2731 40.8592C27.2473 40.7181 27.2863 40.5008 27.1885 40.3843L27.2581 40.2637C27.3482 40.3159 27.4388 40.3675 27.5301 40.4192C27.6171 40.5302 27.6993 40.6395 27.7774 40.7217C28.2157 41.1834 28.6179 41.6439 29.13 42.0305C29.8798 42.5966 30.6632 43.1651 31.5445 43.5079C32.5453 43.8975 33.6884 44.1743 34.7594 44.2602C35.7181 44.337 36.6144 44.0993 37.5407 44.0435C37.5503 44.1815 37.5635 44.319 37.5804 44.4553C37.5924 44.5531 37.6074 44.6492 37.6242 44.7453C37.6134 44.7464 37.602 44.7477 37.5912 44.7495C37.5971 44.7909 37.6151 44.7885 37.6338 44.7999C37.677 45.0401 37.7292 45.276 37.7737 45.5131C37.8337 45.8367 37.8781 46.1627 37.8601 46.5042C37.8271 47.1322 37.6524 47.7487 37.3727 48.3106C36.8186 49.4243 35.8491 50.3476 34.6856 50.7996C34.4563 50.8891 34.2293 50.9918 33.997 51.0728C33.5822 51.2181 33.1025 51.2757 32.6643 51.2523C32.2195 51.2289 31.7482 51.1406 31.3177 51.0259C30.6022 50.8356 30.0048 50.6399 29.3972 50.1939C28.4799 49.5209 27.7697 48.5375 27.4834 47.4305C27.3705 46.997 27.3633 46.6632 27.4485 46.2382C27.4882 46.0413 27.499 45.839 27.499 45.6349C27.4989 45.3671 27.4803 45.097 27.4851 44.8328Z" fill="#F0AEC9"/>
<path d="M39.1083 22.3934C39.2872 22.6845 39.1215 22.9973 38.7997 23.0448C38.4996 23.0898 38.2066 22.9589 37.9298 22.8629C37.8038 22.8185 37.6681 22.7662 37.5402 22.735C37.3818 22.696 37.2257 22.7458 37.066 22.741C36.6056 22.7266 36.1985 22.9037 35.7687 23.0406C35.6546 23.0766 35.5081 23.0898 35.3928 23.0237C34.999 22.7968 35.307 22.412 35.5441 22.2007C35.7098 22.053 35.8575 21.9623 36.0652 21.8837C36.3323 21.7829 36.6386 21.6724 36.9195 21.6292C37.1627 21.5914 37.416 21.574 37.661 21.601C38.1646 21.6562 38.8328 21.9467 39.1083 22.3934Z" fill="#1E244A"/>
<path d="M28.9344 22.3934C29.1139 22.6845 28.9476 22.9973 28.6258 23.0448C28.3256 23.0898 28.0333 22.9589 27.7565 22.8629C27.6304 22.8185 27.4948 22.7662 27.3669 22.735C27.2084 22.696 27.0523 22.7458 26.8921 22.741C26.4316 22.7266 26.0251 22.9037 25.5947 23.0406C25.4813 23.0766 25.3348 23.0898 25.2195 23.0237C24.8257 22.7968 25.1337 22.412 25.3708 22.2007C25.5365 22.053 25.6836 21.9623 25.8919 21.8837C26.159 21.7829 26.4652 21.6724 26.7455 21.6292C26.9893 21.5914 27.2426 21.574 27.487 21.601C27.9907 21.6562 28.6595 21.9467 28.9344 22.3934Z" fill="#1E244A"/>
<path d="M28.094 26.6126C28.1667 26.9878 28.0448 27.3876 27.8377 27.7004C27.6077 28.0474 27.1005 28.0924 26.7235 27.9886C25.8824 27.7581 25.6345 26.7585 26.2228 26.1335C26.538 25.7992 27.0704 25.5614 27.5105 25.7943C27.7812 25.9378 28.0364 26.3155 28.094 26.6126Z" fill="#1E244A"/>
<path d="M27.525 40.4207C27.4338 40.369 27.3431 40.3174 27.2531 40.2652C26.732 39.9662 26.2205 39.648 25.7192 39.2932C24.7317 38.5938 23.6739 37.7942 22.9451 36.8169C22.5134 36.2388 22.0668 35.6852 21.6153 35.1197C21.2137 34.6166 20.9544 34.0175 20.5654 33.506C20.1517 32.9609 19.6859 32.8744 19.1113 32.549C18.526 32.2171 17.9767 31.7632 17.5835 31.2145C17.4298 31.0008 17.2683 30.8405 17.1609 30.5973C17.0444 30.3344 16.9298 30.0781 16.8565 29.7989C16.7101 29.2406 16.7022 28.6397 16.9262 28.1C17.1105 27.6563 17.5667 27.3219 18.0446 27.2739C18.6822 27.2103 18.9013 27.672 19.2327 28.1078C19.2591 28.2999 19.2885 28.4914 19.3222 28.6829C19.3942 29.0953 19.4254 29.5198 19.71 29.853C19.9826 30.1736 20.3644 30.272 20.6501 29.9154C20.9269 29.5696 20.9305 29.1122 20.9245 28.6913C20.9101 27.6624 20.6555 26.5793 21.059 25.5906C21.2361 25.1571 21.5194 24.7801 21.7746 24.3917C21.891 24.2146 22.0213 24.0705 22.1078 23.8754C22.2032 23.6593 22.2807 23.4366 22.3935 23.2283C22.8294 22.4286 22.9951 21.5647 23.0701 20.6642C23.1133 20.1473 22.9626 19.6509 23.0149 19.1292C23.0569 18.7137 23.1289 18.2983 23.2592 17.9003C23.4465 17.3252 23.7773 16.7885 24.2611 16.4162C24.7978 16.0032 25.4456 15.9629 26.0916 15.9185C26.7147 15.8759 27.2994 15.9059 27.9172 16.0362C29.1701 16.2991 30.3942 16.816 31.6879 16.8394C32.191 16.849 32.7007 16.7692 33.1659 16.5735C34.6422 15.9533 36.2055 15.844 37.7928 15.9395C38.0233 15.9533 38.1728 15.9383 38.4081 15.9563C39.3896 16.0296 40.4648 16.4222 40.9884 17.3107C41.5611 18.2826 41.4836 19.362 41.4824 20.4312C41.4818 21.118 41.5238 21.7526 41.6841 22.4261C41.8282 23.0337 42.0443 23.688 42.3961 24.2055C43.0739 25.2021 43.2822 26.5186 43.3159 27.6958C43.3261 28.0524 43.1982 29.9898 43.8652 29.8913C44.0693 29.8607 44.2097 29.6031 44.2704 29.4356C44.3412 29.2393 44.3592 29.0484 44.3755 28.8407C44.3953 28.5837 44.4145 28.2398 44.3995 27.9864C44.3947 27.9084 44.3911 27.8309 44.388 27.7535L44.4192 27.7523C44.9847 26.9064 46.2034 27.344 46.5396 28.1527C46.7707 28.7098 46.7623 29.3299 46.6111 29.9063C46.5354 30.1944 46.4172 30.4592 46.2971 30.7306C46.1861 30.9821 46.0191 31.1472 45.8612 31.3681C45.4548 31.9342 44.8875 32.4031 44.283 32.7453C43.8375 32.998 43.3669 33.2015 42.9106 33.4333L42.8782 33.4188C42.3001 34.7384 41.5863 36.1059 40.7008 37.1745C40.008 38.0114 39.1633 38.8369 38.3787 39.5915C38.1499 39.8113 37.8948 40.0315 37.6186 40.2465C36.2781 41.2899 34.4566 42.197 32.897 42.2486L32.8958 42.2834C32.3135 42.2666 31.6921 42.1646 31.1237 42.0091C30.4183 41.8169 29.7267 41.5924 29.0801 41.2539C28.5528 40.9778 28.0341 40.7064 27.525 40.4207ZM38.8006 23.0445C39.1223 22.997 39.288 22.6842 39.1091 22.3931C38.8336 21.9464 38.1654 21.6559 37.6617 21.6006C37.4168 21.5736 37.1634 21.591 36.9203 21.6288C36.6393 21.672 36.3332 21.7825 36.066 21.8833C35.8583 21.962 35.7106 22.0527 35.5449 22.2003C35.3078 22.4116 34.9998 22.7965 35.3936 23.0234C35.5089 23.0894 35.6553 23.0762 35.7694 23.0402C36.1993 22.9033 36.6063 22.7262 37.0668 22.7406C37.2265 22.7454 37.3825 22.6956 37.541 22.7347C37.6689 22.7659 37.8046 22.8181 37.9306 22.8625C38.2075 22.9586 38.5004 23.0895 38.8006 23.0445ZM37.8563 27.6965C38.0634 27.3837 38.1847 26.9839 38.112 26.6087C38.0544 26.3115 37.7999 25.9339 37.5291 25.7904C37.0891 25.5575 36.556 25.7952 36.2414 26.1296C35.6525 26.7545 35.9004 27.7541 36.7421 27.9847C37.119 28.0885 37.6263 28.0435 37.8563 27.6965ZM35.2148 35.1172C35.65 34.6694 36.2317 33.928 35.964 33.2688C35.8157 32.9044 35.5006 32.7273 35.1343 32.6481C34.7363 32.5616 34.3539 32.7237 33.9631 32.7748C33.535 32.8306 33.1016 32.809 32.6712 32.8288C32.3422 32.8438 32.015 32.857 31.6848 32.8336C31.333 32.8084 30.9728 32.803 30.6222 32.767C30.2416 32.7273 29.7877 32.8384 29.5512 33.159C29.2654 33.5456 29.4665 34.1723 29.7211 34.5169C30.0465 34.9569 30.4763 35.3153 30.932 35.6149C31.4351 35.9457 31.9057 36.0778 32.4971 36.1546C33.5476 36.2903 34.492 35.8599 35.2148 35.1172ZM28.6261 23.0445C28.9478 22.997 29.1142 22.6842 28.9346 22.3931C28.6597 21.9464 27.9909 21.6559 27.4872 21.6006C27.2429 21.5736 26.9896 21.591 26.7458 21.6288C26.4654 21.672 26.1593 21.7825 25.8921 21.8833C25.6838 21.962 25.5367 22.0527 25.371 22.2003C25.1339 22.4116 24.8259 22.7965 25.2198 23.0234C25.335 23.0894 25.4815 23.0762 25.595 23.0402C26.0255 22.9033 26.4319 22.7262 26.8923 22.7406C27.0526 22.7454 27.2087 22.6956 27.3672 22.7347C27.495 22.7659 27.6307 22.8181 27.7568 22.8625C28.0335 22.9586 28.3259 23.0895 28.6261 23.0445ZM27.8391 27.6965C28.0462 27.3837 28.168 26.9839 28.0954 26.6087C28.0378 26.3115 27.7826 25.9339 27.5119 25.7904C27.0718 25.5575 26.5393 25.7952 26.2242 26.1296C25.6358 26.7545 25.8837 27.7541 26.7249 27.9847C27.1018 28.0885 27.6091 28.0435 27.8391 27.6965Z" fill="#F0AEC9"/>
<path d="M35.2148 35.1172C35.65 34.6694 36.2317 33.928 35.964 33.2688C35.8157 32.9044 35.5006 32.7273 35.1343 32.6481C34.7363 32.5616 34.3539 32.7237 33.9631 32.7748C33.535 32.8306 33.1016 32.809 32.6712 32.8288C32.3422 32.8438 32.015 32.857 31.6848 32.8336C31.333 32.8084 30.9728 32.803 30.6222 32.767C30.2416 32.7273 29.7877 32.8384 29.5512 33.159C29.2654 33.5456 29.4665 34.1723 29.7211 34.5169C30.0465 34.9569 30.4763 35.3153 30.932 35.6149C31.4351 35.9457 31.9057 36.0778 32.4971 36.1546C33.5476 36.2903 34.492 35.8599 35.2148 35.1172Z" fill="#F0AEC9"/>
<path d="M37.8563 27.6965C38.0634 27.3837 38.1847 26.9839 38.112 26.6087C38.0544 26.3115 37.7999 25.9339 37.5291 25.7904C37.0891 25.5575 36.556 25.7952 36.2414 26.1296C35.6525 26.7545 35.9004 27.7541 36.7421 27.9847C37.119 28.0885 37.6263 28.0435 37.8563 27.6965Z" fill="#F0AEC9"/>
<path d="M38.8006 23.0445C39.1223 22.997 39.288 22.6842 39.1091 22.3931C38.8336 21.9464 38.1654 21.6559 37.6617 21.6006C37.4168 21.5736 37.1634 21.591 36.9203 21.6288C36.6393 21.672 36.3332 21.7825 36.066 21.8833C35.8583 21.962 35.7106 22.0527 35.5449 22.2003C35.3078 22.4116 34.9998 22.7965 35.3936 23.0234C35.5089 23.0894 35.6553 23.0762 35.7694 23.0402C36.1993 22.9033 36.6063 22.7262 37.0668 22.7406C37.2265 22.7454 37.3825 22.6956 37.541 22.7347C37.6689 22.7659 37.8046 22.8181 37.9306 22.8625C38.2075 22.9586 38.5004 23.0895 38.8006 23.0445Z" fill="#F0AEC9"/>
<path d="M28.6261 23.0445C28.9478 22.997 29.1142 22.6842 28.9346 22.3931C28.6597 21.9464 27.9909 21.6559 27.4872 21.6006C27.2429 21.5736 26.9896 21.591 26.7458 21.6288C26.4654 21.672 26.1593 21.7825 25.8921 21.8833C25.6838 21.962 25.5367 22.0527 25.371 22.2003C25.1339 22.4116 24.8259 22.7965 25.2198 23.0234C25.335 23.0894 25.4815 23.0762 25.595 23.0402C26.0255 22.9033 26.4319 22.7262 26.8923 22.7406C27.0526 22.7454 27.2087 22.6956 27.3672 22.7347C27.495 22.7659 27.6307 22.8181 27.7568 22.8625C28.0335 22.9586 28.3259 23.0895 28.6261 23.0445Z" fill="#F0AEC9"/>
<path d="M27.8391 27.6965C28.0462 27.3837 28.168 26.9839 28.0954 26.6087C28.0378 26.3115 27.7826 25.9339 27.5119 25.7904C27.0718 25.5575 26.5393 25.7952 26.2242 26.1296C25.6358 26.7545 25.8837 27.7541 26.7249 27.9847C27.1018 28.0885 27.6091 28.0435 27.8391 27.6965Z" fill="#F0AEC9"/>
<path d="M42.3528 53.7126C42.2112 52.8355 42.1499 51.9633 41.9326 51.0964C41.5069 49.4004 40.7337 47.7465 39.4088 46.5674C38.9189 46.1315 38.2483 45.9208 37.7698 45.5156C37.8299 45.8392 37.8743 46.1652 37.8563 46.5068C37.8233 47.1347 37.6485 47.7513 37.3688 48.3132C36.8147 49.4268 35.8451 50.3501 34.6817 50.8022C34.4524 50.8916 34.2255 50.9942 33.9931 51.0753C33.5783 51.2206 33.0986 51.2782 32.6604 51.2548C32.2155 51.2314 31.7443 51.1432 31.3138 51.0285C30.5982 50.8382 30.0009 50.6425 29.3933 50.1964C28.476 49.5235 27.7658 48.5401 27.4794 47.4331C27.3666 46.9996 27.3594 46.6658 27.4446 46.2408C27.4842 46.0439 27.495 45.8416 27.495 45.6375C27.3545 45.7815 27.052 45.9508 26.8815 46.1045C25.8045 47.0771 25.2587 48.7382 24.7671 50.0631C23.8618 52.5005 23.6751 55.1035 23.6529 57.682C23.6306 60.3127 23.7945 62.9313 24.207 65.5362C24.4279 66.9326 24.7172 68.3187 25.0858 69.6839C25.9674 72.9497 27.2073 75.9733 27.7646 79.3187C28.5104 81.8642 28.9685 84.4941 29.1223 87.1422C29.1543 87.6929 29.1903 88.1986 29.3119 88.7302C29.4651 89.4005 29.4283 90.1664 29.4889 90.8523C29.6157 92.2895 29.7747 93.725 30.0164 95.1478C30.1169 95.7399 30.1035 96.3146 30.2928 96.8823C30.5095 97.5319 30.5128 98.3229 30.6074 99.0014C30.6719 99.4647 30.7357 99.9336 30.7706 100.402H32.9691H39.1338C39.1536 98.2366 39.1818 96.0556 38.9891 93.9088C38.827 92.1035 38.7297 90.2899 38.7783 88.4775C38.8186 86.9881 38.7003 85.4782 38.7507 83.978C38.8066 82.3 39.1674 80.6311 39.2364 78.946C39.2881 77.6895 39.5042 76.4738 39.7701 75.2449C40.0751 73.8353 40.0559 72.383 40.4413 70.9771C40.8309 69.5573 41.2439 68.1459 41.5255 66.6919C41.7818 65.3694 41.9397 64.0354 42.2105 62.7194C42.8253 59.7364 42.8403 56.7179 42.3528 53.7126Z" fill="#FFFBF2"/>
<path d="M34.155 15.3341C34.1169 15.3341 34.0788 15.3197 34.0495 15.2909C33.9906 15.2326 33.9899 15.1376 34.0481 15.0786C35.1401 13.9721 35.643 12.517 35.991 11.2396C36.0128 11.1596 36.0956 11.1125 36.1752 11.1342C36.2552 11.156 36.3024 11.2385 36.2806 11.3184C35.6423 13.6617 34.9019 14.6408 34.2618 15.2894C34.2324 15.3192 34.1937 15.3341 34.155 15.3341Z" fill="#2E577A"/>
<path d="M36.5613 15.3925C36.4992 15.3925 36.4412 15.3538 36.4196 15.292C36.3922 15.2137 36.4334 15.1281 36.5117 15.1008C37.3092 14.8216 38.0251 14.4066 38.6398 13.8673C38.7022 13.8127 38.7969 13.8189 38.8516 13.8812C38.9062 13.9434 38.9 14.0383 38.8378 14.0929C38.194 14.6577 37.4448 15.0921 36.6109 15.384C36.5944 15.3898 36.5777 15.3925 36.5613 15.3925Z" fill="#2E577A"/>
<path d="M29.6766 13.939C29.6075 13.939 29.5452 13.8909 29.5301 13.8205C29.1928 12.2582 28.3167 11.0762 27.1263 10.5776C27.0498 10.5455 27.0138 10.4576 27.0459 10.3812C27.0779 10.3047 27.166 10.2688 27.2423 10.3007C28.5244 10.8378 29.4653 12.0976 29.8235 13.7572C29.841 13.8383 29.7895 13.9181 29.7085 13.9356C29.6978 13.9379 29.6872 13.939 29.6766 13.939Z" fill="#2E577A"/>
<path d="M24.6228 13.8682C24.5981 13.8682 24.5731 13.8621 24.55 13.8492C23.6441 13.3453 22.7749 13.1474 21.9669 13.261C21.8845 13.2727 21.809 13.2154 21.7974 13.1333C21.7858 13.0512 21.843 12.9753 21.9251 12.9637C22.7994 12.841 23.7316 13.0505 24.6959 13.5869C24.7684 13.6272 24.7944 13.7186 24.7542 13.791C24.7266 13.8404 24.6755 13.8682 24.6228 13.8682Z" fill="#2E577A"/>
<path d="M19.6948 31.7188C19.6399 31.7188 19.5869 31.6885 19.5606 31.6359C19.483 31.4813 19.3354 31.3815 19.1792 31.2759C18.998 31.1534 18.7925 31.0144 18.6954 30.7711C18.5951 30.5197 18.664 30.2978 18.7248 30.102C18.7511 30.0171 18.776 29.937 18.7878 29.8566C18.7994 29.7768 18.7731 29.7048 18.7399 29.6135C18.7239 29.5697 18.7074 29.5245 18.6937 29.4744C18.6498 29.3137 18.6104 29.2182 18.5173 29.1419C18.2782 28.9459 18.0644 28.8491 17.9156 28.8692C17.8371 28.8798 17.7712 28.9243 17.7142 29.0053C17.6665 29.073 17.5728 29.0892 17.505 29.0414C17.4373 28.9936 17.4211 28.9 17.4689 28.8322C17.5752 28.6816 17.7119 28.5939 17.8753 28.5717C18.1147 28.5395 18.3945 28.653 18.7077 28.9098C18.8775 29.049 18.9369 29.2259 18.9832 29.3952C18.9936 29.4333 19.0074 29.4709 19.0218 29.5107C19.0619 29.6206 19.1073 29.7453 19.0848 29.9C19.0696 30.0036 19.04 30.0989 19.0114 30.191C18.9566 30.3677 18.9132 30.5072 18.9741 30.6598C19.0371 30.8175 19.1808 30.9147 19.3473 31.0272C19.5202 31.1441 19.7162 31.2766 19.8289 31.5014C19.866 31.5755 19.8361 31.6657 19.762 31.7028C19.7405 31.7137 19.7175 31.7188 19.6948 31.7188Z" fill="#CD85AD"/>
<path d="M43.944 31.901C43.9213 31.901 43.8983 31.8959 43.8768 31.885C43.8027 31.8479 43.7728 31.7577 43.8099 31.6836C43.9257 31.4526 44.1274 31.3162 44.3054 31.1959C44.4779 31.0792 44.627 30.9786 44.6925 30.8144C44.756 30.6552 44.7088 30.5032 44.6541 30.3271C44.6246 30.2322 44.5941 30.134 44.5786 30.0275C44.5554 29.8689 44.602 29.741 44.6432 29.628C44.6582 29.5869 44.6724 29.548 44.6833 29.5083C44.7308 29.3344 44.7919 29.1525 44.9662 29.0097C45.2883 28.7456 45.5763 28.6283 45.8217 28.6618C45.989 28.6845 46.1291 28.7743 46.238 28.9287C46.2858 28.9965 46.2696 29.0901 46.2018 29.1379C46.1342 29.1856 46.0405 29.1696 45.9927 29.1018C45.9329 29.017 45.8638 28.9704 45.7813 28.9592C45.6266 28.9385 45.4044 29.0386 45.1565 29.2419C45.0594 29.3215 45.0184 29.4207 44.9728 29.5876C44.9587 29.6392 44.9417 29.6858 44.9253 29.7309C44.8907 29.8257 44.8634 29.9006 44.8756 29.9842C44.8878 30.0675 44.9135 30.1504 44.9408 30.2381C45.0033 30.4396 45.0742 30.6678 44.9713 30.9257C44.8715 31.1756 44.6692 31.3124 44.4736 31.4446C44.3117 31.554 44.1588 31.6574 44.0782 31.8182C44.0519 31.8707 43.9989 31.901 43.944 31.901Z" fill="#CD85AD"/>
<path d="M53.2714 100.607C53.271 100.607 53.2705 100.607 53.2701 100.607C53.1872 100.606 53.1206 100.538 53.1214 100.456C53.1308 99.4244 53.0402 98.3599 52.9525 97.3304C52.8763 96.4363 52.7977 95.5118 52.7849 94.6139C52.7616 92.96 52.6779 91.2781 52.5969 89.6516C52.5678 89.0657 52.5376 88.4599 52.5108 87.8641C52.3515 84.337 52.1105 80.9824 51.7741 77.6085C51.4194 74.0523 51.1188 70.5735 51.334 67.1103C51.4896 64.6045 52.0416 61.9299 53.0214 58.9336C53.0472 58.8547 53.132 58.8118 53.2107 58.8375C53.2896 58.8633 53.3325 58.948 53.3067 59.0268C52.3349 61.9987 51.7877 64.6489 51.6336 67.1289C51.4199 70.5697 51.7194 74.0353 52.0728 77.5787C52.4099 80.9581 52.6512 84.318 52.8106 87.8506C52.8375 88.4458 52.8676 89.0512 52.8967 89.6367C52.9778 91.2658 53.0616 92.9504 53.0851 94.6097C53.0976 95.497 53.1759 96.4161 53.2515 97.305C53.3398 98.3414 53.431 99.4131 53.4215 100.458C53.4207 100.541 53.3537 100.607 53.2714 100.607Z" fill="#2E5378"/>
<path d="M53.8679 57.9388C53.849 57.9388 53.8297 57.9352 53.8111 57.9276C53.7344 57.8963 53.6976 57.8086 53.7289 57.7319C53.9727 57.135 54.3187 56.5905 54.6534 56.0639C54.8799 55.7075 55.1141 55.339 55.3095 54.9636C55.3477 54.89 55.4385 54.8616 55.5118 54.8998C55.5854 54.938 55.614 55.0287 55.5757 55.1022C55.3744 55.489 55.1366 55.8631 54.9067 56.2248C54.5792 56.7403 54.2404 57.2733 54.0069 57.8454C53.9831 57.9036 53.927 57.9388 53.8679 57.9388Z" fill="#2E5378"/>
<path d="M14.251 100.168C14.2514 100.168 14.2519 100.168 14.2524 100.168C14.3353 100.167 14.4019 100.099 14.4011 100.016C14.3917 98.9849 14.4823 97.9204 14.57 96.8909C14.6461 95.9969 14.7247 95.0723 14.7375 94.1745C14.7609 92.5206 14.8446 90.8387 14.9255 89.2122C14.9547 88.6263 14.9848 88.0205 15.0117 87.4247C15.1709 83.8976 15.4119 80.5429 15.7484 77.1691C16.1031 73.6129 16.4037 70.134 16.1885 66.6708C16.0329 64.1651 15.4809 61.4905 14.5011 58.4941C14.4753 58.4152 14.3904 58.3724 14.3117 58.3981C14.2329 58.4238 14.19 58.5086 14.2157 58.5874C15.1875 61.5592 15.7348 64.2094 15.8888 66.6894C16.1026 70.1303 15.8031 73.5958 15.4496 77.1393C15.1126 80.5187 14.8713 83.8786 14.7118 87.4111C14.685 88.0063 14.6548 88.6118 14.6257 89.1972C14.5446 90.8264 14.4609 92.511 14.4374 94.1702C14.4248 95.0575 14.3466 95.9766 14.2709 96.8656C14.1827 97.902 14.0915 98.9737 14.1009 100.019C14.1017 100.101 14.1688 100.168 14.251 100.168Z" fill="#2E5378"/>
<path d="M13.6512 57.4915C13.6701 57.4915 13.6893 57.4879 13.7079 57.4804C13.7847 57.449 13.8214 57.3614 13.7901 57.2847C13.5464 56.6878 13.2003 56.1432 12.8656 55.6166C12.6391 55.2602 12.4049 54.8917 12.2096 54.5164C12.1713 54.4428 12.0805 54.4143 12.0072 54.4525C11.9336 54.4908 11.9051 54.5814 11.9434 54.6549C12.1447 55.0417 12.3824 55.4159 12.6123 55.7776C12.9399 56.293 13.2786 56.826 13.5122 57.3981C13.5359 57.4563 13.592 57.4915 13.6512 57.4915Z" fill="#2E5378"/>
<path d="M28.8893 55.91L32.2359 60.8262L27.5269 97.8704L33.7019 103.942L38.4109 96.825L34.4334 60.4087L37.7831 55.3857L32.8637 51.4082L28.8893 55.91Z" fill="#4979A0" stroke="#264054" stroke-width="0.313934" stroke-linecap="round" stroke-linejoin="round"/>
</g>
<defs>
<clipPath id="clip0_20760_14222">
<rect width="65.25" height="65.25" fill="white" transform="translate(0.25 0.375)"/>
</clipPath>
</defs>
</svg>
