<svg width="29" height="29" viewBox="0 0 29 29" fill="none" xmlns="http://www.w3.org/2000/svg">
<path d="M16.4218 3.30888C15.8493 3.22251 15.2632 3.17773 14.6667 3.17773C8.22334 3.17773 3 8.40108 3 14.8444C3 21.2877 8.22334 26.5111 14.6667 26.5111C21.1099 26.5111 26.3333 21.2877 26.3333 14.8444C26.3333 14.3326 26.3004 13.8285 26.2365 13.3341" stroke="#36BFFA" stroke-width="2" stroke-linecap="round" stroke-linejoin="round"/>
<path d="M18.167 12.5098C18.167 14.4428 16.6 16.0098 14.667 16.0098C12.7339 16.0098 11.167 14.4428 11.167 12.5098C11.167 10.5768 12.7339 9.00977 14.667 9.00977C16.6 9.00977 18.167 10.5768 18.167 12.5098Z" stroke="#36BFFA" stroke-width="2" stroke-linecap="round" stroke-linejoin="round"/>
<path d="M7.08398 23.5931L7.73778 22.4489C8.77636 20.6315 10.7092 19.5098 12.8026 19.5098H16.5321C18.6254 19.5098 20.5582 20.6315 21.5968 22.4489L22.2506 23.5931" stroke="#36BFFA" stroke-width="2" stroke-linecap="round" stroke-linejoin="round"/>
<path d="M18.873 6.45526H27.2172M27.2172 6.45526L23.0451 2.2832M27.2172 6.45526L23.0451 10.6273" stroke="#36BFFA" stroke-width="2" stroke-linecap="round" stroke-linejoin="round"/>
</svg>
