<svg width="296" height="221" viewBox="0 0 296 221" fill="none" xmlns="http://www.w3.org/2000/svg">
<path d="M295.626 193.733H0.371094V193.881H295.626V193.733Z" fill="#EBEBEB"/>
<path d="M50.9053 199.354H31.3477V199.502H50.9053V199.354Z" fill="#EBEBEB"/>
<path d="M106.561 197.755H101.43V197.903H106.561V197.755Z" fill="#EBEBEB"/>
<path d="M62.828 204.841H51.4961V204.988H62.828V204.841Z" fill="#EBEBEB"/>
<path d="M266.043 203.849H240.539V203.996H266.043V203.849Z" fill="#EBEBEB"/>
<path d="M235.277 203.849H231.539V203.996H235.277V203.849Z" fill="#EBEBEB"/>
<path d="M219.385 201.356H164.066V201.504H219.385V201.356Z" fill="#EBEBEB"/>
<path d="M140.321 167.396H26.3054C25.4111 167.396 24.5535 167.041 23.9212 166.409C23.2888 165.776 22.9336 164.919 22.9336 164.025V3.74267C22.9414 2.85354 23.3001 2.00347 23.9316 1.37751C24.563 0.751544 25.4162 0.400357 26.3054 0.400391H140.321C141.215 0.400391 142.073 0.755634 142.705 1.38797C143.337 2.02031 143.693 2.87794 143.693 3.7722V164.025C143.693 164.919 143.337 165.776 142.705 166.409C142.073 167.041 141.215 167.396 140.321 167.396ZM26.3054 0.518493C25.4508 0.520054 24.6316 0.860244 24.0273 1.46456C23.423 2.06887 23.0828 2.88805 23.0812 3.74267V164.025C23.0828 164.879 23.423 165.698 24.0273 166.303C24.6316 166.907 25.4508 167.247 26.3054 167.249H140.321C141.176 167.247 141.995 166.907 142.599 166.303C143.203 165.698 143.544 164.879 143.545 164.025V3.74267C143.544 2.88805 143.203 2.06887 142.599 1.46456C141.995 0.860244 141.176 0.520054 140.321 0.518493H26.3054Z" fill="#EBEBEB"/>
<path d="M268.055 167.396H154.028C153.134 167.395 152.278 167.039 151.646 166.407C151.014 165.775 150.658 164.918 150.656 164.025V3.74267C150.666 2.85402 151.025 2.00485 151.656 1.37921C152.287 0.753579 153.139 0.401895 154.028 0.400391H268.055C268.942 0.403464 269.793 0.756024 270.422 1.38166C271.051 2.00729 271.408 2.85558 271.415 3.74267V164.025C271.415 164.917 271.062 165.773 270.432 166.405C269.802 167.037 268.948 167.393 268.055 167.396ZM154.028 0.518493C153.173 0.520054 152.354 0.860244 151.75 1.46456C151.146 2.06887 150.805 2.88805 150.804 3.74267V164.025C150.805 164.879 151.146 165.698 151.75 166.303C152.354 166.907 153.173 167.247 154.028 167.249H268.055C268.91 167.247 269.729 166.907 270.333 166.303C270.938 165.698 271.278 164.879 271.28 164.025V3.74267C271.278 2.88805 270.938 2.06887 270.333 1.46456C269.729 0.860244 268.91 0.520054 268.055 0.518493H154.028Z" fill="#EBEBEB"/>
<path d="M150.518 11.4316H36.6211V138.385H150.518V11.4316Z" fill="#EBEBEB"/>
<path d="M154.217 11.4316H38.3477V138.385H154.217V11.4316Z" fill="#F5F5F5"/>
<path d="M150.518 138.385H36.6211V145.264H150.518V138.385Z" fill="#EBEBEB"/>
<path d="M171.803 138.385H55.9336V145.264H171.803V138.385Z" fill="#F0F0F0"/>
<path d="M149.039 133.2V16.6104L43.5328 16.6104L43.5328 133.2H149.039Z" fill="#FAFAFA"/>
<path d="M47.8203 133.2L78.2433 16.6104H92.6045L62.1815 133.2H47.8203Z" fill="white"/>
<path d="M45.9345 83.662C45.8359 83.662 45.7412 83.6228 45.6715 83.553C45.6017 83.4833 45.5625 83.3886 45.5625 83.29V19.9815C45.5739 19.8916 45.6177 19.809 45.6856 19.7492C45.7536 19.6893 45.841 19.6562 45.9316 19.6562C46.0221 19.6562 46.1096 19.6893 46.1775 19.7492C46.2455 19.809 46.2892 19.8916 46.3006 19.9815V83.2663C46.3038 83.3167 46.2968 83.3671 46.2799 83.4146C46.263 83.4621 46.2367 83.5057 46.2024 83.5427C46.1682 83.5797 46.1268 83.6093 46.0807 83.6298C46.0347 83.6504 45.9849 83.6613 45.9345 83.662Z" fill="#F1F1F1"/>
<path d="M65.2617 133.2L95.6848 16.6104H101.283L70.8656 133.2H65.2617Z" fill="white"/>
<path d="M149.043 133.206V16.6162H148.388V133.206H149.043Z" fill="#EBEBEB"/>
<path d="M155.446 22.2084H41.5486L41.0703 18.624H154.974L155.446 22.2084Z" fill="#EBEBEB"/>
<path d="M155.446 24.8363H41.5486L41.0703 21.252H154.974L155.446 24.8363Z" fill="#EBEBEB"/>
<path d="M155.446 27.9838H41.5486L41.0703 24.3994H154.974L155.446 27.9838Z" fill="#EBEBEB"/>
<path d="M155.446 31.4848H41.5486L41.0703 27.9004H154.974L155.446 31.4848Z" fill="#EBEBEB"/>
<path d="M155.446 35.683H41.5486L41.0703 32.0986H154.974L155.446 35.683Z" fill="#EBEBEB"/>
<path d="M155.446 40.4076H41.5486L41.0703 36.8232H154.974L155.446 40.4076Z" fill="#EBEBEB"/>
<path d="M46.2344 130.454H58.9658V131.712H58.1568L57.4954 138.385H47.6988L47.0375 131.712H46.2344V130.454Z" fill="#EBEBEB"/>
<path d="M45.2992 118.768C45.1339 118.213 44.9863 117.652 44.8445 117.091C44.0119 118.171 43.2029 118.443 42.6006 118.443H42.4057C41.2247 118.325 40.0437 117.167 39.341 115.343C39.3248 115.31 39.3164 115.273 39.3164 115.236C39.3164 115.2 39.3248 115.163 39.341 115.13C39.3566 115.097 39.3797 115.068 39.4084 115.046C39.4371 115.023 39.4706 115.008 39.5063 115C40.3629 114.782 41.2559 114.747 42.127 114.898C42.998 115.048 43.8274 115.381 44.5611 115.874C44.4489 115.343 44.3603 114.811 44.2835 114.28C44.089 114.318 43.8913 114.337 43.693 114.339C41.7444 114.339 40.3094 112.597 40.2445 112.514C40.2195 112.482 40.2023 112.445 40.1941 112.406C40.1859 112.367 40.1871 112.326 40.1974 112.287C40.2077 112.248 40.2269 112.212 40.2535 112.182C40.2801 112.151 40.3134 112.128 40.3508 112.113C40.8054 111.882 41.3046 111.751 41.8141 111.731C42.3237 111.711 42.8317 111.8 43.3033 111.994C43.8139 112.251 44.2282 112.665 44.4843 113.175C44.8507 112.057 45.5178 111.061 46.4125 110.297C47.3072 109.532 48.395 109.029 49.5568 108.841C49.5929 108.832 49.6306 108.832 49.667 108.839C49.7034 108.847 49.7376 108.863 49.7671 108.885C49.7966 108.908 49.8206 108.937 49.8373 108.97C49.8541 109.004 49.8632 109.04 49.8639 109.077C49.9642 110.849 49.9111 113.016 48.5825 114.049C48.0296 114.457 47.3553 114.665 46.6692 114.64C46.0532 114.625 45.4418 114.53 44.8504 114.356C45.0403 115.634 45.3125 116.899 45.6653 118.142C46.9631 116.377 48.8026 115.085 50.9032 114.463C50.9689 114.446 51.0384 114.456 51.0968 114.491C51.1553 114.525 51.1981 114.581 51.2161 114.646C51.6177 116.169 51.411 117.409 50.6256 118.224C50.2273 118.584 49.7605 118.86 49.2533 119.035C48.746 119.211 48.2086 119.283 47.6731 119.246C47.0958 119.239 46.5205 119.178 45.9547 119.063C46.2795 120.108 46.6456 121.13 47.0353 122.104C47.8325 121.401 50.1709 119.612 52.716 120.362C52.7511 120.371 52.7836 120.388 52.8112 120.412C52.8388 120.435 52.8607 120.465 52.8755 120.498C52.8899 120.53 52.8974 120.566 52.8974 120.601C52.8974 120.637 52.8899 120.672 52.8755 120.704C52.1846 122.393 51.3992 123.326 50.4071 123.657C50.1436 123.741 49.8687 123.783 49.5922 123.781C48.8428 123.745 48.1124 123.532 47.4605 123.161C48.0156 124.448 48.5884 125.659 49.1434 126.734C49.7339 126.09 51.3756 124.755 54.275 125.375C54.3359 125.388 54.39 125.423 54.4271 125.473C54.4641 125.523 54.4814 125.585 54.4757 125.647C54.4114 126.188 54.2064 126.703 53.881 127.14C53.5557 127.578 53.1214 127.922 52.6215 128.139C52.2485 128.299 51.8466 128.382 51.4405 128.381C50.8681 128.372 50.3058 128.228 49.7989 127.962C51.0862 130.324 52.1137 131.836 52.1609 131.871C52.1883 131.927 52.1946 131.991 52.1785 132.052C52.1625 132.112 52.1252 132.165 52.0736 132.2C52.022 132.235 51.9594 132.25 51.8974 132.243C51.8353 132.236 51.778 132.206 51.7358 132.16C50.7123 130.611 49.7721 129.009 48.919 127.359C48.9008 127.337 48.8868 127.311 48.8777 127.283C48.7065 126.958 48.5411 126.627 48.3699 126.285C48.0779 126.725 47.6848 127.088 47.2235 127.345C46.7622 127.602 46.2462 127.744 45.7185 127.761C45.6103 127.767 45.5019 127.767 45.3937 127.761C44.8104 127.694 44.2569 127.467 43.7943 127.106C43.3317 126.744 42.9779 126.262 42.7718 125.712C42.7506 125.655 42.7509 125.593 42.7727 125.536C42.7944 125.479 42.8361 125.433 42.8899 125.405C43.64 124.982 44.4801 124.743 45.3406 124.709C46.2012 124.675 47.0574 124.847 47.8384 125.21C47.4723 124.425 47.1003 123.592 46.746 122.724C46.7261 122.691 46.7122 122.655 46.7046 122.618C46.6042 122.37 46.5039 122.122 46.4094 121.874C45.559 122.948 44.7087 123.474 43.8289 123.474C42.7541 123.474 41.6735 122.683 40.5161 121.059C40.4763 121.005 40.4596 120.937 40.4695 120.871C40.4795 120.804 40.5153 120.744 40.5692 120.704C42.388 119.34 44.8859 120.273 46.0196 120.817C45.7893 120.179 45.5709 119.523 45.3701 118.856L45.2992 118.768Z" fill="#EBEBEB"/>
<path d="M58.6383 125.636C58.2328 125.761 57.811 125.827 57.3865 125.831C56.8651 125.837 56.3493 125.723 55.879 125.498C55.4087 125.273 54.9966 124.943 54.6745 124.533C54.3525 124.123 54.1292 123.644 54.0219 123.134C53.9146 122.624 53.9263 122.096 54.056 121.591C54.0701 121.532 54.1059 121.48 54.1562 121.446C54.2065 121.412 54.2677 121.399 54.3276 121.408C55.3217 121.506 56.2777 121.842 57.1151 122.386C57.9526 122.931 58.6471 123.669 59.1403 124.537C59.7308 123.25 60.2681 121.886 60.7524 120.469C60.1332 120.822 59.4392 121.025 58.7269 121.059C58.4458 121.06 58.1664 121.014 57.9002 120.923C56.4948 120.445 55.6504 118.727 54.9477 116.937C54.933 116.904 54.9255 116.868 54.9255 116.831C54.9255 116.795 54.933 116.758 54.9477 116.725C54.9627 116.693 54.9849 116.664 55.0125 116.642C55.0401 116.619 55.0725 116.603 55.1071 116.595C57.9947 115.792 60.3331 118.55 61.0594 119.548C61.4412 118.359 61.7586 117.151 62.0101 115.928C61.4084 116.041 60.7978 116.101 60.1855 116.105C59.5754 116.148 58.9629 116.065 58.3859 115.862C57.809 115.659 57.2799 115.34 56.8314 114.924C55.9692 114.009 55.7626 112.639 56.2409 110.962C56.2491 110.929 56.2638 110.898 56.2841 110.871C56.3043 110.844 56.3298 110.821 56.3589 110.804C56.3881 110.787 56.4203 110.776 56.4538 110.772C56.4873 110.767 56.5213 110.77 56.5538 110.778C58.8418 111.502 60.8305 112.953 62.2168 114.912L62.3231 114.257C62.3306 114.201 62.3554 114.149 62.394 114.109C62.5102 113.692 62.7106 113.304 62.9828 112.968C63.255 112.632 63.5932 112.355 63.9765 112.154C64.8328 111.747 65.9134 111.806 67.183 112.326C67.2208 112.341 67.2545 112.365 67.2812 112.396C67.3079 112.427 67.3269 112.464 67.3367 112.504C67.3465 112.544 67.3467 112.585 67.3375 112.625C67.3282 112.665 67.3097 112.702 67.2834 112.733C67.2066 112.822 65.6359 114.682 63.5159 114.682C63.2899 114.678 63.0646 114.654 62.8428 114.611C62.7483 115.201 62.6361 115.827 62.5003 116.43C63.3162 115.891 64.2372 115.532 65.2022 115.377C66.1673 115.221 67.1544 115.272 68.0983 115.526C68.1336 115.536 68.1665 115.553 68.1947 115.577C68.223 115.6 68.2459 115.629 68.2621 115.662C68.2783 115.695 68.2873 115.731 68.2886 115.767C68.2899 115.804 68.2834 115.841 68.2695 115.875C67.4428 117.87 66.1732 119.122 64.8564 119.235H64.6793C64.012 119.235 63.1144 118.927 62.1991 117.699C61.8322 119.098 61.3947 120.478 60.8882 121.833C62.1283 121.242 64.9155 120.233 66.9055 121.774C66.9572 121.816 66.9909 121.876 66.9997 121.941C67.0085 122.007 66.9917 122.074 66.9527 122.128C65.6713 123.9 64.4785 124.732 63.3152 124.732C62.3467 124.732 61.4196 124.142 60.4984 122.919C59.967 124.242 59.4001 125.5 58.8332 126.663C60.0674 125.895 61.4315 126.014 63.0376 127.029C63.0724 127.052 63.1012 127.082 63.1217 127.118C63.1423 127.154 63.1539 127.195 63.1557 127.236C63.1567 127.278 63.1475 127.32 63.129 127.358C63.1105 127.396 63.0833 127.429 63.0494 127.454C62.0801 128.111 60.9478 128.487 59.778 128.541C59.1706 128.551 58.5755 128.369 58.0774 128.021C56.9818 130.148 55.7592 132.207 54.4162 134.186C54.3897 134.224 54.3544 134.255 54.3132 134.277C54.2721 134.299 54.2264 134.31 54.18 134.31C54.1226 134.31 54.0668 134.291 54.0206 134.257C53.9899 134.236 53.9636 134.209 53.9434 134.177C53.9232 134.146 53.9095 134.111 53.9029 134.074C53.8963 134.037 53.897 134 53.9051 133.963C53.9131 133.927 53.9283 133.892 53.9497 133.861C55.7226 131.245 57.2902 128.495 58.6383 125.636Z" fill="#EBEBEB"/>
<path d="M252.767 56.8535H226.047V86.1959H252.767V56.8535Z" fill="#EBEBEB"/>
<path d="M249.992 58.7249C249.967 58.7326 249.94 58.7326 249.915 58.7249C249.844 58.6835 242.717 54.4437 240.467 54.4437C238.217 54.4437 231.397 58.6835 231.332 58.7249C231.298 58.7451 231.257 58.7515 231.219 58.7427C231.18 58.7339 231.147 58.7106 231.125 58.6776C231.114 58.6615 231.107 58.6434 231.104 58.6244C231.1 58.6054 231.101 58.5859 231.105 58.5671C231.11 58.5483 231.118 58.5306 231.129 58.515C231.141 58.4995 231.156 58.4865 231.172 58.4769C231.456 58.2997 238.117 54.1484 240.467 54.1484C242.817 54.1484 249.791 58.282 250.086 58.471C250.119 58.4927 250.143 58.5264 250.151 58.5648C250.16 58.6033 250.154 58.6437 250.134 58.6776C250.117 58.6979 250.094 58.7131 250.069 58.7214C250.044 58.7298 250.017 58.731 249.992 58.7249Z" fill="#EBEBEB"/>
<path d="M255.659 56.8535H228.059V86.1959H255.659V56.8535Z" fill="#F5F5F5"/>
<path d="M253.352 83.8867V59.168H230.375V83.8867H253.352Z" fill="white"/>
<path d="M242.481 74.5098C242.112 74.5118 241.744 74.5534 241.383 74.6338C241.475 74.3172 241.523 73.9892 241.525 73.6595C241.526 72.8598 241.243 72.0858 240.728 71.4746C240.985 71.5569 241.254 71.6007 241.525 71.6045C242.167 71.6108 242.793 71.3998 243.3 71.0056C243.807 70.6114 244.166 70.0572 244.318 69.4332C244.47 68.8092 244.407 68.1521 244.139 67.5686C243.87 66.9851 243.412 66.5096 242.839 66.2193C242.266 65.929 241.612 65.8411 240.983 65.9699C240.353 66.0986 239.786 66.4364 239.373 66.9283C238.96 67.4202 238.726 68.0374 238.708 68.6795C238.69 69.3215 238.89 69.9507 239.275 70.4648C238.81 70.2951 238.314 70.2289 237.821 70.2706C237.328 70.3124 236.85 70.4612 236.421 70.7067C235.991 70.9521 235.62 71.2883 235.334 71.6918C235.048 72.0953 234.853 72.5564 234.763 73.0429C234.674 73.5295 234.691 74.0297 234.815 74.5088C234.938 74.9878 235.165 75.4342 235.478 75.8167C235.792 76.1992 236.185 76.5087 236.631 76.7236C237.077 76.9385 237.564 77.0535 238.059 77.0608C237.601 77.8394 237.36 78.7264 237.362 79.6295C237.362 80.6421 237.662 81.6319 238.225 82.4739C238.787 83.3158 239.587 83.972 240.522 84.3595C241.458 84.747 242.487 84.8484 243.48 84.6508C244.473 84.4533 245.386 83.9657 246.102 83.2497C246.818 82.5337 247.305 81.6214 247.503 80.6283C247.7 79.6352 247.599 78.6058 247.211 77.6703C246.824 76.7348 246.168 75.9352 245.326 75.3726C244.484 74.8101 243.494 74.5098 242.481 74.5098Z" fill="#F5F5F5"/>
<path d="M237.532 63.5374C237.533 64.0947 237.369 64.6399 237.06 65.1039C236.751 65.5679 236.312 65.9298 235.797 66.1439C235.283 66.358 234.716 66.4146 234.169 66.3066C233.622 66.1986 233.12 65.9308 232.726 65.5371C232.331 65.1434 232.062 64.6415 231.953 64.095C231.844 63.5484 231.899 62.9818 232.112 62.4667C232.325 61.9517 232.686 61.5114 233.15 61.2017C233.613 60.8919 234.158 60.7266 234.715 60.7266C235.461 60.7281 236.175 61.0246 236.703 61.5512C237.231 62.0778 237.529 62.7918 237.532 63.5374Z" fill="#F5F5F5"/>
<path d="M216.574 29.0166H186.375V62.1737H216.574V29.0166Z" fill="#EBEBEB"/>
<path d="M212.847 30.3753C212.822 30.3813 212.795 30.3813 212.77 30.3753C212.699 30.3281 205.566 26.0882 203.322 26.0882C201.078 26.0882 194.258 30.3281 194.193 30.3694C194.176 30.3802 194.158 30.3875 194.138 30.391C194.119 30.3944 194.099 30.394 194.079 30.3895C194.06 30.3851 194.042 30.3769 194.026 30.3653C194.01 30.3538 193.996 30.3391 193.986 30.3222C193.966 30.2892 193.96 30.2497 193.969 30.2122C193.978 30.1747 194.001 30.1421 194.033 30.1214C194.317 29.9442 200.972 25.793 203.322 25.793C205.672 25.793 212.652 29.9265 212.947 30.1214C212.964 30.1311 212.979 30.1441 212.99 30.1596C213.002 30.1751 213.01 30.1928 213.014 30.2116C213.019 30.2304 213.019 30.2499 213.016 30.2689C213.012 30.2879 213.005 30.3061 212.995 30.3222C212.978 30.3446 212.955 30.3616 212.929 30.371C212.902 30.3805 212.874 30.382 212.847 30.3753Z" fill="#EBEBEB"/>
<path d="M219.839 29.0166H188.648V62.1737H219.839V29.0166Z" fill="#F5F5F5"/>
<path d="M217.23 59.558V31.627H191.266V59.558H217.23Z" fill="white"/>
<path d="M194.98 34.709H194.525C194.006 34.709 193.586 35.1294 193.586 35.6479V60.3194C193.586 60.8379 194.006 61.2583 194.525 61.2583H194.98C195.498 61.2583 195.918 60.8379 195.918 60.3194V35.6479C195.918 35.1294 195.498 34.709 194.98 34.709Z" fill="#F5F5F5"/>
<path d="M202.532 47.9839H200.884H200.719V42.8051C200.719 42.5561 200.62 42.3173 200.444 42.1412C200.268 41.9651 200.029 41.8662 199.78 41.8662H198.138C197.889 41.8662 197.65 41.9651 197.474 42.1412C197.298 42.3173 197.199 42.5561 197.199 42.8051V60.3019C197.199 60.5509 197.298 60.7897 197.474 60.9658C197.65 61.1419 197.889 61.2408 198.138 61.2408H199.78C199.98 61.2417 200.175 61.1774 200.335 61.0578C200.492 61.1782 200.686 61.2426 200.884 61.2408H202.532C202.781 61.2408 203.019 61.1419 203.195 60.9658C203.372 60.7897 203.47 60.5509 203.47 60.3019V48.9228C203.47 48.7995 203.446 48.6774 203.399 48.5635C203.352 48.4496 203.283 48.3461 203.195 48.2589C203.108 48.1717 203.005 48.1025 202.891 48.0554C202.777 48.0082 202.655 47.9839 202.532 47.9839Z" fill="#F5F5F5"/>
<path d="M211.556 40.9395H205.474C204.956 40.9395 204.535 41.3598 204.535 41.8784V60.3141C204.535 60.8326 204.956 61.253 205.474 61.253H211.556C212.075 61.253 212.495 60.8326 212.495 60.3141V41.8784C212.495 41.3598 212.075 40.9395 211.556 40.9395Z" fill="#F5F5F5"/>
<path d="M213.012 38.7184C214.601 38.7184 215.888 37.4308 215.888 35.8426C215.888 34.2543 214.601 32.9668 213.012 32.9668C211.424 32.9668 210.137 34.2543 210.137 35.8426C210.137 37.4308 211.424 38.7184 213.012 38.7184Z" fill="#F5F5F5"/>
<path d="M108.516 130.413C108.516 134.812 113.275 138.385 119.145 138.385C125.014 138.385 129.774 134.812 129.774 130.413H108.516Z" fill="#EBEBEB"/>
<path d="M147.998 220.4C211.231 220.4 262.492 217.408 262.492 213.716C262.492 210.024 211.231 207.031 147.998 207.031C84.7645 207.031 33.5039 210.024 33.5039 213.716C33.5039 217.408 84.7645 220.4 147.998 220.4Z" fill="#F5F5F5"/>
<path d="M170.698 214.371C176.591 214.371 181.368 214.077 181.368 213.715C181.368 213.353 176.591 213.06 170.698 213.06C164.805 213.06 160.027 213.353 160.027 213.715C160.027 214.077 164.805 214.371 170.698 214.371Z" fill="#E6E6E6"/>
<path d="M98.215 198.214H191.498C200.577 198.214 207.938 190.854 207.938 181.774V129.053C207.938 119.974 200.577 112.614 191.498 112.614L98.215 112.614C89.1356 112.614 81.7752 119.974 81.7752 129.053L81.7752 181.774C81.7752 190.854 89.1356 198.214 98.215 198.214Z" fill="#D0D5DD"/>
<path d="M175.229 213.715H166.401L148.461 171.21H161.972L175.229 213.715Z" fill="#98A2B3"/>
<path d="M210.591 151.08H210V155.414H210.591V151.08Z" fill="#C63C92"/>
<path opacity="0.2" d="M210.591 151.08H210V155.414H210.591V151.08Z" fill="black"/>
<path d="M210.591 132.604H210V148.122H210.591V132.604Z" fill="#C63C92"/>
<path opacity="0.2" d="M210.591 132.604H210V148.122H210.591V132.604Z" fill="black"/>
<path d="M135.566 109.957H127.559V110.548H135.566V109.957Z" fill="#D95BB0"/>
<path opacity="0.2" d="M135.566 109.957H127.559V110.548H135.566V109.957Z" fill="black"/>
<path d="M199.52 171.21L175.209 213.715L157.27 171.21H199.52Z" fill="#D95BB0"/>
<path opacity="0.2" d="M199.524 171.21L175.213 213.715L157.273 171.21H199.524Z" fill="black" fill-opacity="0.8"/>
<path d="M105.634 198.214H191.494C200.573 198.214 207.934 190.854 207.934 181.774V129.053C207.934 119.974 200.573 112.614 191.494 112.614L105.634 112.614C96.5544 112.614 89.194 119.974 89.194 129.053L89.194 181.774C89.194 190.854 96.5544 198.214 105.634 198.214Z" fill="#D95BB0"/>
<path opacity="0.2" d="M105.634 198.214H191.494C200.573 198.214 207.934 190.854 207.934 181.774V129.053C207.934 119.974 200.573 112.614 191.494 112.614L105.634 112.614C96.5544 112.614 89.194 119.974 89.194 129.053L89.194 181.774C89.194 190.854 96.5544 198.214 105.634 198.214Z" fill="black" fill-opacity="0.2"/>
<path d="M186.635 140.233H142.985C141.805 140.19 140.687 139.692 139.868 138.842C139.048 137.992 138.59 136.858 138.59 135.677C138.59 134.496 139.048 133.362 139.868 132.512C140.687 131.662 141.805 131.164 142.985 131.121H186.635C187.247 131.099 187.857 131.201 188.429 131.42C189.001 131.639 189.523 131.971 189.964 132.396C190.405 132.821 190.755 133.331 190.995 133.895C191.234 134.458 191.358 135.064 191.358 135.677C191.358 136.289 191.234 136.896 190.995 137.459C190.755 138.023 190.405 138.533 189.964 138.958C189.523 139.383 189.001 139.715 188.429 139.934C187.857 140.153 187.247 140.255 186.635 140.233Z" fill="white"/>
<path d="M128.028 140.233H108.258C107.078 140.19 105.961 139.692 105.141 138.842C104.321 137.992 103.863 136.858 103.863 135.677C103.863 134.496 104.321 133.362 105.141 132.512C105.961 131.662 107.078 131.164 108.258 131.121H128.028C128.64 131.099 129.251 131.201 129.822 131.42C130.394 131.639 130.916 131.971 131.357 132.396C131.798 132.821 132.149 133.331 132.388 133.895C132.628 134.458 132.751 135.064 132.751 135.677C132.751 136.289 132.628 136.896 132.388 137.459C132.149 138.023 131.798 138.533 131.357 138.958C130.916 139.383 130.394 139.715 129.822 139.934C129.251 140.153 128.64 140.255 128.028 140.233Z" fill="white"/>
<path d="M186.637 159.436H112.895C111.715 159.393 110.597 158.895 109.778 158.045C108.958 157.195 108.5 156.061 108.5 154.88C108.5 153.699 108.958 152.565 109.778 151.715C110.597 150.865 111.715 150.367 112.895 150.324H186.637C187.25 150.302 187.86 150.404 188.432 150.623C189.004 150.842 189.526 151.174 189.966 151.599C190.407 152.024 190.758 152.534 190.997 153.098C191.237 153.661 191.36 154.268 191.36 154.88C191.36 155.492 191.237 156.099 190.997 156.662C190.758 157.226 190.407 157.736 189.966 158.161C189.526 158.586 189.004 158.918 188.432 159.137C187.86 159.356 187.25 159.458 186.637 159.436Z" fill="white"/>
<path d="M186.638 178.633H152.477C151.297 178.591 150.179 178.092 149.36 177.242C148.54 176.393 148.082 175.258 148.082 174.077C148.082 172.897 148.54 171.762 149.36 170.912C150.179 170.063 151.297 169.564 152.477 169.522H186.638C187.25 169.499 187.86 169.601 188.432 169.82C189.004 170.039 189.526 170.371 189.967 170.796C190.407 171.222 190.758 171.731 190.998 172.295C191.237 172.859 191.36 173.465 191.36 174.077C191.36 174.69 191.237 175.296 190.998 175.86C190.758 176.423 190.407 176.933 189.967 177.358C189.526 177.783 189.004 178.116 188.432 178.335C187.86 178.554 187.25 178.655 186.638 178.633Z" fill="white"/>
<path opacity="0.1" d="M110.52 112.597C110.52 112.597 103.989 147.909 103.989 162.826C103.989 178.126 109.386 198.197 109.386 198.197H92.1371L90.9975 178.823C89.9234 160.703 91.717 142.528 96.312 124.968L99.548 112.567L110.52 112.597Z" fill="#772454"/>
<path d="M144.223 74.9649C141.718 74.9571 139.304 75.9008 137.469 77.6052C135.634 79.3096 134.514 81.6474 134.337 84.1457C134.16 86.644 134.939 89.1163 136.515 91.0624C138.092 93.0086 140.348 94.2834 142.829 94.6288C142.879 97.1238 142.004 99.5489 140.373 101.437C140.373 101.437 154.108 98.0184 154.108 84.85C154.108 82.2283 153.066 79.714 151.212 77.8602C149.359 76.0064 146.844 74.9649 144.223 74.9649Z" fill="#D95BB0"/>
<path d="M166.469 74.9649C163.964 74.9571 161.55 75.9008 159.715 77.6052C157.88 79.3096 156.76 81.6474 156.583 84.1457C156.406 86.644 157.185 89.1163 158.761 91.0625C160.338 93.0086 162.594 94.2834 165.075 94.6289C165.133 97.1199 164.269 99.5446 162.648 101.437C162.648 101.437 176.383 98.0184 176.383 84.85C176.384 83.5492 176.128 82.261 175.63 81.0594C175.131 79.8578 174.401 78.7665 173.479 77.848C172.558 76.9295 171.465 76.202 170.262 75.7073C169.059 75.2125 167.77 74.9602 166.469 74.9649Z" fill="#D95BB0"/>
</svg>
