<svg width="102" height="18" viewBox="0 0 102 18" fill="none" xmlns="http://www.w3.org/2000/svg">
<path d="M9.5198 5.98421C9.07355 5.53421 8.53805 5.17421 7.94304 4.93422C7.34805 4.66422 6.69355 4.54421 6.0093 4.54421C5.32505 4.54421 4.67055 4.66422 4.07555 4.93422C3.5103 5.17421 3.00455 5.50422 2.5583 5.92422V1.96422C2.5583 1.75421 2.46905 1.57421 2.35005 1.42422C2.05255 1.12422 1.57655 1.12422 1.27905 1.42422C1.1303 1.54422 1.0708 1.72422 1.0708 1.96422V13.6342C1.0708 13.8442 1.16005 14.0242 1.3088 14.1742C1.6063 14.4742 2.11205 14.4742 2.3798 14.1742C2.52855 14.0242 2.58805 13.8442 2.58805 13.6342V13.0942C3.0343 13.5143 3.54005 13.8442 4.1053 14.1142C4.7003 14.3842 5.35479 14.5043 6.03905 14.5043C6.7233 14.5043 7.3778 14.3842 7.9728 14.1142C8.56779 13.8442 9.10329 13.4842 9.54954 13.0342C9.99579 12.5842 10.3528 12.0442 10.6205 11.4442C10.8883 10.8442 11.0073 10.1842 11.0073 9.49421C11.0073 8.80422 10.8883 8.14421 10.6205 7.54422C10.323 6.94422 9.96605 6.43421 9.5198 5.98421ZM9.46029 9.49421C9.46029 9.97422 9.37105 10.4242 9.19254 10.8442C9.01404 11.2642 8.77605 11.6242 8.47854 11.9542C8.18105 12.2542 7.7943 12.5242 7.3778 12.7042C6.5448 13.0643 5.50355 13.0643 4.67055 12.7042C4.25405 12.5242 3.89705 12.2542 3.5698 11.9542C3.2723 11.6542 3.00455 11.2642 2.8558 10.8442C2.6773 10.4242 2.58805 9.97422 2.58805 9.49421C2.58805 9.01422 2.6773 8.56422 2.8558 8.14421C3.0343 7.72422 3.2723 7.36422 3.59955 7.03422C3.89705 6.73422 4.2838 6.46422 4.7003 6.28422C5.1168 6.10422 5.56305 6.01422 6.03905 6.01422C6.51504 6.01422 6.99105 6.10422 7.40755 6.28422C7.82405 6.46422 8.18105 6.70421 8.5083 7.00422C8.8058 7.30422 9.07355 7.69421 9.2223 8.11422C9.37105 8.59421 9.46029 9.04421 9.46029 9.49421Z" fill="#475467"/>
<path d="M22.2533 1.96484C22.2533 1.75484 22.1641 1.57484 22.0153 1.42484C21.7178 1.12483 21.212 1.15484 20.9443 1.42484C20.7956 1.57484 20.7361 1.75484 20.7361 1.96484V5.89484C20.3791 5.56484 19.9924 5.26484 19.5758 5.05483C18.8915 4.69483 18.1478 4.51483 17.3149 4.51483C16.6306 4.51483 16.0058 4.63484 15.3811 4.90484C14.786 5.17484 14.2505 5.50483 13.8043 5.95483C13.358 6.40483 13.001 6.94483 12.7333 7.54483C12.4656 8.14484 12.3466 8.80483 12.3466 9.49484C12.3466 10.1848 12.4656 10.8448 12.7333 11.4448C13.001 12.0448 13.358 12.5848 13.8043 13.0349C14.2505 13.4849 14.786 13.8449 15.3811 14.1149C15.9761 14.3849 16.6306 14.5048 17.3149 14.5048C18.1181 14.5048 18.8915 14.3248 19.5758 13.9648C20.0221 13.7248 20.4088 13.4548 20.7361 13.1249V13.6348C20.7361 13.8449 20.8253 14.0249 20.9443 14.1748C21.2419 14.4749 21.7178 14.4749 22.0153 14.1748C22.1641 14.0249 22.2533 13.8449 22.2533 13.6348V1.96484ZM15.9463 12.6748C15.5299 12.4948 15.1729 12.2548 14.8753 11.9248C14.5778 11.6248 14.3101 11.2348 14.1613 10.8148C13.9828 10.3948 13.8935 9.94484 13.8935 9.46483C13.8935 8.98483 13.9828 8.53483 14.1613 8.11483C14.3398 7.69484 14.5778 7.33484 14.8753 7.03483C15.1729 6.73483 15.5596 6.46484 15.9761 6.31483C16.3925 6.13483 16.8388 6.04483 17.3149 6.04483C17.7908 6.04483 18.2371 6.13483 18.6536 6.31483C19.07 6.49483 19.427 6.73483 19.7543 7.03483C20.0518 7.33484 20.3195 7.72483 20.4683 8.11483C20.6468 8.53483 20.7361 8.98483 20.7361 9.46483C20.7361 9.94484 20.6468 10.3948 20.4683 10.8148C20.2898 11.2348 20.0518 11.5948 19.7543 11.9248C19.4569 12.2248 19.0999 12.4948 18.6833 12.6748C17.8205 13.0349 16.7794 13.0349 15.9463 12.6748Z" fill="#475467"/>
<path d="M25.2868 1.78516C25.0488 1.78516 24.8109 1.87516 24.6621 2.05516C24.4836 2.23516 24.3943 2.44516 24.3943 2.68516C24.3943 2.92516 24.4836 3.13516 24.6621 3.31516C24.8406 3.49516 25.0488 3.58516 25.2868 3.58516C25.5546 3.58516 25.7628 3.49516 25.9413 3.31516C26.1198 3.13516 26.209 2.92516 26.209 2.68516C26.209 2.41516 26.1198 2.20516 25.9413 2.02516C25.7628 1.87516 25.5249 1.78516 25.2868 1.78516Z" fill="#475467"/>
<path d="M24.7507 4.75429C24.6019 4.9043 24.5425 5.0843 24.5425 5.29429V13.9943C24.5425 14.2043 24.5126 14.4143 24.4234 14.6243C24.3341 14.8043 24.2152 14.9843 24.0664 15.1343C23.9177 15.2843 23.7392 15.4043 23.5607 15.4943C23.3822 15.5843 23.1739 15.6143 22.936 15.6143H22.7872C22.579 15.6143 22.4005 15.7043 22.2517 15.8243C22.1029 15.9743 22.0136 16.1543 22.0136 16.3643C22.0136 16.5743 22.1029 16.7543 22.2517 16.9043C22.4005 17.0543 22.579 17.1143 22.7872 17.1143C22.8169 17.1143 22.8169 17.1143 22.8467 17.1143H22.936C23.3524 17.1143 23.7392 17.0243 24.1259 16.8743C24.5126 16.7243 24.8399 16.4843 25.1077 16.2143C25.3754 15.9443 25.6135 15.6143 25.792 15.2243C25.9705 14.8343 26.0597 14.4443 26.0597 14.0243V5.3243C26.0597 5.11429 25.9705 4.9043 25.8514 4.75429C25.5539 4.4543 25.0481 4.4543 24.7507 4.75429Z" fill="#475467"/>
<path d="M36.2349 5.98562C35.7886 5.53562 35.2531 5.17562 34.6582 4.90562C34.0632 4.63562 33.4087 4.51562 32.7244 4.51562C32.0401 4.51562 31.4154 4.63562 30.7906 4.90562C30.1957 5.17562 29.6602 5.53562 29.2139 5.98562C28.7677 6.43562 28.4107 6.97562 28.1429 7.57563C27.8752 8.17562 27.7561 8.83562 27.7561 9.52562C27.7561 10.2156 27.8752 10.8456 28.1429 11.4756C28.4107 12.0756 28.7677 12.6156 29.2139 13.0656C29.6602 13.5156 30.1957 13.8756 30.7906 14.1456C31.3857 14.4156 32.0401 14.5356 32.7244 14.5356C33.4087 14.5356 34.0632 14.4156 34.6582 14.1456C35.2531 13.8756 35.7886 13.5156 36.2349 13.0656C36.6811 12.6156 37.0381 12.0756 37.3059 11.4756C37.5736 10.8756 37.6927 10.2156 37.6927 9.52562C37.6927 8.83562 37.5736 8.17562 37.3059 7.57563C37.0381 6.97562 36.6811 6.43562 36.2349 5.98562ZM29.3032 9.52562C29.3032 9.04562 29.3924 8.59562 29.5709 8.17562C29.7494 7.75563 29.9874 7.39562 30.2849 7.06562C30.5824 6.76562 30.9691 6.49563 31.3857 6.31563C31.8022 6.13563 32.2484 6.04563 32.7244 6.04563C33.2004 6.04563 33.6466 6.13563 34.0632 6.31563C34.4797 6.49563 34.8367 6.73562 35.1639 7.06562C35.4614 7.36562 35.7292 7.75563 35.8779 8.17562C36.0564 8.59562 36.1456 9.04562 36.1456 9.52562C36.1456 10.0056 36.0564 10.4556 35.8779 10.8456C35.6994 11.2656 35.4614 11.6256 35.1639 11.9556C34.8664 12.2556 34.5094 12.5256 34.0929 12.7056C33.2599 13.0656 32.2186 13.0656 31.4154 12.7056C30.9989 12.5256 30.6419 12.2556 30.3147 11.9556C30.0172 11.6556 29.7494 11.2656 29.6007 10.8456C29.3924 10.4556 29.3032 10.0056 29.3032 9.52562Z" fill="#475467"/>
<path d="M47.8992 5.98421C47.453 5.53421 46.9175 5.17421 46.3224 4.93422C45.7274 4.66422 45.0729 4.54421 44.3886 4.54421C43.7045 4.54421 43.0499 4.66422 42.455 4.93422C41.8896 5.17421 41.384 5.50422 40.9377 5.92422V1.96422C40.9377 1.75421 40.8485 1.57421 40.7294 1.42422C40.4319 1.12422 39.956 1.12422 39.6584 1.42422C39.5097 1.57421 39.4205 1.75421 39.4205 1.96422V13.6342C39.4205 13.8442 39.5097 14.0242 39.6584 14.1742C39.956 14.4742 40.4616 14.4742 40.7294 14.1742C40.8782 14.0242 40.9377 13.8442 40.9377 13.6342V13.0942C41.384 13.5143 41.8896 13.8442 42.455 14.1142C43.0499 14.3842 43.7045 14.5043 44.3886 14.5043C45.0729 14.5043 45.7274 14.3842 46.3224 14.1142C46.9175 13.8442 47.453 13.4842 47.8992 13.0342C48.3455 12.5842 48.7025 12.0442 48.9702 11.4442C49.238 10.8442 49.3569 10.1842 49.3569 9.49421C49.3569 8.80422 49.238 8.14421 48.9702 7.54422C48.7025 6.94422 48.3455 6.43421 47.8992 5.98421ZM47.81 9.49421C47.81 9.97422 47.7207 10.4242 47.5422 10.8442C47.3637 11.2642 47.1257 11.6242 46.8282 11.9542C46.5306 12.2542 46.1439 12.5242 45.7274 12.7042C44.8944 13.0643 43.8531 13.0643 43.0202 12.7042C42.6036 12.5242 42.2466 12.2542 41.9195 11.9542C41.6219 11.6542 41.3541 11.2642 41.2055 10.8442C41.027 10.4242 40.9377 9.97422 40.9377 9.49421C40.9377 9.01422 41.027 8.56422 41.2055 8.14421C41.384 7.72422 41.6219 7.36422 41.9492 7.03422C42.2466 6.73422 42.6335 6.46422 43.0499 6.28422C43.4664 6.10422 43.9127 6.01422 44.3886 6.01422C44.8647 6.01422 45.3407 6.10422 45.7572 6.28422C46.1736 6.46422 46.5306 6.70421 46.8579 7.00422C47.1554 7.30422 47.4231 7.69421 47.5719 8.11422C47.7207 8.59421 47.81 9.04421 47.81 9.49421Z" fill="#475467"/>
<path d="M57.1509 10.3958C56.9724 10.0958 56.7046 9.79582 56.3774 9.58582C56.0799 9.37581 55.6932 9.19581 55.3064 9.04582C54.9196 8.89582 54.5032 8.77582 54.0569 8.62582C53.7892 8.53582 53.5512 8.47581 53.3131 8.38581C53.1049 8.29581 52.8967 8.20581 52.7479 8.08582C52.5991 7.96582 52.4802 7.84581 52.3909 7.69582C52.3017 7.57581 52.2719 7.39581 52.2719 7.18582C52.2719 6.94581 52.3314 6.76581 52.4206 6.61582C52.5099 6.46582 52.6587 6.34582 52.8074 6.22581C52.9859 6.13581 53.1644 6.04581 53.3727 6.01582C53.9974 5.86581 54.6222 5.92582 55.0684 6.16582C55.3659 6.31581 55.6336 6.58581 55.9014 6.91582L55.9312 6.97582L55.9906 7.00582C56.1394 7.09582 56.2882 7.12581 56.4667 7.06582C56.6154 7.03581 56.7344 6.97582 56.8534 6.85581C57.0616 6.64582 57.1212 6.31581 56.9427 6.01582C56.7939 5.74582 56.6154 5.53582 56.4072 5.32583C56.1989 5.14583 55.9609 4.96581 55.6932 4.84582C55.4254 4.72582 55.1577 4.63582 54.8602 4.57582C54.2056 4.45582 53.4916 4.45582 52.8372 4.63582C52.4504 4.75582 52.0934 4.90582 51.7959 5.11582C51.4687 5.32581 51.2307 5.62582 51.0224 5.95582C50.8141 6.28582 50.7249 6.70582 50.7249 7.15582C50.7249 7.57582 50.8141 7.93581 50.9926 8.26582C51.1711 8.56581 51.4092 8.83581 51.6769 9.04582C51.9447 9.25582 52.2719 9.43582 52.5991 9.58582C52.9264 9.73581 53.2834 9.85582 53.6404 9.97582C53.9677 10.0658 54.2949 10.1858 54.5924 10.2758C54.8899 10.3658 55.1279 10.4858 55.3362 10.6358C55.5444 10.7558 55.6932 10.9058 55.7824 11.0558C55.8717 11.2058 55.9312 11.3858 55.9312 11.5958C55.9312 11.8058 55.8717 11.9858 55.7824 12.1658C55.6932 12.3458 55.5444 12.4958 55.3659 12.6158C55.1874 12.7358 54.9792 12.8558 54.7411 12.9158C54.5032 12.9758 54.2652 13.0358 53.9974 13.0358C53.4916 13.0358 53.0454 12.9458 52.6884 12.7658C52.3612 12.5858 52.0934 12.3458 51.8554 11.9558L51.8257 11.9258C51.6769 11.7458 51.4984 11.6258 51.3199 11.5958C51.1414 11.5658 50.9629 11.5958 50.8141 11.6858C50.6654 11.7758 50.5464 11.9258 50.4869 12.1058C50.4274 12.2858 50.4571 12.4958 50.5762 12.7058C50.7249 13.0058 50.9332 13.2758 51.1711 13.4858C51.4092 13.6958 51.6769 13.8758 51.9744 14.0258C52.2719 14.1758 52.5991 14.2658 52.9264 14.3558C53.2537 14.4158 53.6107 14.4458 53.9677 14.4458C54.4437 14.4458 54.8602 14.3858 55.2766 14.2358C55.6932 14.0858 56.0502 13.8758 56.3476 13.6358C56.6749 13.3658 56.9129 13.0658 57.0914 12.7058C57.2699 12.3458 57.3592 11.9558 57.3592 11.5358C57.4484 11.1158 57.3294 10.7258 57.1509 10.3958Z" fill="#475467"/>
<path d="M88.8304 17.2805H60.6571L62.5909 7.47039C63.3346 3.66039 66.6369 0.900391 70.5044 0.900391H100.076L98.4694 9.09039C97.5472 13.8605 93.5011 17.2805 88.8304 17.2805Z" fill="#0DB14B"/>
<path d="M68.3311 13.5299H65.9512L68.3609 4.16992C68.3609 4.16992 71.8118 4.16992 73.0019 4.16992C74.1919 4.16992 75.2332 5.18992 74.8762 7.01991C74.5192 8.87992 73.2994 10.1099 72.3772 10.5599C71.4548 11.0099 69.1939 10.7699 69.1939 10.7699L68.3311 13.5299ZM71.0384 8.60992C71.6929 8.63991 72.2581 8.39992 72.5258 7.94992C72.7936 7.52992 73.0613 6.41992 71.8417 6.41992C70.6219 6.41992 70.3541 6.41992 70.3541 6.41992C70.3541 6.41992 69.6997 8.45991 69.7294 8.51992C69.7591 8.51992 70.3838 8.57992 71.0384 8.60992Z" fill="white"/>
<path d="M76.8717 13.5606C76.842 13.5306 74.2239 13.5306 74.2239 13.5306L76.8717 4.14062C76.8717 4.14062 79.9954 4.14062 81.8101 4.14062C83.625 4.14062 84.0414 6.24062 83.8332 7.56063C83.5059 9.42063 81.0961 10.4406 81.0961 10.4406L82.7325 13.5907H79.698L78.5377 10.5006H77.7046L76.8717 13.5606ZM79.6681 8.49062C79.6681 8.49062 80.6202 8.58062 81.0069 8.10063C81.3937 7.62063 81.5127 6.51062 80.6499 6.51062C79.7872 6.51062 78.7162 6.51062 78.7162 6.51062L78.1807 8.37063L79.6681 8.49062Z" fill="white"/>
<path d="M92.5514 12.0893C90.3201 14.1893 87.1667 14.4892 85.5304 12.7193C83.8941 10.9493 84.3999 7.82928 86.6311 5.69927C88.8624 3.56928 92.0159 3.29928 93.6522 5.06927C95.2884 6.83928 94.7826 9.98928 92.5514 12.0893ZM91.6291 6.95927C90.8259 6.08928 89.2491 6.20928 88.1187 7.28928C86.9882 8.33928 86.7501 9.92927 87.5534 10.7993C88.3566 11.6693 89.9334 11.5493 91.0639 10.4693C92.2242 9.41927 92.4621 7.85927 91.6291 6.95927Z" fill="white"/>
</svg>
