<svg width="28" height="12" viewBox="0 0 28 12" fill="none" xmlns="http://www.w3.org/2000/svg">
<path d="M20.0121 11.4842H0V7.5V5.5V4.5C0.528271 1.82878 3.25277 0 6 0H28L26.8589 5.74208C26.2038 9.08641 23.3298 11.4842 20.0121 11.4842Z" fill="#0DB14B"/>
<path d="M5.45222 8.8534H3.76172L5.47341 2.29102C5.47341 2.29102 7.92467 2.29102 8.77001 2.29102C9.61527 2.29102 10.3549 3.00614 10.1013 4.28917C9.84775 5.59323 8.98131 6.4556 8.32624 6.7711C7.67109 7.0866 6.06508 6.91833 6.06508 6.91833L5.45222 8.8534ZM7.3753 5.40393C7.84017 5.42496 8.24166 5.2567 8.43184 4.94121C8.62203 4.64674 8.81222 3.86851 7.94587 3.86851C7.07942 3.86851 6.88923 3.86851 6.88923 3.86851C6.88923 3.86851 6.42436 5.29876 6.44546 5.34083C6.46656 5.34083 6.91033 5.3829 7.3753 5.40393Z" fill="white"/>
<path d="M11.5175 8.87492C11.4964 8.85391 9.63672 8.85391 9.63672 8.85391L11.5175 2.27051C11.5175 2.27051 13.7364 2.27051 15.0254 2.27051C16.3145 2.27051 16.6103 3.74283 16.4624 4.6683C16.2299 5.97236 14.5182 6.68749 14.5182 6.68749L15.6805 8.89601H13.5251L12.7009 6.72956H12.1092L11.5175 8.87492ZM13.5039 5.32033C13.5039 5.32033 14.1801 5.38343 14.4548 5.0469C14.7296 4.71037 14.8141 3.93213 14.2012 3.93213C13.5885 3.93213 12.8277 3.93213 12.8277 3.93213L12.4473 5.2362L13.5039 5.32033Z" fill="white"/>
<path d="M22.6549 7.84539C21.07 9.31773 18.83 9.52803 17.6678 8.28709C16.5054 7.04613 16.8647 4.85868 18.4496 3.36531C20.0345 1.87196 22.2745 1.68266 23.4368 2.92361C24.599 4.16458 24.2398 6.37307 22.6549 7.84539ZM21.9998 4.24871C21.4292 3.63875 20.3092 3.72288 19.5063 4.48008C18.7032 5.21624 18.5341 6.331 19.1047 6.94097C19.6752 7.55093 20.7953 7.46679 21.5983 6.7096C22.4225 5.97343 22.5915 4.87971 21.9998 4.24871Z" fill="white"/>
</svg>
