<svg width="388" height="249" viewBox="0 0 388 249" fill="none" xmlns="http://www.w3.org/2000/svg">
<mask id="mask0_24123_209028" style="mask-type:alpha" maskUnits="userSpaceOnUse" x="44" y="34" width="301" height="215">
<rect width="301" height="209" transform="translate(44 34.4004)" fill="url(#paint0_radial_24123_209028)"/>
</mask>
<g mask="url(#mask0_24123_209028)">
<circle cx="193.998" cy="184.701" r="29.7865" stroke="#E4E7EC" stroke-width="0.627083"/>
<circle cx="193.999" cy="184.701" r="49.8531" stroke="#E4E7EC" stroke-width="0.627083"/>
<circle cx="193.999" cy="184.701" r="69.9198" stroke="#E4E7EC" stroke-width="0.627083"/>
<circle cx="193.999" cy="184.701" r="89.9865" stroke="#E4E7EC" stroke-width="0.627083"/>
<circle cx="193.999" cy="184.701" r="89.9865" stroke="#E4E7EC" stroke-width="0.627083"/>
<circle cx="193.999" cy="184.701" r="110.053" stroke="#E4E7EC" stroke-width="0.627083"/>
<circle cx="194" cy="184.701" r="130.12" stroke="#E4E7EC" stroke-width="0.627083"/>
<circle cx="194" cy="184.701" r="150.186" stroke="#E4E7EC" stroke-width="0.627083"/>
</g>
<g clip-path="url(#clip0_24123_209028)">
<path d="M193.9 245.801C300.988 245.801 387.8 240.742 387.8 234.501C387.8 228.26 300.988 223.201 193.9 223.201C86.812 223.201 0 228.26 0 234.501C0 240.742 86.812 245.801 193.9 245.801Z" fill="#F9FAFB"/>
</g>
<path d="M72.8332 171.55C71.5286 170.245 69.9631 169.202 68.2236 168.506C66.4842 167.723 64.5708 167.375 62.5704 167.375C60.57 167.375 58.6566 167.723 56.9171 168.506C55.2646 169.202 53.7861 170.158 52.4815 171.376V159.896C52.4815 159.287 52.2206 158.765 51.8727 158.33C51.0029 157.46 49.6114 157.46 48.7416 158.33C48.3068 158.678 48.1328 159.2 48.1328 159.896V193.728C48.1328 194.337 48.3937 194.859 48.8286 195.294C49.6983 196.163 51.1769 196.163 51.9596 195.294C52.3945 194.859 52.5684 194.337 52.5684 193.728V192.163C53.873 193.38 55.3516 194.337 57.0041 195.12C58.7436 195.902 60.657 196.251 62.6574 196.251C64.6578 196.251 66.5711 195.902 68.3106 195.12C70.0501 194.337 71.6156 193.293 72.9202 191.989C74.2248 190.684 75.2685 189.119 76.0512 187.379C76.834 185.64 77.1819 183.726 77.1819 181.726C77.1819 179.725 76.834 177.812 76.0512 176.073C75.1815 174.333 74.1378 172.855 72.8332 171.55ZM72.6593 181.726C72.6593 183.117 72.3984 184.422 71.8765 185.64C71.3547 186.857 70.6589 187.901 69.7892 188.858C68.9194 189.727 67.7888 190.51 66.5711 191.032C64.1359 192.076 61.0918 192.076 58.6566 191.032C57.439 190.51 56.3953 189.727 55.4386 188.858C54.5688 187.988 53.7861 186.857 53.3512 185.64C52.8294 184.422 52.5684 183.117 52.5684 181.726C52.5684 180.334 52.8294 179.03 53.3512 177.812C53.873 176.594 54.5688 175.551 55.5256 174.594C56.3953 173.724 57.5259 172.942 58.7436 172.42C59.9612 171.898 61.2658 171.637 62.6574 171.637C64.0489 171.637 65.4405 171.898 66.6581 172.42C67.8758 172.942 68.9194 173.637 69.8761 174.507C70.7459 175.377 71.5286 176.507 71.9635 177.725C72.3984 179.117 72.6593 180.421 72.6593 181.726Z" fill="#475467"/>
<path d="M110.056 159.898C110.056 159.289 109.795 158.767 109.36 158.332C108.49 157.462 107.012 157.549 106.229 158.332C105.794 158.767 105.62 159.289 105.62 159.898V171.291C104.577 170.334 103.446 169.465 102.228 168.856C100.228 167.812 98.0536 167.29 95.6185 167.29C93.6179 167.29 91.7915 167.638 89.9651 168.421C88.2255 169.204 86.66 170.16 85.3554 171.465C84.0508 172.77 83.0071 174.335 82.2244 176.075C81.4417 177.814 81.0938 179.727 81.0938 181.728C81.0938 183.728 81.4417 185.642 82.2244 187.381C83.0071 189.121 84.0508 190.686 85.3554 191.991C86.66 193.295 88.2255 194.339 89.9651 195.122C91.7047 195.905 93.6179 196.252 95.6185 196.252C97.9667 196.252 100.228 195.731 102.228 194.687C103.533 193.991 104.663 193.208 105.62 192.252V193.73C105.62 194.339 105.881 194.861 106.229 195.296C107.099 196.166 108.49 196.166 109.36 195.296C109.795 194.861 110.056 194.339 110.056 193.73V159.898ZM91.6174 190.947C90.4001 190.425 89.3564 189.729 88.4864 188.773C87.6168 187.903 86.834 186.772 86.399 185.555C85.8772 184.337 85.6163 183.032 85.6163 181.641C85.6163 180.249 85.8772 178.945 86.399 177.727C86.9209 176.509 87.6168 175.466 88.4864 174.596C89.3564 173.726 90.4869 172.944 91.7047 172.509C92.922 171.987 94.2266 171.726 95.6185 171.726C97.0099 171.726 98.3145 171.987 99.5323 172.509C100.75 173.031 101.793 173.726 102.75 174.596C103.62 175.466 104.403 176.596 104.838 177.727C105.359 178.945 105.62 180.249 105.62 181.641C105.62 183.032 105.359 184.337 104.838 185.555C104.316 186.772 103.62 187.816 102.75 188.773C101.881 189.642 100.837 190.425 99.6191 190.947C97.0968 191.991 94.0529 191.991 91.6174 190.947Z" fill="#475467"/>
<path d="M118.926 159.373C118.23 159.373 117.534 159.634 117.099 160.156C116.577 160.678 116.316 161.286 116.316 161.982C116.316 162.678 116.577 163.287 117.099 163.809C117.621 164.331 118.23 164.591 118.926 164.591C119.708 164.591 120.317 164.331 120.839 163.809C121.361 163.287 121.622 162.678 121.622 161.982C121.622 161.199 121.361 160.591 120.839 160.069C120.317 159.634 119.622 159.373 118.926 159.373Z" fill="#475467"/>
<path d="M117.357 167.985C116.922 168.42 116.748 168.942 116.748 169.551V194.773C116.748 195.382 116.661 195.991 116.4 196.6C116.139 197.122 115.792 197.643 115.357 198.078C114.922 198.513 114.4 198.861 113.878 199.122C113.356 199.383 112.747 199.47 112.052 199.47H111.617C111.008 199.47 110.486 199.731 110.051 200.078C109.616 200.513 109.355 201.035 109.355 201.644C109.355 202.253 109.616 202.775 110.051 203.21C110.486 203.645 111.008 203.818 111.617 203.818C111.704 203.818 111.704 203.818 111.791 203.818H112.052C113.269 203.818 114.4 203.557 115.531 203.123C116.661 202.688 117.618 201.992 118.401 201.209C119.184 200.426 119.879 199.47 120.401 198.339C120.923 197.208 121.184 196.078 121.184 194.86V169.638C121.184 169.029 120.923 168.42 120.575 167.985C119.705 167.116 118.227 167.116 117.357 167.985Z" fill="#475467"/>
<path d="M150.932 171.553C149.627 170.248 148.062 169.204 146.323 168.422C144.583 167.639 142.67 167.291 140.669 167.291C138.669 167.291 136.842 167.639 135.016 168.422C133.277 169.204 131.711 170.248 130.406 171.553C129.102 172.857 128.058 174.423 127.275 176.162C126.493 177.902 126.145 179.815 126.145 181.816C126.145 183.816 126.493 185.642 127.275 187.469C128.058 189.208 129.102 190.774 130.406 192.078C131.711 193.383 133.277 194.427 135.016 195.209C136.755 195.992 138.669 196.34 140.669 196.34C142.67 196.34 144.583 195.992 146.323 195.209C148.062 194.427 149.627 193.383 150.932 192.078C152.237 190.774 153.28 189.208 154.063 187.469C154.846 185.729 155.194 183.816 155.194 181.816C155.194 179.815 154.846 177.902 154.063 176.162C153.28 174.423 152.237 172.857 150.932 171.553ZM130.667 181.816C130.667 180.424 130.928 179.119 131.45 177.902C131.972 176.684 132.668 175.64 133.538 174.684C134.407 173.814 135.538 173.031 136.755 172.509C137.973 171.988 139.278 171.727 140.669 171.727C142.061 171.727 143.365 171.988 144.583 172.509C145.801 173.031 146.844 173.727 147.801 174.684C148.671 175.553 149.454 176.684 149.888 177.902C150.41 179.119 150.671 180.424 150.671 181.816C150.671 183.207 150.41 184.512 149.888 185.642C149.366 186.86 148.671 187.904 147.801 188.86C146.931 189.73 145.888 190.513 144.67 191.035C142.235 192.078 139.191 192.078 136.842 191.035C135.625 190.513 134.581 189.73 133.624 188.86C132.755 187.991 131.972 186.86 131.537 185.642C130.928 184.512 130.667 183.207 130.667 181.816Z" fill="#475467"/>
<path d="M185.033 171.55C183.729 170.245 182.163 169.202 180.424 168.506C178.684 167.723 176.771 167.375 174.77 167.375C172.77 167.375 170.857 167.723 169.117 168.506C167.465 169.202 165.986 170.158 164.682 171.376V159.896C164.682 159.287 164.421 158.765 164.073 158.33C163.203 157.46 161.812 157.46 160.942 158.33C160.507 158.765 160.246 159.287 160.246 159.896V193.728C160.246 194.337 160.507 194.859 160.942 195.294C161.812 196.163 163.29 196.163 164.073 195.294C164.508 194.859 164.682 194.337 164.682 193.728V192.163C165.986 193.38 167.465 194.337 169.117 195.12C170.857 195.902 172.77 196.251 174.77 196.251C176.771 196.251 178.684 195.902 180.424 195.12C182.163 194.337 183.729 193.293 185.033 191.989C186.338 190.684 187.382 189.119 188.165 187.379C188.947 185.64 189.295 183.726 189.295 181.726C189.295 179.725 188.947 177.812 188.165 176.073C187.382 174.333 186.338 172.855 185.033 171.55ZM184.773 181.726C184.773 183.117 184.512 184.422 183.99 185.64C183.468 186.857 182.772 187.901 181.902 188.858C181.032 189.727 179.902 190.51 178.684 191.032C176.249 192.076 173.205 192.076 170.77 191.032C169.552 190.51 168.508 189.727 167.552 188.858C166.682 187.988 165.899 186.857 165.464 185.64C164.943 184.422 164.682 183.117 164.682 181.726C164.682 180.334 164.943 179.03 165.464 177.812C165.986 176.594 166.682 175.551 167.639 174.594C168.508 173.724 169.639 172.942 170.857 172.42C172.074 171.898 173.379 171.637 174.77 171.637C176.162 171.637 177.554 171.898 178.771 172.42C179.989 172.942 181.032 173.637 181.989 174.507C182.859 175.377 183.642 176.507 184.077 177.725C184.512 179.117 184.773 180.421 184.773 181.726Z" fill="#475467"/>
<path d="M212.077 184.337C211.555 183.467 210.772 182.597 209.816 181.989C208.946 181.38 207.815 180.858 206.685 180.423C205.554 179.988 204.336 179.64 203.032 179.206C202.249 178.945 201.553 178.771 200.857 178.51C200.248 178.249 199.64 177.988 199.205 177.64C198.77 177.292 198.422 176.944 198.161 176.509C197.9 176.161 197.813 175.64 197.813 175.031C197.813 174.335 197.987 173.813 198.248 173.378C198.509 172.943 198.944 172.596 199.379 172.248C199.901 171.987 200.423 171.726 201.031 171.639C202.858 171.204 204.684 171.378 205.989 172.074C206.858 172.509 207.641 173.291 208.424 174.248L208.511 174.422L208.685 174.509C209.12 174.77 209.555 174.857 210.077 174.683C210.511 174.596 210.859 174.422 211.207 174.074C211.816 173.465 211.99 172.509 211.468 171.639C211.033 170.856 210.511 170.247 209.902 169.638C209.294 169.117 208.598 168.595 207.815 168.247C207.032 167.899 206.25 167.638 205.38 167.464C203.466 167.116 201.379 167.116 199.466 167.638C198.335 167.986 197.291 168.421 196.421 169.03C195.465 169.638 194.769 170.508 194.16 171.465C193.551 172.422 193.29 173.639 193.29 174.944C193.29 176.161 193.551 177.205 194.073 178.162C194.595 179.032 195.291 179.814 196.074 180.423C196.856 181.032 197.813 181.554 198.77 181.989C199.727 182.424 200.77 182.771 201.814 183.119C202.771 183.38 203.727 183.728 204.597 183.989C205.467 184.25 206.163 184.598 206.771 185.033C207.38 185.381 207.815 185.815 208.076 186.25C208.337 186.685 208.511 187.207 208.511 187.816C208.511 188.425 208.337 188.947 208.076 189.468C207.815 189.99 207.38 190.425 206.858 190.773C206.336 191.121 205.728 191.469 205.032 191.643C204.336 191.816 203.64 191.991 202.858 191.991C201.379 191.991 200.074 191.73 199.031 191.208C198.074 190.686 197.291 189.99 196.596 188.86L196.509 188.773C196.074 188.251 195.552 187.903 195.03 187.816C194.508 187.729 193.986 187.816 193.551 188.077C193.117 188.338 192.769 188.773 192.595 189.294C192.421 189.816 192.508 190.425 192.856 191.034C193.29 191.904 193.9 192.686 194.595 193.295C195.291 193.904 196.074 194.426 196.943 194.861C197.813 195.296 198.77 195.557 199.727 195.818C200.683 195.991 201.727 196.078 202.771 196.078C204.162 196.078 205.38 195.904 206.597 195.469C207.815 195.035 208.859 194.426 209.728 193.73C210.685 192.947 211.381 192.077 211.903 191.034C212.425 189.99 212.686 188.86 212.686 187.642C212.947 186.424 212.599 185.294 212.077 184.337Z" fill="#475467"/>
<path d="M304.692 204.298H222.328L227.982 175.858C230.156 164.812 239.81 156.811 251.117 156.811H337.568L332.871 180.554C330.175 194.383 318.347 204.298 304.692 204.298Z" fill="#0DB14B"/>
<path d="M244.762 193.425H237.805L244.85 166.289C244.85 166.289 254.938 166.289 258.417 166.289C261.896 166.289 264.94 169.246 263.897 174.552C262.853 179.944 259.287 183.51 256.591 184.814C253.895 186.119 247.285 185.423 247.285 185.423L244.762 193.425ZM252.677 179.161C254.59 179.248 256.243 178.552 257.026 177.248C257.808 176.03 258.591 172.812 255.025 172.812C251.459 172.812 250.677 172.812 250.677 172.812C250.677 172.812 248.763 178.726 248.85 178.9C248.937 178.9 250.763 179.074 252.677 179.161Z" fill="white"/>
<path d="M269.729 193.513C269.642 193.426 261.988 193.426 261.988 193.426L269.729 166.203C269.729 166.203 278.861 166.203 284.166 166.203C289.472 166.203 290.689 172.291 290.081 176.118C289.124 181.51 282.079 184.468 282.079 184.468L286.863 193.6H277.992L274.6 184.641H272.164L269.729 193.513ZM277.904 178.814C277.904 178.814 280.688 179.075 281.818 177.684C282.949 176.292 283.297 173.074 280.775 173.074C278.253 173.074 275.121 173.074 275.121 173.074L273.556 178.466L277.904 178.814Z" fill="white"/>
<path d="M315.572 189.249C309.049 195.338 299.83 196.207 295.047 191.076C290.263 185.944 291.742 176.899 298.265 170.724C304.788 164.549 314.007 163.766 318.791 168.898C323.574 174.029 322.095 183.161 315.572 189.249ZM312.876 174.377C310.528 171.855 305.918 172.203 302.614 175.334C299.309 178.378 298.613 182.987 300.961 185.51C303.309 188.032 307.919 187.684 311.224 184.553C314.616 181.509 315.312 176.986 312.876 174.377Z" fill="white"/>
<path d="M107.846 89.2014L74 106.168L85.4598 128.937L119.306 111.97L107.846 89.2014Z" fill="#F5F5F5"/>
<path d="M108.102 89.4316C108.064 89.5899 108.01 89.744 107.942 89.8916C107.811 90.2216 107.631 90.6516 107.411 91.1916L105.407 95.9316L98.673 111.582L98.6129 111.712H98.4726L98.1419 111.642L81.238 108.022L76.1176 106.882L74.7349 106.562C74.5707 106.529 74.4098 106.482 74.2539 106.422C74.4194 106.429 74.5839 106.453 74.7449 106.492L76.1477 106.752L81.288 107.752L98.2121 111.272L98.5528 111.342L98.3524 111.442C101.018 105.352 103.423 99.8516 105.186 95.8416L107.27 91.1216L107.861 89.8516C107.929 89.7049 108.01 89.5644 108.102 89.4316Z" fill="#E0E0E0"/>
<path d="M85.6972 129.122C85.607 129.122 86.579 124.702 87.8716 119.302C89.1642 113.902 90.2964 109.542 90.3866 109.562C90.4768 109.582 89.5048 113.982 88.2122 119.382C86.9196 124.782 85.7874 129.182 85.6972 129.122Z" fill="#E0E0E0"/>
<path d="M101.489 103.682C101.489 103.592 105.607 105.432 110.587 107.782C115.567 110.132 119.605 112.112 119.545 112.192C119.485 112.272 115.427 110.442 110.447 108.092C105.467 105.742 101.448 103.762 101.489 103.682Z" fill="#E0E0E0"/>
<path d="M271.701 90.0002L305.547 106.967L294.087 129.736L260.241 112.769L271.701 90.0002Z" fill="#F5F5F5"/>
<path d="M271.445 90.2305C271.483 90.3887 271.537 90.5428 271.605 90.6905C271.735 91.0205 271.916 91.4505 272.136 91.9905L274.14 96.7305L280.874 112.38L280.934 112.51H281.074L281.405 112.44L298.309 108.82L303.429 107.68L304.812 107.36C304.976 107.328 305.137 107.281 305.293 107.22C305.127 107.228 304.963 107.251 304.802 107.29L303.399 107.55L298.259 108.55L281.335 112.07L280.994 112.14L281.195 112.24C278.529 106.15 276.124 100.65 274.361 96.6405L272.277 91.9205L271.685 90.6505C271.618 90.5037 271.537 90.3632 271.445 90.2305Z" fill="#E0E0E0"/>
<path d="M293.85 129.92C293.94 129.92 292.968 125.5 291.675 120.1C290.383 114.7 289.25 110.34 289.16 110.36C289.07 110.38 290.042 114.78 291.335 120.18C292.627 125.58 293.759 129.98 293.85 129.92Z" fill="#E0E0E0"/>
<path d="M278.058 104.481C278.058 104.391 273.94 106.231 268.96 108.581C263.98 110.931 259.942 112.911 260.002 112.991C260.062 113.071 264.12 111.241 269.1 108.891C274.08 106.541 278.098 104.561 278.058 104.481Z" fill="#E0E0E0"/>
<path d="M4.06622 200.831L38.2278 192.287L44.8513 215.28L9.33543 223.55L4.06622 200.831Z" fill="#EBEBEB"/>
<path d="M4.10969 200.841L17.1203 183.816C17.3883 183.467 17.7682 183.221 18.1964 183.12C18.6245 183.018 19.0748 183.066 19.4716 183.257L38.2723 192.288" fill="#E0E0E0"/>
<path d="M9.33458 223.55C9.2886 223.556 11.295 219.874 13.8278 215.398C16.3605 210.922 18.4558 207.322 18.5068 207.354C18.5579 207.386 16.5464 211.03 14.0136 215.506C11.4809 219.981 9.38564 223.582 9.33458 223.55Z" fill="#E0E0E0"/>
<path d="M44.852 215.283C44.8111 215.328 41.4359 213.047 37.298 210.19C33.1601 207.333 29.8331 204.945 29.8715 204.94C29.9098 204.935 33.2875 207.176 37.4254 210.033C41.5633 212.89 44.8842 215.232 44.852 215.283Z" fill="#E0E0E0"/>
<path d="M6.10773 201.687L3.44527 191.028L33.3305 183.406L36.4013 194.556L24.3416 209.982L6.10773 201.687Z" fill="#FAFAFA"/>
<path d="M6.10111 201.688L6.45402 201.82L7.43818 202.243L11.1414 203.881L24.4086 209.833L24.2017 209.86L36.2343 194.407L36.203 194.582C35.6166 192.456 34.9931 190.226 34.3721 187.956C33.9544 186.454 33.5367 184.952 33.1266 183.449L33.3712 183.588L3.4692 191.142L3.56488 190.981C4.36637 194.317 5.00746 196.973 5.45558 198.822C5.66297 199.719 5.8264 200.421 5.94588 200.93C5.97635 201.159 6.00073 201.343 6.06601 201.482C6.08434 201.544 6.09291 201.609 6.0914 201.674C6.07862 201.616 6.0708 201.557 6.06804 201.498L5.9203 200.972C5.78616 200.471 5.60076 199.779 5.36407 198.896C4.89194 197.043 4.20283 194.378 3.34667 191.041L3.33042 190.919L3.45305 190.903L33.3127 183.206L33.512 183.18L33.5374 183.371C33.9449 184.875 34.3601 186.377 34.7829 187.879C35.4095 190.132 36.0285 192.386 36.6138 194.505L36.627 194.604L36.5595 194.683L24.4748 210.097L24.394 210.193L24.2776 210.138L10.989 204.026L7.33902 202.319L6.39013 201.868C6.2895 201.815 6.1929 201.755 6.10111 201.688Z" fill="#E0E0E0"/>
<path d="M29.9011 189.931C29.9153 190.038 25.3973 191.257 19.727 192.667C14.0566 194.078 9.48562 195.132 9.46271 195.019C9.43981 194.905 13.9665 193.692 19.6368 192.282C25.3072 190.872 29.8782 189.817 29.9011 189.931Z" fill="#E0E0E0"/>
<path d="M30.6352 192.941C30.6504 193.056 26.1325 194.275 20.4621 195.685C14.7917 197.095 10.2197 198.142 10.1978 198.036C10.176 197.93 14.7006 196.702 20.3709 195.292C26.0413 193.882 30.6133 192.834 30.6352 192.941Z" fill="#E0E0E0"/>
<path d="M31.4865 196.416C31.5007 196.523 26.9888 197.789 21.3134 199.16C15.638 200.532 11.071 201.618 11.0415 201.513C11.0119 201.407 15.5392 200.14 21.2146 198.768C26.89 197.396 31.4569 196.311 31.4865 196.416Z" fill="#E0E0E0"/>
<path d="M32.329 199.886C32.3443 200.001 28.0149 201.172 22.6318 202.513C17.2486 203.854 12.8575 204.854 12.7897 204.754C12.7218 204.654 17.1038 203.468 22.4946 202.126C27.8854 200.784 32.3072 199.78 32.329 199.886Z" fill="#E0E0E0"/>
<path d="M29.2384 203.867C28.7002 204.122 28.1342 204.315 27.5517 204.44C26.4923 204.744 25.0229 205.132 23.4023 205.556C21.7816 205.98 20.2919 206.333 19.2156 206.568C18.6415 206.734 18.0493 206.831 17.452 206.855C17.9947 206.605 18.5632 206.415 19.1473 206.289C20.2068 205.985 21.6751 205.589 23.2958 205.165C24.9164 204.741 26.4072 204.396 27.4758 204.162C28.0499 203.996 28.6414 203.897 29.2384 203.867Z" fill="#E0E0E0"/>
<path d="M26.0845 207.778C25.4189 208.138 24.6974 208.383 23.9502 208.504C23.227 208.731 22.4695 208.831 21.7119 208.799C22.3728 208.428 23.0962 208.182 23.8463 208.073C24.5685 207.841 25.3267 207.741 26.0845 207.778Z" fill="#E0E0E0"/>
<path d="M375.254 199.831L341.092 191.287L334.469 214.28L369.985 222.55L375.254 199.831Z" fill="#EBEBEB"/>
<path d="M375.211 199.841L362.2 182.816C361.932 182.467 361.552 182.221 361.124 182.12C360.696 182.018 360.246 182.066 359.849 182.257L341.048 191.288" fill="#E0E0E0"/>
<path d="M369.986 222.55C370.032 222.556 368.025 218.874 365.493 214.398C362.96 209.922 360.865 206.322 360.813 206.354C360.762 206.386 362.774 210.03 365.307 214.506C367.839 218.981 369.935 222.582 369.986 222.55Z" fill="#E0E0E0"/>
<path d="M334.468 214.283C334.509 214.328 337.884 212.047 342.022 209.19C346.16 206.333 349.487 203.945 349.449 203.94C349.411 203.935 346.033 206.176 341.895 209.033C337.757 211.89 334.436 214.232 334.468 214.283Z" fill="#E0E0E0"/>
<path d="M373.213 200.687L375.875 190.028L345.99 182.406L342.919 193.556L354.979 208.982L373.213 200.687Z" fill="#FAFAFA"/>
<path d="M373.219 200.688L372.866 200.82L371.882 201.243L368.179 202.881L354.912 208.833L355.119 208.86L343.086 193.407L343.117 193.582C343.704 191.456 344.327 189.226 344.948 186.956C345.366 185.454 345.784 183.952 346.194 182.449L345.949 182.588L375.851 190.142L375.755 189.981C374.954 193.317 374.313 195.973 373.865 197.822C373.657 198.719 373.494 199.421 373.374 199.93C373.344 200.159 373.32 200.343 373.254 200.482C373.236 200.544 373.227 200.609 373.229 200.674C373.242 200.616 373.25 200.557 373.252 200.498L373.4 199.972C373.534 199.471 373.72 198.779 373.956 197.896C374.428 196.043 375.117 193.378 375.974 190.041L375.99 189.919L375.867 189.903L346.008 182.206L345.808 182.18L345.783 182.371C345.375 183.875 344.96 185.377 344.537 186.879C343.911 189.132 343.292 191.386 342.706 193.505L342.693 193.604L342.761 193.683L354.845 209.097L354.926 209.193L355.043 209.138L368.331 203.026L371.981 201.319L372.93 200.868C373.031 200.815 373.127 200.755 373.219 200.688Z" fill="#E0E0E0"/>
<path d="M349.419 188.931C349.405 189.038 353.923 190.257 359.593 191.667C365.264 193.078 369.835 194.132 369.858 194.019C369.881 193.905 365.354 192.692 359.683 191.282C354.013 189.872 349.442 188.817 349.419 188.931Z" fill="#E0E0E0"/>
<path d="M348.685 191.941C348.67 192.056 353.188 193.275 358.858 194.685C364.529 196.095 369.101 197.142 369.122 197.036C369.144 196.93 364.62 195.702 358.949 194.292C353.279 192.882 348.707 191.834 348.685 191.941Z" fill="#E0E0E0"/>
<path d="M347.834 195.416C347.82 195.523 352.331 196.789 358.007 198.16C363.682 199.532 368.249 200.618 368.279 200.513C368.308 200.407 363.781 199.14 358.106 197.768C352.43 196.396 347.863 195.311 347.834 195.416Z" fill="#E0E0E0"/>
<path d="M346.991 198.886C346.976 199.001 351.305 200.172 356.689 201.513C362.072 202.854 366.463 203.854 366.531 203.754C366.599 203.654 362.217 202.468 356.826 201.126C351.435 199.784 347.013 198.78 346.991 198.886Z" fill="#E0E0E0"/>
<path d="M350.082 202.867C350.62 203.122 351.186 203.315 351.769 203.44C352.828 203.744 354.297 204.132 355.918 204.556C357.539 204.98 359.028 205.333 360.105 205.568C360.679 205.734 361.271 205.831 361.868 205.855C361.326 205.605 360.757 205.415 360.173 205.289C359.114 204.985 357.645 204.589 356.025 204.165C354.404 203.741 352.913 203.396 351.845 203.162C351.27 202.996 350.679 202.897 350.082 202.867Z" fill="#E0E0E0"/>
<path d="M353.236 206.778C353.901 207.138 354.623 207.383 355.37 207.504C356.093 207.731 356.851 207.831 357.608 207.799C356.948 207.428 356.224 207.182 355.474 207.073C354.752 206.841 353.994 206.741 353.236 206.778Z" fill="#E0E0E0"/>
<defs>
<radialGradient id="paint0_radial_24123_209028" cx="0" cy="0" r="1" gradientUnits="userSpaceOnUse" gradientTransform="translate(150.5 104.5) rotate(90) scale(104.5 150.5)">
<stop/>
<stop offset="1" stop-opacity="0"/>
</radialGradient>
<clipPath id="clip0_24123_209028">
<rect width="387.8" height="22.6" fill="white" transform="translate(0 223.201)"/>
</clipPath>
</defs>
</svg>
