<svg width="20" height="20" viewBox="0 0 20 20" fill="none" xmlns="http://www.w3.org/2000/svg">
<g clip-path="url(#clip0_20931_10933)">
<path d="M11.7081 4.99935C12.522 5.15815 13.2701 5.55623 13.8565 6.14263C14.4429 6.72903 14.8409 7.47707 14.9997 8.29102M11.7081 1.66602C13.3991 1.85388 14.9761 2.61116 16.1799 3.81352C17.3838 5.01588 18.1431 6.59186 18.3331 8.28268M8.52222 11.5519C7.52091 10.5506 6.73025 9.41839 6.15025 8.21037C6.10036 8.10647 6.07542 8.05451 6.05625 7.98877C5.98815 7.75514 6.03707 7.46826 6.17874 7.2704C6.21861 7.21472 6.26624 7.16709 6.3615 7.07183C6.65284 6.78049 6.79851 6.63482 6.89375 6.48834C7.25291 5.93593 7.25291 5.22378 6.89375 4.67138C6.79851 4.52489 6.65284 4.37923 6.3615 4.08789L6.19911 3.92549C5.75624 3.48263 5.53481 3.26119 5.29699 3.1409C4.82402 2.90168 4.26547 2.90168 3.7925 3.1409C3.55468 3.26119 3.33325 3.48263 2.89038 3.92549L2.75902 4.05686C2.31767 4.49821 2.09699 4.71889 1.92845 5.01891C1.74143 5.35183 1.60696 5.86891 1.6081 6.25076C1.60912 6.59488 1.67588 6.83007 1.80938 7.30044C2.52686 9.82827 3.88059 12.2136 5.87057 14.2036C7.86055 16.1935 10.2459 17.5473 12.7737 18.2647C13.2441 18.3982 13.4792 18.465 13.8234 18.466C14.2052 18.4672 14.7223 18.3327 15.0552 18.1457C15.3552 17.9771 15.5759 17.7565 16.0173 17.3151L16.1486 17.1837C16.5915 16.7409 16.8129 16.5194 16.9332 16.2816C17.1724 15.8087 17.1724 15.2501 16.9332 14.7771C16.8129 14.5393 16.5915 14.3179 16.1486 13.875L15.9862 13.7126C15.6949 13.4213 15.5492 13.2756 15.4028 13.1804C14.8503 12.8212 14.1382 12.8212 13.5858 13.1804C13.4393 13.2756 13.2936 13.4213 13.0023 13.7126C12.907 13.8079 12.8594 13.8555 12.8037 13.8954C12.6059 14.0371 12.319 14.086 12.0854 14.0179C12.0196 13.9987 11.9677 13.9738 11.8638 13.9239C10.6557 13.3439 9.52354 12.5532 8.52222 11.5519Z" stroke="#2F64A3" stroke-width="1.5" stroke-linecap="round" stroke-linejoin="round"/>
</g>
<defs>
<clipPath id="clip0_20931_10933">
<rect width="20" height="20" fill="white"/>
</clipPath>
</defs>
</svg>
