<svg width="28" height="29" viewBox="0 0 28 29" fill="none" xmlns="http://www.w3.org/2000/svg">
<path d="M15.7548 3.30888C15.1823 3.22251 14.5962 3.17773 13.9997 3.17773C7.55635 3.17773 2.33301 8.40108 2.33301 14.8444C2.33301 21.2877 7.55635 26.5111 13.9997 26.5111C20.4429 26.5111 25.6663 21.2877 25.6663 14.8444C25.6663 14.3326 25.6334 13.8285 25.5695 13.3341" stroke="#FD6F8E" stroke-width="2" stroke-linecap="round" stroke-linejoin="round"/>
<path d="M17.5 12.5098C17.5 14.4428 15.933 16.0098 14 16.0098C12.0669 16.0098 10.5 14.4428 10.5 12.5098C10.5 10.5768 12.0669 9.00977 14 9.00977C15.933 9.00977 17.5 10.5768 17.5 12.5098Z" stroke="#FD6F8E" stroke-width="2" stroke-linecap="round" stroke-linejoin="round"/>
<path d="M6.41699 23.5931L7.07079 22.4489C8.10937 20.6315 10.0422 19.5098 12.1356 19.5098H15.8651C17.9584 19.5098 19.8912 20.6315 20.9298 22.4489L21.5836 23.5931" stroke="#FD6F8E" stroke-width="2" stroke-linecap="round" stroke-linejoin="round"/>
<path d="M22.5011 3.49854C22.5909 3.31668 22.6358 3.22574 22.6967 3.19669C22.7497 3.17142 22.8113 3.17142 22.8643 3.19669C22.9253 3.22574 22.9701 3.31668 23.0599 3.49854L23.9116 5.22391C23.9381 5.2776 23.9513 5.30445 23.9707 5.32529C23.9878 5.34375 24.0084 5.3587 24.0312 5.36932C24.057 5.38132 24.0867 5.38565 24.1459 5.39431L26.051 5.67276C26.2516 5.70208 26.3519 5.71674 26.3983 5.76574C26.4387 5.80837 26.4577 5.86695 26.45 5.92517C26.4411 5.99208 26.3685 6.06281 26.2233 6.20427L24.8453 7.54643C24.8024 7.58826 24.7809 7.60918 24.767 7.63407C24.7547 7.65611 24.7469 7.68033 24.7438 7.70537C24.7404 7.73365 24.7455 7.7632 24.7556 7.8223L25.0808 9.71804C25.115 9.91799 25.1322 10.018 25.1 10.0773C25.0719 10.1289 25.0221 10.1651 24.9643 10.1758C24.898 10.1881 24.8082 10.1409 24.6286 10.0465L22.9255 9.15085C22.8725 9.12294 22.8459 9.10899 22.818 9.10351C22.7932 9.09865 22.7678 9.09865 22.743 9.10351C22.7151 9.10899 22.6886 9.12294 22.6355 9.15085L20.9324 10.0465C20.7529 10.1409 20.6631 10.1881 20.5967 10.1758C20.5389 10.1651 20.4891 10.1289 20.4611 10.0773C20.4288 10.018 20.446 9.91799 20.4803 9.71804L20.8054 7.8223C20.8156 7.7632 20.8206 7.73365 20.8172 7.70537C20.8142 7.68033 20.8063 7.65611 20.794 7.63407C20.7802 7.60918 20.7587 7.58826 20.7157 7.54642L19.3377 6.20427C19.1925 6.06281 19.1199 5.99208 19.1111 5.92517C19.1034 5.86695 19.1224 5.80837 19.1627 5.76574C19.2092 5.71674 19.3095 5.70208 19.5101 5.67276L21.4151 5.39431C21.4744 5.38565 21.504 5.38132 21.5298 5.36932C21.5526 5.3587 21.5732 5.34375 21.5903 5.32529C21.6097 5.30445 21.623 5.2776 21.6495 5.22391L22.5011 3.49854Z" stroke="#FD6F8E" stroke-width="2" stroke-linecap="round" stroke-linejoin="round"/>
</svg>
