<svg width="32" height="32" viewBox="0 0 32 32" fill="none" xmlns="http://www.w3.org/2000/svg">
<rect width="32" height="32" rx="4" fill="#FCF3FA"/>
<path d="M16.3551 8.00606L9.26347 7.7149L7.30859 24.7683L17.3741 24.2275L22.6149 9.71139L20.4312 7.44454L19.3082 7.00781L16.3551 8.00606Z" fill="white"/>
<path d="M6.7959 6.01758H19.2422C19.473 6.01758 19.7018 6.11256 19.8643 6.27734L23.1309 9.54395C23.2957 9.70882 23.3877 9.93039 23.3877 10.166V13.9121L23.1504 14.3252L22.9102 14.7432L22.5254 15.4141L18.9316 21.6787L18.7871 21.9307L18.8027 21.9395L18.7812 21.9277L18.7852 21.9443L18.8545 22.2256L19.2207 23.6914L19.4004 24.4199L19.4053 24.4385L19.4229 24.4336L20.1445 24.2217L21.5967 23.7988L21.875 23.7168L21.877 23.7236L21.8857 23.708L22.0303 23.4561L22.9424 21.8643L22.9434 21.8652L23.1836 21.4463L23.3906 21.0859V25.2041C23.3906 25.6339 23.0406 25.9822 22.6133 25.9824H6.7959C6.36599 25.9824 6.01758 25.6317 6.01758 25.2041V6.7959C6.01758 6.36836 6.36836 6.01758 6.7959 6.01758ZM8.96777 23.2539H15.2539V22.4961H8.96777V23.2539ZM8.96777 20.8975H17.9453V20.1406H8.96777V20.8975ZM10.6328 14.9043L9.69531 17.0459C9.6889 17.0609 9.69184 17.0769 9.7002 17.0879C9.70835 17.0984 9.72234 17.1043 9.73828 17.1006L9.73926 17.1016L10.9014 16.8701L11.5225 17.8809V17.8818C11.5399 17.9123 11.583 17.9066 11.5957 17.877L12.584 15.6182L12.5938 15.5947L12.5684 15.5928C11.8794 15.5377 11.2238 15.2984 10.6592 14.8965L10.6416 14.8838L10.6328 14.9043ZM15.1143 14.8965C14.5473 15.2983 13.8944 15.5377 13.2031 15.5928L13.1777 15.5947L13.1875 15.6182L14.1758 17.877C14.1885 17.9066 14.2306 17.9114 14.248 17.8809L14.8691 16.8701L16.0322 17.1016V17.1006C16.0488 17.1049 16.0629 17.0983 16.0713 17.0879C16.0796 17.0775 16.0843 17.0625 16.0801 17.0479L16.0791 17.0459L15.1416 14.9043L15.1328 14.8838L15.1143 14.8965ZM12.8867 8.59766C11.1413 8.59778 9.72461 10.0143 9.72461 11.7598C9.72465 12.6957 10.1239 13.5598 10.8291 14.1621L10.9746 14.2783C11.5014 14.6795 12.1298 14.9014 12.792 14.9209V14.9219C12.8216 14.9243 12.8534 14.9238 12.8867 14.9238C12.9039 14.9238 12.9212 14.9235 12.9365 14.9229L12.9785 14.9219C13.6433 14.9025 14.2718 14.6796 14.7988 14.2783C15.5941 13.674 16.0488 12.7557 16.0488 11.7598C16.0488 10.0166 14.6298 8.59766 12.8867 8.59766ZM19.7363 9.5459C19.7364 9.61291 19.7903 9.66992 19.8584 9.66992H22.0312L22.001 9.63867L19.7676 7.40527L19.7363 7.375V9.5459Z" fill="#84AFDD" stroke="#3C77AE" stroke-width="0.0360577"/>
<path d="M12.8867 10.4629C13.6027 10.4629 14.1816 11.0442 14.1816 11.7578C14.1816 12.4714 13.6027 13.0527 12.8867 13.0527C12.1707 13.0527 11.5918 12.4738 11.5918 11.7578C11.5918 11.0418 12.1707 10.4629 12.8867 10.4629Z" fill="#84AFDD" stroke="#3C77AE" stroke-width="0.0360577"/>
<path d="M26.7226 16.032L24.8115 19.3589L24.4726 19.1642L24.1842 18.9983L26.0928 15.6762L25.7538 15.4815L23.4053 19.5705L23.1649 19.9887L21.3837 23.0873L19.9318 23.5104L19.5664 22.044L23.1673 15.7844L23.4077 15.3661L24.7587 13.0152C24.7635 13.008 24.7683 12.9983 24.7731 12.9911C24.7779 12.9839 24.7827 12.9767 24.7875 12.9695C24.7947 12.9599 24.7995 12.9503 24.8067 12.9431C24.8091 12.9383 24.8115 12.9358 24.814 12.931C24.8212 12.9214 24.8284 12.9118 24.8332 12.9022C24.838 12.895 24.8428 12.8902 24.8476 12.8854C24.8524 12.8782 24.8572 12.8733 24.862 12.8661C24.8692 12.8565 24.8765 12.8493 24.8837 12.8421C24.8981 12.8253 24.9149 12.8084 24.9317 12.7916C24.9365 12.7868 24.9414 12.782 24.9462 12.7772C24.9486 12.7748 24.9486 12.7748 24.951 12.7724L24.9534 12.77C24.9558 12.7676 24.9582 12.7676 24.9582 12.7652C24.9654 12.758 24.9726 12.7508 24.9798 12.7459C24.987 12.7387 24.9966 12.7315 25.0039 12.7243L25.0063 12.7219L25.0087 12.7195C25.0135 12.7147 25.0183 12.7123 25.0231 12.7075C25.0231 12.7075 25.0255 12.7075 25.0255 12.7051C25.0351 12.6979 25.0447 12.6907 25.0543 12.6834C25.0567 12.681 25.0615 12.6786 25.0639 12.6762C25.0712 12.6714 25.0784 12.6666 25.088 12.6594L25.0904 12.657C25.1 12.6522 25.1072 12.645 25.1168 12.6402C25.1264 12.633 25.1361 12.6282 25.1457 12.6233C25.1553 12.6185 25.1649 12.6113 25.1745 12.6065C25.1745 12.6065 25.1745 12.6065 25.1769 12.6065C25.1865 12.6017 25.1938 12.5969 25.2034 12.5945C25.2106 12.5921 25.2154 12.5897 25.2226 12.5849C25.2298 12.5825 25.237 12.5777 25.2442 12.5753C25.2466 12.5753 25.2466 12.5753 25.249 12.5729C25.2587 12.5681 25.2683 12.5657 25.2779 12.5608C25.2803 12.5608 25.2803 12.5584 25.2827 12.5584C25.2851 12.5584 25.2875 12.556 25.2899 12.556H25.2923C25.2971 12.5536 25.2995 12.5536 25.3043 12.5512C25.3139 12.5488 25.3236 12.544 25.3332 12.5416C25.3548 12.5344 25.3764 12.5272 25.3981 12.5224C25.4077 12.52 25.4173 12.5176 25.4245 12.5152C25.4245 12.5152 25.4269 12.5152 25.4293 12.5152C25.4317 12.5152 25.4317 12.5152 25.4341 12.5152C25.4438 12.5128 25.4534 12.5104 25.463 12.508C25.475 12.5056 25.4846 12.5032 25.4966 12.5008C25.5183 12.4983 25.5423 12.4935 25.5639 12.4911C25.5712 12.4911 25.5808 12.4887 25.5904 12.4887C25.5976 12.4887 25.6024 12.4887 25.6096 12.4863C25.6192 12.4863 25.6288 12.4863 25.6385 12.4863C25.6481 12.4863 25.6577 12.4863 25.6673 12.4863C25.7106 12.4863 25.7562 12.4887 25.7995 12.4935C25.8212 12.4959 25.8428 12.5008 25.8668 12.5056C25.9101 12.5152 25.9558 12.5248 25.999 12.5392C26.0207 12.5464 26.0423 12.5536 26.0639 12.5633C26.0856 12.5729 26.1072 12.5825 26.1288 12.5921C26.1505 12.6017 26.1697 12.6137 26.1913 12.6258C26.5279 12.8205 26.7178 13.1714 26.7178 13.5344C26.7178 13.7123 26.6721 13.8902 26.5784 14.056L26.1192 14.8565L26.463 15.0536C26.5639 15.1113 26.6457 15.1907 26.7058 15.282C26.8428 15.5032 26.862 15.7916 26.7226 16.032Z" fill="#C3599E"/>
</svg>
