<svg width="17" height="20" viewBox="0 0 17 20" fill="none" xmlns="http://www.w3.org/2000/svg">
<g clip-path="url(#clip0_24684_21256)">
<path d="M11 1.71429C11 1.52485 11.0803 1.34316 11.2232 1.20921C11.366 1.07525 11.5598 1 11.7619 1C11.964 1 12.1578 1.07525 12.3007 1.20921C12.4435 1.34316 12.5238 1.52485 12.5238 1.71429V4.92857C12.5238 5.21273 12.6442 5.48525 12.8585 5.68619C13.0729 5.88712 13.3636 6 13.6667 6C13.9698 6 14.2605 5.88712 14.4748 5.68619C14.6891 5.48525 14.8095 5.21273 14.8095 4.92857V4.75M11.381 3.14286H13.6667M15 4.75C15 4.94724 14.8294 5.10714 14.619 5.10714C14.4087 5.10714 14.2381 4.94724 14.2381 4.75C14.2381 4.55276 14.4087 4.39286 14.619 4.39286C14.8294 4.39286 15 4.55276 15 4.75Z" stroke="#C63C92" stroke-linecap="round" stroke-linejoin="round"/>
<path d="M3.54199 18.5723H13.4587" stroke="#C63C92" stroke-width="1.5" stroke-linecap="round" stroke-linejoin="round"/>
<path d="M11.9511 16.4277H5.04954C4.32128 16.4277 3.95715 16.4277 3.68099 16.2302C3.40482 16.0326 3.28451 15.686 3.04389 14.9929L1.45328 10.4111C1.36863 10.1587 1.43472 9.88031 1.624 9.69213C1.86221 9.45533 2.23544 9.41859 2.51574 9.60436L3.38863 10.1829C4.26973 10.7668 4.71028 11.0588 5.15568 10.9527C5.60109 10.8465 5.86546 10.3866 6.3942 9.46674L7.96284 6.73782C8.07306 6.54607 8.27819 6.42773 8.50033 6.42773C8.72246 6.42773 8.92759 6.54607 9.03781 6.73782L10.6064 9.46674C11.1352 10.3866 11.3995 10.8465 11.8449 10.9527C12.2904 11.0588 12.7309 10.7668 13.612 10.1829L14.4849 9.60436C14.7652 9.41859 15.1385 9.45533 15.3767 9.69213C15.566 9.88031 15.632 10.1587 15.5474 10.4111L13.9568 14.9929C13.7161 15.686 13.5959 16.0326 13.3197 16.2302C13.0435 16.4277 12.6794 16.4277 11.9511 16.4277Z" stroke="#C63C92" stroke-width="1.5" stroke-linecap="round" stroke-linejoin="round"/>
</g>
<defs>
<clipPath id="clip0_24684_21256">
<rect width="17" height="20" fill="white"/>
</clipPath>
</defs>
</svg>
