<svg width="24" height="24" viewBox="0 0 24 24" fill="none" xmlns="http://www.w3.org/2000/svg">
<path d="M16.3568 10.3894V5.84746C16.3568 5.71747 16.2968 5.59733 16.2118 5.50232L11.1196 0.155109C11.0245 0.0551249 10.8895 0 10.7545 0H2.68106C1.19053 0 0 1.21547 0 2.70609V17.9725C0 19.4631 1.19053 20.6587 2.68101 20.6587H9.05379C10.2592 22.6594 12.4502 24 14.9462 24C18.7377 24 21.834 20.9187 21.834 17.1221C21.8392 13.8057 19.458 11.0346 16.3568 10.3894V10.3894ZM11.2548 1.75584L14.6711 5.35222H12.4552C11.7949 5.35222 11.2547 4.80707 11.2547 4.14684L11.2548 1.75584ZM2.68101 19.6582C1.74572 19.6582 1.0005 18.9078 1.0005 17.9725V2.70609C1.0005 1.76568 1.74572 1.0005 2.68101 1.0005H10.2543V4.14674C10.2543 5.36221 11.2397 6.35267 12.4552 6.35267H15.3563V10.2592C15.2063 10.2543 15.0862 10.2392 14.9562 10.2392C13.2105 10.2392 11.6048 10.9096 10.3943 11.96H4.0417C3.76649 11.96 3.54145 12.1851 3.54145 12.4601C3.54145 12.7354 3.76645 12.9603 4.0417 12.9603H9.46395C9.10873 13.4606 8.81356 13.9608 8.58364 14.5111H4.04165C3.76645 14.5111 3.5414 14.7361 3.5414 15.0113C3.5414 15.2863 3.7664 15.5116 4.04165 15.5116H8.25838C8.13331 16.0118 8.0683 16.567 8.0683 17.1222C8.0683 18.0225 8.24333 18.9129 8.55847 19.6633H2.68101V19.6582ZM14.9513 23.0046C11.7099 23.0046 9.07376 20.3684 9.07376 17.1271C9.07376 13.8858 11.7049 11.2496 14.9513 11.2496C18.1975 11.2496 20.8286 13.8858 20.8286 17.1271C20.8286 20.3684 18.1926 23.0046 14.9513 23.0046Z" fill="#C63C92"/>
<path d="M4.04127 10.4536H9.10831C9.38352 10.4536 9.60856 10.2284 9.60856 9.95333C9.60856 9.67817 9.38356 9.45312 9.10831 9.45312H4.04127C3.76606 9.45312 3.54102 9.67812 3.54102 9.95333C3.54102 10.2284 3.76602 10.4536 4.04127 10.4536ZM17.6819 16.1209C17.6356 16.0745 17.5806 16.0378 17.5201 16.0127C17.4596 15.9876 17.3947 15.9746 17.3292 15.9746C17.2637 15.9746 17.1988 15.9876 17.1383 16.0127C17.0778 16.0378 17.0228 16.0745 16.9766 16.1209C16.9302 16.1672 16.8934 16.2222 16.8683 16.2827C16.8432 16.3432 16.8303 16.4081 16.8303 16.4736C16.8303 16.5391 16.8432 16.604 16.8683 16.6645C16.8934 16.725 16.9302 16.78 16.9766 16.8262L17.642 17.4914C18.2823 18.1318 18.2823 19.1872 17.642 19.8374C17.0016 20.4829 15.9462 20.4777 15.296 19.8374L14.6306 19.1721C14.5843 19.1258 14.5294 19.089 14.4688 19.0639C14.4083 19.0388 14.3435 19.0259 14.2779 19.0259C14.2124 19.0259 14.1476 19.0388 14.087 19.0639C14.0265 19.089 13.9716 19.1258 13.9253 19.1721C13.8789 19.2184 13.8421 19.2734 13.817 19.3339C13.7919 19.3944 13.779 19.4593 13.779 19.5248C13.779 19.5903 13.7919 19.6552 13.817 19.7157C13.8421 19.7762 13.8789 19.8312 13.9253 19.8775L14.5956 20.5478C15.1158 21.0629 15.7961 21.3182 16.4765 21.3182C17.1567 21.3182 17.837 21.058 18.3571 20.5427C19.3877 19.5023 19.3827 17.8117 18.3571 16.7812L17.6819 16.1209ZM14.5907 14.4402L15.2559 15.1056C15.3022 15.152 15.3572 15.1887 15.4177 15.2138C15.4782 15.2389 15.5431 15.2519 15.6086 15.2519C15.6741 15.2519 15.739 15.2389 15.7995 15.2138C15.86 15.1887 15.915 15.152 15.9613 15.1056C16.0076 15.0593 16.0444 15.0043 16.0695 14.9438C16.0946 14.8833 16.1075 14.8184 16.1075 14.7529C16.1075 14.6874 16.0946 14.6225 16.0695 14.562C16.0444 14.5015 16.0076 14.4465 15.9613 14.4003L15.2909 13.7299C14.2505 12.6996 12.5599 12.7045 11.5294 13.7348C10.499 14.7753 10.504 16.466 11.5294 17.4965L12.1946 18.1618C12.2947 18.2618 12.4198 18.3068 12.5498 18.3068C12.68 18.3068 12.8049 18.2568 12.905 18.1618C12.9514 18.1155 12.9882 18.0605 13.0133 18C13.0384 17.9395 13.0513 17.8746 13.0513 17.8091C13.0513 17.7436 13.0384 17.6787 13.0133 17.6182C12.9882 17.5577 12.9514 17.5028 12.905 17.4565L12.2396 16.7912C11.5943 16.1509 11.5995 15.0955 12.2396 14.4451C12.8849 13.7998 13.9354 13.7998 14.5907 14.4402Z" fill="#C63C92"/>
<path d="M15.8012 18.5026C15.9312 18.5026 16.0562 18.4525 16.1562 18.3574C16.2026 18.3111 16.2394 18.2562 16.2646 18.1956C16.2897 18.1351 16.3026 18.0703 16.3026 18.0047C16.3026 17.9392 16.2897 17.8743 16.2646 17.8138C16.2394 17.7533 16.2026 17.6983 16.1562 17.6521L14.4356 15.9314C14.3893 15.8851 14.3343 15.8483 14.2738 15.8232C14.2133 15.7981 14.1484 15.7852 14.0829 15.7852C14.0174 15.7852 13.9525 15.7981 13.892 15.8232C13.8315 15.8483 13.7765 15.8851 13.7303 15.9314C13.6839 15.9777 13.6471 16.0327 13.622 16.0932C13.5969 16.1537 13.584 16.2186 13.584 16.2841C13.584 16.3496 13.5969 16.4145 13.622 16.475C13.6471 16.5355 13.6839 16.5905 13.7303 16.6368L15.451 18.3574C15.5459 18.4524 15.6761 18.5026 15.8012 18.5026Z" fill="#C63C92"/>
</svg>
