<svg width="32" height="32" viewBox="0 0 32 32" fill="none" xmlns="http://www.w3.org/2000/svg">
<rect width="32" height="32" rx="4" fill="#FCF3FA"/>
<path d="M23.3281 12.5V16.2207C22.8126 16.0676 22.2673 15.9844 21.7031 15.9844C18.5496 15.9844 15.9844 18.5496 15.9844 21.7031L15.9912 21.9912C16.0005 22.1772 16.0195 22.3626 16.0469 22.5469H7.75781C6.92663 22.5469 6.25 21.8703 6.25 21.0391V12.5H23.3281ZM8.14844 7.42188H8.32812V8.92969C8.32812 9.39135 8.7024 9.76562 9.16406 9.76562C9.62573 9.76562 10 9.39135 10 8.92969V7.42188H12.0781V8.92969C12.0781 9.39135 12.4524 9.76562 12.9141 9.76562C13.3757 9.76562 13.75 9.39135 13.75 8.92969V7.42188H15.8281V8.92969C15.8281 9.39135 16.2024 9.76562 16.6641 9.76562C17.1257 9.76562 17.5 9.39135 17.5 8.92969V7.42188H19.5781V8.92969C19.5781 9.39135 19.9524 9.76562 20.4141 9.76562C20.8757 9.76562 21.25 9.39135 21.25 8.92969V7.42188H21.4297C22.4763 7.42188 23.3281 8.27374 23.3281 9.32031V10.8281H6.25V9.32031C6.25 8.27374 7.10186 7.42188 8.14844 7.42188ZM20.4141 6.25C20.5996 6.25 20.75 6.40041 20.75 6.58594V6.92188H20.0781V6.58594C20.0781 6.40042 20.2285 6.25 20.4141 6.25ZM16.6641 6.25C16.8496 6.25 17 6.40041 17 6.58594V6.92188H16.3281V6.58594C16.3281 6.40042 16.4785 6.25 16.6641 6.25ZM12.9141 6.25C13.0996 6.25 13.25 6.40041 13.25 6.58594V6.92188H12.5781V6.58594C12.5781 6.40041 12.7285 6.25 12.9141 6.25ZM9.16406 6.25C9.34959 6.25 9.5 6.40041 9.5 6.58594V6.92188H8.82812V6.58594C8.82812 6.40041 8.97854 6.25 9.16406 6.25Z" fill="#84AFDD" stroke="#3C77AE" stroke-width="0.5"/>
<path d="M19.5156 14.3008H20.4922C20.8158 14.3008 21.0781 14.5631 21.0781 14.8867C21.0781 15.2103 20.8158 15.4727 20.4922 15.4727H19.5156C19.192 15.4727 18.9297 15.2103 18.9297 14.8867C18.9297 14.5631 19.192 14.3008 19.5156 14.3008ZM16.0391 14.3008H17.0156C17.3392 14.3008 17.6016 14.5631 17.6016 14.8867C17.6016 15.2103 17.3392 15.4727 17.0156 15.4727H16.0391C15.7155 15.4727 15.4531 15.2103 15.4531 14.8867C15.4531 14.5631 15.7155 14.3008 16.0391 14.3008ZM10.0625 20.7461H9.08594C8.76234 20.7461 8.5 20.4838 8.5 20.1602C8.5 19.8366 8.76234 19.5742 9.08594 19.5742H10.0625C10.3861 19.5742 10.6484 19.8366 10.6484 20.1602C10.6484 20.4838 10.3861 20.7461 10.0625 20.7461ZM10.0625 18.1094H9.08594C8.76234 18.1094 8.5 17.847 8.5 17.5234C8.5 17.1998 8.76234 16.9375 9.08594 16.9375H10.0625C10.3861 16.9375 10.6484 17.1998 10.6484 17.5234C10.6484 17.847 10.3861 18.1094 10.0625 18.1094ZM13.5391 20.7461H12.5625C12.2389 20.7461 11.9766 20.4838 11.9766 20.1602C11.9766 19.8366 12.2389 19.5742 12.5625 19.5742H13.5391C13.8627 19.5742 14.125 19.8366 14.125 20.1602C14.125 20.4838 13.8627 20.7461 13.5391 20.7461ZM13.5391 18.1094H12.5625C12.2389 18.1094 11.9766 17.847 11.9766 17.5234C11.9766 17.1998 12.2389 16.9375 12.5625 16.9375H13.5391C13.8627 16.9375 14.125 17.1998 14.125 17.5234C14.125 17.847 13.8627 18.1094 13.5391 18.1094ZM13.5391 15.4727H12.5625C12.2389 15.4727 11.9766 15.2103 11.9766 14.8867C11.9766 14.5631 12.2389 14.3008 12.5625 14.3008H13.5391C13.8627 14.3008 14.125 14.5631 14.125 14.8867C14.125 15.2103 13.8627 15.4727 13.5391 15.4727Z" fill="white"/>
<path d="M8.14844 7.42188H8.32812V8.92969C8.32812 9.39135 8.7024 9.76562 9.16406 9.76562C9.62573 9.76562 10 9.39135 10 8.92969V7.42188H12.0781V8.92969C12.0781 9.39135 12.4524 9.76562 12.9141 9.76562C13.3757 9.76562 13.75 9.39135 13.75 8.92969V7.42188H15.8281V8.92969C15.8281 9.39135 16.2024 9.76562 16.6641 9.76562C17.1257 9.76562 17.5 9.39135 17.5 8.92969V7.42188H19.5781V8.92969C19.5781 9.39135 19.9524 9.76562 20.4141 9.76562C20.8757 9.76562 21.25 9.39135 21.25 8.92969V7.42188H21.4297C22.4763 7.42188 23.3281 8.27374 23.3281 9.32031V10.8281H6.25V9.32031C6.25 8.27374 7.10186 7.42188 8.14844 7.42188ZM20.4141 6.25C20.5996 6.25 20.75 6.40041 20.75 6.58594V6.92188H20.0781V6.58594C20.0781 6.40042 20.2285 6.25 20.4141 6.25ZM16.6641 6.25C16.8496 6.25 17 6.40041 17 6.58594V6.92188H16.3281V6.58594C16.3281 6.40042 16.4785 6.25 16.6641 6.25ZM12.9141 6.25C13.0996 6.25 13.25 6.40041 13.25 6.58594V6.92188H12.5781V6.58594C12.5781 6.40041 12.7285 6.25 12.9141 6.25ZM9.16406 6.25C9.34959 6.25 9.5 6.40041 9.5 6.58594V6.92188H8.82812V6.58594C8.82812 6.40041 8.97854 6.25 9.16406 6.25Z" fill="#3C77AE" stroke="#3C77AE" stroke-width="0.5"/>
<path d="M21.7031 17.4062C19.3338 17.4062 17.4062 19.3338 17.4062 21.7031C17.4062 24.0724 19.3338 26 21.7031 26C24.0724 26 26 24.0724 26 21.7031C26 19.3338 24.0724 17.4062 21.7031 17.4062Z" fill="white"/>
<path d="M21.7031 17.6562C23.9344 17.6562 25.75 19.4719 25.75 21.7031C25.75 23.9344 23.9344 25.75 21.7031 25.75C19.4719 25.75 17.6562 23.9344 17.6562 21.7031C17.6562 19.4719 19.4719 17.6562 21.7031 17.6562ZM21.7031 18.9141C21.2415 18.9141 20.8672 19.2883 20.8672 19.75V21.7031C20.8672 22.1648 21.2415 22.5391 21.7031 22.5391H23.6562C24.1179 22.5391 24.4922 22.1648 24.4922 21.7031C24.4922 21.2415 24.1179 20.8672 23.6562 20.8672H22.5391V19.75C22.5391 19.2883 22.1648 18.9141 21.7031 18.9141Z" fill="#B32D7D" stroke="#B32D7D" stroke-width="0.5"/>
</svg>
