<svg width="20" height="20" viewBox="0 0 20 20" fill="none" xmlns="http://www.w3.org/2000/svg">
<path fill-rule="evenodd" clip-rule="evenodd" d="M2.70703 3.45114C2.70703 2.12226 3.79688 1.04541 5.14029 1.04688L10.8064 1.05313C11.0206 1.05336 11.2261 1.13755 11.3778 1.28728L17.0524 6.8892C17.2048 7.03954 17.2904 7.24364 17.2904 7.45647V10.6622C17.2904 10.8747 17.205 11.0785 17.053 11.2288C16.9011 11.3791 16.695 11.4636 16.4802 11.4636L3.51721 11.4635C3.06976 11.4635 2.70703 11.1048 2.70703 10.6621V3.45114ZM15.6707 7.78908L10.4707 2.65577V6.53908C10.4707 7.22943 11.0304 7.78908 11.7207 7.78908H15.6707Z" fill="#0E73A9"/>
<path fill-rule="evenodd" clip-rule="evenodd" d="M2.70703 13.3359C2.70703 12.9908 2.98686 12.7109 3.33203 12.7109H4.58203C5.84768 12.7109 6.8737 13.7369 6.8737 15.0026V16.6693C6.8737 17.9349 5.84768 18.9609 4.58203 18.9609H3.33203C2.98686 18.9609 2.70703 18.6811 2.70703 18.3359V13.3359ZM3.95703 13.9609V17.7109H4.58203C5.15733 17.7109 5.6237 17.2446 5.6237 16.6693V15.0026C5.6237 14.4273 5.15733 13.9609 4.58203 13.9609H3.95703ZM7.91536 14.1693C7.91536 13.3639 8.56828 12.7109 9.3737 12.7109H10.6237C11.4291 12.7109 12.082 13.3639 12.082 14.1693V17.5026C12.082 18.308 11.4291 18.9609 10.6237 18.9609H9.3737C8.56828 18.9609 7.91536 18.308 7.91536 17.5026V14.1693ZM9.3737 13.9609C9.25861 13.9609 9.16536 14.0542 9.16536 14.1693V17.5026C9.16536 17.6177 9.25861 17.7109 9.3737 17.7109H10.6237C10.7388 17.7109 10.832 17.6177 10.832 17.5026V14.1693C10.832 14.0542 10.7388 13.9609 10.6237 13.9609H9.3737ZM13.1237 14.1693C13.1237 13.3639 13.7766 12.7109 14.582 12.7109H15.832C16.6374 12.7109 17.2904 13.3639 17.2904 14.1693C17.2904 14.5144 17.0105 14.7943 16.6654 14.7943C16.3202 14.7943 16.0404 14.5144 16.0404 14.1693C16.0404 14.0542 15.9471 13.9609 15.832 13.9609H14.582C14.4669 13.9609 14.3737 14.0542 14.3737 14.1693V17.5026C14.3737 17.6177 14.4669 17.7109 14.582 17.7109H15.832C15.9471 17.7109 16.0404 17.6177 16.0404 17.5026C16.0404 17.1574 16.3202 16.8776 16.6654 16.8776C17.0105 16.8776 17.2904 17.1574 17.2904 17.5026C17.2904 18.308 16.6374 18.9609 15.832 18.9609H14.582C13.7766 18.9609 13.1237 18.308 13.1237 17.5026V14.1693Z" fill="#0E73A9"/>
</svg>
