<svg width="20" height="20" viewBox="0 0 20 20" fill="none" xmlns="http://www.w3.org/2000/svg">
<g clip-path="url(#clip0_21170_112502)">
<path d="M11.0764 0H5.625V1.85053H11.0764V0Z" fill="#3C77AE"/>
<path d="M7.7079 10.7502H5.02734V12.106H9.02734V12.0989V10.7502V6.51172H7.7079V10.7502Z" fill="#3C77AE"/>
<path d="M8.36806 18.079C7.18072 18.0771 6.01661 17.7416 5.00237 17.1089C3.98812 16.4762 3.16256 15.5705 2.61548 14.4905C2.0684 13.4104 1.82075 12.1973 1.89945 10.9831C1.97816 9.76882 2.38022 8.59995 3.0619 7.60356C3.74357 6.60718 4.67877 5.82145 5.76577 5.33183C6.85276 4.8422 8.04994 4.66743 9.2271 4.82653C10.4042 4.98562 11.5163 5.47249 12.4423 6.23417C13.3683 6.99585 14.0728 8.00319 14.4792 9.14663H14.7222C15.3673 9.14708 16.0013 9.31872 16.5625 9.64485C16.2801 8.34349 15.7099 7.12597 14.8958 6.08613L16.2153 4.73381C15.8109 4.24816 15.3697 3.79598 14.8958 3.3815L13.5764 4.7694C12.1142 3.52215 10.2704 2.84188 8.36806 2.84769C6.14871 2.84769 4.02026 3.75129 2.45095 5.3597C0.881632 6.9681 0 9.14957 0 11.4242C0 13.6988 0.881632 15.8803 2.45095 17.4887C4.02026 19.0971 6.14871 20.0007 8.36806 20.0007C8.90493 19.9962 9.44001 19.9366 9.96528 19.8228C9.67584 19.2537 9.47659 18.6411 9.375 18.0078C9.04077 18.0493 8.70467 18.073 8.36806 18.079Z" fill="#3C77AE"/>
<path d="M20.0004 11.3887H11.5977V13.0257H20.0004V11.3887Z" fill="#C3599E"/>
<path d="M17.8129 13.9492H9.41016V15.5862H17.8129V13.9492Z" fill="#C3599E"/>
<path d="M19.5825 16.7969H11.1797V18.4339H19.5825V16.7969Z" fill="#C3599E"/>
</g>
<defs>
<clipPath id="clip0_21170_112502">
<rect width="20" height="20" fill="white"/>
</clipPath>
</defs>
</svg>
