<svg width="242" height="155" viewBox="0 0 242 155" fill="none" xmlns="http://www.w3.org/2000/svg">
<path d="M0.859375 53.6357L212.887 84.1379L241.343 112.873L0.859375 53.6357Z" fill="#C63C92"/>
<path opacity="0.6" d="M0.859375 53.6357L212.887 84.1379L241.343 112.873L0.859375 53.6357Z" fill="white"/>
<path d="M0.859375 53.6357L212.887 84.1379L203.029 125.706L0.859375 53.6357Z" fill="#D95BB0"/>
<path opacity="0.2" d="M0.859375 53.6357L212.887 84.1379L203.029 125.706L0.859375 53.6357Z" fill="black" fill-opacity="0.5"/>
<path d="M198.659 5.55716L210.934 63.2137C211.585 66.3755 209.632 69.4443 206.47 70.0953L96.7369 93.6229C93.5751 94.2738 90.5063 92.321 89.8553 89.1591L77.58 31.5026C77.2081 29.8287 77.58 28.2478 78.51 26.9459C79.3469 25.8299 80.5559 24.9 82.0438 24.621L191.777 1.09342C193.265 0.814441 194.753 1.09342 195.962 1.83738C197.264 2.67433 198.287 3.97625 198.659 5.55716Z" fill="#C63C92"/>
<path opacity="0.4" d="M198.659 5.55716L210.934 63.2137C211.585 66.3755 209.632 69.4443 206.47 70.0953L96.7369 93.6229C93.5751 94.2738 90.5063 92.321 89.8553 89.1591L77.58 31.5026C77.2081 29.8287 77.58 28.2478 78.51 26.9459C79.3469 25.8299 80.5559 24.9 82.0438 24.621L191.777 1.09342C193.265 0.814441 194.753 1.09342 195.962 1.83738C197.264 2.67433 198.287 3.97625 198.659 5.55716Z" fill="black" fill-opacity="0.4"/>
<path d="M195.963 1.83738L159.23 46.8467C152.256 55.4022 140.166 58.006 130.309 52.9843L78.418 26.9459C79.2549 25.8299 80.4638 24.9 81.9518 24.621L191.778 1.09342C193.266 0.814441 194.754 1.09342 195.963 1.83738Z" fill="#C63C92"/>
<path d="M0.859375 53.6357L175.689 95.2043L203.029 125.706L0.859375 53.6357Z" fill="#C63C92"/>
<path opacity="0.6" d="M0.859375 53.6357L175.689 95.2043L203.029 125.706L0.859375 53.6357Z" fill="white"/>
<path d="M64.6107 93.7064L64.1406 94.5088L83.5576 105.885L84.0277 105.083L64.6107 93.7064Z" fill="#C63C92"/>
<path d="M92.7474 110.154L92.2773 110.956L99.2578 115.046L99.7279 114.243L92.7474 110.154Z" fill="#C63C92"/>
<path d="M0.859375 53.6357L175.689 95.2043L141.746 136.215L0.859375 53.6357Z" fill="#D95BB0"/>
<path d="M234.739 151C234.553 151 234.274 151 234.088 150.907L205.632 139.655C204.702 139.283 204.237 138.167 204.609 137.237C204.981 136.307 206.097 135.842 207.027 136.214L235.483 147.467C236.413 147.839 236.878 148.955 236.506 149.885C236.227 150.535 235.483 151 234.739 151Z" fill="#C63C92"/>
<path opacity="0.3" d="M234.739 151C234.553 151 234.274 151 234.088 150.907L205.632 139.655C204.702 139.283 204.237 138.167 204.609 137.237C204.981 136.307 206.097 135.842 207.027 136.214L235.483 147.467C236.413 147.839 236.878 148.955 236.506 149.885C236.227 150.535 235.483 151 234.739 151Z" fill="black"/>
<path d="M233.068 134.726C232.882 134.726 232.603 134.726 232.417 134.633L217.073 128.589C216.143 128.217 215.678 127.101 216.05 126.171C216.422 125.241 217.538 124.776 218.468 125.148L233.812 131.193C234.742 131.565 235.207 132.68 234.835 133.61C234.463 134.261 233.812 134.726 233.068 134.726Z" fill="#C63C92"/>
<path opacity="0.5" d="M233.068 134.726C232.882 134.726 232.603 134.726 232.417 134.633L217.073 128.589C216.143 128.217 215.678 127.101 216.05 126.171C216.422 125.241 217.538 124.776 218.468 125.148L233.812 131.193C234.742 131.565 235.207 132.68 234.835 133.61C234.463 134.261 233.812 134.726 233.068 134.726Z" fill="white"/>
<path d="M201.263 151C201.077 151 200.798 151 200.612 150.907L172.155 139.655C171.225 139.283 170.76 138.167 171.132 137.237C171.504 136.307 172.62 135.842 173.55 136.214L202.006 147.467C202.936 147.839 203.401 148.955 203.029 149.885C202.75 150.535 202.006 151 201.263 151Z" fill="#C63C92"/>
<path opacity="0.3" d="M201.263 151C201.077 151 200.798 151 200.612 150.907L172.155 139.655C171.225 139.283 170.76 138.167 171.132 137.237C171.504 136.307 172.62 135.842 173.55 136.214L202.006 147.467C202.936 147.839 203.401 148.955 203.029 149.885C202.75 150.535 202.006 151 201.263 151Z" fill="black"/>
<path d="M1.37843 124.675L45.6474 113.603L54.2305 143.398L8.20665 154.116L1.37843 124.675Z" fill="#EBEBEB"/>
<path d="M1.43326 124.687L18.2933 102.625C18.6406 102.173 19.1329 101.855 19.6878 101.723C20.2426 101.591 20.8261 101.654 21.3402 101.9L45.7035 113.604" fill="#E0E0E0"/>
<path d="M8.20227 154.116C8.14269 154.124 10.7428 149.352 14.0249 143.552C17.3069 137.752 20.0221 133.086 20.0883 133.128C20.1545 133.17 17.5478 137.892 14.2657 143.692C10.9836 149.492 8.26844 154.158 8.20227 154.116Z" fill="#E0E0E0"/>
<path d="M54.2336 143.403C54.1806 143.46 49.8069 140.506 44.4447 136.803C39.0825 133.101 34.7711 130.006 34.8208 130C34.8704 129.993 39.2475 132.897 44.6097 136.6C49.9719 140.302 54.2753 143.337 54.2336 143.403Z" fill="#E0E0E0"/>
<path d="M4.02199 125.784L0.571783 111.972L39.2991 102.095L43.2784 116.544L27.6507 136.533L4.02199 125.784Z" fill="#FAFAFA"/>
<path d="M4.01523 125.786L4.47257 125.958L5.7479 126.506L10.5467 128.628L27.7394 136.341L27.4712 136.376L43.0639 116.351L43.0233 116.578C42.2635 113.823 41.4555 110.933 40.6508 107.992C40.1094 106.045 39.5681 104.098 39.0367 102.15L39.3537 102.331L0.604621 112.12L0.728614 111.912C1.76724 116.235 2.59802 119.677 3.17871 122.072C3.44746 123.234 3.65924 124.145 3.81408 124.803C3.85357 125.101 3.88516 125.339 3.96975 125.52C3.99351 125.6 4.00461 125.684 4.00266 125.767C3.98609 125.692 3.97596 125.616 3.97238 125.539L3.78093 124.858C3.6071 124.209 3.36685 123.312 3.06012 122.169C2.44832 119.767 1.55531 116.313 0.445847 111.989L0.424789 111.831L0.583702 111.81L39.2779 101.836L39.5362 101.802L39.5691 102.05C40.0971 103.998 40.6352 105.945 41.1831 107.891C41.9951 110.811 42.7972 113.732 43.5557 116.478L43.5728 116.607L43.4853 116.709L27.8252 136.683L27.7205 136.808L27.5696 136.737L10.3493 128.816L5.6194 126.604L4.38977 126.019C4.25937 125.951 4.13419 125.873 4.01523 125.786Z" fill="#E0E0E0"/>
<path d="M34.8575 110.55C34.876 110.689 29.0213 112.269 21.6732 114.097C14.3252 115.924 8.40178 117.291 8.3721 117.143C8.34242 116.996 14.2084 115.424 21.5564 113.597C28.9045 111.77 34.8279 110.403 34.8575 110.55Z" fill="#E0E0E0"/>
<path d="M35.8103 114.45C35.83 114.599 29.9754 116.179 22.6273 118.006C15.2793 119.834 9.35458 121.191 9.32622 121.053C9.29785 120.915 15.1611 119.324 22.5092 117.497C29.8572 115.67 35.7819 114.313 35.8103 114.45Z" fill="#E0E0E0"/>
<path d="M36.9139 118.954C36.9323 119.093 31.0855 120.733 23.7309 122.511C16.3763 124.288 10.4581 125.695 10.4198 125.559C10.3815 125.422 16.2482 123.78 23.6028 122.002C30.9575 120.225 36.8756 118.818 36.9139 118.954Z" fill="#E0E0E0"/>
<path d="M38.004 123.451C38.0237 123.6 32.4134 125.117 25.4376 126.855C18.4617 128.593 12.7715 129.889 12.6835 129.759C12.5956 129.629 18.2741 128.093 25.2598 126.353C32.2456 124.614 37.9756 123.313 38.004 123.451Z" fill="#E0E0E0"/>
<path d="M33.9968 128.609C33.2993 128.94 32.5659 129.19 31.8111 129.352C30.4381 129.745 28.534 130.249 26.4339 130.798C24.3338 131.348 22.4032 131.805 21.0085 132.11C20.2646 132.325 19.4972 132.45 18.7231 132.482C19.4264 132.158 20.1631 131.912 20.9201 131.748C22.293 131.355 24.1958 130.841 26.2959 130.292C28.396 129.742 30.3279 129.295 31.7127 128.992C32.4567 128.776 33.2231 128.648 33.9968 128.609Z" fill="#E0E0E0"/>
<path d="M29.9072 133.679C29.0446 134.145 28.1096 134.463 27.1413 134.619C26.2042 134.914 25.2226 135.044 24.2408 135.002C25.0972 134.522 26.0347 134.203 27.0067 134.062C27.9426 133.761 28.9251 133.631 29.9072 133.679Z" fill="#E0E0E0"/>
<path d="M60.7565 1.00023L26.9102 17.9668L38.3699 40.7359L72.2163 23.7693L60.7565 1.00023Z" fill="#F5F5F5"/>
<path d="M61.0121 1.23047C60.9741 1.38874 60.9204 1.54283 60.8518 1.69047C60.7215 2.02047 60.5412 2.45047 60.3207 2.99047L58.3167 7.73047L51.5832 23.3805L51.523 23.5105H51.3828L51.0521 23.4405L34.1481 19.8205L29.0278 18.6805L27.645 18.3605C27.4809 18.3281 27.3199 18.2812 27.1641 18.2205C27.3296 18.228 27.494 18.2514 27.655 18.2905L29.0579 18.5505L34.1982 19.5505L51.1222 23.0705L51.4629 23.1405L51.2625 23.2405C53.9279 17.1505 56.3327 11.6505 58.0963 7.64047L60.1805 2.92047L60.7716 1.65047C60.8394 1.50374 60.9198 1.3632 61.0121 1.23047Z" fill="#E0E0E0"/>
<path d="M38.6074 40.9204C38.5172 40.9204 39.4891 36.5004 40.7817 31.1004C42.0743 25.7004 43.2066 21.3404 43.2968 21.3604C43.387 21.3804 42.415 25.7804 41.1224 31.1804C39.8298 36.5804 38.6975 40.9804 38.6074 40.9204Z" fill="#E0E0E0"/>
<path d="M54.3987 15.4807C54.3987 15.3907 58.517 17.2307 63.497 19.5807C68.4771 21.9307 72.5152 23.9107 72.4551 23.9907C72.3949 24.0707 68.3368 22.2407 63.3568 19.8907C58.3767 17.5407 54.3587 15.5607 54.3987 15.4807Z" fill="#E0E0E0"/>
</svg>
