<svg width="32" height="33" viewBox="0 0 32 33" fill="none" xmlns="http://www.w3.org/2000/svg">
<path d="M26.668 6.84375V6.17708C26.668 5.44071 26.071 4.84375 25.3346 4.84375H4.0013C3.26493 4.84375 2.66797 5.44071 2.66797 6.17708V9.55259C2.66797 9.94828 2.84373 10.3235 3.14773 10.5769L10.2556 16.5001C10.5202 16.7207 10.6892 17.0349 10.7272 17.3772L11.79 26.9424C11.8925 27.8647 12.8822 28.4028 13.712 27.9875L16.6968 26.4935C17.0872 26.298 17.3572 25.9239 17.4196 25.4916L17.5493 24.5932" stroke="#1D9DDA" stroke-width="2" stroke-linecap="round" stroke-linejoin="round"/>
<g clip-path="url(#clip0_24684_19457)">
<path d="M24.9508 12C26.9076 12 28.2224 13.8625 28.2224 15.6C28.2224 19.1188 22.7656 22 22.6669 22C22.5681 22 17.1113 19.1188 17.1113 15.6C17.1113 13.8625 18.4261 12 20.3829 12C21.5064 12 22.241 12.5688 22.6669 13.0688C23.0928 12.5688 23.8274 12 24.9508 12Z" stroke="#1D9DDA" stroke-width="2" stroke-linecap="round" stroke-linejoin="round"/>
</g>
<defs>
<clipPath id="clip0_24684_19457">
<rect width="13.3333" height="13.3333" fill="white" transform="translate(16 10.334)"/>
</clipPath>
</defs>
</svg>
