<svg width="72" height="72" viewBox="0 0 72 72" fill="none" xmlns="http://www.w3.org/2000/svg">
<g clip-path="url(#clip0_20760_6612)">
<path d="M32.0447 86.25C32.0142 85.2849 31.9826 84.3193 31.939 83.3541C31.8511 81.4021 31.7149 79.4501 31.4406 77.5144C30.9814 74.2739 29.7743 71.3901 28.9297 68.2614C28.5949 67.0215 28.3321 65.7624 28.1314 64.4942C27.7568 62.1283 27.608 59.7499 27.6281 57.3606C27.6483 55.0187 27.8179 52.6544 28.6401 50.4407C29.0867 49.2373 29.5824 47.7286 30.5605 46.8453C30.7154 46.7057 30.9902 46.5519 31.1178 46.4211C31.1178 46.4199 31.1178 46.4188 31.1178 46.4177C31.1661 46.3807 31.2133 46.3425 31.2581 46.3021C31.2915 46.0855 31.3322 45.8699 31.3645 45.6507C31.3673 45.6342 31.3694 45.6172 31.3716 45.6008C30.8663 45.5601 30.3083 45.9253 29.8638 46.1183C28.8048 46.579 27.7175 46.9725 26.6621 47.4434C26.1763 47.6601 25.6833 47.8874 25.2089 48.118C24.7458 48.3432 24.3819 48.7224 23.9167 48.9489C23.3966 49.2021 22.8754 49.4527 22.3467 49.6893C21.947 49.8684 21.5457 50.0455 21.1473 50.2286C21.4322 50.9968 21.8029 51.7335 22.2498 52.4201C22.2357 52.4696 22.2215 52.5191 22.2061 52.5684C21.8135 53.8165 21.048 54.8944 20.5256 56.0853C20.3974 56.3775 20.29 56.6758 20.1837 56.9719L20.1848 56.9724C20.4241 57.1027 20.4339 57.3944 20.5152 57.6464C21.1897 59.7358 20.0839 60.943 19.7801 62.8978C19.5364 64.4632 20.122 65.8787 20.0572 67.4071C20.0152 68.3934 19.4677 69.238 19.2142 70.1693C19.1008 70.5864 19.0217 71.0112 18.9617 71.4392C18.3952 75.5189 17.4776 79.5772 16.6787 83.6241C16.4873 84.5936 16.3216 85.641 16.0713 86.665L16.0735 86.6656C16.3308 89.7959 16.3641 92.9977 16.3401 96.1613H32.0262C32.0949 94.7474 32.1467 93.3324 32.1511 91.917C32.1576 90.0129 32.1052 88.1486 32.0447 86.25ZM28.5807 80.7723C28.3544 80.2663 28.6521 79.5902 29.2404 79.5493C29.5114 79.5302 29.6788 79.54 29.9056 79.7167C30.3898 80.0951 30.1864 80.714 29.8478 81.1153C29.5125 81.5139 28.7595 81.172 28.5807 80.7723ZM30.4007 90.2222C30.0649 90.6203 29.3124 90.2789 29.1336 89.8793C28.9073 89.3728 29.205 88.6972 29.7928 88.6563C30.0638 88.6372 30.2317 88.647 30.458 88.8237C30.9427 89.202 30.7388 89.8209 30.4007 90.2222Z" fill="#397BA9"/>
<path d="M36.0225 43.3735L36.0236 43.3419C37.4402 43.295 39.0945 42.4711 40.312 41.5234L40.3377 41.5556C40.2858 41.9651 40.3104 42.4149 40.2799 42.7825C40.2193 43.5027 40.1817 44.2476 40.2368 44.9733C39.3955 45.024 38.5814 45.24 37.7106 45.1702C36.7378 45.0922 35.6997 44.8408 34.7907 44.4869C33.9903 44.1756 33.2787 43.6592 32.5977 43.145C32.1326 42.7939 31.7673 42.3757 31.3692 41.9564C31.2983 41.8817 31.2236 41.7824 31.1445 41.6815C31.6069 41.9411 32.078 42.1875 32.5568 42.4384C33.144 42.7459 33.7721 42.9498 34.4128 43.1243C34.9293 43.2656 35.4936 43.3583 36.0225 43.3735Z" fill="#CE82B8"/>
<path d="M54.5216 96.1658H41.6862C41.7042 94.1991 41.7298 92.2181 41.5547 90.2683C41.4075 88.6287 41.3192 86.9814 41.3633 85.3353C41.3999 83.9825 41.2925 82.6112 41.3383 81.2486C41.389 79.7246 41.7167 78.2088 41.7794 76.6782C41.8263 75.537 42.0226 74.4328 42.2641 73.3167C42.5411 72.0364 42.5237 70.7174 42.8737 69.4404C43.2276 68.1509 43.6027 66.869 43.8584 65.5484C44.0913 64.3472 44.2347 63.1356 44.4806 61.9404C45.0389 59.231 45.0526 56.4894 44.6098 53.7598C44.4812 52.9632 44.4255 52.171 44.2281 51.3836C43.8415 49.8432 43.1392 48.3411 41.9359 47.2702C41.4909 46.8743 40.8819 46.6829 40.4473 46.3149C40.407 46.0995 40.3596 45.8852 40.3203 45.6671C40.317 45.6508 40.3142 45.6339 40.3115 45.6175C40.8153 45.5608 41.3846 45.9082 41.835 46.087C42.9081 46.5139 44.0073 46.8727 45.0771 47.31C45.5695 47.5112 46.0695 47.7228 46.551 47.9382C47.0209 48.1486 47.3966 48.5161 47.8689 48.7277C48.3967 48.9644 48.9256 49.1983 49.4616 49.418C50.6012 49.8858 51.7533 50.3368 52.8215 50.9567C54.2391 51.779 55.5717 52.6012 56.7005 53.8204C57.755 54.96 58.5941 56.4638 59.3232 57.8254C60.1312 59.3325 60.7408 61.0173 61.2872 62.6346C61.4191 63.0266 61.6132 63.4214 61.6896 63.8276C61.833 64.592 61.8848 65.3898 62.0004 66.163C62.1312 67.037 62.2495 67.9132 62.3586 68.7905C62.5794 70.5746 62.7588 72.3636 62.9137 74.1542C63.1111 76.4378 63.0865 78.7355 63.3313 81.0152C63.5707 83.2486 64.442 85.2524 64.8183 87.4439C65.062 88.8653 64.7779 90.2912 64.6853 91.7121C64.6351 92.4777 64.917 93.2176 64.9077 93.9793C64.899 94.7127 64.7022 95.4297 64.682 96.1658H54.5216Z" fill="#4979A0"/>
<path d="M16.7631 96.1033H27.1796C27.1616 94.1366 27.1359 92.1556 27.311 90.2058C27.4582 88.5662 27.5465 86.9189 27.5024 85.2728C27.4658 83.92 27.5732 82.5487 27.5274 81.1861C27.4767 79.6621 27.149 78.1463 27.0863 76.6157C27.0394 75.4745 26.8431 74.3703 26.6016 73.2542C26.3246 71.9739 26.342 70.6549 25.992 69.3779C25.6381 68.0884 25.263 66.8065 25.0073 65.4859C24.7744 64.2847 24.631 63.0731 24.3851 61.8779C23.8268 59.1685 26.2321 56.4269 26.6748 53.6973C26.8035 52.9007 26.8591 52.1085 27.0565 51.3211C27.4432 49.7807 28.1454 48.2786 29.3488 47.2077C29.7937 46.8118 30.4028 46.6204 30.8374 46.2524C30.8777 46.037 30.9251 45.8227 30.9644 45.6046C30.9677 45.5883 30.9704 45.5714 30.9731 45.555C30.4693 45.4983 29.9001 45.8457 29.4497 46.0245C28.3766 46.4514 27.2773 46.8102 26.2076 47.2475C25.7152 47.4487 25.2152 47.6603 24.7337 47.8757C24.2637 48.0861 23.888 48.4536 23.4158 48.6652C22.888 48.9019 22.3591 49.1358 21.8231 49.3555C20.6835 49.8233 19.5314 50.2743 18.4632 50.8942C17.0455 51.7165 15.7129 52.5387 14.5842 53.7579C13.5297 54.8975 12.6905 56.4013 11.9615 57.7629C11.1534 59.27 10.5438 60.9548 9.99749 62.5721C9.86553 62.9641 9.67143 63.3589 9.59507 63.7651C9.45167 64.5295 9.39985 65.3273 9.28429 66.1005C9.15345 66.9745 9.03513 67.8507 8.92607 68.728C8.70523 70.5121 8.52583 72.3011 8.37098 74.0917C8.17357 76.3753 8.19812 78.673 7.95332 80.9527C7.71395 83.1861 6.84265 85.1899 6.46638 87.3814C6.22265 88.8028 6.50675 90.2287 6.59941 91.6496C6.64957 92.4152 6.36765 93.1551 6.37692 93.9168C6.38565 94.6502 6.58248 95.3672 6.60266 96.1033H16.7631Z" fill="#407AA7"/>
<path fill-rule="evenodd" clip-rule="evenodd" d="M38.461 35.3577C38.5974 35.4162 38.6606 35.5742 38.6022 35.7107C38.1401 36.7887 36.9351 37.2846 35.785 37.2846C34.6327 37.2846 33.4055 36.7887 32.8736 35.725C32.8073 35.5922 32.8611 35.4308 32.9938 35.3644C33.1266 35.298 33.2881 35.3518 33.3544 35.4846C33.7633 36.3023 34.7534 36.7471 35.785 36.7471C36.8187 36.7471 37.7638 36.3022 38.1081 35.4989C38.1666 35.3625 38.3246 35.2993 38.461 35.3577Z" fill="black"/>
<path d="M23.6132 30.4998C23.5582 30.1132 23.5146 29.7255 23.4688 29.3406C23.4186 28.9202 23.3831 28.4884 23.2528 28.08C22.9906 27.2594 22.4834 26.5445 22.2043 25.7305C22.0735 25.3482 21.9987 25.0004 22.0042 24.5941C22.0107 24.153 22.069 23.7146 22.1072 23.2751C22.1705 22.5401 22.3242 21.816 22.496 21.0996C22.7223 20.1563 23.062 19.1813 22.96 18.2015C22.9481 18.0881 22.9333 17.9752 22.9191 17.8618C22.8254 17.1225 23.0751 16.5745 23.4132 15.9392C23.935 14.9572 24.7131 14.0466 25.7109 13.5232C26.8074 12.948 28.1466 12.7538 29.2922 12.2566C29.7845 12.0428 30.2578 11.786 30.7093 11.4954C30.8941 11.376 31.0348 11.2222 31.2295 11.1213C31.5228 10.9692 31.8336 10.8454 32.1352 10.7162C32.4967 10.5613 32.8822 10.4403 33.2693 10.3711C34.4514 10.16 35.7312 10.2326 36.8833 10.5635C38.0136 10.8879 39.1875 11.5799 39.4673 12.81C39.5393 13.1263 39.7759 13.0963 40.0632 13.0963C40.9122 12.9032 41.8234 13.0968 42.5785 13.5107C43.6778 14.1126 44.0491 15.1579 44.6407 16.1776C45.1658 17.0833 45.9008 17.8401 46.5442 18.659C47.3626 19.7016 47.9859 20.8788 47.783 22.2441C47.6887 22.8804 47.5911 23.4775 47.6107 24.116C47.6303 24.7654 47.3206 25.501 47.1587 26.1237C47.0535 26.5266 47.0148 26.9639 46.8572 27.344C46.4793 28.2529 46.4177 29.2109 46.4608 30.1782C46.4635 30.2486 46.4668 30.3189 46.4712 30.3898C46.4848 30.6199 46.4673 30.9323 46.4494 31.1657C46.4347 31.3543 46.4183 31.5277 46.354 31.706C46.2989 31.8582 46.1713 32.092 45.9859 32.1199C45.3801 32.2093 45.4962 30.4498 45.487 30.1259C45.4565 29.0566 45.2672 27.8609 44.6516 26.9558C44.3321 26.4858 44.1358 25.8914 44.0049 25.3396C43.8593 24.7279 43.8212 24.1515 43.8217 23.5278C43.8228 22.5567 43.8932 21.5762 43.373 20.6935C42.8975 19.8865 41.921 19.5299 41.0294 19.4634C40.8157 19.447 40.68 19.4607 40.4706 19.4481C39.0289 19.3614 37.609 19.4606 36.2682 20.0239C35.8457 20.2017 35.3827 20.2742 34.9258 20.2655C33.7508 20.2442 32.639 19.7747 31.501 19.5359C30.94 19.4176 30.4089 19.3903 29.8429 19.429C29.2562 19.4694 28.6679 19.5059 28.1804 19.8811C27.7409 20.2191 27.4405 20.7066 27.2704 21.229C27.1521 21.5905 27.0866 21.9678 27.0485 22.3451C27.001 22.819 27.1379 23.2699 27.0986 23.7394C27.0305 24.5573 26.88 25.3419 26.4841 26.0682C26.3816 26.2574 26.3113 26.4597 26.2246 26.656C26.1461 26.8332 26.0278 26.964 25.9219 27.1249C25.6902 27.4777 25.4328 27.8201 25.272 28.2138C24.9056 29.1118 25.1368 30.0955 25.1499 31.03C25.1553 31.4123 25.152 31.8277 24.9007 32.1418C24.6411 32.4657 24.2944 32.3763 24.0468 32.0851C23.7884 31.7825 23.76 31.397 23.6945 31.0224C23.664 30.8482 23.6372 30.6743 23.6132 30.4998Z" fill="#4079AB"/>
<path d="M40.3151 45.6152C40.3179 45.6316 40.3206 45.6485 40.3239 45.6649C40.3069 45.6545 40.2906 45.6567 40.2852 45.6191C40.295 45.6174 40.3053 45.6164 40.3151 45.6152Z" fill="#8CC295"/>
<path d="M40.7608 29.1462C40.8268 29.487 40.7167 29.8501 40.5285 30.1342C40.3197 30.4493 39.859 30.4902 39.5166 30.3959C38.7521 30.1865 38.5269 29.2787 39.0618 28.7111C39.3475 28.4074 39.8317 28.1914 40.2314 28.403C40.4773 28.5333 40.7085 28.8763 40.7608 29.1462Z" fill="#1E244A"/>
<path d="M31.1063 45.6968C31.1063 45.6625 31.1074 45.6287 31.109 45.5948C31.1401 44.9094 31.1521 44.2213 31.1117 43.5359C31.0916 43.1929 31.0583 42.8511 31.0076 42.512C30.9858 42.368 30.9394 42.2246 30.9138 42.0878C30.8904 41.9596 30.9258 41.7622 30.8369 41.6565L30.9002 41.5469C30.982 41.5943 31.0643 41.6412 31.1472 41.6881C31.2262 41.789 31.3009 41.8882 31.3718 41.9629C31.7699 42.3822 32.1352 42.8005 32.6003 43.1516C33.2813 43.6658 33.9929 44.1821 34.7933 44.4935C35.7023 44.8473 36.7405 45.0987 37.7132 45.1767C38.584 45.2465 39.3981 45.0306 40.2394 44.9799C40.2481 45.1053 40.2601 45.2302 40.2754 45.3539C40.2863 45.4428 40.3 45.53 40.3152 45.6173C40.3054 45.6184 40.295 45.6195 40.2852 45.6211C40.2907 45.6588 40.307 45.6566 40.3239 45.6669C40.3632 45.8851 40.4106 46.0993 40.451 46.3147C40.5055 46.6086 40.5459 46.9047 40.5295 47.2149C40.4995 47.7852 40.3409 48.3452 40.0868 48.8556C39.5835 49.867 38.7029 50.7056 37.6462 51.1162C37.438 51.1975 37.2318 51.2907 37.0208 51.3643C36.6441 51.4963 36.2084 51.5486 35.8104 51.5273C35.4064 51.5061 34.9783 51.4259 34.5873 51.3218C33.9374 51.1489 33.3948 50.9712 32.843 50.566C32.0099 49.9548 31.3648 49.0617 31.1048 48.0562C31.0022 47.6625 30.9957 47.3593 31.0731 46.9733C31.1091 46.7944 31.1189 46.6107 31.1189 46.4253C31.1189 46.1821 31.102 45.9368 31.1063 45.6968Z" fill="#F0AEC9"/>
<path d="M41.6603 25.3097C41.8228 25.5742 41.6723 25.8583 41.38 25.9013C41.1074 25.9422 40.8413 25.8234 40.5899 25.7362C40.4754 25.6958 40.3522 25.6483 40.2361 25.62C40.0921 25.5846 39.9504 25.6298 39.8053 25.6255C39.3871 25.6124 39.0174 25.7732 38.627 25.8975C38.5234 25.9302 38.3904 25.9422 38.2857 25.8822C37.928 25.6761 38.2077 25.3266 38.4231 25.1347C38.5736 25.0005 38.7077 24.9182 38.8964 24.8468C39.139 24.7552 39.4171 24.6549 39.6723 24.6156C39.8931 24.5813 40.1232 24.5655 40.3457 24.59C40.8031 24.6401 41.41 24.9041 41.6603 25.3097Z" fill="#1E244A"/>
<path d="M32.4224 25.3097C32.5855 25.5742 32.4344 25.8583 32.1422 25.9013C31.8695 25.9422 31.604 25.8234 31.3526 25.7362C31.2381 25.6958 31.1149 25.6483 30.9988 25.62C30.8548 25.5846 30.7131 25.6298 30.5675 25.6255C30.1492 25.6124 29.7801 25.7732 29.3892 25.8975C29.2861 25.9302 29.1531 25.9422 29.0484 25.8822C28.6907 25.6761 28.9704 25.3266 29.1858 25.1347C29.3363 25.0005 29.4699 24.9182 29.6591 24.8468C29.9017 24.7552 30.1798 24.6549 30.4344 24.6156C30.6558 24.5813 30.8859 24.5655 31.1078 24.59C31.5653 24.6401 32.1727 24.9041 32.4224 25.3097Z" fill="#1E244A"/>
<path d="M31.6599 29.1462C31.7259 29.487 31.6152 29.8501 31.4271 30.1342C31.2182 30.4493 30.7575 30.4902 30.4151 30.3959C29.6512 30.1865 29.426 29.2787 29.9603 28.7111C30.2466 28.4074 30.7302 28.1914 31.1299 28.403C31.3758 28.5333 31.6076 28.8763 31.6599 29.1462Z" fill="#1E244A"/>
<path d="M31.1431 41.6847C31.0602 41.6378 30.9778 41.591 30.8961 41.5435C30.4228 41.272 29.9582 40.983 29.5029 40.6608C28.606 40.0255 27.6453 39.2992 26.9833 38.4116C26.5913 37.8865 26.1856 37.3838 25.7755 36.8701C25.4108 36.4132 25.1752 35.869 24.8219 35.4045C24.4462 34.9094 24.0231 34.8308 23.5013 34.5353C22.9697 34.2338 22.4708 33.8216 22.1136 33.3232C21.974 33.1291 21.8273 32.9835 21.7298 32.7627C21.624 32.5238 21.5198 32.291 21.4533 32.0375C21.3203 31.5304 21.3132 30.9846 21.5166 30.4944C21.684 30.0915 22.0984 29.7878 22.5324 29.7442C23.1115 29.6864 23.3105 30.1057 23.6115 30.5015C23.6355 30.676 23.6622 30.8499 23.6928 31.0238C23.7582 31.3984 23.7865 31.784 24.045 32.0866C24.2926 32.3778 24.6394 32.4672 24.8989 32.1433C25.1503 31.8292 25.1536 31.4137 25.1481 31.0315C25.135 30.0969 24.9038 29.1133 25.2702 28.2152C25.4311 27.8216 25.6884 27.4792 25.9202 27.1264C26.0259 26.9655 26.1442 26.8347 26.2228 26.6574C26.3095 26.4611 26.3798 26.2588 26.4823 26.0696C26.8782 25.3433 27.0287 24.5587 27.0969 23.7408C27.1361 23.2714 26.9993 22.8204 27.0467 22.3466C27.0849 21.9693 27.1503 21.592 27.2686 21.2305C27.4387 20.7081 27.7392 20.2207 28.1786 19.8826C28.6661 19.5074 29.2544 19.4709 29.8411 19.4305C30.4071 19.3918 30.9382 19.4191 31.4993 19.5374C32.6372 19.7762 33.749 20.2457 34.924 20.2669C35.381 20.2757 35.8439 20.2031 36.2665 20.0254C37.6073 19.4621 39.0271 19.3629 40.4688 19.4496C40.6782 19.4621 40.814 19.4485 41.0277 19.4649C41.9192 19.5314 42.8957 19.888 43.3712 20.695C43.8914 21.5777 43.821 22.5581 43.82 23.5292C43.8194 24.153 43.8576 24.7294 44.0031 25.3411C44.134 25.8929 44.3303 26.4872 44.6498 26.9572C45.2654 27.8624 45.4546 29.0581 45.4852 30.1274C45.4945 30.4512 45.3783 32.2108 45.9841 32.1214C46.1695 32.0936 46.2971 31.8596 46.3522 31.7075C46.4165 31.5292 46.4328 31.3558 46.4476 31.1672C46.4656 30.9338 46.483 30.6214 46.4694 30.3913C46.465 30.3204 46.4618 30.2501 46.459 30.1797L46.4873 30.1786C47.0009 29.4103 48.1078 29.8078 48.4132 30.5423C48.6231 31.0483 48.6155 31.6115 48.4781 32.135C48.4094 32.3967 48.302 32.6372 48.1929 32.8837C48.0921 33.1121 47.9405 33.2621 47.7971 33.4627C47.4279 33.9769 46.9127 34.4028 46.3636 34.7135C45.959 34.9431 45.5315 35.1279 45.1171 35.3384L45.0877 35.3253C44.5626 36.5238 43.9143 37.7659 43.11 38.7364C42.4808 39.4965 41.7136 40.2463 41.0009 40.9317C40.7932 41.1313 40.5615 41.3313 40.3106 41.5265C39.0931 42.4742 37.4387 43.2981 36.0222 43.345L36.0211 43.3766C35.4922 43.3613 34.9279 43.2687 34.4115 43.1274C33.7709 42.9529 33.1427 42.749 32.5555 42.4415C32.0766 42.1907 31.6055 41.9443 31.1431 41.6847ZM41.3841 25.9027C41.6764 25.8596 41.8269 25.5755 41.6644 25.3111C41.4141 24.9054 40.8073 24.6415 40.3498 24.5913C40.1273 24.5668 39.8972 24.5826 39.6764 24.6169C39.4212 24.6562 39.1431 24.7565 38.9004 24.8481C38.7118 24.9195 38.5776 25.0019 38.4271 25.136C38.2118 25.3279 37.9321 25.6775 38.2898 25.8835C38.3945 25.9435 38.5275 25.9315 38.6311 25.8988C39.0215 25.7745 39.3912 25.6137 39.8094 25.6268C39.9545 25.6311 40.0962 25.5859 40.2402 25.6213C40.3563 25.6497 40.4795 25.6971 40.594 25.7375C40.8455 25.8247 41.1115 25.9437 41.3841 25.9027ZM40.5265 30.1279C40.7146 29.8438 40.8247 29.4807 40.7588 29.1399C40.7064 28.87 40.4752 28.527 40.2293 28.3967C39.8297 28.1852 39.3455 28.4011 39.0598 28.7048C38.5249 29.2724 38.7501 30.1803 39.5145 30.3897C39.8569 30.484 40.3176 30.4431 40.5265 30.1279ZM38.1273 36.8679C38.5226 36.4611 39.051 35.7877 38.8078 35.189C38.6732 34.8581 38.3869 34.6972 38.0543 34.6252C37.6928 34.5468 37.3454 34.6939 36.9905 34.7403C36.6017 34.791 36.208 34.7714 35.8171 34.7894C35.5183 34.803 35.2211 34.815 34.9212 34.7937C34.6017 34.7708 34.2745 34.7659 33.9561 34.7332C33.6104 34.6972 33.1982 34.7981 32.9833 35.0893C32.7238 35.4404 32.9065 36.0097 33.1377 36.3226C33.4332 36.7223 33.8236 37.0478 34.2375 37.3199C34.6944 37.6204 35.1219 37.7403 35.659 37.8101C36.6131 37.9333 37.4709 37.5424 38.1273 36.8679ZM32.1431 25.9027C32.4353 25.8596 32.5864 25.5755 32.4234 25.3111C32.1736 24.9054 31.5662 24.6415 31.1087 24.5913C30.8868 24.5668 30.6567 24.5826 30.4353 24.6169C30.1807 24.6562 29.9026 24.7565 29.66 24.8481C29.4708 24.9195 29.3372 25.0019 29.1867 25.136C28.9713 25.3279 28.6916 25.6775 29.0493 25.8835C29.154 25.9435 29.287 25.9315 29.3901 25.8988C29.7811 25.7745 30.1502 25.6137 30.5684 25.6268C30.714 25.6311 30.8557 25.5859 30.9997 25.6213C31.1158 25.6497 31.239 25.6971 31.3535 25.7375C31.6049 25.8247 31.8705 25.9437 32.1431 25.9027ZM31.4283 30.1279C31.6164 29.8438 31.7271 29.4807 31.6611 29.1399C31.6088 28.87 31.377 28.527 31.1311 28.3967C30.7314 28.1852 30.2478 28.4011 29.9615 28.7048C29.4272 29.2724 29.6524 30.1803 30.4163 30.3897C30.7587 30.484 31.2194 30.4431 31.4283 30.1279Z" fill="#F0AEC9"/>
<path d="M38.1273 36.8679C38.5226 36.4611 39.051 35.7877 38.8078 35.189C38.6732 34.8581 38.3869 34.6972 38.0543 34.6252C37.6928 34.5468 37.3454 34.6939 36.9905 34.7403C36.6017 34.791 36.208 34.7714 35.8171 34.7894C35.5183 34.803 35.2211 34.815 34.9212 34.7937C34.6017 34.7708 34.2745 34.7659 33.9561 34.7332C33.6104 34.6972 33.1982 34.7981 32.9833 35.0893C32.7238 35.4404 32.9065 36.0097 33.1377 36.3226C33.4332 36.7223 33.8236 37.0478 34.2375 37.3199C34.6944 37.6204 35.1219 37.7403 35.659 37.8101C36.6131 37.9333 37.4709 37.5424 38.1273 36.8679Z" fill="#F0AEC9"/>
<path d="M40.5265 30.1279C40.7146 29.8438 40.8247 29.4807 40.7588 29.1399C40.7064 28.87 40.4752 28.527 40.2293 28.3967C39.8297 28.1852 39.3455 28.4011 39.0598 28.7048C38.5249 29.2724 38.7501 30.1803 39.5145 30.3897C39.8569 30.484 40.3176 30.4431 40.5265 30.1279Z" fill="#F0AEC9"/>
<path d="M41.3841 25.9027C41.6764 25.8596 41.8269 25.5755 41.6644 25.3111C41.4141 24.9054 40.8073 24.6415 40.3498 24.5913C40.1273 24.5668 39.8972 24.5826 39.6764 24.6169C39.4212 24.6562 39.1431 24.7565 38.9004 24.8481C38.7118 24.9195 38.5776 25.0019 38.4271 25.136C38.2118 25.3279 37.9321 25.6775 38.2898 25.8835C38.3945 25.9435 38.5275 25.9315 38.6311 25.8988C39.0215 25.7745 39.3912 25.6137 39.8094 25.6268C39.9545 25.6311 40.0962 25.5859 40.2402 25.6213C40.3563 25.6497 40.4795 25.6971 40.594 25.7375C40.8455 25.8247 41.1115 25.9437 41.3841 25.9027Z" fill="#F0AEC9"/>
<path d="M32.1431 25.9027C32.4353 25.8596 32.5864 25.5755 32.4234 25.3111C32.1736 24.9054 31.5662 24.6415 31.1087 24.5913C30.8868 24.5668 30.6567 24.5826 30.4353 24.6169C30.1807 24.6562 29.9026 24.7565 29.66 24.8481C29.4708 24.9195 29.3372 25.0019 29.1867 25.136C28.9713 25.3279 28.6916 25.6775 29.0493 25.8835C29.154 25.9435 29.287 25.9315 29.3901 25.8988C29.7811 25.7745 30.1502 25.6137 30.5684 25.6268C30.714 25.6311 30.8557 25.5859 30.9997 25.6213C31.1158 25.6497 31.239 25.6971 31.3535 25.7375C31.6049 25.8247 31.8705 25.9437 32.1431 25.9027Z" fill="#F0AEC9"/>
<path d="M31.4283 30.1279C31.6164 29.8438 31.7271 29.4807 31.6611 29.1399C31.6088 28.87 31.377 28.527 31.1311 28.3967C30.7314 28.1852 30.2478 28.4011 29.9615 28.7048C29.4272 29.2724 29.6524 30.1803 30.4163 30.3897C30.7587 30.484 31.2194 30.4431 31.4283 30.1279Z" fill="#F0AEC9"/>
<path d="M44.6107 53.7594C44.482 52.9628 44.4264 52.1706 44.229 51.3832C43.8424 49.8428 43.1401 48.3407 41.9367 47.2697C41.4918 46.8739 40.8827 46.6825 40.4481 46.3145C40.5027 46.6083 40.543 46.9044 40.5266 47.2147C40.4967 47.785 40.338 48.345 40.0839 48.8553C39.5806 49.8668 38.7 50.7054 37.6433 51.116C37.4351 51.1972 37.2289 51.2904 37.0179 51.3641C36.6411 51.496 36.2054 51.5484 35.8074 51.5271C35.4034 51.5059 34.9754 51.4257 34.5844 51.3216C33.9345 51.1487 33.3919 50.971 32.8401 50.5658C32.0069 49.9546 31.3619 49.0615 31.1018 48.056C30.9993 47.6623 30.9928 47.3591 31.0702 46.9731C31.1062 46.7943 31.116 46.6105 31.116 46.4251C30.9884 46.556 30.7136 46.7097 30.5587 46.8493C29.5805 47.7326 29.0849 49.2414 28.6383 50.4447C27.816 52.6585 27.6465 55.0227 27.6263 57.3646C27.6061 59.754 27.755 62.1324 28.1296 64.4982C28.3302 65.7665 28.593 67.0255 28.9278 68.2655C29.7285 71.2316 30.8547 73.9778 31.3608 77.0163C32.0382 79.3283 32.4543 81.7169 32.594 84.122C32.6231 84.6222 32.6558 85.0816 32.7662 85.5643C32.9054 86.1731 32.8719 86.8688 32.9269 87.4918C33.0421 88.7971 33.1865 90.1009 33.406 91.3932C33.4973 91.931 33.4851 92.453 33.6571 92.9685C33.8539 93.5586 33.8569 94.277 33.9428 94.8933C34.0014 95.314 34.0593 95.7399 34.0911 96.1654H36.0878H41.6869C41.7049 94.1986 41.7306 92.2177 41.5555 90.2678C41.4083 88.6282 41.32 86.981 41.3641 85.3349C41.4007 83.9821 41.2933 82.6107 41.3391 81.2481C41.3897 79.7241 41.7175 78.2083 41.7802 76.6778C41.8271 75.5365 42.0234 74.4324 42.2649 73.3162C42.5419 72.0359 42.5245 70.717 42.8745 69.44C43.2284 68.1504 43.6035 66.8685 43.8592 65.5479C44.0921 64.3467 44.2355 63.1352 44.4814 61.9399C45.0398 59.2306 45.0534 56.489 44.6107 53.7594Z" fill="#FFFBF2"/>
<path d="M37.1676 18.9014C37.133 18.9014 37.0984 18.8883 37.0718 18.8622C37.0182 18.8093 37.0177 18.723 37.0705 18.6694C38.0623 17.6644 38.5191 16.3427 38.8352 15.1825C38.855 15.1099 38.9302 15.0671 39.0025 15.0868C39.0751 15.1066 39.118 15.1815 39.0982 15.2542C38.5185 17.3825 37.8459 18.2717 37.2646 18.8608C37.2379 18.8879 37.2028 18.9014 37.1676 18.9014Z" fill="#2E577A"/>
<path d="M39.3571 18.9582C39.3007 18.9582 39.248 18.923 39.2284 18.8668C39.2035 18.7958 39.241 18.718 39.312 18.6932C40.0363 18.4396 40.6866 18.0627 41.2449 17.5729C41.3016 17.5233 41.3876 17.5289 41.4373 17.5855C41.4869 17.642 41.4813 17.7282 41.4247 17.7778C40.84 18.2907 40.1596 18.6853 39.4022 18.9504C39.3872 18.9557 39.372 18.9582 39.3571 18.9582Z" fill="#2E577A"/>
<path d="M33.0983 17.6393C33.0354 17.6393 32.9789 17.5956 32.9651 17.5317C32.6588 16.1127 31.8631 15.0391 30.7819 14.5863C30.7125 14.5572 30.6798 14.4773 30.7089 14.4079C30.738 14.3384 30.818 14.3058 30.8873 14.3348C32.0518 14.8226 32.9063 15.9669 33.2317 17.4742C33.2476 17.5478 33.2008 17.6203 33.1272 17.6362C33.1175 17.6383 33.1078 17.6393 33.0983 17.6393Z" fill="#2E577A"/>
<path d="M28.5099 17.5731C28.4875 17.5731 28.4648 17.5676 28.4438 17.5559C27.621 17.0982 26.8315 16.9184 26.0977 17.0217C26.0229 17.0322 25.9543 16.9802 25.9437 16.9056C25.9332 16.831 25.9852 16.7622 26.0598 16.7516C26.8538 16.6401 27.7005 16.8304 28.5764 17.3176C28.6421 17.3542 28.6658 17.4372 28.6292 17.503C28.6043 17.5478 28.5578 17.5731 28.5099 17.5731Z" fill="#2E577A"/>
<path d="M24.036 33.7811C23.986 33.7811 23.9379 33.7536 23.914 33.7059C23.8436 33.5654 23.7095 33.4748 23.5676 33.3789C23.403 33.2676 23.2164 33.1414 23.1282 32.9204C23.0371 32.6921 23.0997 32.4905 23.1549 32.3126C23.1788 32.2356 23.2014 32.1628 23.2121 32.0898C23.2227 32.0173 23.1988 31.9519 23.1686 31.869C23.1541 31.8292 23.1391 31.7882 23.1267 31.7427C23.0867 31.5967 23.051 31.51 22.9665 31.4407C22.7493 31.2626 22.5551 31.1748 22.42 31.1929C22.3487 31.2026 22.2888 31.2431 22.237 31.3166C22.1937 31.3781 22.1086 31.3928 22.047 31.3494C21.9855 31.306 21.9708 31.2209 22.0142 31.1594C22.1108 31.0226 22.2349 30.943 22.3833 30.9228C22.6007 30.8936 22.8549 30.9967 23.1393 31.2298C23.2936 31.3563 23.3476 31.517 23.3896 31.6707C23.3991 31.7053 23.4115 31.7395 23.4247 31.7756C23.4611 31.8755 23.5024 31.9887 23.4818 32.1293C23.4681 32.2233 23.4412 32.3099 23.4152 32.3935C23.3654 32.554 23.3261 32.6807 23.3814 32.8193C23.4385 32.9625 23.5691 33.0508 23.7203 33.153C23.8773 33.2592 24.0553 33.3795 24.1577 33.5837C24.1914 33.651 24.1642 33.7329 24.0969 33.7666C24.0774 33.7765 24.0565 33.7811 24.036 33.7811Z" fill="#CD85AD"/>
<path d="M46.062 33.9471C46.0415 33.9471 46.0206 33.9424 46.001 33.9326C45.9337 33.8989 45.9065 33.8169 45.9403 33.7496C46.0454 33.5398 46.2287 33.416 46.3903 33.3067C46.547 33.2007 46.6824 33.1093 46.7419 32.9601C46.7995 32.8156 46.7567 32.6775 46.707 32.5175C46.6802 32.4313 46.6525 32.3422 46.6384 32.2454C46.6174 32.1014 46.6597 31.9852 46.6972 31.8826C46.7107 31.8452 46.7237 31.8099 46.7335 31.7739C46.7767 31.6159 46.8322 31.4508 46.9905 31.321C47.283 31.0811 47.5446 30.9747 47.7675 31.0051C47.9195 31.0257 48.0467 31.1072 48.1456 31.2475C48.189 31.309 48.1743 31.3941 48.1127 31.4375C48.0513 31.4808 47.9662 31.4662 47.9228 31.4046C47.8685 31.3277 47.8057 31.2853 47.7308 31.2752C47.5903 31.2563 47.3885 31.3472 47.1633 31.5319C47.0751 31.6042 47.0379 31.6944 46.9965 31.8459C46.9837 31.8927 46.9683 31.9351 46.9533 31.976C46.9219 32.0622 46.8971 32.1302 46.9082 32.2061C46.9193 32.2818 46.9426 32.3571 46.9674 32.4368C47.0242 32.6197 47.0886 32.827 46.9951 33.0613C46.9045 33.2882 46.7207 33.4125 46.543 33.5326C46.396 33.6319 46.2572 33.7258 46.184 33.8719C46.1601 33.9195 46.1119 33.9471 46.062 33.9471Z" fill="#CD85AD"/>
<path d="M54.5314 96.3543C54.531 96.3543 54.5306 96.3543 54.5302 96.3543C54.4549 96.3536 54.3944 96.2921 54.3951 96.2168C54.4036 95.2802 54.3213 94.3134 54.2417 93.3783C54.1725 92.5663 54.1011 91.7265 54.0895 90.911C54.0683 89.4089 53.9923 87.8813 53.9188 86.404C53.8923 85.8719 53.8649 85.3217 53.8405 84.7805C53.6959 81.577 53.477 78.5301 53.1714 75.4658C52.8492 72.2359 52.5763 69.0762 52.7717 65.9307C52.913 63.6548 53.4144 61.2256 54.3043 58.5042C54.3277 58.4325 54.4048 58.3936 54.4762 58.4169C54.5478 58.4403 54.5868 58.5173 54.5635 58.5889C53.6808 61.2881 53.1837 63.6951 53.0438 65.9476C52.8497 69.0728 53.1217 72.2204 53.4428 75.4387C53.7489 78.5081 53.9681 81.5597 54.1129 84.7682C54.1373 85.3088 54.1646 85.8587 54.1911 86.3905C54.2647 87.8701 54.3408 89.4002 54.3621 90.9072C54.3735 91.7131 54.4446 92.5479 54.5133 93.3553C54.5934 94.2966 54.6763 95.2699 54.6677 96.2193C54.667 96.2941 54.6061 96.3543 54.5314 96.3543Z" fill="#2E5378"/>
<path d="M55.068 57.5998C55.0508 57.5998 55.0333 57.5966 55.0164 57.5897C54.9467 57.5612 54.9134 57.4816 54.9418 57.4119C55.1631 56.8698 55.4775 56.3752 55.7815 55.897C55.9872 55.5732 56.1999 55.2385 56.3773 54.8976C56.412 54.8308 56.4945 54.8049 56.5611 54.8397C56.6279 54.8744 56.6539 54.9567 56.6191 55.0235C56.4362 55.3748 56.2203 55.7146 56.0115 56.0431C55.714 56.5113 55.4063 56.9954 55.1942 57.515C55.1727 57.5679 55.1217 57.5998 55.068 57.5998Z" fill="#2E5378"/>
<path d="M19.0833 95.952C19.0837 95.952 19.0842 95.952 19.0846 95.952C19.1599 95.9513 19.2203 95.8897 19.2196 95.8144C19.2111 94.8778 19.2934 93.911 19.3731 92.976C19.4422 92.1639 19.5136 91.3242 19.5252 90.5087C19.5465 89.0065 19.6225 87.4789 19.696 86.0017C19.7225 85.4695 19.7498 84.9193 19.7742 84.3781C19.9188 81.1747 20.1377 78.1278 20.4433 75.0635C20.7655 71.8335 21.0385 68.6738 20.8431 65.5284C20.7017 63.2525 20.2004 60.8233 19.3104 58.1018C19.2871 58.0302 19.21 57.9912 19.1385 58.0146C19.0669 58.038 19.0279 58.115 19.0513 58.1865C19.9339 60.8857 20.431 63.2928 20.5709 65.5452C20.765 68.6704 20.493 71.818 20.172 75.0364C19.8659 78.1057 19.6467 81.1574 19.5019 84.3659C19.4775 84.9065 19.4501 85.4564 19.4237 85.9881C19.35 87.4678 19.274 88.9979 19.2526 90.5049C19.2412 91.3107 19.1701 92.1455 19.1014 92.9529C19.0213 93.8942 18.9384 94.8676 18.947 95.817C18.9478 95.8918 19.0086 95.952 19.0833 95.952Z" fill="#2E5378"/>
<path d="M18.5409 57.1877C18.5581 57.1877 18.5756 57.1845 18.5924 57.1776C18.6622 57.1491 18.6955 57.0695 18.6671 56.9998C18.4457 56.4577 18.1314 55.9631 17.8274 55.4848C17.6217 55.1611 17.409 54.8264 17.2316 54.4855C17.1969 54.4187 17.1144 54.3928 17.0478 54.4275C16.981 54.4623 16.955 54.5446 16.9898 54.6114C17.1726 54.9627 17.3886 55.3025 17.5974 55.631C17.8949 56.0992 18.2025 56.5833 18.4147 57.1029C18.4362 57.1558 18.4872 57.1877 18.5409 57.1877Z" fill="#2E5378"/>
<path d="M32.382 55.7548L35.4215 60.22L31.1445 93.8656L36.7531 99.3801L41.0301 92.9161L37.4174 59.8408L40.4598 55.2786L35.9918 51.666L32.382 55.7548Z" fill="#4979A0" stroke="#264054" stroke-width="0.285132" stroke-linecap="round" stroke-linejoin="round"/>
</g>
<path d="M37.1088 61.0653C42.7446 65.6806 51.0513 64.8511 55.6666 59.2152C60.2799 53.5806 59.4491 45.2719 53.8145 40.6586C48.1799 36.0454 39.8732 36.8749 35.2579 42.5107C30.6466 48.1441 31.4741 56.452 37.1088 61.0653Z" fill="#093B59"/>
<path d="M38.2676 59.6483C43.1214 63.6229 50.2782 62.9092 54.2527 58.0554C58.2273 53.2015 57.5136 46.0447 52.6597 42.0702C47.8059 38.0957 40.6491 38.8094 36.6746 43.6632C32.7013 48.519 33.415 55.6758 38.2676 59.6483Z" fill="#61B9D9"/>
<path d="M52.689 59.0718C56.6615 54.2192 55.9511 47.0631 51.094 43.0879C47.4248 40.084 42.4417 39.7613 38.5102 41.8778C42.6016 38.7064 48.4803 38.6521 52.6574 42.0703C57.5112 46.0449 58.2249 53.2017 54.2504 58.0555C53.2797 59.2401 52.1219 60.1774 50.8502 60.8605C51.516 60.3462 52.1339 59.7505 52.689 59.0718Z" fill="#2A95B4"/>
<path fill-rule="evenodd" clip-rule="evenodd" d="M55.2245 61.3639C55.1952 61.7827 55.3627 62.2088 55.7123 62.495L63.6953 69.0303C64.2678 69.499 65.1118 69.4148 65.5805 68.8423C66.0491 68.2698 65.965 67.4258 65.3925 66.9572L57.4094 60.4219C57.081 60.153 56.6631 60.0661 56.2781 60.149L55.3165 59.3613L54.2979 60.6049L55.2245 61.3639Z" fill="#093B59"/>
<path d="M39.7339 58.5938C41.2693 58.1381 41.8012 55.3742 40.922 52.4223C40.0428 49.4703 38.0857 47.4503 36.5536 47.9068C35.0194 48.3645 34.4862 51.1264 35.3674 54.0771C36.2434 57.0283 38.1998 59.0516 39.7339 58.5938Z" fill="#8EC6DD"/>
<defs>
<clipPath id="clip0_20760_6612">
<rect width="59.2637" height="59.2637" fill="white" transform="translate(6.36768 5.3125)"/>
</clipPath>
</defs>
</svg>
