<svg width="20" height="20" viewBox="0 0 20 20" fill="none" xmlns="http://www.w3.org/2000/svg">
<g clip-path="url(#clip0_25058_40436)">
<path d="M10.5388 0.866176C10.9984 0.576096 11.6007 0.662656 11.9599 1.0705C12.0981 1.22739 12.278 1.34192 12.4786 1.40082C12.6792 1.45973 12.8924 1.4606 13.0935 1.40334C13.6162 1.2545 14.1697 1.50726 14.3995 1.99978C14.4879 2.18925 14.6282 2.3498 14.8041 2.46284C14.98 2.57588 15.1843 2.63678 15.3933 2.6385C15.9368 2.64294 16.3967 3.04138 16.4784 3.57874C16.5099 3.78544 16.5992 3.97901 16.7361 4.13702C16.8731 4.29503 17.0519 4.41103 17.2521 4.47158C17.7723 4.62898 18.1012 5.14082 18.0283 5.67942C18.0002 5.88661 18.0314 6.09751 18.1183 6.2877C18.2051 6.47789 18.3441 6.63958 18.5191 6.75406C18.9739 7.05166 19.1453 7.63542 18.9236 8.13166C18.8383 8.32255 18.8088 8.53369 18.8386 8.74065C18.8683 8.9476 18.9561 9.14189 19.0917 9.30102C19.4443 9.7147 19.4443 10.3231 19.0917 10.7368C18.9561 10.8959 18.8683 11.0902 18.8386 11.2971C18.8088 11.5041 18.8383 11.7152 18.9236 11.9061C19.1453 12.4024 18.9739 12.9862 18.5191 13.2837C18.3441 13.3982 18.2051 13.5599 18.1183 13.7501C18.0314 13.9403 18.0002 14.1512 18.0283 14.3584C18.1013 14.897 17.7723 15.4088 17.2521 15.5662C17.0519 15.6268 16.8731 15.7428 16.7361 15.9008C16.5992 16.0588 16.5099 16.2524 16.4784 16.4591C16.3967 16.9964 15.9368 17.3948 15.3933 17.3993C15.1843 17.401 14.9799 17.4619 14.8041 17.5749C14.6282 17.688 14.4879 17.8485 14.3995 18.038C14.1697 18.5305 13.6162 18.7833 13.0935 18.6345C12.8924 18.5772 12.6792 18.5781 12.4786 18.637C12.278 18.6959 12.0982 18.8104 11.9599 18.9673C11.6007 19.3751 10.9984 19.4617 10.5388 19.1716C10.362 19.06 10.1572 19.0008 9.94808 19.0008C9.739 19.0008 9.53419 19.06 9.35738 19.1716C8.89774 19.4617 8.2955 19.3751 7.93622 18.9673C7.79801 18.8104 7.61818 18.6959 7.41757 18.637C7.21695 18.5781 7.00375 18.5772 6.80266 18.6345C6.27994 18.7833 5.72646 18.5305 5.49666 18.038C5.40825 17.8485 5.26798 17.688 5.09209 17.575C4.9162 17.4619 4.71189 17.401 4.50282 17.3993C3.95934 17.3949 3.4995 16.9964 3.41774 16.4591C3.38629 16.2524 3.29694 16.0588 3.16002 15.9008C3.0231 15.7428 2.84422 15.6268 2.6441 15.5662C2.12386 15.4088 1.79494 14.897 1.86786 14.3584C1.89592 14.1512 1.86472 13.9403 1.77787 13.7501C1.69101 13.5599 1.55206 13.3982 1.3771 13.2837C0.922299 12.9861 0.750859 12.4024 0.972579 11.9061C1.05787 11.7152 1.08735 11.5041 1.0576 11.2971C1.02785 11.0902 0.940077 10.8959 0.804459 10.7368C0.451899 10.3231 0.451899 9.71466 0.804459 9.30102C0.940077 9.14189 1.02785 8.9476 1.0576 8.74065C1.08735 8.53369 1.05787 8.32255 0.972579 8.13166C0.750859 7.63542 0.922259 7.05162 1.3771 6.75406C1.55206 6.63958 1.69101 6.47789 1.77787 6.2877C1.86472 6.09751 1.89592 5.88661 1.86786 5.67942C1.7949 5.14082 2.12386 4.62898 2.6441 4.47158C2.84422 4.41103 3.0231 4.29504 3.16002 4.13702C3.29694 3.97901 3.3863 3.78544 3.41774 3.57874C3.4995 3.04142 3.95934 2.64298 4.50282 2.6385C4.7119 2.63679 4.91621 2.57589 5.0921 2.46285C5.26799 2.34981 5.40826 2.18925 5.49666 1.99978C5.7265 1.50726 6.27994 1.2545 6.80266 1.40334C7.00375 1.4606 7.21695 1.45972 7.41756 1.40082C7.61818 1.34191 7.79801 1.22738 7.93622 1.0705C8.2955 0.662656 8.89774 0.576096 9.35738 0.866176C9.53419 0.977772 9.739 1.037 9.94808 1.037C10.1572 1.037 10.362 0.977772 10.5388 0.866176Z" fill="#0DB14B"/>
<path d="M5.5935 10.7125L5.9203 11.5321L6.96828 11.1142L7.16435 11.606L6.11637 12.0238L6.50852 13.0074L5.9109 13.2456L4.7998 10.459L6.67926 9.70961L6.87534 10.2014L5.5935 10.7125ZM7.09929 9.54214L8.24255 9.0863C8.93545 8.81002 9.40389 8.97792 9.64788 9.58985C9.79277 9.95323 9.75513 10.2785 9.53509 10.5657L10.38 11.4637L9.72607 11.7245L9.0114 10.9265L8.43543 11.1562L8.80798 12.0905L8.21036 12.3288L7.09926 9.54215L7.09929 9.54214ZM8.79696 10.4516C8.93263 10.3975 9.02051 10.3158 9.06055 10.2064C9.10055 10.0971 9.09339 9.97407 9.0389 9.83741C8.98445 9.70083 8.90415 9.60856 8.79804 9.56061C8.69191 9.51267 8.57103 9.51577 8.43536 9.56987L7.88972 9.78742L8.24266 10.6726L8.79696 10.4516ZM10.5779 8.72511L10.8377 9.37669L11.8857 8.95883L12.0785 9.44238L11.0305 9.86024L11.2968 10.5282L12.6046 10.0067L12.8007 10.4985L10.8953 11.2582L9.78419 8.47161L11.6896 7.71188L11.8857 8.20365L10.5779 8.72511ZM12.9769 7.76857L13.2367 8.42015L14.2847 8.00229L14.4775 8.48583L13.4295 8.90369L13.6958 9.57167L15.0037 9.0502L15.1998 9.54197L13.2943 10.3017L12.1832 7.51507L14.0887 6.75534L14.2847 7.2471L12.9769 7.76857Z" fill="white"/>
</g>
<defs>
<clipPath id="clip0_25058_40436">
<rect width="20" height="20" fill="white"/>
</clipPath>
</defs>
</svg>
