<svg width="18" height="22" viewBox="0 0 18 22" fill="none" xmlns="http://www.w3.org/2000/svg">
<ellipse cx="11.4148" cy="15.5023" rx="3.38744" ry="3.33822" fill="white"/>
<path d="M1.9082 0.164062H11.2578C12.223 0.164062 13.0018 0.93457 13.002 1.87988V10.6641C12.502 10.5046 11.9691 10.4189 11.416 10.4189C8.57261 10.4192 6.25977 12.6948 6.25977 15.5029C6.25979 16.6233 6.62908 17.6598 7.25293 18.5H1.9082C0.942952 18.5 0.164062 17.7296 0.164062 16.7842V1.87988C0.164184 0.93457 0.943027 0.164062 1.9082 0.164062Z" fill="#84AFDD" stroke="#3C77AE" stroke-width="0.328327"/>
<path fill-rule="evenodd" clip-rule="evenodd" d="M13.9033 17.2989L17.8601 21.1982C18.0462 21.3816 18.0462 21.6797 17.8601 21.8631C17.674 22.0465 17.3714 22.0465 17.1853 21.8631L13.2266 17.9619C13.4852 17.7766 13.7134 17.5528 13.9033 17.2989Z" fill="#C3599E"/>
<path fill-rule="evenodd" clip-rule="evenodd" d="M11.4168 11.5215C13.6453 11.5215 15.4548 13.3047 15.4548 15.5007C15.4548 17.6968 13.6453 19.48 11.4168 19.48C9.18841 19.48 7.37891 17.6968 7.37891 15.5007C7.37891 13.3047 9.18841 11.5215 11.4168 11.5215ZM11.4168 12.462C9.71517 12.462 8.33323 13.8239 8.33323 15.5008C8.33323 17.1777 9.71517 18.5396 11.4168 18.5396C13.1185 18.5396 14.5004 17.1777 14.5004 15.5008C14.5004 13.8239 13.1185 12.462 11.4168 12.462Z" fill="#C3599E"/>
<rect x="1.34687" y="3.37617" width="10.4723" height="1.69983" rx="0.849915" fill="white" stroke="#3C77AE" stroke-width="0.4"/>
<rect x="1.34687" y="5.78437" width="7.88412" height="1.69983" rx="0.849915" fill="white" stroke="#3C77AE" stroke-width="0.4"/>
<rect x="1.34687" y="8.19062" width="5.69667" height="1.69983" rx="0.849915" fill="white" stroke="#3C77AE" stroke-width="0.4"/>
</svg>
