<svg width="32" height="32" viewBox="0 0 32 32" fill="none" xmlns="http://www.w3.org/2000/svg">
<path fill-rule="evenodd" clip-rule="evenodd" d="M11.678 23.9381H9.20398V22.7852C9.20398 21.5162 8.16704 20.4793 6.8981 20.4793H4.27854C3.0096 20.4793 1.97266 21.5162 1.97266 22.7852V29.5952C1.97266 29.8177 2.15377 30 2.37748 30H8.80022C9.02395 30 9.20504 29.8189 9.20504 29.5952V27.6065C9.20504 27.487 9.10679 27.3887 8.98724 27.3887H6.25996C6.07885 27.3887 5.92614 27.2704 5.87408 27.1058L4.59447 23.9595C4.51043 23.7535 4.60867 23.5179 4.81464 23.4339C5.02061 23.3486 5.25616 23.4481 5.34022 23.654L6.38307 26.2204C6.47303 26.4429 6.67781 26.5802 6.9181 26.5802L11.6802 26.579C12.4248 26.579 12.9504 25.9848 12.9504 25.2556C12.9504 24.5277 12.4189 23.9381 11.6791 23.9381L11.678 23.9381ZM5.58764 14.1796C4.00857 14.1796 2.72778 15.4604 2.72778 17.0394C2.72778 18.6185 4.00857 19.8993 5.58764 19.8993C7.1667 19.8993 8.4475 18.6185 8.4475 17.0394C8.4475 15.4604 7.1667 14.1796 5.58764 14.1796ZM28.2665 15.0176C27.1491 13.9014 25.3392 13.9014 24.2216 15.0176C23.1054 16.1339 23.1054 17.945 24.2216 19.0613C25.3391 20.1775 27.149 20.1775 28.2665 19.0613C29.3827 17.9451 29.3827 16.134 28.2665 15.0176ZM18.8168 20.9777C18.3646 20.5006 18.3255 19.9407 18.5208 19.4708C18.8878 18.5948 20.0549 18.1356 20.8871 18.9334L22.4981 20.4793H27.7018C28.8902 20.4793 29.8597 21.45 29.8597 22.6372V29.5642C29.8597 29.8045 29.6644 29.9998 29.4241 29.9998H23.0641C22.8238 29.9998 22.6285 29.8045 22.6285 29.5642V23.5203L21.4069 23.5179C21.2921 23.5179 21.1772 23.4729 21.092 23.383L18.8181 20.9788L18.8168 20.9777ZM21.125 27.4501C21.3653 27.4501 21.5606 27.6454 21.5606 27.8857V29.5631C21.5606 29.8034 21.3653 29.9987 21.125 29.9987H10.7059C10.4656 29.9987 10.2703 29.8034 10.2703 29.5631V27.8857C10.2703 27.6454 10.4656 27.4501 10.7059 27.4501H21.125Z" fill="#84AFDC"/>
<path d="M6.8981 20.4793C8.16704 20.4793 9.20398 21.5162 9.20398 22.7852V23.9381L11.6791 23.9381C12.4189 23.9381 12.9504 24.5277 12.9504 25.2556C12.9504 25.9848 12.4248 26.579 11.6802 26.579L6.9181 26.5802C6.67781 26.5802 6.47303 26.4429 6.38307 26.2204L5.34022 23.654C5.25616 23.4481 5.02061 23.3486 4.81464 23.4339C4.60867 23.5179 4.51043 23.7535 4.59447 23.9595L5.87408 27.1058C5.92614 27.2704 6.07885 27.3887 6.25996 27.3887H8.98724C9.10679 27.3887 9.20504 27.487 9.20504 27.6065V29.5952C9.20504 29.8189 9.02395 30 8.80022 30H2.37748C2.15377 30 1.97266 29.8177 1.97266 29.5952V22.7852C1.97266 21.5162 3.0096 20.4793 4.27854 20.4793H6.8981ZM18.5208 19.4708C18.8878 18.5948 20.0549 18.1356 20.8871 18.9334L22.4981 20.4793H27.7018C28.8902 20.4793 29.8597 21.45 29.8597 22.6372V29.5642C29.8597 29.8045 29.6644 29.9998 29.4241 29.9998H23.0641C22.8238 29.9998 22.6285 29.8045 22.6285 29.5642V23.5203L21.4069 23.5179C21.2921 23.5179 21.1772 23.4729 21.092 23.383L18.8181 20.9788L18.8168 20.9777C18.3646 20.5006 18.3255 19.9407 18.5208 19.4708ZM21.125 27.4501C21.3653 27.4501 21.5606 27.6454 21.5606 27.8857V29.5631C21.5606 29.8034 21.3653 29.9987 21.125 29.9987H10.7059C10.4656 29.9987 10.2703 29.8034 10.2703 29.5631V27.8857C10.2703 27.6454 10.4656 27.4501 10.7059 27.4501H21.125ZM4.27893 21.1206C3.36402 21.1206 2.61352 21.8703 2.61352 22.7852V29.3588H8.56421V28.03H6.25964C5.80857 28.0299 5.42966 27.7441 5.2821 27.3464L5.28039 27.3473L4.00037 24.2011C3.78479 23.6706 4.03631 23.061 4.56946 22.8416L4.67114 22.8057C5.147 22.6635 5.65724 22.8796 5.88879 23.315L5.93408 23.4115L6.95947 25.9382H11.6805L11.8079 25.9254C12.0966 25.8688 12.3094 25.6191 12.3094 25.2555C12.3094 24.8472 12.0311 24.5787 11.6788 24.5787H8.56335V22.7852C8.56335 21.8703 7.81286 21.1206 6.89795 21.1206H4.27893ZM20.4433 19.3963C20.1985 19.1615 19.9362 19.1255 19.7034 19.1912C19.4498 19.2627 19.2201 19.46 19.112 19.7158L19.1129 19.7167C19.0064 19.973 19.0188 20.2584 19.2804 20.5353L19.2838 20.5387L21.4952 22.8766L23.2692 22.8809V29.3588H29.219V22.6373C29.219 21.8039 28.5356 21.1206 27.7014 21.1206H22.2403L20.4433 19.3963ZM10.9115 29.3579H20.9193V28.0916H10.9115V29.3579ZM5.58764 14.1796C7.1667 14.1796 8.4475 15.4604 8.4475 17.0394C8.4475 18.6185 7.1667 19.8993 5.58764 19.8993C4.00857 19.8993 2.72778 18.6185 2.72778 17.0394C2.72778 15.4604 4.00857 14.1796 5.58764 14.1796ZM24.2216 15.0176C25.3392 13.9014 27.1491 13.9014 28.2665 15.0176C29.3827 16.134 29.3827 17.9451 28.2665 19.0613C27.149 20.1775 25.3391 20.1775 24.2216 19.0613C23.1054 17.945 23.1054 16.1339 24.2216 15.0176ZM5.58801 14.8205C4.36297 14.8205 3.3689 15.8145 3.3689 17.0396C3.36896 18.2645 4.36302 19.2587 5.58801 19.2587C6.81283 19.2585 7.8062 18.2644 7.80627 17.0396C7.80627 15.8147 6.81288 14.8207 5.58801 14.8205ZM27.8133 15.4716C26.9462 14.6054 25.542 14.6053 24.6748 15.4716L24.6739 15.4707C23.8087 16.3364 23.8089 17.7416 24.6739 18.6076C25.487 19.4197 26.7729 19.4705 27.645 18.7597L27.8133 18.6076C28.679 17.7416 28.6792 16.3375 27.8133 15.4716Z" fill="#4677A3"/>
<path fill-rule="evenodd" clip-rule="evenodd" d="M1.97266 9.71297V4.21235C1.97266 2.98956 2.96927 2 4.19085 2H11.7833C13.0049 2 14.0016 2.98958 14.0016 4.21237L13.9992 9.713C13.9992 10.937 13.0025 11.9265 11.7809 11.9265L9.71417 11.9289C9.55435 11.9159 9.391 11.981 9.28565 12.1171L8.25225 13.4488C8.11731 13.624 7.85571 13.624 7.71959 13.4488L6.69685 12.1313C6.60807 12.007 6.46248 11.9265 6.29794 11.9265H4.19094C2.96936 11.9265 1.97266 10.9358 1.97266 9.71297ZM7.17007 5.51935C7.08603 5.7774 6.80904 5.91826 6.55097 5.83423C6.29293 5.75019 6.15206 5.4732 6.2361 5.21514C6.62555 4.01841 8.2484 3.6325 9.21195 4.50135C10.1175 5.31811 9.84999 6.6936 8.75977 7.19784C8.43633 7.34712 8.44246 7.62712 8.44897 7.92495C8.4499 7.96721 8.45083 8.00983 8.45083 8.05248C8.45083 8.32474 8.23066 8.54491 7.9584 8.54491C7.68615 8.54491 7.46598 8.32474 7.46598 8.05248C7.46598 8.01298 7.46577 7.97446 7.46557 7.93678C7.46344 7.54315 7.46181 7.24105 7.70272 6.86402C7.90964 6.54021 8.11808 6.42878 8.30209 6.33041C8.44229 6.25546 8.56831 6.18809 8.66863 6.04014C8.97285 5.5915 8.58814 5.01387 7.95721 5.01387C7.61393 5.01387 7.27184 5.20444 7.17002 5.51814L7.17007 5.51935ZM7.98447 8.91179C7.71221 8.91179 7.49204 9.13196 7.49204 9.40421V9.4054C7.49204 9.67765 7.71221 9.89782 7.98447 9.89782C8.25672 9.89782 8.47689 9.67765 8.47689 9.4054C8.47689 9.13196 8.25672 8.91179 7.98447 8.91179Z" fill="#C9589C"/>
<path fill-rule="evenodd" clip-rule="evenodd" d="M20.2168 11.9254L22.2835 11.9277L22.2859 11.9278C22.4458 11.9147 22.6091 11.9798 22.7145 12.116L23.7479 13.4476C23.884 13.6228 24.1444 13.6228 24.2805 13.4476L25.3033 12.1301C25.392 12.0059 25.5376 11.9254 25.7022 11.9254H27.8092C29.0308 11.9254 30.0275 10.9358 30.0275 9.71299V4.21237C30.0275 2.98958 29.0308 2 27.8092 2H20.2179C18.9964 2 17.9997 2.98958 17.9997 4.21237L17.9985 9.71299C17.9985 10.9346 18.9952 11.9254 20.2168 11.9254ZM20.2168 6.19023H27.808C28.0802 6.19023 28.3004 5.97006 28.3004 5.6978C28.3004 5.42555 28.0802 5.20538 27.808 5.20538H20.2168C19.9445 5.20538 19.7243 5.42555 19.7243 5.6978C19.7243 5.97006 19.9445 6.19023 20.2168 6.19023ZM25.4037 8.71984H20.2168C19.9445 8.71984 19.7243 8.49967 19.7243 8.22742C19.7243 7.95516 19.9445 7.73499 20.2168 7.73499H25.4037C25.676 7.73499 25.8962 7.95516 25.8962 8.22742C25.8962 8.49967 25.676 8.71984 25.4037 8.71984Z" fill="#C9589C"/>
</svg>
