<svg width="21" height="21" viewBox="0 0 21 21" fill="none" xmlns="http://www.w3.org/2000/svg">
<g id="Social icon" clip-path="url(#clip0_20263_6077)">
<path id="Vector" d="M20.305 10.7312C20.305 10.0514 20.2499 9.36797 20.1323 8.69922H10.7V12.55H16.1015C15.8773 13.792 15.1571 14.8907 14.1026 15.5888V18.0874H17.325C19.2174 16.3457 20.305 13.7736 20.305 10.7312Z" fill="#4285F4"/>
<path id="Vector_2" d="M10.7001 20.5017C13.3971 20.5017 15.6716 19.6162 17.3288 18.0876L14.1063 15.589C13.2097 16.199 12.0523 16.5444 10.7038 16.5444C8.09492 16.5444 5.88291 14.7843 5.08923 12.418H1.76385V14.9938C3.46145 18.3706 6.9191 20.5017 10.7001 20.5017Z" fill="#34A853"/>
<path id="Vector_3" d="M5.08546 12.4163C4.66657 11.1743 4.66657 9.82947 5.08546 8.5875V6.01172H1.76376C0.345428 8.83737 0.345428 12.1664 1.76376 14.9921L5.08546 12.4163Z" fill="#FBBC04"/>
<path id="Vector_4" d="M10.7001 4.45805C12.1258 4.436 13.5037 4.97247 14.5362 5.95722L17.3913 3.10218C15.5834 1.40459 13.184 0.471278 10.7001 0.500674C6.9191 0.500674 3.46145 2.63185 1.76385 6.01234L5.08555 8.58813C5.87556 6.21811 8.09125 4.45805 10.7001 4.45805Z" fill="#EA4335"/>
</g>
<defs>
<clipPath id="clip0_20263_6077">
<rect width="20" height="20" fill="white" transform="translate(0.5 0.5)"/>
</clipPath>
</defs>
</svg>
