<svg width="32" height="32" viewBox="0 0 32 32" fill="none" xmlns="http://www.w3.org/2000/svg">
<rect width="32" height="32" rx="4" fill="#FCF3FA"/>
<path d="M9.93241 14.7754C9.69985 14.7754 9.51381 14.7754 9.28125 14.7754C9.28125 14.6049 9.28125 14.4498 9.28125 14.2793C13.9789 14.2793 18.6765 14.2793 23.3897 14.2793C23.3897 14.4188 23.3897 14.5739 23.3897 14.7444C23.2036 14.7444 22.9866 14.7444 22.754 14.7444C22.754 17.6281 22.754 20.4963 22.754 23.38C22.3044 23.38 21.8703 23.38 21.4207 23.38C21.4207 21.0544 21.4207 18.7289 21.4207 16.4033C20.9556 16.4033 20.5215 16.4033 20.0564 16.4033C20.0564 18.7289 20.0564 21.0389 20.0564 23.38C19.5137 23.38 19.0176 23.38 18.4905 23.38C18.4905 21.0544 18.4905 18.7444 18.4905 16.4033C18.0254 16.4033 17.5913 16.4033 17.1106 16.4033C17.1106 18.7289 17.1106 21.0544 17.1106 23.3955C16.5835 23.3955 16.0874 23.3955 15.5603 23.3955C15.5603 21.0699 15.5603 18.7444 15.5603 16.4033C15.0952 16.4033 14.6611 16.4033 14.1959 16.4033C14.1959 18.7289 14.1959 21.0389 14.1959 23.38C13.6688 23.38 13.1727 23.38 12.6301 23.38C12.6301 21.0699 12.6301 18.7444 12.6301 16.4033C12.1494 16.4033 11.7153 16.4033 11.2347 16.4033C11.2347 18.7289 11.2347 21.0544 11.2347 23.38C10.7851 23.38 10.351 23.38 9.9014 23.38C9.93241 20.5118 9.93241 17.6591 9.93241 14.7754Z" fill="#84AFDD"/>
<path d="M21.0383 13.7406C17.6739 13.7406 14.3251 13.7406 10.9453 13.7406C11.0538 12.0972 11.736 10.7638 13.0693 9.83362C14.7437 8.67083 16.5422 8.56231 18.3716 9.49253C20.077 10.3607 21.0072 12.1437 21.0383 13.7406Z" fill="#C3599E"/>
<path d="M25.6975 24.8223C25.6975 25.2254 25.6975 25.5975 25.6975 26.0006C19.465 26.0006 13.248 26.0006 7 26.0006C7 25.613 7 25.2254 7 24.8223C13.217 24.8223 19.4495 24.8223 25.6975 24.8223Z" fill="#3C77AE"/>
<path d="M7.86719 24.3108C7.86719 24.1558 7.86719 24.0162 7.86719 23.8457C13.5106 23.8457 19.1539 23.8457 24.8128 23.8457C24.8128 23.9852 24.8128 24.1403 24.8128 24.3108C19.1694 24.3108 13.5416 24.3108 7.86719 24.3108Z" fill="#3C77AE"/>
<path d="M16.3806 8.79068V6.13953C16.3806 6.06202 16.3186 6 16.2411 6C16.1636 6 16.1016 6.06202 16.1016 6.13953V8.79068C16.2101 8.79068 16.2876 8.79068 16.3806 8.79068Z" fill="#668CBE"/>
<path d="M16.503 6.32641C16.503 6.32641 16.9991 6.58998 17.6348 6.45044C18.2704 6.31091 19.0921 6.24889 19.3867 6.48145V8.26438C19.3867 8.26438 18.751 7.98531 18.1619 8.14035C17.5727 8.29539 16.8131 8.3419 16.503 8.10934C16.4875 8.10934 16.503 6.31091 16.503 6.32641Z" fill="#00B04C"/>
<path d="M17.8908 7.76517C18.1809 7.74038 18.3989 7.51972 18.3778 7.2723C18.3567 7.02488 18.1044 6.8444 17.8143 6.86919C17.5242 6.89397 17.3062 7.11463 17.3273 7.36205C17.3485 7.60947 17.6008 7.78995 17.8908 7.76517Z" fill="#EC1D24"/>
</svg>
