<svg width="25" height="25" viewBox="0 0 25 25" fill="none" xmlns="http://www.w3.org/2000/svg">
<g id="info">
<mask id="mask0_20263_12752" style="mask-type:alpha" maskUnits="userSpaceOnUse" x="0" y="0" width="25" height="25">
<rect id="Bounding box" x="0.5" y="0.5" width="24" height="24" fill="#D9D9D9"/>
</mask>
<g mask="url(#mask0_20263_12752)">
<path id="info_2" d="M11.5 17.5H13.5V11.5H11.5V17.5ZM12.5 9.5C12.7833 9.5 13.0208 9.40417 13.2125 9.2125C13.4042 9.02083 13.5 8.78333 13.5 8.5C13.5 8.21667 13.4042 7.97917 13.2125 7.7875C13.0208 7.59583 12.7833 7.5 12.5 7.5C12.2167 7.5 11.9792 7.59583 11.7875 7.7875C11.5958 7.97917 11.5 8.21667 11.5 8.5C11.5 8.78333 11.5958 9.02083 11.7875 9.2125C11.9792 9.40417 12.2167 9.5 12.5 9.5ZM12.5 22.5C11.1167 22.5 9.81667 22.2375 8.6 21.7125C7.38333 21.1875 6.325 20.475 5.425 19.575C4.525 18.675 3.8125 17.6167 3.2875 16.4C2.7625 15.1833 2.5 13.8833 2.5 12.5C2.5 11.1167 2.7625 9.81667 3.2875 8.6C3.8125 7.38333 4.525 6.325 5.425 5.425C6.325 4.525 7.38333 3.8125 8.6 3.2875C9.81667 2.7625 11.1167 2.5 12.5 2.5C13.8833 2.5 15.1833 2.7625 16.4 3.2875C17.6167 3.8125 18.675 4.525 19.575 5.425C20.475 6.325 21.1875 7.38333 21.7125 8.6C22.2375 9.81667 22.5 11.1167 22.5 12.5C22.5 13.8833 22.2375 15.1833 21.7125 16.4C21.1875 17.6167 20.475 18.675 19.575 19.575C18.675 20.475 17.6167 21.1875 16.4 21.7125C15.1833 22.2375 13.8833 22.5 12.5 22.5ZM12.5 20.5C14.7333 20.5 16.625 19.725 18.175 18.175C19.725 16.625 20.5 14.7333 20.5 12.5C20.5 10.2667 19.725 8.375 18.175 6.825C16.625 5.275 14.7333 4.5 12.5 4.5C10.2667 4.5 8.375 5.275 6.825 6.825C5.275 8.375 4.5 10.2667 4.5 12.5C4.5 14.7333 5.275 16.625 6.825 18.175C8.375 19.725 10.2667 20.5 12.5 20.5Z" fill="#5D6679"/>
</g>
</g>
</svg>
