<svg width="32" height="32" viewBox="0 0 32 32" fill="none" xmlns="http://www.w3.org/2000/svg">
<rect width="32" height="32" rx="4" fill="#FCF3FA"/>
<path d="M8.66406 9.55503V11.3365L15.4987 11.2218V9.85489L14.9608 9.44922L8.66406 9.55503Z" fill="white"/>
<path d="M5.69336 16.418C6.95858 17.0913 8.28699 17.5938 9.6748 17.8682V17.8857C9.6748 18.6786 10.3185 19.3222 11.1113 19.3223H13.0234C13.2945 19.3223 13.5479 19.2472 13.7637 19.1152C13.8822 19.2066 14.0157 19.2839 14.166 19.335V19.334L15.3047 19.7344V21.5303H6.94531C6.60011 21.5303 6.28395 21.3826 6.05469 21.1396C5.83211 20.9033 5.69339 20.5795 5.69336 20.2266V16.418ZM11.1133 15.1201H13.0254C13.2113 15.1201 13.3643 15.2721 13.3643 15.459V17.334C13.3349 17.3902 13.3083 17.4498 13.2871 17.5068V17.5088C13.211 17.7269 13.1933 17.9487 13.2207 18.1621C13.1658 18.2014 13.0995 18.2266 13.0254 18.2266H11.1133C10.9245 18.2266 10.7726 18.0745 10.7725 17.8877V15.459C10.7725 15.2733 10.9247 15.1201 11.1133 15.1201ZM9.31543 9.10449H14.8232C15.119 9.10455 15.3903 9.2325 15.5869 9.44141H15.5879C15.7788 9.6419 15.8975 9.91807 15.8975 10.2217V10.9824H17.7061C18.0437 10.9824 18.3414 11.0529 18.5752 11.2197L18.6719 11.2969C18.8947 11.4982 19.0332 11.7911 19.0332 12.2148V13.873C19.0332 14.1772 18.9553 14.4617 18.8086 14.709V14.71C18.7207 14.8613 18.6037 14.9969 18.4668 15.1143L14.4619 16.5234V15.457C14.4617 14.6643 13.8182 14.0215 13.0254 14.0215H11.1133C10.3205 14.0215 9.67701 14.6643 9.67676 15.457V16.748C8.43417 16.4806 7.19229 16.004 5.95215 15.3115C5.68445 15.1622 5.47405 14.9559 5.33008 14.71L5.31836 14.6895C5.17885 14.4466 5.10452 14.1698 5.10449 13.875V12.2148C5.10449 11.8441 5.21068 11.572 5.38574 11.376L5.46484 11.2969C5.71058 11.0741 6.04621 10.9824 6.43066 10.9824H8.24316V10.2217C8.24316 9.60276 8.72778 9.10457 9.31543 9.10449ZM9.31543 9.78223C9.08537 9.78223 8.92011 9.99288 8.91992 10.2197L8.9209 10.877V10.9805H15.2168V10.2197C15.2167 10.0971 15.1708 9.98537 15.0947 9.90332L15.0928 9.90137C15.0245 9.83123 14.9289 9.78235 14.8232 9.78223H9.31543Z" fill="#84AFDD" stroke="#3C77AE" stroke-width="0.208273"/>
<path d="M20.3161 21.2792L16.6077 19.9739V21.8251C16.6077 22.7723 17.6728 23.3198 19.063 23.5301C19.5493 23.6032 20.0893 23.6375 20.6353 23.636C21.1798 23.6345 21.7228 23.5942 22.221 23.5196C23.7157 23.2989 24.9061 22.7261 24.9061 21.8251V19.9739L21.1962 21.2791C20.9113 21.3806 20.601 21.3806 20.3161 21.2792ZM26.7065 17.5649L20.9007 15.5213C20.8112 15.4885 20.7083 15.487 20.6098 15.5213L14.8041 17.5649C14.6818 17.6066 14.5774 17.7036 14.5326 17.8364C14.4521 18.0661 14.5744 18.3197 14.8041 18.4002L20.6098 20.4423C20.7008 20.4752 20.8038 20.4767 20.9007 20.4423L25.9278 18.6732V20.2619C25.9278 20.508 26.1277 20.7049 26.3724 20.7049C26.617 20.7049 26.8154 20.5065 26.8154 20.2619V18.3421C26.8885 18.2914 26.9467 18.2183 26.9795 18.1258C27.0586 17.8961 26.9377 17.6425 26.7065 17.5634L26.7065 17.5649Z" fill="#C3599E"/>
</svg>
