<svg width="28" height="29" viewBox="0 0 28 29" fill="none" xmlns="http://www.w3.org/2000/svg">
<path d="M22.1666 13.0944V12.511C22.1666 8.11129 22.1665 5.91136 20.7997 4.54453C19.4329 3.17773 17.233 3.17773 12.8333 3.17773C8.43364 3.17773 6.23373 3.1778 4.8669 4.54459C3.50011 5.91141 3.50008 8.11124 3.50005 12.5109L3.5 17.7611C3.49997 21.5964 3.49995 23.5141 4.55919 24.8048C4.75314 25.0412 4.96984 25.2578 5.20617 25.4519C6.4969 26.5111 8.41457 26.5111 12.2499 26.5111" stroke="#9B8AFB" stroke-width="2" stroke-linecap="round" stroke-linejoin="round"/>
<path d="M8.16699 9.00977H17.5003M8.16699 13.6764H12.8337" stroke="#9B8AFB" stroke-width="2" stroke-linecap="round" stroke-linejoin="round"/>
<path d="M21 22.4264L19.25 21.7848V18.9264M14 21.2598C14 24.1593 16.3505 26.5098 19.25 26.5098C22.1495 26.5098 24.5 24.1593 24.5 21.2598C24.5 18.3602 22.1495 16.0098 19.25 16.0098C16.3505 16.0098 14 18.3602 14 21.2598Z" stroke="#9B8AFB" stroke-width="2" stroke-linecap="round" stroke-linejoin="round"/>
</svg>
