<svg width="69" height="18" viewBox="0 0 69 18" fill="none" xmlns="http://www.w3.org/2000/svg">
<g id="landscape">
<g id="Group">
<g id="Group_2">
<g id="Mask group">
<mask id="mask0_21309_101089" style="mask-type:luminance" maskUnits="userSpaceOnUse" x="0" y="0" width="5" height="16">
<g id="Group_3">
<path id="Vector" d="M0 0.251953H4.6912V15.8741H0V0.251953Z" fill="white"/>
</g>
</mask>
<g mask="url(#mask0_21309_101089)">
<path id="Vector_2" fill-rule="evenodd" clip-rule="evenodd" d="M0.893869 0.251953H4.69126V0.373718C3.738 0.548688 3.67722 0.966924 3.67722 0.966924C3.60822 1.21813 3.63158 1.75813 3.63158 1.75813V11.4019C3.47128 14.3682 0.1009 15.8738 0.1009 15.8738C-0.0822151 15.8738 0.0398619 15.7216 0.0398619 15.7216C2.11384 13.6379 2.05307 12.2609 2.05307 12.2609V1.25572C2.05307 0.525659 1.27496 0.525659 1.27496 0.525659C0.939781 0.464777 0.893869 0.251953 0.893869 0.251953Z" fill="#010101"/>
</g>
</g>
</g>
<path id="Vector_3" fill-rule="evenodd" clip-rule="evenodd" d="M9.20537 12.14C7.93338 12.14 6.90262 10.8887 6.90262 9.34495C6.90262 7.80145 7.93338 6.54992 9.20537 6.54992C10.4771 6.54992 11.5081 7.80145 11.5081 9.34522C11.5081 10.8885 10.4771 12.14 9.20537 12.14ZM9.20537 5.25684C7.14173 5.25684 5.46875 7.07854 5.46875 9.32589C5.46875 11.5732 7.14173 13.395 9.20537 13.395C11.2687 13.395 12.9417 11.5732 12.9417 9.32589C12.9417 7.07854 11.269 5.25684 9.20537 5.25684Z" fill="#010101"/>
<path id="Vector_4" fill-rule="evenodd" clip-rule="evenodd" d="M17.2395 12.2615C15.9883 12.2615 14.9737 10.9726 14.9737 9.38304C14.9737 7.79295 15.9883 6.5041 17.2395 6.5041C18.4906 6.5041 19.5051 7.79295 19.5051 9.38304C19.5051 10.9726 18.4906 12.2615 17.2395 12.2615ZM17.2847 5.36322C16.4049 5.36322 15.5995 5.71475 14.9737 6.29842V2.2373H13.4756V11.9573H12.5605V13.1667H14.9737V12.46C15.5995 13.0434 16.4049 13.3949 17.2844 13.3949C19.2742 13.3949 20.8873 11.597 20.8873 9.37933C20.8873 7.16136 19.2742 5.36348 17.2844 5.36348" fill="#010101"/>
<path id="Vector_5" fill-rule="evenodd" clip-rule="evenodd" d="M25.0852 12.2615C23.8342 12.2615 22.8197 10.9726 22.8197 9.38304C22.8197 7.79295 23.8342 6.5041 25.0852 6.5041C26.3363 6.5041 27.3508 7.79295 27.3508 9.38304C27.3508 10.9726 26.3363 12.2615 25.0852 12.2615ZM25.1304 5.36322C24.2506 5.36322 23.4452 5.71475 22.8197 6.29842V2.2373H21.3213V11.9573H20.4062V13.1667H22.8197V12.46C23.4452 13.0434 24.2506 13.3949 25.1301 13.3949C27.12 13.3949 28.7332 11.597 28.7332 9.37933C28.7332 7.16136 27.12 5.36348 25.1301 5.36348M30.4301 8.57304H29.5947V9.78989H30.3701C30.3495 9.64245 30.3388 9.49379 30.338 9.34492C30.338 9.07704 30.3712 8.81842 30.4301 8.57304Z" fill="#010101"/>
<path id="Vector_6" fill-rule="evenodd" clip-rule="evenodd" d="M36.4321 9.78993C36.4481 9.63772 36.4573 9.48287 36.4573 9.32616C36.4573 9.0686 36.434 8.81713 36.3915 8.57307C36.0627 6.68572 34.5232 5.25684 32.6719 5.25684C30.5815 5.25684 28.8867 7.07881 28.8867 9.32616C28.8867 11.5735 30.5815 13.395 32.6719 13.395C33.6873 13.395 34.8029 13.0601 35.4823 12.3605L34.4301 11.5545C34.0394 11.9107 33.2016 12.14 32.6719 12.14C31.5103 12.14 30.5496 11.1214 30.3715 9.78993H29.5958V8.57307H30.4313C30.7112 7.40519 31.6074 6.54992 32.6719 6.54992C33.7369 6.54992 34.6331 7.40519 34.9128 8.57307H30.4313C30.3703 8.82587 30.3394 9.08495 30.3392 9.34495C30.3392 9.49663 30.3519 9.6446 30.3715 9.78993H36.4321Z" fill="#010101"/>
<path id="Vector_7" fill-rule="evenodd" clip-rule="evenodd" d="M35.8477 5.48432V6.70144H36.7322V13.1814H39.3093V11.9643H38.1355V8.32885C38.1355 6.86873 39.5078 6.65591 39.5078 6.65591C40.2703 6.65591 40.6363 6.80759 40.6363 6.80759V5.36256C39.0352 5.02823 38.2422 5.94067 38.2422 5.94067V5.47691L35.8479 5.48432H35.8477ZM41.2461 5.46923V6.73188H42.1458V13.2423H44.5098V11.9646H43.5796V8.40509C43.5796 6.5495 45.3943 6.65564 45.3943 6.65564C46.9803 6.65564 46.7974 8.08559 46.7974 8.08559V13.2423H49.1461V11.9797H48.2462V8.29867C48.2462 6.56432 50.0152 6.64056 50.0152 6.64056C51.4334 6.64056 51.3878 7.96409 51.3878 7.96409V13.1814H53.6144V11.9646H52.9127V8.13138C52.9127 5.5002 50.4117 5.28923 50.4117 5.28923C48.2767 5.16535 47.8497 6.36712 47.8497 6.36712C47.3462 5.28023 45.4095 5.28923 45.4095 5.28923C44.22 5.28923 43.5948 6.04762 43.5948 6.04762V5.49994L41.2461 5.46923ZM58.2543 11.4892C58.2543 11.4892 57.7164 12.3106 56.3324 12.0938C56.3324 12.0938 55.2114 11.9228 55.2114 10.8274C55.2114 10.8274 55.1544 9.56106 56.7671 9.56106H58.8602V9.61797C58.8602 9.61797 58.9523 10.5878 58.2543 11.4892ZM68.0258 11.9797V8.05541C68.0258 5.66697 66.1044 5.37791 66.1044 5.37791C64.0456 5.05867 63.2677 6.01691 63.2677 6.01691V5.45414H61.7882V11.9797H60.3395V7.96409C60.3395 5.0735 57.3812 5.31279 57.3812 5.31279C56.0697 5.2715 54.7276 6.06244 54.7276 6.06244L55.2916 7.17288C56.8319 6.21464 57.9911 6.61779 57.9911 6.61779C59.1805 7.00559 58.8602 8.32911 58.8602 8.32911C56.329 8.32911 55.2613 8.60282 55.2613 8.60282C53.5077 9.31779 53.6754 10.7477 53.6754 10.7477C53.6754 13.075 55.8407 13.3336 55.8407 13.3336C58.0521 13.5465 58.8146 12.5123 58.8146 12.5123V13.2423H63.2677V8.52685C63.2677 6.29062 65.3876 6.67126 65.3876 6.67126C66.5468 6.67126 66.5773 7.91856 66.5773 7.91856V13.2423H68.8496V11.9797H68.0258Z" fill="#010101"/>
<path id="Vector_8" fill-rule="evenodd" clip-rule="evenodd" d="M4.53139 2.98225C4.69168 2.91369 4.90478 2.85307 4.90478 2.85307C5.11099 2.72363 5.02686 2.5566 5.02686 2.5566C4.88966 1.93269 5.01173 1.24048 5.01173 1.24048C5.11842 0.708161 5.85805 0.738602 5.85805 0.738602C6.65101 0.85269 6.71975 1.65898 6.71975 1.65898C6.72745 2.01634 6.55203 2.23684 6.55203 2.23684C6.23171 2.82237 6.35352 3.18766 6.35352 3.18766C7.09341 3.33987 7.22318 3.37031 7.22318 3.37031C7.22318 4.07734 7.35269 5.24866 7.35269 5.2566C7.39064 6.42025 7.47477 6.95231 7.47477 6.95231C7.6271 7.6829 8.09232 8.19987 8.09232 8.19987C8.4965 8.60301 8.32108 8.96037 8.32108 8.96037C7.83277 9.23407 7.42143 9.14301 7.42143 9.14301C7.10854 9.14301 7.13906 9.24175 7.13906 9.24175C7.13906 10.2762 7.17727 10.5348 7.17727 10.5348C7.23831 11.1278 7.26113 11.4703 7.26113 11.4703C7.36782 12.0103 7.51272 12.261 7.51272 12.261C7.51272 13.0294 7.45964 14.0335 7.45964 14.0335C7.45964 14.0335 7.45964 14.1931 7.44425 14.3379C7.42886 14.4821 7.3986 14.9615 7.3986 14.9615C7.3986 14.9917 7.45964 15.0605 7.4745 15.0833C7.67592 15.2961 7.87175 15.5141 8.0618 15.7371C7.90177 15.874 7.28422 15.874 7.28422 15.874C6.87235 15.9576 6.56715 15.874 6.56715 15.874C6.27762 15.7067 6.23171 15.3038 6.23171 15.3038C6.23171 15.3038 6.22428 15.3797 6.22428 15.2654C6.22428 14.718 6.25453 14.4215 6.25453 14.4215C6.35352 13.2727 6.22428 12.0786 6.22428 12.0786L6.15528 11.569C6.06398 10.7704 5.6675 10.0099 5.6675 10.0099C5.58337 9.92654 5.5303 10.0327 5.5303 10.0327C4.92787 11.1736 4.60012 12.1397 4.60012 12.1397C3.95179 13.8815 4.06617 15.3109 4.06617 15.3109C4.11951 15.5547 4.14233 15.6153 4.14233 15.6153C3.90614 15.6762 3.29602 15.3567 3.29602 15.3342C2.6859 14.9308 2.96801 13.4935 2.96801 13.4935L3.16651 12.824L1.99219 12.3372L2.44201 9.27987L3.1283 9.21898L2.9757 6.29848C2.98366 5.99407 3.15086 5.87998 3.15086 5.87998C3.10521 3.91031 3.30372 3.78087 3.30372 3.78087C3.49426 3.42351 3.86023 3.24087 3.86023 3.24087C4.26441 3.08125 4.53139 2.98225 4.53139 2.98225Z" fill="#1A4D98"/>
</g>
</g>
</svg>
