<svg width="66" height="74" viewBox="0 0 66 74" fill="none" xmlns="http://www.w3.org/2000/svg">
<path d="M47.6847 23.5292L44.4061 23.6548L44.3586 19.4101C44.2707 11.5805 38.0505 5.44645 30.5024 5.73616C22.95 6.02575 16.88 12.6313 16.9678 20.4609L17.0153 24.7056L13.7259 24.8315C11.1681 24.9296 9.08904 27.1874 9.11855 29.8412L9.4273 57.4645C9.45729 60.1587 11.5854 62.2604 14.1432 62.1623L48.1033 60.8598C50.7024 60.7602 52.7847 58.4965 52.7539 55.8028L52.4452 28.1794C52.4145 25.5253 50.2834 23.4289 47.6847 23.5292ZM23.1552 20.2227C23.1071 15.932 26.4329 12.3107 30.5737 12.1519C34.7108 11.9932 38.1167 15.3561 38.1648 19.6468L38.2121 23.8921L23.2027 24.4674L23.1552 20.2227ZM33.3157 47.8459L33.3946 54.9002C33.3974 55.1984 33.156 55.4259 32.8651 55.4374L29.6062 55.5622C29.3568 55.5717 29.1071 55.3629 29.1042 55.0647L29.0254 48.0104C26.7872 47.1997 25.1554 45.0331 25.1253 42.3792C25.0876 38.9673 27.7364 36.0844 31.0393 35.9576C34.3402 35.831 37.0509 38.5078 37.089 41.9204C37.1185 44.5742 35.5363 46.8647 33.3157 47.8459Z" fill="#CA72A7"/>
<path d="M44.3008 23.5709C44.3045 23.6569 38.1681 23.9828 30.5964 24.2978C23.0225 24.6133 16.8817 24.7995 16.878 24.7135C16.8743 24.6275 23.0094 24.3018 30.5838 23.9864C38.1545 23.6711 44.2971 23.4849 44.3008 23.5709Z" fill="#4979A0"/>
<path d="M50.4375 26.628C50.4432 26.6279 50.4494 26.6858 50.456 26.7985C50.4627 26.9289 50.4712 27.0937 50.4812 27.2993C50.4968 27.7624 50.5183 28.4066 50.5459 29.2249C50.5891 30.9212 50.6509 33.3349 50.7262 36.3079C50.7907 39.3058 50.8683 42.8641 50.9534 46.8139C50.9866 48.7937 51.0526 50.8605 51.0594 53.0237C51.0375 54.103 50.9449 55.2348 50.4996 56.297C50.2778 56.8236 49.9582 57.3233 49.5384 57.7341C49.1145 58.1399 48.6028 58.4532 48.0562 58.6676C46.956 59.0935 45.7973 59.1798 44.6875 59.235C43.5767 59.2791 42.4812 59.3225 41.4061 59.3653C39.2555 59.4477 37.1811 59.5278 35.204 59.6045C31.256 59.7499 27.6983 59.8812 24.7016 59.9918C21.7289 60.0899 19.3159 60.1695 17.6205 60.2256C16.8027 60.2458 16.1577 60.262 15.6952 60.2734C15.4897 60.2753 15.3246 60.2767 15.1941 60.2777C15.0806 60.2772 15.023 60.2741 15.023 60.2684C15.0227 60.2633 15.0804 60.2557 15.1929 60.2459C15.3233 60.2367 15.4879 60.2251 15.6925 60.2103C16.1555 60.1852 16.7992 60.1492 17.6161 60.1042C19.3108 60.024 21.7226 59.9107 24.6938 59.7712C27.689 59.6413 31.2455 59.4876 35.1932 59.3176C37.1697 59.235 39.2439 59.1493 41.3942 59.0598C42.4691 59.0157 43.5632 58.9707 44.6732 58.925C45.7748 58.8704 46.9037 58.7804 47.9422 58.3771C48.4579 58.175 48.9305 57.8839 49.3221 57.5107C49.7091 57.1323 50.0051 56.6717 50.2145 56.1764C50.6349 55.1793 50.7313 54.0813 50.7542 53.0187C50.7516 50.8782 50.6908 48.7948 50.6661 46.8202C50.606 42.8708 50.552 39.3111 50.506 36.3127C50.4723 33.339 50.4441 30.9245 50.4248 29.2282C50.4218 28.4095 50.4201 27.7646 50.4188 27.3016C50.4209 27.0955 50.4231 26.9308 50.4253 26.8002C50.4274 26.6858 50.4318 26.6281 50.4375 26.628Z" fill="#4979A0"/>
<path d="M30.0425 36.158C30.0414 36.1495 30.1559 36.1315 30.3779 36.1053C30.5988 36.0762 30.9301 36.0542 31.3602 36.0659C31.7906 36.0663 32.3208 36.1353 32.9242 36.287C33.524 36.444 34.2007 36.7244 34.8359 37.2181C36.1351 38.1918 37.0112 40.1097 37.0488 42.297C37.0518 43.3968 36.7141 44.5664 36.0408 45.5882C35.3478 46.5987 34.3845 47.4738 33.1971 48.0904L33.2825 47.9507C33.3853 50.2743 33.4975 52.8032 33.6152 55.4344L33.622 55.5943L33.462 55.5974C33.0037 55.6057 32.5118 55.6148 32.0168 55.6235C30.9517 55.6425 29.9018 55.6612 28.8713 55.6798L28.7159 55.6824L28.7141 55.5265C28.6776 52.9089 28.5234 50.4033 28.5732 48.0706L28.6661 48.2067C27.5202 47.7596 26.6228 46.9369 25.9869 46.0326C25.3495 45.1208 24.958 44.115 24.7894 43.1335C24.6293 42.1514 24.6976 41.1842 24.9947 40.367C25.2767 39.5457 25.7039 38.8562 26.1706 38.3086C27.1056 37.2021 28.153 36.6508 28.8798 36.3989C29.6178 36.1493 30.0425 36.158 30.0425 36.158C30.0482 36.1881 29.6261 36.2129 28.9112 36.4849C28.2079 36.7599 27.1968 37.3238 26.3036 38.419C25.4206 39.4841 24.651 41.1727 25.0254 43.0928C25.1973 44.0376 25.5842 45.0062 26.2035 45.8796C26.8214 46.7455 27.6874 47.5244 28.7663 47.9384L28.8611 47.9746L28.8592 48.0746C28.8216 50.3947 28.9831 52.8927 29.0234 55.5222L28.8654 55.3693C29.8953 55.3505 30.9456 55.3307 32.0109 55.3112C32.5058 55.3024 32.9972 55.2931 33.4561 55.285L33.3031 55.4473C33.1924 52.8158 33.0855 50.286 32.9883 47.963L32.9839 47.8692L33.0732 47.8232C34.1951 47.2469 35.1488 46.3946 35.8121 45.4344C36.4624 44.4594 36.7916 43.3506 36.7988 42.2944C36.7789 40.1767 35.9541 38.3115 34.7222 37.3595C34.119 36.874 33.4684 36.5886 32.8849 36.4218C32.2986 36.2597 31.7795 36.1772 31.3545 36.1615C30.5062 36.1168 30.0449 36.1864 30.0425 36.158Z" fill="#4979A0"/>
<g filter="url(#filter0_dddd_20760_12994)">
<circle cx="50.3447" cy="51.8711" r="11.25" fill="#71C971"/>
</g>
<path d="M43.7822 51.4023L48.4697 56.0898L56.4385 48.1211" stroke="#FFFBF2" stroke-width="1.875" stroke-linecap="round"/>
<defs>
<filter id="filter0_dddd_20760_12994" x="34.5947" y="39.1211" width="30" height="34.5" filterUnits="userSpaceOnUse" color-interpolation-filters="sRGB">
<feFlood flood-opacity="0" result="BackgroundImageFix"/>
<feColorMatrix in="SourceAlpha" type="matrix" values="0 0 0 0 0 0 0 0 0 0 0 0 0 0 0 0 0 0 127 0" result="hardAlpha"/>
<feOffset/>
<feGaussianBlur stdDeviation="0.75"/>
<feColorMatrix type="matrix" values="0 0 0 0 0 0 0 0 0 0 0 0 0 0 0 0 0 0 0.1 0"/>
<feBlend mode="normal" in2="BackgroundImageFix" result="effect1_dropShadow_20760_12994"/>
<feColorMatrix in="SourceAlpha" type="matrix" values="0 0 0 0 0 0 0 0 0 0 0 0 0 0 0 0 0 0 127 0" result="hardAlpha"/>
<feOffset dy="1.5"/>
<feGaussianBlur stdDeviation="0.75"/>
<feColorMatrix type="matrix" values="0 0 0 0 0 0 0 0 0 0 0 0 0 0 0 0 0 0 0.09 0"/>
<feBlend mode="normal" in2="effect1_dropShadow_20760_12994" result="effect2_dropShadow_20760_12994"/>
<feColorMatrix in="SourceAlpha" type="matrix" values="0 0 0 0 0 0 0 0 0 0 0 0 0 0 0 0 0 0 127 0" result="hardAlpha"/>
<feOffset dy="4.5"/>
<feGaussianBlur stdDeviation="1.5"/>
<feColorMatrix type="matrix" values="0 0 0 0 0 0 0 0 0 0 0 0 0 0 0 0 0 0 0.05 0"/>
<feBlend mode="normal" in2="effect2_dropShadow_20760_12994" result="effect3_dropShadow_20760_12994"/>
<feColorMatrix in="SourceAlpha" type="matrix" values="0 0 0 0 0 0 0 0 0 0 0 0 0 0 0 0 0 0 127 0" result="hardAlpha"/>
<feOffset dx="-1.5" dy="7.5"/>
<feGaussianBlur stdDeviation="1.5"/>
<feColorMatrix type="matrix" values="0 0 0 0 0 0 0 0 0 0 0 0 0 0 0 0 0 0 0.01 0"/>
<feBlend mode="normal" in2="effect3_dropShadow_20760_12994" result="effect4_dropShadow_20760_12994"/>
<feBlend mode="normal" in="SourceGraphic" in2="effect4_dropShadow_20760_12994" result="shape"/>
</filter>
</defs>
</svg>
