<svg width="624" height="952" viewBox="0 0 624 952" fill="none" xmlns="http://www.w3.org/2000/svg">
<rect x="0.137939" width="623.724" height="952" fill="#F5F8FE"/>
<g opacity="0.4" clip-path="url(#clip0_21038_115089)">
<mask id="mask0_21038_115089" style="mask-type:alpha" maskUnits="userSpaceOnUse" x="-128" y="-34" width="986" height="985">
<rect width="984.828" height="984.828" transform="translate(-127.069 -33.8535)" fill="url(#paint0_radial_21038_115089)"/>
</mask>
<g mask="url(#mask0_21038_115089)">
<g clip-path="url(#clip1_21038_115089)">
<mask id="path-4-inside-1_21038_115089" fill="white">
<path d="M-61.4136 -33.8535H4.2416V31.8017H-61.4136V-33.8535Z"/>
</mask>
<path d="M4.2416 31.8017V32.8275H5.26746V31.8017H4.2416ZM4.2416 -33.8535H3.21574V31.8017H4.2416H5.26746V-33.8535H4.2416ZM4.2416 31.8017V30.7758H-61.4136V31.8017V32.8275H4.2416V31.8017Z" fill="#F6D4ED" mask="url(#path-4-inside-1_21038_115089)"/>
<mask id="path-6-inside-2_21038_115089" fill="white">
<path d="M4.24146 -33.8535H69.8966V31.8017H4.24146V-33.8535Z"/>
</mask>
<path d="M69.8966 31.8017V32.8275H70.9225V31.8017H69.8966ZM69.8966 -33.8535H68.8708V31.8017H69.8966H70.9225V-33.8535H69.8966ZM69.8966 31.8017V30.7758H4.24146V31.8017V32.8275H69.8966V31.8017Z" fill="#F6D4ED" mask="url(#path-6-inside-2_21038_115089)"/>
<mask id="path-8-inside-3_21038_115089" fill="white">
<path d="M69.8967 -33.8535H135.552V31.8017H69.8967V-33.8535Z"/>
</mask>
<path d="M135.552 31.8017V32.8275H136.578V31.8017H135.552ZM135.552 -33.8535H134.526V31.8017H135.552H136.578V-33.8535H135.552ZM135.552 31.8017V30.7758H69.8967V31.8017V32.8275H135.552V31.8017Z" fill="#F6D4ED" mask="url(#path-8-inside-3_21038_115089)"/>
<mask id="path-10-inside-4_21038_115089" fill="white">
<path d="M135.552 -33.8535H201.207V31.8017H135.552V-33.8535Z"/>
</mask>
<path d="M201.207 31.8017V32.8275H202.233V31.8017H201.207ZM201.207 -33.8535H200.181V31.8017H201.207H202.233V-33.8535H201.207ZM201.207 31.8017V30.7758H135.552V31.8017V32.8275H201.207V31.8017Z" fill="#F6D4ED" mask="url(#path-10-inside-4_21038_115089)"/>
<mask id="path-12-inside-5_21038_115089" fill="white">
<path d="M201.207 -33.8535H266.862V31.8017H201.207V-33.8535Z"/>
</mask>
<path d="M266.862 31.8017V32.8275H267.888V31.8017H266.862ZM266.862 -33.8535H265.836V31.8017H266.862H267.888V-33.8535H266.862ZM266.862 31.8017V30.7758H201.207V31.8017V32.8275H266.862V31.8017Z" fill="#F6D4ED" mask="url(#path-12-inside-5_21038_115089)"/>
<mask id="path-14-inside-6_21038_115089" fill="white">
<path d="M266.862 -33.8535H332.517V31.8017H266.862V-33.8535Z"/>
</mask>
<path d="M332.517 31.8017V32.8275H333.543V31.8017H332.517ZM332.517 -33.8535H331.492V31.8017H332.517H333.543V-33.8535H332.517ZM332.517 31.8017V30.7758H266.862V31.8017V32.8275H332.517V31.8017Z" fill="#F6D4ED" mask="url(#path-14-inside-6_21038_115089)"/>
<mask id="path-16-inside-7_21038_115089" fill="white">
<path d="M332.517 -33.8535H398.173V31.8017H332.517V-33.8535Z"/>
</mask>
<path d="M398.173 31.8017V32.8275H399.198V31.8017H398.173ZM398.173 -33.8535H397.147V31.8017H398.173H399.198V-33.8535H398.173ZM398.173 31.8017V30.7758H332.517V31.8017V32.8275H398.173V31.8017Z" fill="#F6D4ED" mask="url(#path-16-inside-7_21038_115089)"/>
<mask id="path-18-inside-8_21038_115089" fill="white">
<path d="M398.173 -33.8535H463.828V31.8017H398.173V-33.8535Z"/>
</mask>
<path d="M463.828 31.8017V32.8275H464.854V31.8017H463.828ZM463.828 -33.8535H462.802V31.8017H463.828H464.854V-33.8535H463.828ZM463.828 31.8017V30.7758H398.173V31.8017V32.8275H463.828V31.8017Z" fill="#F6D4ED" mask="url(#path-18-inside-8_21038_115089)"/>
<mask id="path-20-inside-9_21038_115089" fill="white">
<path d="M463.828 -33.8535H529.483V31.8017H463.828V-33.8535Z"/>
</mask>
<path d="M529.483 31.8017V32.8275H530.509V31.8017H529.483ZM529.483 -33.8535H528.457V31.8017H529.483H530.509V-33.8535H529.483ZM529.483 31.8017V30.7758H463.828V31.8017V32.8275H529.483V31.8017Z" fill="#F6D4ED" mask="url(#path-20-inside-9_21038_115089)"/>
<mask id="path-22-inside-10_21038_115089" fill="white">
<path d="M529.483 -33.8535H595.138V31.8017H529.483V-33.8535Z"/>
</mask>
<path d="M595.138 31.8017V32.8275H596.164V31.8017H595.138ZM595.138 -33.8535H594.112V31.8017H595.138H596.164V-33.8535H595.138ZM595.138 31.8017V30.7758H529.483V31.8017V32.8275H595.138V31.8017Z" fill="#F6D4ED" mask="url(#path-22-inside-10_21038_115089)"/>
<mask id="path-24-inside-11_21038_115089" fill="white">
<path d="M595.138 -33.8535H660.793V31.8017H595.138V-33.8535Z"/>
</mask>
<path d="M660.793 31.8017V32.8275H661.819V31.8017H660.793ZM660.793 -33.8535H659.767V31.8017H660.793H661.819V-33.8535H660.793ZM660.793 31.8017V30.7758H595.138V31.8017V32.8275H660.793V31.8017Z" fill="#F6D4ED" mask="url(#path-24-inside-11_21038_115089)"/>
<mask id="path-26-inside-12_21038_115089" fill="white">
<path d="M-61.4136 31.8008H4.2416V97.456H-61.4136V31.8008Z"/>
</mask>
<path d="M4.2416 97.456V98.4818H5.26746V97.456H4.2416ZM4.2416 31.8008H3.21574V97.456H4.2416H5.26746V31.8008H4.2416ZM4.2416 97.456V96.4301H-61.4136V97.456V98.4818H4.2416V97.456Z" fill="#F6D4ED" mask="url(#path-26-inside-12_21038_115089)"/>
<mask id="path-28-inside-13_21038_115089" fill="white">
<path d="M4.24146 31.8008H69.8966V97.456H4.24146V31.8008Z"/>
</mask>
<path d="M4.24146 31.8008H69.8966V97.456H4.24146V31.8008Z" fill="black" fill-opacity="0.1"/>
<path d="M69.8966 97.456V98.4818H70.9225V97.456H69.8966ZM69.8966 31.8008H68.8708V97.456H69.8966H70.9225V31.8008H69.8966ZM69.8966 97.456V96.4301H4.24146V97.456V98.4818H69.8966V97.456Z" fill="#F6D4ED" mask="url(#path-28-inside-13_21038_115089)"/>
<mask id="path-30-inside-14_21038_115089" fill="white">
<path d="M69.8967 31.8008H135.552V97.456H69.8967V31.8008Z"/>
</mask>
<path d="M135.552 97.456V98.4818H136.578V97.456H135.552ZM135.552 31.8008H134.526V97.456H135.552H136.578V31.8008H135.552ZM135.552 97.456V96.4301H69.8967V97.456V98.4818H135.552V97.456Z" fill="#F6D4ED" mask="url(#path-30-inside-14_21038_115089)"/>
<mask id="path-32-inside-15_21038_115089" fill="white">
<path d="M135.552 31.8008H201.207V97.456H135.552V31.8008Z"/>
</mask>
<path d="M201.207 97.456V98.4818H202.233V97.456H201.207ZM201.207 31.8008H200.181V97.456H201.207H202.233V31.8008H201.207ZM201.207 97.456V96.4301H135.552V97.456V98.4818H201.207V97.456Z" fill="#F6D4ED" mask="url(#path-32-inside-15_21038_115089)"/>
<mask id="path-34-inside-16_21038_115089" fill="white">
<path d="M201.207 31.8008H266.862V97.456H201.207V31.8008Z"/>
</mask>
<path d="M266.862 97.456V98.4818H267.888V97.456H266.862ZM266.862 31.8008H265.836V97.456H266.862H267.888V31.8008H266.862ZM266.862 97.456V96.4301H201.207V97.456V98.4818H266.862V97.456Z" fill="#F6D4ED" mask="url(#path-34-inside-16_21038_115089)"/>
<mask id="path-36-inside-17_21038_115089" fill="white">
<path d="M266.862 31.8008H332.517V97.456H266.862V31.8008Z"/>
</mask>
<path d="M332.517 97.456V98.4818H333.543V97.456H332.517ZM332.517 31.8008H331.492V97.456H332.517H333.543V31.8008H332.517ZM332.517 97.456V96.4301H266.862V97.456V98.4818H332.517V97.456Z" fill="#F6D4ED" mask="url(#path-36-inside-17_21038_115089)"/>
<mask id="path-38-inside-18_21038_115089" fill="white">
<path d="M332.517 31.8008H398.173V97.456H332.517V31.8008Z"/>
</mask>
<path d="M398.173 97.456V98.4818H399.198V97.456H398.173ZM398.173 31.8008H397.147V97.456H398.173H399.198V31.8008H398.173ZM398.173 97.456V96.4301H332.517V97.456V98.4818H398.173V97.456Z" fill="#F6D4ED" mask="url(#path-38-inside-18_21038_115089)"/>
<mask id="path-40-inside-19_21038_115089" fill="white">
<path d="M398.173 31.8008H463.828V97.456H398.173V31.8008Z"/>
</mask>
<path d="M463.828 97.456V98.4818H464.854V97.456H463.828ZM463.828 31.8008H462.802V97.456H463.828H464.854V31.8008H463.828ZM463.828 97.456V96.4301H398.173V97.456V98.4818H463.828V97.456Z" fill="#F6D4ED" mask="url(#path-40-inside-19_21038_115089)"/>
<mask id="path-42-inside-20_21038_115089" fill="white">
<path d="M463.828 31.8008H529.483V97.456H463.828V31.8008Z"/>
</mask>
<path d="M529.483 97.456V98.4818H530.509V97.456H529.483ZM529.483 31.8008H528.457V97.456H529.483H530.509V31.8008H529.483ZM529.483 97.456V96.4301H463.828V97.456V98.4818H529.483V97.456Z" fill="#F6D4ED" mask="url(#path-42-inside-20_21038_115089)"/>
<mask id="path-44-inside-21_21038_115089" fill="white">
<path d="M529.483 31.8008H595.138V97.456H529.483V31.8008Z"/>
</mask>
<path d="M595.138 97.456V98.4818H596.164V97.456H595.138ZM595.138 31.8008H594.112V97.456H595.138H596.164V31.8008H595.138ZM595.138 97.456V96.4301H529.483V97.456V98.4818H595.138V97.456Z" fill="#F6D4ED" mask="url(#path-44-inside-21_21038_115089)"/>
<mask id="path-46-inside-22_21038_115089" fill="white">
<path d="M595.138 31.8008H660.793V97.456H595.138V31.8008Z"/>
</mask>
<path d="M595.138 31.8008H660.793V97.456H595.138V31.8008Z" fill="#F6D4ED"/>
<path d="M660.793 97.456V98.4818H661.819V97.456H660.793ZM660.793 31.8008H659.767V97.456H660.793H661.819V31.8008H660.793ZM660.793 97.456V96.4301H595.138V97.456V98.4818H660.793V97.456Z" fill="#F6D4ED" mask="url(#path-46-inside-22_21038_115089)"/>
<mask id="path-48-inside-23_21038_115089" fill="white">
<path d="M-61.4136 97.457H4.2416V163.112H-61.4136V97.457Z"/>
</mask>
<path d="M4.2416 163.112V164.138H5.26746V163.112H4.2416ZM4.2416 97.457H3.21574V163.112H4.2416H5.26746V97.457H4.2416ZM4.2416 163.112V162.086H-61.4136V163.112V164.138H4.2416V163.112Z" fill="#F6D4ED" mask="url(#path-48-inside-23_21038_115089)"/>
<mask id="path-50-inside-24_21038_115089" fill="white">
<path d="M4.24146 97.457H69.8966V163.112H4.24146V97.457Z"/>
</mask>
<path d="M69.8966 163.112V164.138H70.9225V163.112H69.8966ZM69.8966 97.457H68.8708V163.112H69.8966H70.9225V97.457H69.8966ZM69.8966 163.112V162.086H4.24146V163.112V164.138H69.8966V163.112Z" fill="#F6D4ED" mask="url(#path-50-inside-24_21038_115089)"/>
<mask id="path-52-inside-25_21038_115089" fill="white">
<path d="M69.8967 97.457H135.552V163.112H69.8967V97.457Z"/>
</mask>
<path d="M135.552 163.112V164.138H136.578V163.112H135.552ZM135.552 97.457H134.526V163.112H135.552H136.578V97.457H135.552ZM135.552 163.112V162.086H69.8967V163.112V164.138H135.552V163.112Z" fill="#F6D4ED" mask="url(#path-52-inside-25_21038_115089)"/>
<mask id="path-54-inside-26_21038_115089" fill="white">
<path d="M135.552 97.457H201.207V163.112H135.552V97.457Z"/>
</mask>
<path d="M135.552 97.457H201.207V163.112H135.552V97.457Z" fill="black" fill-opacity="0.1"/>
<path d="M201.207 163.112V164.138H202.233V163.112H201.207ZM201.207 97.457H200.181V163.112H201.207H202.233V97.457H201.207ZM201.207 163.112V162.086H135.552V163.112V164.138H201.207V163.112Z" fill="#F6D4ED" mask="url(#path-54-inside-26_21038_115089)"/>
<mask id="path-56-inside-27_21038_115089" fill="white">
<path d="M201.207 97.457H266.862V163.112H201.207V97.457Z"/>
</mask>
<path d="M266.862 163.112V164.138H267.888V163.112H266.862ZM266.862 97.457H265.836V163.112H266.862H267.888V97.457H266.862ZM266.862 163.112V162.086H201.207V163.112V164.138H266.862V163.112Z" fill="#F6D4ED" mask="url(#path-56-inside-27_21038_115089)"/>
<mask id="path-58-inside-28_21038_115089" fill="white">
<path d="M266.862 97.457H332.517V163.112H266.862V97.457Z"/>
</mask>
<path d="M332.517 163.112V164.138H333.543V163.112H332.517ZM332.517 97.457H331.492V163.112H332.517H333.543V97.457H332.517ZM332.517 163.112V162.086H266.862V163.112V164.138H332.517V163.112Z" fill="#F6D4ED" mask="url(#path-58-inside-28_21038_115089)"/>
<mask id="path-60-inside-29_21038_115089" fill="white">
<path d="M332.517 97.457H398.173V163.112H332.517V97.457Z"/>
</mask>
<path d="M398.173 163.112V164.138H399.198V163.112H398.173ZM398.173 97.457H397.147V163.112H398.173H399.198V97.457H398.173ZM398.173 163.112V162.086H332.517V163.112V164.138H398.173V163.112Z" fill="#F6D4ED" mask="url(#path-60-inside-29_21038_115089)"/>
<mask id="path-62-inside-30_21038_115089" fill="white">
<path d="M398.173 97.457H463.828V163.112H398.173V97.457Z"/>
</mask>
<path d="M398.173 97.457H463.828V163.112H398.173V97.457Z" fill="black" fill-opacity="0.1"/>
<path d="M463.828 163.112V164.138H464.854V163.112H463.828ZM463.828 97.457H462.802V163.112H463.828H464.854V97.457H463.828ZM463.828 163.112V162.086H398.173V163.112V164.138H463.828V163.112Z" fill="#F6D4ED" mask="url(#path-62-inside-30_21038_115089)"/>
<mask id="path-64-inside-31_21038_115089" fill="white">
<path d="M463.828 97.457H529.483V163.112H463.828V97.457Z"/>
</mask>
<path d="M529.483 163.112V164.138H530.509V163.112H529.483ZM529.483 97.457H528.457V163.112H529.483H530.509V97.457H529.483ZM529.483 163.112V162.086H463.828V163.112V164.138H529.483V163.112Z" fill="#F6D4ED" mask="url(#path-64-inside-31_21038_115089)"/>
<mask id="path-66-inside-32_21038_115089" fill="white">
<path d="M529.483 97.457H595.138V163.112H529.483V97.457Z"/>
</mask>
<path d="M595.138 163.112V164.138H596.164V163.112H595.138ZM595.138 97.457H594.112V163.112H595.138H596.164V97.457H595.138ZM595.138 163.112V162.086H529.483V163.112V164.138H595.138V163.112Z" fill="#F6D4ED" mask="url(#path-66-inside-32_21038_115089)"/>
<mask id="path-68-inside-33_21038_115089" fill="white">
<path d="M595.138 97.457H660.793V163.112H595.138V97.457Z"/>
</mask>
<path d="M660.793 163.112V164.138H661.819V163.112H660.793ZM660.793 97.457H659.767V163.112H660.793H661.819V97.457H660.793ZM660.793 163.112V162.086H595.138V163.112V164.138H660.793V163.112Z" fill="#F6D4ED" mask="url(#path-68-inside-33_21038_115089)"/>
<mask id="path-70-inside-34_21038_115089" fill="white">
<path d="M-61.4136 163.111H4.2416V228.767H-61.4136V163.111Z"/>
</mask>
<path d="M4.2416 228.767V229.792H5.26746V228.767H4.2416ZM4.2416 163.111H3.21574V228.767H4.2416H5.26746V163.111H4.2416ZM4.2416 228.767V227.741H-61.4136V228.767V229.792H4.2416V228.767Z" fill="#F6D4ED" mask="url(#path-70-inside-34_21038_115089)"/>
<mask id="path-72-inside-35_21038_115089" fill="white">
<path d="M4.24146 163.111H69.8966V228.767H4.24146V163.111Z"/>
</mask>
<path d="M69.8966 228.767V229.792H70.9225V228.767H69.8966ZM69.8966 163.111H68.8708V228.767H69.8966H70.9225V163.111H69.8966ZM69.8966 228.767V227.741H4.24146V228.767V229.792H69.8966V228.767Z" fill="#F6D4ED" mask="url(#path-72-inside-35_21038_115089)"/>
<mask id="path-74-inside-36_21038_115089" fill="white">
<path d="M69.8967 163.111H135.552V228.767H69.8967V163.111Z"/>
</mask>
<path d="M135.552 228.767V229.792H136.578V228.767H135.552ZM135.552 163.111H134.526V228.767H135.552H136.578V163.111H135.552ZM135.552 228.767V227.741H69.8967V228.767V229.792H135.552V228.767Z" fill="#F6D4ED" mask="url(#path-74-inside-36_21038_115089)"/>
<mask id="path-76-inside-37_21038_115089" fill="white">
<path d="M135.552 163.111H201.207V228.767H135.552V163.111Z"/>
</mask>
<path d="M201.207 228.767V229.792H202.233V228.767H201.207ZM201.207 163.111H200.181V228.767H201.207H202.233V163.111H201.207ZM201.207 228.767V227.741H135.552V228.767V229.792H201.207V228.767Z" fill="#F6D4ED" mask="url(#path-76-inside-37_21038_115089)"/>
<mask id="path-78-inside-38_21038_115089" fill="white">
<path d="M201.207 163.111H266.862V228.767H201.207V163.111Z"/>
</mask>
<path d="M266.862 228.767V229.792H267.888V228.767H266.862ZM266.862 163.111H265.836V228.767H266.862H267.888V163.111H266.862ZM266.862 228.767V227.741H201.207V228.767V229.792H266.862V228.767Z" fill="#F6D4ED" mask="url(#path-78-inside-38_21038_115089)"/>
<mask id="path-80-inside-39_21038_115089" fill="white">
<path d="M266.862 163.111H332.517V228.767H266.862V163.111Z"/>
</mask>
<path d="M332.517 228.767V229.792H333.543V228.767H332.517ZM332.517 163.111H331.492V228.767H332.517H333.543V163.111H332.517ZM332.517 228.767V227.741H266.862V228.767V229.792H332.517V228.767Z" fill="#F6D4ED" mask="url(#path-80-inside-39_21038_115089)"/>
<mask id="path-82-inside-40_21038_115089" fill="white">
<path d="M332.517 163.111H398.173V228.767H332.517V163.111Z"/>
</mask>
<path d="M398.173 228.767V229.792H399.198V228.767H398.173ZM398.173 163.111H397.147V228.767H398.173H399.198V163.111H398.173ZM398.173 228.767V227.741H332.517V228.767V229.792H398.173V228.767Z" fill="#F6D4ED" mask="url(#path-82-inside-40_21038_115089)"/>
<mask id="path-84-inside-41_21038_115089" fill="white">
<path d="M398.173 163.111H463.828V228.767H398.173V163.111Z"/>
</mask>
<path d="M463.828 228.767V229.792H464.854V228.767H463.828ZM463.828 163.111H462.802V228.767H463.828H464.854V163.111H463.828ZM463.828 228.767V227.741H398.173V228.767V229.792H463.828V228.767Z" fill="#F6D4ED" mask="url(#path-84-inside-41_21038_115089)"/>
<mask id="path-86-inside-42_21038_115089" fill="white">
<path d="M463.828 163.111H529.483V228.767H463.828V163.111Z"/>
</mask>
<path d="M529.483 228.767V229.792H530.509V228.767H529.483ZM529.483 163.111H528.457V228.767H529.483H530.509V163.111H529.483ZM529.483 228.767V227.741H463.828V228.767V229.792H529.483V228.767Z" fill="#F6D4ED" mask="url(#path-86-inside-42_21038_115089)"/>
<mask id="path-88-inside-43_21038_115089" fill="white">
<path d="M529.483 163.111H595.138V228.767H529.483V163.111Z"/>
</mask>
<path d="M595.138 228.767V229.792H596.164V228.767H595.138ZM595.138 163.111H594.112V228.767H595.138H596.164V163.111H595.138ZM595.138 228.767V227.741H529.483V228.767V229.792H595.138V228.767Z" fill="#F6D4ED" mask="url(#path-88-inside-43_21038_115089)"/>
<mask id="path-90-inside-44_21038_115089" fill="white">
<path d="M595.138 163.111H660.793V228.767H595.138V163.111Z"/>
</mask>
<path d="M660.793 228.767V229.792H661.819V228.767H660.793ZM660.793 163.111H659.767V228.767H660.793H661.819V163.111H660.793ZM660.793 228.767V227.741H595.138V228.767V229.792H660.793V228.767Z" fill="#F6D4ED" mask="url(#path-90-inside-44_21038_115089)"/>
<mask id="path-92-inside-45_21038_115089" fill="white">
<path d="M-61.4136 228.768H4.2416V294.423H-61.4136V228.768Z"/>
</mask>
<path d="M4.2416 294.423V295.449H5.26746V294.423H4.2416ZM4.2416 228.768H3.21574V294.423H4.2416H5.26746V228.768H4.2416ZM4.2416 294.423V293.397H-61.4136V294.423V295.449H4.2416V294.423Z" fill="#F6D4ED" mask="url(#path-92-inside-45_21038_115089)"/>
<mask id="path-94-inside-46_21038_115089" fill="white">
<path d="M4.24146 228.768H69.8966V294.423H4.24146V228.768Z"/>
</mask>
<path d="M69.8966 294.423V295.449H70.9225V294.423H69.8966ZM69.8966 228.768H68.8708V294.423H69.8966H70.9225V228.768H69.8966ZM69.8966 294.423V293.397H4.24146V294.423V295.449H69.8966V294.423Z" fill="#F6D4ED" mask="url(#path-94-inside-46_21038_115089)"/>
<mask id="path-96-inside-47_21038_115089" fill="white">
<path d="M69.8967 228.768H135.552V294.423H69.8967V228.768Z"/>
</mask>
<path d="M135.552 294.423V295.449H136.578V294.423H135.552ZM135.552 228.768H134.526V294.423H135.552H136.578V228.768H135.552ZM135.552 294.423V293.397H69.8967V294.423V295.449H135.552V294.423Z" fill="#F6D4ED" mask="url(#path-96-inside-47_21038_115089)"/>
<mask id="path-98-inside-48_21038_115089" fill="white">
<path d="M135.552 228.768H201.207V294.423H135.552V228.768Z"/>
</mask>
<path d="M201.207 294.423V295.449H202.233V294.423H201.207ZM201.207 228.768H200.181V294.423H201.207H202.233V228.768H201.207ZM201.207 294.423V293.397H135.552V294.423V295.449H201.207V294.423Z" fill="#F6D4ED" mask="url(#path-98-inside-48_21038_115089)"/>
<mask id="path-100-inside-49_21038_115089" fill="white">
<path d="M201.207 228.768H266.862V294.423H201.207V228.768Z"/>
</mask>
<path d="M201.207 228.768H266.862V294.423H201.207V228.768Z" fill="black" fill-opacity="0.1"/>
<path d="M266.862 294.423V295.449H267.888V294.423H266.862ZM266.862 228.768H265.836V294.423H266.862H267.888V228.768H266.862ZM266.862 294.423V293.397H201.207V294.423V295.449H266.862V294.423Z" fill="#F6D4ED" mask="url(#path-100-inside-49_21038_115089)"/>
<mask id="path-102-inside-50_21038_115089" fill="white">
<path d="M266.862 228.768H332.517V294.423H266.862V228.768Z"/>
</mask>
<path d="M332.517 294.423V295.449H333.543V294.423H332.517ZM332.517 228.768H331.492V294.423H332.517H333.543V228.768H332.517ZM332.517 294.423V293.397H266.862V294.423V295.449H332.517V294.423Z" fill="#F6D4ED" mask="url(#path-102-inside-50_21038_115089)"/>
<mask id="path-104-inside-51_21038_115089" fill="white">
<path d="M332.517 228.768H398.173V294.423H332.517V228.768Z"/>
</mask>
<path d="M398.173 294.423V295.449H399.198V294.423H398.173ZM398.173 228.768H397.147V294.423H398.173H399.198V228.768H398.173ZM398.173 294.423V293.397H332.517V294.423V295.449H398.173V294.423Z" fill="#F6D4ED" mask="url(#path-104-inside-51_21038_115089)"/>
<mask id="path-106-inside-52_21038_115089" fill="white">
<path d="M398.173 228.768H463.828V294.423H398.173V228.768Z"/>
</mask>
<path d="M463.828 294.423V295.449H464.854V294.423H463.828ZM463.828 228.768H462.802V294.423H463.828H464.854V228.768H463.828ZM463.828 294.423V293.397H398.173V294.423V295.449H463.828V294.423Z" fill="#F6D4ED" mask="url(#path-106-inside-52_21038_115089)"/>
<mask id="path-108-inside-53_21038_115089" fill="white">
<path d="M463.828 228.768H529.483V294.423H463.828V228.768Z"/>
</mask>
<path d="M529.483 294.423V295.449H530.509V294.423H529.483ZM529.483 228.768H528.457V294.423H529.483H530.509V228.768H529.483ZM529.483 294.423V293.397H463.828V294.423V295.449H529.483V294.423Z" fill="#F6D4ED" mask="url(#path-108-inside-53_21038_115089)"/>
<mask id="path-110-inside-54_21038_115089" fill="white">
<path d="M529.483 228.768H595.138V294.423H529.483V228.768Z"/>
</mask>
<path d="M595.138 294.423V295.449H596.164V294.423H595.138ZM595.138 228.768H594.112V294.423H595.138H596.164V228.768H595.138ZM595.138 294.423V293.397H529.483V294.423V295.449H595.138V294.423Z" fill="#F6D4ED" mask="url(#path-110-inside-54_21038_115089)"/>
<mask id="path-112-inside-55_21038_115089" fill="white">
<path d="M595.138 228.768H660.793V294.423H595.138V228.768Z"/>
</mask>
<path d="M660.793 294.423V295.449H661.819V294.423H660.793ZM660.793 228.768H659.767V294.423H660.793H661.819V228.768H660.793ZM660.793 294.423V293.397H595.138V294.423V295.449H660.793V294.423Z" fill="#F6D4ED" mask="url(#path-112-inside-55_21038_115089)"/>
<mask id="path-114-inside-56_21038_115089" fill="white">
<path d="M-61.4136 294.422H4.2416V360.077H-61.4136V294.422Z"/>
</mask>
<path d="M4.2416 360.077V361.103H5.26746V360.077H4.2416ZM4.2416 294.422H3.21574V360.077H4.2416H5.26746V294.422H4.2416ZM4.2416 360.077V359.051H-61.4136V360.077V361.103H4.2416V360.077Z" fill="#F6D4ED" mask="url(#path-114-inside-56_21038_115089)"/>
<mask id="path-116-inside-57_21038_115089" fill="white">
<path d="M4.24146 294.422H69.8966V360.077H4.24146V294.422Z"/>
</mask>
<path d="M69.8966 360.077V361.103H70.9225V360.077H69.8966ZM69.8966 294.422H68.8708V360.077H69.8966H70.9225V294.422H69.8966ZM69.8966 360.077V359.051H4.24146V360.077V361.103H69.8966V360.077Z" fill="#F6D4ED" mask="url(#path-116-inside-57_21038_115089)"/>
<mask id="path-118-inside-58_21038_115089" fill="white">
<path d="M69.8967 294.422H135.552V360.077H69.8967V294.422Z"/>
</mask>
<path d="M69.8967 294.422H135.552V360.077H69.8967V294.422Z" fill="black" fill-opacity="0.1"/>
<path d="M135.552 360.077V361.103H136.578V360.077H135.552ZM135.552 294.422H134.526V360.077H135.552H136.578V294.422H135.552ZM135.552 360.077V359.051H69.8967V360.077V361.103H135.552V360.077Z" fill="#F6D4ED" mask="url(#path-118-inside-58_21038_115089)"/>
<mask id="path-120-inside-59_21038_115089" fill="white">
<path d="M135.552 294.422H201.207V360.077H135.552V294.422Z"/>
</mask>
<path d="M201.207 360.077V361.103H202.233V360.077H201.207ZM201.207 294.422H200.181V360.077H201.207H202.233V294.422H201.207ZM201.207 360.077V359.051H135.552V360.077V361.103H201.207V360.077Z" fill="#F6D4ED" mask="url(#path-120-inside-59_21038_115089)"/>
<mask id="path-122-inside-60_21038_115089" fill="white">
<path d="M201.207 294.422H266.862V360.077H201.207V294.422Z"/>
</mask>
<path d="M266.862 360.077V361.103H267.888V360.077H266.862ZM266.862 294.422H265.836V360.077H266.862H267.888V294.422H266.862ZM266.862 360.077V359.051H201.207V360.077V361.103H266.862V360.077Z" fill="#F6D4ED" mask="url(#path-122-inside-60_21038_115089)"/>
<mask id="path-124-inside-61_21038_115089" fill="white">
<path d="M266.862 294.422H332.517V360.077H266.862V294.422Z"/>
</mask>
<path d="M332.517 360.077V361.103H333.543V360.077H332.517ZM332.517 294.422H331.492V360.077H332.517H333.543V294.422H332.517ZM332.517 360.077V359.051H266.862V360.077V361.103H332.517V360.077Z" fill="#F6D4ED" mask="url(#path-124-inside-61_21038_115089)"/>
<mask id="path-126-inside-62_21038_115089" fill="white">
<path d="M332.517 294.422H398.173V360.077H332.517V294.422Z"/>
</mask>
<path d="M398.173 360.077V361.103H399.198V360.077H398.173ZM398.173 294.422H397.147V360.077H398.173H399.198V294.422H398.173ZM398.173 360.077V359.051H332.517V360.077V361.103H398.173V360.077Z" fill="#F6D4ED" mask="url(#path-126-inside-62_21038_115089)"/>
<mask id="path-128-inside-63_21038_115089" fill="white">
<path d="M398.173 294.422H463.828V360.077H398.173V294.422Z"/>
</mask>
<path d="M463.828 360.077V361.103H464.854V360.077H463.828ZM463.828 294.422H462.802V360.077H463.828H464.854V294.422H463.828ZM463.828 360.077V359.051H398.173V360.077V361.103H463.828V360.077Z" fill="#F6D4ED" mask="url(#path-128-inside-63_21038_115089)"/>
<mask id="path-130-inside-64_21038_115089" fill="white">
<path d="M463.828 294.422H529.483V360.077H463.828V294.422Z"/>
</mask>
<path d="M463.828 294.422H529.483V360.077H463.828V294.422Z" fill="black" fill-opacity="0.1"/>
<path d="M529.483 360.077V361.103H530.509V360.077H529.483ZM529.483 294.422H528.457V360.077H529.483H530.509V294.422H529.483ZM529.483 360.077V359.051H463.828V360.077V361.103H529.483V360.077Z" fill="#F6D4ED" mask="url(#path-130-inside-64_21038_115089)"/>
<mask id="path-132-inside-65_21038_115089" fill="white">
<path d="M529.483 294.422H595.138V360.077H529.483V294.422Z"/>
</mask>
<path d="M595.138 360.077V361.103H596.164V360.077H595.138ZM595.138 294.422H594.112V360.077H595.138H596.164V294.422H595.138ZM595.138 360.077V359.051H529.483V360.077V361.103H595.138V360.077Z" fill="#F6D4ED" mask="url(#path-132-inside-65_21038_115089)"/>
<mask id="path-134-inside-66_21038_115089" fill="white">
<path d="M595.138 294.422H660.793V360.077H595.138V294.422Z"/>
</mask>
<path d="M660.793 360.077V361.103H661.819V360.077H660.793ZM660.793 294.422H659.767V360.077H660.793H661.819V294.422H660.793ZM660.793 360.077V359.051H595.138V360.077V361.103H660.793V360.077Z" fill="#F6D4ED" mask="url(#path-134-inside-66_21038_115089)"/>
<mask id="path-136-inside-67_21038_115089" fill="white">
<path d="M-61.4136 360.078H4.2416V425.733H-61.4136V360.078Z"/>
</mask>
<path d="M4.2416 425.733V426.759H5.26746V425.733H4.2416ZM4.2416 360.078H3.21574V425.733H4.2416H5.26746V360.078H4.2416ZM4.2416 425.733V424.707H-61.4136V425.733V426.759H4.2416V425.733Z" fill="#F6D4ED" mask="url(#path-136-inside-67_21038_115089)"/>
<mask id="path-138-inside-68_21038_115089" fill="white">
<path d="M4.24146 360.078H69.8966V425.733H4.24146V360.078Z"/>
</mask>
<path d="M69.8966 425.733V426.759H70.9225V425.733H69.8966ZM69.8966 360.078H68.8708V425.733H69.8966H70.9225V360.078H69.8966ZM69.8966 425.733V424.707H4.24146V425.733V426.759H69.8966V425.733Z" fill="#F6D4ED" mask="url(#path-138-inside-68_21038_115089)"/>
<mask id="path-140-inside-69_21038_115089" fill="white">
<path d="M69.8967 360.078H135.552V425.733H69.8967V360.078Z"/>
</mask>
<path d="M135.552 425.733V426.759H136.578V425.733H135.552ZM135.552 360.078H134.526V425.733H135.552H136.578V360.078H135.552ZM135.552 425.733V424.707H69.8967V425.733V426.759H135.552V425.733Z" fill="#F6D4ED" mask="url(#path-140-inside-69_21038_115089)"/>
<mask id="path-142-inside-70_21038_115089" fill="white">
<path d="M135.552 360.078H201.207V425.733H135.552V360.078Z"/>
</mask>
<path d="M201.207 425.733V426.759H202.233V425.733H201.207ZM201.207 360.078H200.181V425.733H201.207H202.233V360.078H201.207ZM201.207 425.733V424.707H135.552V425.733V426.759H201.207V425.733Z" fill="#F6D4ED" mask="url(#path-142-inside-70_21038_115089)"/>
<mask id="path-144-inside-71_21038_115089" fill="white">
<path d="M201.207 360.078H266.862V425.733H201.207V360.078Z"/>
</mask>
<path d="M266.862 425.733V426.759H267.888V425.733H266.862ZM266.862 360.078H265.836V425.733H266.862H267.888V360.078H266.862ZM266.862 425.733V424.707H201.207V425.733V426.759H266.862V425.733Z" fill="#F6D4ED" mask="url(#path-144-inside-71_21038_115089)"/>
<mask id="path-146-inside-72_21038_115089" fill="white">
<path d="M266.862 360.078H332.517V425.733H266.862V360.078Z"/>
</mask>
<path d="M266.862 360.078H332.517V425.733H266.862V360.078Z" fill="black" fill-opacity="0.1"/>
<path d="M332.517 425.733V426.759H333.543V425.733H332.517ZM332.517 360.078H331.492V425.733H332.517H333.543V360.078H332.517ZM332.517 425.733V424.707H266.862V425.733V426.759H332.517V425.733Z" fill="#F6D4ED" mask="url(#path-146-inside-72_21038_115089)"/>
<mask id="path-148-inside-73_21038_115089" fill="white">
<path d="M332.517 360.078H398.173V425.733H332.517V360.078Z"/>
</mask>
<path d="M398.173 425.733V426.759H399.198V425.733H398.173ZM398.173 360.078H397.147V425.733H398.173H399.198V360.078H398.173ZM398.173 425.733V424.707H332.517V425.733V426.759H398.173V425.733Z" fill="#F6D4ED" mask="url(#path-148-inside-73_21038_115089)"/>
<mask id="path-150-inside-74_21038_115089" fill="white">
<path d="M398.173 360.078H463.828V425.733H398.173V360.078Z"/>
</mask>
<path d="M463.828 425.733V426.759H464.854V425.733H463.828ZM463.828 360.078H462.802V425.733H463.828H464.854V360.078H463.828ZM463.828 425.733V424.707H398.173V425.733V426.759H463.828V425.733Z" fill="#F6D4ED" mask="url(#path-150-inside-74_21038_115089)"/>
<mask id="path-152-inside-75_21038_115089" fill="white">
<path d="M463.828 360.078H529.483V425.733H463.828V360.078Z"/>
</mask>
<path d="M529.483 425.733V426.759H530.509V425.733H529.483ZM529.483 360.078H528.457V425.733H529.483H530.509V360.078H529.483ZM529.483 425.733V424.707H463.828V425.733V426.759H529.483V425.733Z" fill="#F6D4ED" mask="url(#path-152-inside-75_21038_115089)"/>
<mask id="path-154-inside-76_21038_115089" fill="white">
<path d="M529.483 360.078H595.138V425.733H529.483V360.078Z"/>
</mask>
<path d="M595.138 425.733V426.759H596.164V425.733H595.138ZM595.138 360.078H594.112V425.733H595.138H596.164V360.078H595.138ZM595.138 425.733V424.707H529.483V425.733V426.759H595.138V425.733Z" fill="#F6D4ED" mask="url(#path-154-inside-76_21038_115089)"/>
<mask id="path-156-inside-77_21038_115089" fill="white">
<path d="M595.138 360.078H660.793V425.733H595.138V360.078Z"/>
</mask>
<path d="M660.793 425.733V426.759H661.819V425.733H660.793ZM660.793 360.078H659.767V425.733H660.793H661.819V360.078H660.793ZM660.793 425.733V424.707H595.138V425.733V426.759H660.793V425.733Z" fill="#F6D4ED" mask="url(#path-156-inside-77_21038_115089)"/>
<mask id="path-158-inside-78_21038_115089" fill="white">
<path d="M-61.4136 425.732H4.2416V491.388H-61.4136V425.732Z"/>
</mask>
<path d="M4.2416 491.388V492.413H5.26746V491.388H4.2416ZM4.2416 425.732H3.21574V491.388H4.2416H5.26746V425.732H4.2416ZM4.2416 491.388V490.362H-61.4136V491.388V492.413H4.2416V491.388Z" fill="#F6D4ED" mask="url(#path-158-inside-78_21038_115089)"/>
<mask id="path-160-inside-79_21038_115089" fill="white">
<path d="M4.24146 425.732H69.8966V491.388H4.24146V425.732Z"/>
</mask>
<path d="M69.8966 491.388V492.413H70.9225V491.388H69.8966ZM69.8966 425.732H68.8708V491.388H69.8966H70.9225V425.732H69.8966ZM69.8966 491.388V490.362H4.24146V491.388V492.413H69.8966V491.388Z" fill="#F6D4ED" mask="url(#path-160-inside-79_21038_115089)"/>
<mask id="path-162-inside-80_21038_115089" fill="white">
<path d="M69.8967 425.732H135.552V491.388H69.8967V425.732Z"/>
</mask>
<path d="M135.552 491.388V492.413H136.578V491.388H135.552ZM135.552 425.732H134.526V491.388H135.552H136.578V425.732H135.552ZM135.552 491.388V490.362H69.8967V491.388V492.413H135.552V491.388Z" fill="#F6D4ED" mask="url(#path-162-inside-80_21038_115089)"/>
<mask id="path-164-inside-81_21038_115089" fill="white">
<path d="M135.552 425.732H201.207V491.388H135.552V425.732Z"/>
</mask>
<path d="M135.552 425.732H201.207V491.388H135.552V425.732Z" fill="black" fill-opacity="0.1"/>
<path d="M201.207 491.388V492.413H202.233V491.388H201.207ZM201.207 425.732H200.181V491.388H201.207H202.233V425.732H201.207ZM201.207 491.388V490.362H135.552V491.388V492.413H201.207V491.388Z" fill="#F6D4ED" mask="url(#path-164-inside-81_21038_115089)"/>
<mask id="path-166-inside-82_21038_115089" fill="white">
<path d="M201.207 425.732H266.862V491.388H201.207V425.732Z"/>
</mask>
<path d="M266.862 491.388V492.413H267.888V491.388H266.862ZM266.862 425.732H265.836V491.388H266.862H267.888V425.732H266.862ZM266.862 491.388V490.362H201.207V491.388V492.413H266.862V491.388Z" fill="#F6D4ED" mask="url(#path-166-inside-82_21038_115089)"/>
<mask id="path-168-inside-83_21038_115089" fill="white">
<path d="M266.862 425.732H332.517V491.388H266.862V425.732Z"/>
</mask>
<path d="M332.517 491.388V492.413H333.543V491.388H332.517ZM332.517 425.732H331.492V491.388H332.517H333.543V425.732H332.517ZM332.517 491.388V490.362H266.862V491.388V492.413H332.517V491.388Z" fill="#F6D4ED" mask="url(#path-168-inside-83_21038_115089)"/>
<mask id="path-170-inside-84_21038_115089" fill="white">
<path d="M332.517 425.732H398.173V491.388H332.517V425.732Z"/>
</mask>
<path d="M398.173 491.388V492.413H399.198V491.388H398.173ZM398.173 425.732H397.147V491.388H398.173H399.198V425.732H398.173ZM398.173 491.388V490.362H332.517V491.388V492.413H398.173V491.388Z" fill="#F6D4ED" mask="url(#path-170-inside-84_21038_115089)"/>
<mask id="path-172-inside-85_21038_115089" fill="white">
<path d="M398.173 425.732H463.828V491.388H398.173V425.732Z"/>
</mask>
<path d="M463.828 491.388V492.413H464.854V491.388H463.828ZM463.828 425.732H462.802V491.388H463.828H464.854V425.732H463.828ZM463.828 491.388V490.362H398.173V491.388V492.413H463.828V491.388Z" fill="#F6D4ED" mask="url(#path-172-inside-85_21038_115089)"/>
<mask id="path-174-inside-86_21038_115089" fill="white">
<path d="M463.828 425.732H529.483V491.388H463.828V425.732Z"/>
</mask>
<path d="M529.483 491.388V492.413H530.509V491.388H529.483ZM529.483 425.732H528.457V491.388H529.483H530.509V425.732H529.483ZM529.483 491.388V490.362H463.828V491.388V492.413H529.483V491.388Z" fill="#F6D4ED" mask="url(#path-174-inside-86_21038_115089)"/>
<mask id="path-176-inside-87_21038_115089" fill="white">
<path d="M529.483 425.732H595.138V491.388H529.483V425.732Z"/>
</mask>
<path d="M529.483 425.732H595.138V491.388H529.483V425.732Z" fill="black" fill-opacity="0.1"/>
<path d="M595.138 491.388V492.413H596.164V491.388H595.138ZM595.138 425.732H594.112V491.388H595.138H596.164V425.732H595.138ZM595.138 491.388V490.362H529.483V491.388V492.413H595.138V491.388Z" fill="#F6D4ED" mask="url(#path-176-inside-87_21038_115089)"/>
<mask id="path-178-inside-88_21038_115089" fill="white">
<path d="M595.138 425.732H660.793V491.388H595.138V425.732Z"/>
</mask>
<path d="M660.793 491.388V492.413H661.819V491.388H660.793ZM660.793 425.732H659.767V491.388H660.793H661.819V425.732H660.793ZM660.793 491.388V490.362H595.138V491.388V492.413H660.793V491.388Z" fill="#F6D4ED" mask="url(#path-178-inside-88_21038_115089)"/>
<mask id="path-180-inside-89_21038_115089" fill="white">
<path d="M-61.4136 491.389H4.2416V557.044H-61.4136V491.389Z"/>
</mask>
<path d="M4.2416 557.044V558.07H5.26746V557.044H4.2416ZM4.2416 491.389H3.21574V557.044H4.2416H5.26746V491.389H4.2416ZM4.2416 557.044V556.018H-61.4136V557.044V558.07H4.2416V557.044Z" fill="#F6D4ED" mask="url(#path-180-inside-89_21038_115089)"/>
<mask id="path-182-inside-90_21038_115089" fill="white">
<path d="M4.24146 491.389H69.8966V557.044H4.24146V491.389Z"/>
</mask>
<path d="M4.24146 491.389H69.8966V557.044H4.24146V491.389Z" fill="black" fill-opacity="0.1"/>
<path d="M69.8966 557.044V558.07H70.9225V557.044H69.8966ZM69.8966 491.389H68.8708V557.044H69.8966H70.9225V491.389H69.8966ZM69.8966 557.044V556.018H4.24146V557.044V558.07H69.8966V557.044Z" fill="#F6D4ED" mask="url(#path-182-inside-90_21038_115089)"/>
<mask id="path-184-inside-91_21038_115089" fill="white">
<path d="M69.8967 491.389H135.552V557.044H69.8967V491.389Z"/>
</mask>
<path d="M135.552 557.044V558.07H136.578V557.044H135.552ZM135.552 491.389H134.526V557.044H135.552H136.578V491.389H135.552ZM135.552 557.044V556.018H69.8967V557.044V558.07H135.552V557.044Z" fill="#F6D4ED" mask="url(#path-184-inside-91_21038_115089)"/>
<mask id="path-186-inside-92_21038_115089" fill="white">
<path d="M135.552 491.389H201.207V557.044H135.552V491.389Z"/>
</mask>
<path d="M201.207 557.044V558.07H202.233V557.044H201.207ZM201.207 491.389H200.181V557.044H201.207H202.233V491.389H201.207ZM201.207 557.044V556.018H135.552V557.044V558.07H201.207V557.044Z" fill="#F6D4ED" mask="url(#path-186-inside-92_21038_115089)"/>
<mask id="path-188-inside-93_21038_115089" fill="white">
<path d="M201.207 491.389H266.862V557.044H201.207V491.389Z"/>
</mask>
<path d="M266.862 557.044V558.07H267.888V557.044H266.862ZM266.862 491.389H265.836V557.044H266.862H267.888V491.389H266.862ZM266.862 557.044V556.018H201.207V557.044V558.07H266.862V557.044Z" fill="#F6D4ED" mask="url(#path-188-inside-93_21038_115089)"/>
<mask id="path-190-inside-94_21038_115089" fill="white">
<path d="M266.862 491.389H332.517V557.044H266.862V491.389Z"/>
</mask>
<path d="M332.517 557.044V558.07H333.543V557.044H332.517ZM332.517 491.389H331.492V557.044H332.517H333.543V491.389H332.517ZM332.517 557.044V556.018H266.862V557.044V558.07H332.517V557.044Z" fill="#F6D4ED" mask="url(#path-190-inside-94_21038_115089)"/>
<mask id="path-192-inside-95_21038_115089" fill="white">
<path d="M332.517 491.389H398.173V557.044H332.517V491.389Z"/>
</mask>
<path d="M398.173 557.044V558.07H399.198V557.044H398.173ZM398.173 491.389H397.147V557.044H398.173H399.198V491.389H398.173ZM398.173 557.044V556.018H332.517V557.044V558.07H398.173V557.044Z" fill="#F6D4ED" mask="url(#path-192-inside-95_21038_115089)"/>
<mask id="path-194-inside-96_21038_115089" fill="white">
<path d="M398.173 491.389H463.828V557.044H398.173V491.389Z"/>
</mask>
<path d="M463.828 557.044V558.07H464.854V557.044H463.828ZM463.828 491.389H462.802V557.044H463.828H464.854V491.389H463.828ZM463.828 557.044V556.018H398.173V557.044V558.07H463.828V557.044Z" fill="#F6D4ED" mask="url(#path-194-inside-96_21038_115089)"/>
<mask id="path-196-inside-97_21038_115089" fill="white">
<path d="M463.828 491.389H529.483V557.044H463.828V491.389Z"/>
</mask>
<path d="M529.483 557.044V558.07H530.509V557.044H529.483ZM529.483 491.389H528.457V557.044H529.483H530.509V491.389H529.483ZM529.483 557.044V556.018H463.828V557.044V558.07H529.483V557.044Z" fill="#F6D4ED" mask="url(#path-196-inside-97_21038_115089)"/>
<mask id="path-198-inside-98_21038_115089" fill="white">
<path d="M529.483 491.389H595.138V557.044H529.483V491.389Z"/>
</mask>
<path d="M595.138 557.044V558.07H596.164V557.044H595.138ZM595.138 491.389H594.112V557.044H595.138H596.164V491.389H595.138ZM595.138 557.044V556.018H529.483V557.044V558.07H595.138V557.044Z" fill="#F6D4ED" mask="url(#path-198-inside-98_21038_115089)"/>
<mask id="path-200-inside-99_21038_115089" fill="white">
<path d="M595.138 491.389H660.793V557.044H595.138V491.389Z"/>
</mask>
<path d="M660.793 557.044V558.07H661.819V557.044H660.793ZM660.793 491.389H659.767V557.044H660.793H661.819V491.389H660.793ZM660.793 557.044V556.018H595.138V557.044V558.07H660.793V557.044Z" fill="#F6D4ED" mask="url(#path-200-inside-99_21038_115089)"/>
<mask id="path-202-inside-100_21038_115089" fill="white">
<path d="M-61.4136 557.043H4.2416V622.698H-61.4136V557.043Z"/>
</mask>
<path d="M4.2416 622.698V623.724H5.26746V622.698H4.2416ZM4.2416 557.043H3.21574V622.698H4.2416H5.26746V557.043H4.2416ZM4.2416 622.698V621.672H-61.4136V622.698V623.724H4.2416V622.698Z" fill="#F6D4ED" mask="url(#path-202-inside-100_21038_115089)"/>
<mask id="path-204-inside-101_21038_115089" fill="white">
<path d="M4.24146 557.043H69.8966V622.698H4.24146V557.043Z"/>
</mask>
<path d="M69.8966 622.698V623.724H70.9225V622.698H69.8966ZM69.8966 557.043H68.8708V622.698H69.8966H70.9225V557.043H69.8966ZM69.8966 622.698V621.672H4.24146V622.698V623.724H69.8966V622.698Z" fill="#F6D4ED" mask="url(#path-204-inside-101_21038_115089)"/>
<mask id="path-206-inside-102_21038_115089" fill="white">
<path d="M69.8967 557.043H135.552V622.698H69.8967V557.043Z"/>
</mask>
<path d="M135.552 622.698V623.724H136.578V622.698H135.552ZM135.552 557.043H134.526V622.698H135.552H136.578V557.043H135.552ZM135.552 622.698V621.672H69.8967V622.698V623.724H135.552V622.698Z" fill="#F6D4ED" mask="url(#path-206-inside-102_21038_115089)"/>
<mask id="path-208-inside-103_21038_115089" fill="white">
<path d="M135.552 557.043H201.207V622.698H135.552V557.043Z"/>
</mask>
<path d="M201.207 622.698V623.724H202.233V622.698H201.207ZM201.207 557.043H200.181V622.698H201.207H202.233V557.043H201.207ZM201.207 622.698V621.672H135.552V622.698V623.724H201.207V622.698Z" fill="#F6D4ED" mask="url(#path-208-inside-103_21038_115089)"/>
<mask id="path-210-inside-104_21038_115089" fill="white">
<path d="M201.207 557.043H266.862V622.698H201.207V557.043Z"/>
</mask>
<path d="M266.862 622.698V623.724H267.888V622.698H266.862ZM266.862 557.043H265.836V622.698H266.862H267.888V557.043H266.862ZM266.862 622.698V621.672H201.207V622.698V623.724H266.862V622.698Z" fill="#F6D4ED" mask="url(#path-210-inside-104_21038_115089)"/>
<mask id="path-212-inside-105_21038_115089" fill="white">
<path d="M266.862 557.043H332.517V622.698H266.862V557.043Z"/>
</mask>
<path d="M266.862 557.043H332.517V622.698H266.862V557.043Z" fill="black" fill-opacity="0.1"/>
<path d="M332.517 622.698V623.724H333.543V622.698H332.517ZM332.517 557.043H331.492V622.698H332.517H333.543V557.043H332.517ZM332.517 622.698V621.672H266.862V622.698V623.724H332.517V622.698Z" fill="#F6D4ED" mask="url(#path-212-inside-105_21038_115089)"/>
<mask id="path-214-inside-106_21038_115089" fill="white">
<path d="M332.517 557.043H398.173V622.698H332.517V557.043Z"/>
</mask>
<path d="M398.173 622.698V623.724H399.198V622.698H398.173ZM398.173 557.043H397.147V622.698H398.173H399.198V557.043H398.173ZM398.173 622.698V621.672H332.517V622.698V623.724H398.173V622.698Z" fill="#F6D4ED" mask="url(#path-214-inside-106_21038_115089)"/>
<mask id="path-216-inside-107_21038_115089" fill="white">
<path d="M398.173 557.043H463.828V622.698H398.173V557.043Z"/>
</mask>
<path d="M463.828 622.698V623.724H464.854V622.698H463.828ZM463.828 557.043H462.802V622.698H463.828H464.854V557.043H463.828ZM463.828 622.698V621.672H398.173V622.698V623.724H463.828V622.698Z" fill="#F6D4ED" mask="url(#path-216-inside-107_21038_115089)"/>
<mask id="path-218-inside-108_21038_115089" fill="white">
<path d="M463.828 557.043H529.483V622.698H463.828V557.043Z"/>
</mask>
<path d="M529.483 622.698V623.724H530.509V622.698H529.483ZM529.483 557.043H528.457V622.698H529.483H530.509V557.043H529.483ZM529.483 622.698V621.672H463.828V622.698V623.724H529.483V622.698Z" fill="#F6D4ED" mask="url(#path-218-inside-108_21038_115089)"/>
<mask id="path-220-inside-109_21038_115089" fill="white">
<path d="M529.483 557.043H595.138V622.698H529.483V557.043Z"/>
</mask>
<path d="M595.138 622.698V623.724H596.164V622.698H595.138ZM595.138 557.043H594.112V622.698H595.138H596.164V557.043H595.138ZM595.138 622.698V621.672H529.483V622.698V623.724H595.138V622.698Z" fill="#F6D4ED" mask="url(#path-220-inside-109_21038_115089)"/>
<mask id="path-222-inside-110_21038_115089" fill="white">
<path d="M595.138 557.043H660.793V622.698H595.138V557.043Z"/>
</mask>
<path d="M660.793 622.698V623.724H661.819V622.698H660.793ZM660.793 557.043H659.767V622.698H660.793H661.819V557.043H660.793ZM660.793 622.698V621.672H595.138V622.698V623.724H660.793V622.698Z" fill="#F6D4ED" mask="url(#path-222-inside-110_21038_115089)"/>
<mask id="path-224-inside-111_21038_115089" fill="white">
<path d="M-61.4136 622.699H4.2416V688.354H-61.4136V622.699Z"/>
</mask>
<path d="M4.2416 688.354V689.38H5.26746V688.354H4.2416ZM4.2416 622.699H3.21574V688.354H4.2416H5.26746V622.699H4.2416ZM4.2416 688.354V687.329H-61.4136V688.354V689.38H4.2416V688.354Z" fill="#F6D4ED" mask="url(#path-224-inside-111_21038_115089)"/>
<mask id="path-226-inside-112_21038_115089" fill="white">
<path d="M4.24146 622.699H69.8966V688.354H4.24146V622.699Z"/>
</mask>
<path d="M69.8966 688.354V689.38H70.9225V688.354H69.8966ZM69.8966 622.699H68.8708V688.354H69.8966H70.9225V622.699H69.8966ZM69.8966 688.354V687.329H4.24146V688.354V689.38H69.8966V688.354Z" fill="#F6D4ED" mask="url(#path-226-inside-112_21038_115089)"/>
<mask id="path-228-inside-113_21038_115089" fill="white">
<path d="M69.8967 622.699H135.552V688.354H69.8967V622.699Z"/>
</mask>
<path d="M135.552 688.354V689.38H136.578V688.354H135.552ZM135.552 622.699H134.526V688.354H135.552H136.578V622.699H135.552ZM135.552 688.354V687.329H69.8967V688.354V689.38H135.552V688.354Z" fill="#F6D4ED" mask="url(#path-228-inside-113_21038_115089)"/>
<mask id="path-230-inside-114_21038_115089" fill="white">
<path d="M135.552 622.699H201.207V688.354H135.552V622.699Z"/>
</mask>
<path d="M135.552 622.699H201.207V688.354H135.552V622.699Z" fill="black" fill-opacity="0.1"/>
<path d="M201.207 688.354V689.38H202.233V688.354H201.207ZM201.207 622.699H200.181V688.354H201.207H202.233V622.699H201.207ZM201.207 688.354V687.329H135.552V688.354V689.38H201.207V688.354Z" fill="#F6D4ED" mask="url(#path-230-inside-114_21038_115089)"/>
<mask id="path-232-inside-115_21038_115089" fill="white">
<path d="M201.207 622.699H266.862V688.354H201.207V622.699Z"/>
</mask>
<path d="M266.862 688.354V689.38H267.888V688.354H266.862ZM266.862 622.699H265.836V688.354H266.862H267.888V622.699H266.862ZM266.862 688.354V687.329H201.207V688.354V689.38H266.862V688.354Z" fill="#F6D4ED" mask="url(#path-232-inside-115_21038_115089)"/>
<mask id="path-234-inside-116_21038_115089" fill="white">
<path d="M266.862 622.699H332.517V688.354H266.862V622.699Z"/>
</mask>
<path d="M332.517 688.354V689.38H333.543V688.354H332.517ZM332.517 622.699H331.492V688.354H332.517H333.543V622.699H332.517ZM332.517 688.354V687.329H266.862V688.354V689.38H332.517V688.354Z" fill="#F6D4ED" mask="url(#path-234-inside-116_21038_115089)"/>
<mask id="path-236-inside-117_21038_115089" fill="white">
<path d="M332.517 622.699H398.173V688.354H332.517V622.699Z"/>
</mask>
<path d="M398.173 688.354V689.38H399.198V688.354H398.173ZM398.173 622.699H397.147V688.354H398.173H399.198V622.699H398.173ZM398.173 688.354V687.329H332.517V688.354V689.38H398.173V688.354Z" fill="#F6D4ED" mask="url(#path-236-inside-117_21038_115089)"/>
<mask id="path-238-inside-118_21038_115089" fill="white">
<path d="M398.173 622.699H463.828V688.354H398.173V622.699Z"/>
</mask>
<path d="M463.828 688.354V689.38H464.854V688.354H463.828ZM463.828 622.699H462.802V688.354H463.828H464.854V622.699H463.828ZM463.828 688.354V687.329H398.173V688.354V689.38H463.828V688.354Z" fill="#F6D4ED" mask="url(#path-238-inside-118_21038_115089)"/>
<mask id="path-240-inside-119_21038_115089" fill="white">
<path d="M463.828 622.699H529.483V688.354H463.828V622.699Z"/>
</mask>
<path d="M529.483 688.354V689.38H530.509V688.354H529.483ZM529.483 622.699H528.457V688.354H529.483H530.509V622.699H529.483ZM529.483 688.354V687.329H463.828V688.354V689.38H529.483V688.354Z" fill="#F6D4ED" mask="url(#path-240-inside-119_21038_115089)"/>
<mask id="path-242-inside-120_21038_115089" fill="white">
<path d="M529.483 622.699H595.138V688.354H529.483V622.699Z"/>
</mask>
<path d="M595.138 688.354V689.38H596.164V688.354H595.138ZM595.138 622.699H594.112V688.354H595.138H596.164V622.699H595.138ZM595.138 688.354V687.329H529.483V688.354V689.38H595.138V688.354Z" fill="#F6D4ED" mask="url(#path-242-inside-120_21038_115089)"/>
<mask id="path-244-inside-121_21038_115089" fill="white">
<path d="M595.138 622.699H660.793V688.354H595.138V622.699Z"/>
</mask>
<path d="M595.138 622.699H660.793V688.354H595.138V622.699Z" fill="black" fill-opacity="0.1"/>
<path d="M660.793 688.354V689.38H661.819V688.354H660.793ZM660.793 622.699H659.767V688.354H660.793H661.819V622.699H660.793ZM660.793 688.354V687.329H595.138V688.354V689.38H660.793V688.354Z" fill="#F6D4ED" mask="url(#path-244-inside-121_21038_115089)"/>
<mask id="path-246-inside-122_21038_115089" fill="white">
<path d="M-61.4136 688.354H4.2416V754.009H-61.4136V688.354Z"/>
</mask>
<path d="M4.2416 754.009V755.035H5.26746V754.009H4.2416ZM4.2416 688.354H3.21574V754.009H4.2416H5.26746V688.354H4.2416ZM4.2416 754.009V752.983H-61.4136V754.009V755.035H4.2416V754.009Z" fill="#F6D4ED" mask="url(#path-246-inside-122_21038_115089)"/>
<mask id="path-248-inside-123_21038_115089" fill="white">
<path d="M4.24146 688.354H69.8966V754.009H4.24146V688.354Z"/>
</mask>
<path d="M69.8966 754.009V755.035H70.9225V754.009H69.8966ZM69.8966 688.354H68.8708V754.009H69.8966H70.9225V688.354H69.8966ZM69.8966 754.009V752.983H4.24146V754.009V755.035H69.8966V754.009Z" fill="#F6D4ED" mask="url(#path-248-inside-123_21038_115089)"/>
<mask id="path-250-inside-124_21038_115089" fill="white">
<path d="M69.8967 688.354H135.552V754.009H69.8967V688.354Z"/>
</mask>
<path d="M135.552 754.009V755.035H136.578V754.009H135.552ZM135.552 688.354H134.526V754.009H135.552H136.578V688.354H135.552ZM135.552 754.009V752.983H69.8967V754.009V755.035H135.552V754.009Z" fill="#F6D4ED" mask="url(#path-250-inside-124_21038_115089)"/>
<mask id="path-252-inside-125_21038_115089" fill="white">
<path d="M135.552 688.354H201.207V754.009H135.552V688.354Z"/>
</mask>
<path d="M201.207 754.009V755.035H202.233V754.009H201.207ZM201.207 688.354H200.181V754.009H201.207H202.233V688.354H201.207ZM201.207 754.009V752.983H135.552V754.009V755.035H201.207V754.009Z" fill="#F6D4ED" mask="url(#path-252-inside-125_21038_115089)"/>
<mask id="path-254-inside-126_21038_115089" fill="white">
<path d="M201.207 688.354H266.862V754.009H201.207V688.354Z"/>
</mask>
<path d="M266.862 754.009V755.035H267.888V754.009H266.862ZM266.862 688.354H265.836V754.009H266.862H267.888V688.354H266.862ZM266.862 754.009V752.983H201.207V754.009V755.035H266.862V754.009Z" fill="#F6D4ED" mask="url(#path-254-inside-126_21038_115089)"/>
<mask id="path-256-inside-127_21038_115089" fill="white">
<path d="M266.862 688.354H332.517V754.009H266.862V688.354Z"/>
</mask>
<path d="M332.517 754.009V755.035H333.543V754.009H332.517ZM332.517 688.354H331.492V754.009H332.517H333.543V688.354H332.517ZM332.517 754.009V752.983H266.862V754.009V755.035H332.517V754.009Z" fill="#F6D4ED" mask="url(#path-256-inside-127_21038_115089)"/>
<mask id="path-258-inside-128_21038_115089" fill="white">
<path d="M332.517 688.354H398.173V754.009H332.517V688.354Z"/>
</mask>
<path d="M398.173 754.009V755.035H399.198V754.009H398.173ZM398.173 688.354H397.147V754.009H398.173H399.198V688.354H398.173ZM398.173 754.009V752.983H332.517V754.009V755.035H398.173V754.009Z" fill="#F6D4ED" mask="url(#path-258-inside-128_21038_115089)"/>
<mask id="path-260-inside-129_21038_115089" fill="white">
<path d="M398.173 688.354H463.828V754.009H398.173V688.354Z"/>
</mask>
<path d="M398.173 688.354H463.828V754.009H398.173V688.354Z" fill="black" fill-opacity="0.1"/>
<path d="M463.828 754.009V755.035H464.854V754.009H463.828ZM463.828 688.354H462.802V754.009H463.828H464.854V688.354H463.828ZM463.828 754.009V752.983H398.173V754.009V755.035H463.828V754.009Z" fill="#F6D4ED" mask="url(#path-260-inside-129_21038_115089)"/>
<mask id="path-262-inside-130_21038_115089" fill="white">
<path d="M463.828 688.354H529.483V754.009H463.828V688.354Z"/>
</mask>
<path d="M529.483 754.009V755.035H530.509V754.009H529.483ZM529.483 688.354H528.457V754.009H529.483H530.509V688.354H529.483ZM529.483 754.009V752.983H463.828V754.009V755.035H529.483V754.009Z" fill="#F6D4ED" mask="url(#path-262-inside-130_21038_115089)"/>
<mask id="path-264-inside-131_21038_115089" fill="white">
<path d="M529.483 688.354H595.138V754.009H529.483V688.354Z"/>
</mask>
<path d="M595.138 754.009V755.035H596.164V754.009H595.138ZM595.138 688.354H594.112V754.009H595.138H596.164V688.354H595.138ZM595.138 754.009V752.983H529.483V754.009V755.035H595.138V754.009Z" fill="#F6D4ED" mask="url(#path-264-inside-131_21038_115089)"/>
<mask id="path-266-inside-132_21038_115089" fill="white">
<path d="M595.138 688.354H660.793V754.009H595.138V688.354Z"/>
</mask>
<path d="M660.793 754.009V755.035H661.819V754.009H660.793ZM660.793 688.354H659.767V754.009H660.793H661.819V688.354H660.793ZM660.793 754.009V752.983H595.138V754.009V755.035H660.793V754.009Z" fill="#F6D4ED" mask="url(#path-266-inside-132_21038_115089)"/>
<mask id="path-268-inside-133_21038_115089" fill="white">
<path d="M-61.4136 754.008H4.2416V819.663H-61.4136V754.008Z"/>
</mask>
<path d="M4.2416 819.663V820.689H5.26746V819.663H4.2416ZM4.2416 754.008H3.21574V819.663H4.2416H5.26746V754.008H4.2416ZM4.2416 819.663V818.637H-61.4136V819.663V820.689H4.2416V819.663Z" fill="#F6D4ED" mask="url(#path-268-inside-133_21038_115089)"/>
<mask id="path-270-inside-134_21038_115089" fill="white">
<path d="M4.24146 754.008H69.8966V819.663H4.24146V754.008Z"/>
</mask>
<path d="M69.8966 819.663V820.689H70.9225V819.663H69.8966ZM69.8966 754.008H68.8708V819.663H69.8966H70.9225V754.008H69.8966ZM69.8966 819.663V818.637H4.24146V819.663V820.689H69.8966V819.663Z" fill="#F6D4ED" mask="url(#path-270-inside-134_21038_115089)"/>
<mask id="path-272-inside-135_21038_115089" fill="white">
<path d="M69.8967 754.008H135.552V819.663H69.8967V754.008Z"/>
</mask>
<path d="M135.552 819.663V820.689H136.578V819.663H135.552ZM135.552 754.008H134.526V819.663H135.552H136.578V754.008H135.552ZM135.552 819.663V818.637H69.8967V819.663V820.689H135.552V819.663Z" fill="#F6D4ED" mask="url(#path-272-inside-135_21038_115089)"/>
<mask id="path-274-inside-136_21038_115089" fill="white">
<path d="M135.552 754.008H201.207V819.663H135.552V754.008Z"/>
</mask>
<path d="M135.552 754.008H201.207V819.663H135.552V754.008Z" fill="black" fill-opacity="0.1"/>
<path d="M201.207 819.663V820.689H202.233V819.663H201.207ZM201.207 754.008H200.181V819.663H201.207H202.233V754.008H201.207ZM201.207 819.663V818.637H135.552V819.663V820.689H201.207V819.663Z" fill="#F6D4ED" mask="url(#path-274-inside-136_21038_115089)"/>
<mask id="path-276-inside-137_21038_115089" fill="white">
<path d="M201.207 754.008H266.862V819.663H201.207V754.008Z"/>
</mask>
<path d="M266.862 819.663V820.689H267.888V819.663H266.862ZM266.862 754.008H265.836V819.663H266.862H267.888V754.008H266.862ZM266.862 819.663V818.637H201.207V819.663V820.689H266.862V819.663Z" fill="#F6D4ED" mask="url(#path-276-inside-137_21038_115089)"/>
<mask id="path-278-inside-138_21038_115089" fill="white">
<path d="M266.862 754.008H332.517V819.663H266.862V754.008Z"/>
</mask>
<path d="M332.517 819.663V820.689H333.543V819.663H332.517ZM332.517 754.008H331.492V819.663H332.517H333.543V754.008H332.517ZM332.517 819.663V818.637H266.862V819.663V820.689H332.517V819.663Z" fill="#F6D4ED" mask="url(#path-278-inside-138_21038_115089)"/>
<mask id="path-280-inside-139_21038_115089" fill="white">
<path d="M332.517 754.008H398.173V819.663H332.517V754.008Z"/>
</mask>
<path d="M398.173 819.663V820.689H399.198V819.663H398.173ZM398.173 754.008H397.147V819.663H398.173H399.198V754.008H398.173ZM398.173 819.663V818.637H332.517V819.663V820.689H398.173V819.663Z" fill="#F6D4ED" mask="url(#path-280-inside-139_21038_115089)"/>
<mask id="path-282-inside-140_21038_115089" fill="white">
<path d="M398.173 754.008H463.828V819.663H398.173V754.008Z"/>
</mask>
<path d="M463.828 819.663V820.689H464.854V819.663H463.828ZM463.828 754.008H462.802V819.663H463.828H464.854V754.008H463.828ZM463.828 819.663V818.637H398.173V819.663V820.689H463.828V819.663Z" fill="#F6D4ED" mask="url(#path-282-inside-140_21038_115089)"/>
<mask id="path-284-inside-141_21038_115089" fill="white">
<path d="M463.828 754.008H529.483V819.663H463.828V754.008Z"/>
</mask>
<path d="M529.483 819.663V820.689H530.509V819.663H529.483ZM529.483 754.008H528.457V819.663H529.483H530.509V754.008H529.483ZM529.483 819.663V818.637H463.828V819.663V820.689H529.483V819.663Z" fill="#F6D4ED" mask="url(#path-284-inside-141_21038_115089)"/>
<mask id="path-286-inside-142_21038_115089" fill="white">
<path d="M529.483 754.008H595.138V819.663H529.483V754.008Z"/>
</mask>
<path d="M595.138 819.663V820.689H596.164V819.663H595.138ZM595.138 754.008H594.112V819.663H595.138H596.164V754.008H595.138ZM595.138 819.663V818.637H529.483V819.663V820.689H595.138V819.663Z" fill="#F6D4ED" mask="url(#path-286-inside-142_21038_115089)"/>
<mask id="path-288-inside-143_21038_115089" fill="white">
<path d="M595.138 754.008H660.793V819.663H595.138V754.008Z"/>
</mask>
<path d="M660.793 819.663V820.689H661.819V819.663H660.793ZM660.793 754.008H659.767V819.663H660.793H661.819V754.008H660.793ZM660.793 819.663V818.637H595.138V819.663V820.689H660.793V819.663Z" fill="#F6D4ED" mask="url(#path-288-inside-143_21038_115089)"/>
<mask id="path-290-inside-144_21038_115089" fill="white">
<path d="M-61.4136 819.664H4.2416V885.319H-61.4136V819.664Z"/>
</mask>
<path d="M-61.4136 819.664H4.2416V885.319H-61.4136V819.664Z" fill="black" fill-opacity="0.1"/>
<path d="M4.2416 885.319V886.345H5.26746V885.319H4.2416ZM4.2416 819.664H3.21574V885.319H4.2416H5.26746V819.664H4.2416ZM4.2416 885.319V884.293H-61.4136V885.319V886.345H4.2416V885.319Z" fill="#F6D4ED" mask="url(#path-290-inside-144_21038_115089)"/>
<mask id="path-292-inside-145_21038_115089" fill="white">
<path d="M4.24146 819.664H69.8966V885.319H4.24146V819.664Z"/>
</mask>
<path d="M69.8966 885.319V886.345H70.9225V885.319H69.8966ZM69.8966 819.664H68.8708V885.319H69.8966H70.9225V819.664H69.8966ZM69.8966 885.319V884.293H4.24146V885.319V886.345H69.8966V885.319Z" fill="#F6D4ED" mask="url(#path-292-inside-145_21038_115089)"/>
<mask id="path-294-inside-146_21038_115089" fill="white">
<path d="M69.8967 819.664H135.552V885.319H69.8967V819.664Z"/>
</mask>
<path d="M135.552 885.319V886.345H136.578V885.319H135.552ZM135.552 819.664H134.526V885.319H135.552H136.578V819.664H135.552ZM135.552 885.319V884.293H69.8967V885.319V886.345H135.552V885.319Z" fill="#F6D4ED" mask="url(#path-294-inside-146_21038_115089)"/>
<mask id="path-296-inside-147_21038_115089" fill="white">
<path d="M135.552 819.664H201.207V885.319H135.552V819.664Z"/>
</mask>
<path d="M201.207 885.319V886.345H202.233V885.319H201.207ZM201.207 819.664H200.181V885.319H201.207H202.233V819.664H201.207ZM201.207 885.319V884.293H135.552V885.319V886.345H201.207V885.319Z" fill="#F6D4ED" mask="url(#path-296-inside-147_21038_115089)"/>
<mask id="path-298-inside-148_21038_115089" fill="white">
<path d="M201.207 819.664H266.862V885.319H201.207V819.664Z"/>
</mask>
<path d="M266.862 885.319V886.345H267.888V885.319H266.862ZM266.862 819.664H265.836V885.319H266.862H267.888V819.664H266.862ZM266.862 885.319V884.293H201.207V885.319V886.345H266.862V885.319Z" fill="#F6D4ED" mask="url(#path-298-inside-148_21038_115089)"/>
<mask id="path-300-inside-149_21038_115089" fill="white">
<path d="M266.862 819.664H332.517V885.319H266.862V819.664Z"/>
</mask>
<path d="M332.517 885.319V886.345H333.543V885.319H332.517ZM332.517 819.664H331.492V885.319H332.517H333.543V819.664H332.517ZM332.517 885.319V884.293H266.862V885.319V886.345H332.517V885.319Z" fill="#F6D4ED" mask="url(#path-300-inside-149_21038_115089)"/>
<mask id="path-302-inside-150_21038_115089" fill="white">
<path d="M332.517 819.664H398.173V885.319H332.517V819.664Z"/>
</mask>
<path d="M398.173 885.319V886.345H399.198V885.319H398.173ZM398.173 819.664H397.147V885.319H398.173H399.198V819.664H398.173ZM398.173 885.319V884.293H332.517V885.319V886.345H398.173V885.319Z" fill="#F6D4ED" mask="url(#path-302-inside-150_21038_115089)"/>
<mask id="path-304-inside-151_21038_115089" fill="white">
<path d="M398.173 819.664H463.828V885.319H398.173V819.664Z"/>
</mask>
<path d="M463.828 885.319V886.345H464.854V885.319H463.828ZM463.828 819.664H462.802V885.319H463.828H464.854V819.664H463.828ZM463.828 885.319V884.293H398.173V885.319V886.345H463.828V885.319Z" fill="#F6D4ED" mask="url(#path-304-inside-151_21038_115089)"/>
<mask id="path-306-inside-152_21038_115089" fill="white">
<path d="M463.828 819.664H529.483V885.319H463.828V819.664Z"/>
</mask>
<path d="M529.483 885.319V886.345H530.509V885.319H529.483ZM529.483 819.664H528.457V885.319H529.483H530.509V819.664H529.483ZM529.483 885.319V884.293H463.828V885.319V886.345H529.483V885.319Z" fill="#F6D4ED" mask="url(#path-306-inside-152_21038_115089)"/>
<mask id="path-308-inside-153_21038_115089" fill="white">
<path d="M529.483 819.664H595.138V885.319H529.483V819.664Z"/>
</mask>
<path d="M529.483 819.664H595.138V885.319H529.483V819.664Z" fill="black" fill-opacity="0.1"/>
<path d="M595.138 885.319V886.345H596.164V885.319H595.138ZM595.138 819.664H594.112V885.319H595.138H596.164V819.664H595.138ZM595.138 885.319V884.293H529.483V885.319V886.345H595.138V885.319Z" fill="#F6D4ED" mask="url(#path-308-inside-153_21038_115089)"/>
<mask id="path-310-inside-154_21038_115089" fill="white">
<path d="M595.138 819.664H660.793V885.319H595.138V819.664Z"/>
</mask>
<path d="M660.793 885.319V886.345H661.819V885.319H660.793ZM660.793 819.664H659.767V885.319H660.793H661.819V819.664H660.793ZM660.793 885.319V884.293H595.138V885.319V886.345H660.793V885.319Z" fill="#F6D4ED" mask="url(#path-310-inside-154_21038_115089)"/>
<mask id="path-312-inside-155_21038_115089" fill="white">
<path d="M-61.4136 885.318H4.2416V950.974H-61.4136V885.318Z"/>
</mask>
<path d="M4.2416 950.974V951.999H5.26746V950.974H4.2416ZM4.2416 885.318H3.21574V950.974H4.2416H5.26746V885.318H4.2416ZM4.2416 950.974V949.948H-61.4136V950.974V951.999H4.2416V950.974Z" fill="#F6D4ED" mask="url(#path-312-inside-155_21038_115089)"/>
<mask id="path-314-inside-156_21038_115089" fill="white">
<path d="M4.24146 885.318H69.8966V950.974H4.24146V885.318Z"/>
</mask>
<path d="M69.8966 950.974V951.999H70.9225V950.974H69.8966ZM69.8966 885.318H68.8708V950.974H69.8966H70.9225V885.318H69.8966ZM69.8966 950.974V949.948H4.24146V950.974V951.999H69.8966V950.974Z" fill="#F6D4ED" mask="url(#path-314-inside-156_21038_115089)"/>
<mask id="path-316-inside-157_21038_115089" fill="white">
<path d="M69.8967 885.318H135.552V950.974H69.8967V885.318Z"/>
</mask>
<path d="M135.552 950.974V951.999H136.578V950.974H135.552ZM135.552 885.318H134.526V950.974H135.552H136.578V885.318H135.552ZM135.552 950.974V949.948H69.8967V950.974V951.999H135.552V950.974Z" fill="#F6D4ED" mask="url(#path-316-inside-157_21038_115089)"/>
<mask id="path-318-inside-158_21038_115089" fill="white">
<path d="M135.552 885.318H201.207V950.974H135.552V885.318Z"/>
</mask>
<path d="M201.207 950.974V951.999H202.233V950.974H201.207ZM201.207 885.318H200.181V950.974H201.207H202.233V885.318H201.207ZM201.207 950.974V949.948H135.552V950.974V951.999H201.207V950.974Z" fill="#F6D4ED" mask="url(#path-318-inside-158_21038_115089)"/>
<mask id="path-320-inside-159_21038_115089" fill="white">
<path d="M201.207 885.318H266.862V950.974H201.207V885.318Z"/>
</mask>
<path d="M266.862 950.974V951.999H267.888V950.974H266.862ZM266.862 885.318H265.836V950.974H266.862H267.888V885.318H266.862ZM266.862 950.974V949.948H201.207V950.974V951.999H266.862V950.974Z" fill="#F6D4ED" mask="url(#path-320-inside-159_21038_115089)"/>
<mask id="path-322-inside-160_21038_115089" fill="white">
<path d="M266.862 885.318H332.517V950.974H266.862V885.318Z"/>
</mask>
<path d="M332.517 950.974V951.999H333.543V950.974H332.517ZM332.517 885.318H331.492V950.974H332.517H333.543V885.318H332.517ZM332.517 950.974V949.948H266.862V950.974V951.999H332.517V950.974Z" fill="#F6D4ED" mask="url(#path-322-inside-160_21038_115089)"/>
<mask id="path-324-inside-161_21038_115089" fill="white">
<path d="M332.517 885.318H398.173V950.974H332.517V885.318Z"/>
</mask>
<path d="M332.517 885.318H398.173V950.974H332.517V885.318Z" fill="black" fill-opacity="0.1"/>
<path d="M398.173 950.974V951.999H399.198V950.974H398.173ZM398.173 885.318H397.147V950.974H398.173H399.198V885.318H398.173ZM398.173 950.974V949.948H332.517V950.974V951.999H398.173V950.974Z" fill="#F6D4ED" mask="url(#path-324-inside-161_21038_115089)"/>
<mask id="path-326-inside-162_21038_115089" fill="white">
<path d="M398.173 885.318H463.828V950.974H398.173V885.318Z"/>
</mask>
<path d="M463.828 950.974V951.999H464.854V950.974H463.828ZM463.828 885.318H462.802V950.974H463.828H464.854V885.318H463.828ZM463.828 950.974V949.948H398.173V950.974V951.999H463.828V950.974Z" fill="#F6D4ED" mask="url(#path-326-inside-162_21038_115089)"/>
<mask id="path-328-inside-163_21038_115089" fill="white">
<path d="M463.828 885.318H529.483V950.974H463.828V885.318Z"/>
</mask>
<path d="M529.483 950.974V951.999H530.509V950.974H529.483ZM529.483 885.318H528.457V950.974H529.483H530.509V885.318H529.483ZM529.483 950.974V949.948H463.828V950.974V951.999H529.483V950.974Z" fill="#F6D4ED" mask="url(#path-328-inside-163_21038_115089)"/>
<mask id="path-330-inside-164_21038_115089" fill="white">
<path d="M529.483 885.318H595.138V950.974H529.483V885.318Z"/>
</mask>
<path d="M595.138 950.974V951.999H596.164V950.974H595.138ZM595.138 885.318H594.112V950.974H595.138H596.164V885.318H595.138ZM595.138 950.974V949.948H529.483V950.974V951.999H595.138V950.974Z" fill="#F6D4ED" mask="url(#path-330-inside-164_21038_115089)"/>
<mask id="path-332-inside-165_21038_115089" fill="white">
<path d="M595.138 885.318H660.793V950.974H595.138V885.318Z"/>
</mask>
<path d="M660.793 950.974V951.999H661.819V950.974H660.793ZM660.793 885.318H659.767V950.974H660.793H661.819V885.318H660.793ZM660.793 950.974V949.948H595.138V950.974V951.999H660.793V950.974Z" fill="#F6D4ED" mask="url(#path-332-inside-165_21038_115089)"/>
</g>
<rect x="-126.556" y="-33.3406" width="983.802" height="983.802" stroke="#F6D4ED" stroke-width="1.02586"/>
</g>
</g>
<defs>
<radialGradient id="paint0_radial_21038_115089" cx="0" cy="0" r="1" gradientUnits="userSpaceOnUse" gradientTransform="translate(492.414 -0.000117401) rotate(90) scale(984.828 514.017)">
<stop/>
<stop offset="0.953125" stop-opacity="0"/>
</radialGradient>
<clipPath id="clip0_21038_115089">
<rect width="622.698" height="952" fill="white" transform="translate(0.650879)"/>
</clipPath>
<clipPath id="clip1_21038_115089">
<rect x="-127.069" y="-33.8535" width="984.828" height="984.828" fill="white"/>
</clipPath>
</defs>
</svg>
