<svg width="28" height="29" viewBox="0 0 28 29" fill="none" xmlns="http://www.w3.org/2000/svg">
<path d="M25.0833 6.67643C25.0833 8.28726 23.7775 9.5931 22.1667 9.5931C20.5559 9.5931 19.25 8.28726 19.25 6.67643C19.25 5.0656 20.5559 3.75977 22.1667 3.75977C23.7775 3.75977 25.0833 5.0656 25.0833 6.67643Z" stroke="#FD853A" stroke-width="2"/>
<path d="M15.7503 3.75977H5.25033C3.96166 3.75977 2.91699 4.80443 2.91699 6.0931V23.5931C2.91699 24.8818 3.96166 25.9264 5.25033 25.9264H22.7503C24.039 25.9264 25.0837 24.8818 25.0837 23.5931V13.0931" stroke="#FD853A" stroke-width="2" stroke-linecap="round" stroke-linejoin="round"/>
<path d="M7 14.8444H9.33333L11.6667 10.1777L16.3333 19.5111L18.6667 14.8444H21" stroke="#FD853A" stroke-width="2" stroke-linecap="round" stroke-linejoin="round"/>
</svg>
