<svg width="99" height="22" viewBox="0 0 99 22" fill="none" xmlns="http://www.w3.org/2000/svg">
<g clip-path="url(#clip0_20931_10900)">
<path d="M59.6331 2.55818C59.2833 2.55818 58.9728 2.4284 58.735 2.1826C58.5012 1.94074 58.3774 1.63595 58.3774 1.29969C58.3774 0.945742 58.5012 0.629153 58.737 0.389253C58.9748 0.143454 59.2853 0.0136719 59.635 0.0136719C59.9907 0.0136719 60.3071 0.141487 60.5488 0.383354C60.7905 0.627186 60.9183 0.943776 60.9183 1.29969C60.9183 1.63791 60.7905 1.94467 60.5488 2.18654C60.3071 2.43037 59.9907 2.55818 59.6331 2.55818Z" fill="#B32C7D"/>
<path d="M36.0538 16.1716C35.2265 16.1716 34.4306 16.0104 33.6937 15.6938C33.1336 15.4539 32.6188 15.1393 32.1629 14.7597L31.8406 14.4923V15.1137C31.8406 15.3693 31.7482 15.5955 31.5753 15.7705C31.4063 15.9415 31.1725 16.0379 30.9209 16.0379C30.6714 16.0379 30.4375 15.9455 30.2646 15.7764C30.0838 15.6014 29.9895 15.3733 29.9895 15.1157V0.922238C29.9895 0.664641 30.0838 0.436539 30.2646 0.26153C30.4375 0.0924205 30.6714 0 30.9209 0C31.1744 0 31.4063 0.0943868 31.5753 0.265463C31.7482 0.440472 31.8406 0.668573 31.8406 0.922238V5.71237L32.1629 5.44691C32.6188 5.07133 33.1336 4.75867 33.6957 4.52074C34.4326 4.21005 35.2265 4.05274 36.0538 4.05274C36.889 4.05274 37.6868 4.21201 38.4237 4.52467C39.1586 4.83536 39.8071 5.26993 40.3534 5.81462C40.8997 6.35931 41.334 7.00822 41.6484 7.73972C41.9629 8.47515 42.1201 9.27154 42.1201 10.1053C42.1201 10.941 41.9609 11.7354 41.6465 12.4669C41.334 13.1965 40.8978 13.8434 40.3534 14.392C39.8071 14.9407 39.1586 15.3792 38.4237 15.6938C37.6888 16.0104 36.8909 16.1716 36.0538 16.1716ZM36.0499 5.91884C35.4643 5.91884 34.9121 6.02699 34.409 6.2433C33.904 6.4596 33.4539 6.76046 33.0747 7.138C32.6954 7.51359 32.3948 7.96192 32.1786 8.47122C31.9644 8.97855 31.8544 9.52914 31.8544 10.1073C31.8544 10.6775 31.9624 11.2242 32.1786 11.7315C32.3948 12.2408 32.6954 12.6911 33.0708 13.0667C33.4481 13.4442 33.8981 13.749 34.407 13.9732C34.9003 14.1895 35.4701 14.3035 36.0557 14.3035C36.6413 14.3035 37.2112 14.1895 37.7045 13.9732C38.2134 13.749 38.6634 13.4442 39.0407 13.0667C39.4161 12.6911 39.7167 12.2428 39.9329 11.7315C40.1471 11.2242 40.2571 10.6775 40.2571 10.1073C40.2571 9.52914 40.1471 8.97855 39.9329 8.47122C39.7167 7.96192 39.4161 7.51359 39.0407 7.138C38.6654 6.76242 38.2174 6.46157 37.7084 6.24526C37.2014 6.02699 36.6433 5.91884 36.0499 5.91884Z" fill="#2F64A3"/>
<path d="M49.8586 16.1716C49.0313 16.1716 48.2394 16.0104 47.5025 15.6938C46.7675 15.3772 46.119 14.9387 45.5727 14.3901C45.0245 13.8414 44.5862 13.1925 44.2718 12.465C43.9535 11.7335 43.7943 10.9371 43.7943 10.1014C43.7943 9.26564 43.9554 8.46729 44.2718 7.73186C44.5882 6.99839 45.0264 6.34948 45.5747 5.80479C46.123 5.2601 46.7714 4.82553 47.5064 4.51287C48.2413 4.20021 49.0333 4.04094 49.8606 4.04094C50.8549 4.04094 51.7825 4.25921 52.6157 4.69181C53.0146 4.89828 53.3899 5.14802 53.7279 5.42921L54.0502 5.69664V0.922238C54.0502 0.666607 54.1426 0.438506 54.3174 0.263497C54.4884 0.0924205 54.7203 0 54.9758 0C55.2273 0 55.4611 0.0924205 55.6341 0.259564C55.8168 0.436539 55.9131 0.664641 55.9131 0.922238V15.1117C55.9131 15.3693 55.8168 15.5994 55.6341 15.7744C55.4611 15.9415 55.2273 16.034 54.9758 16.034C54.7242 16.034 54.4845 15.9376 54.3174 15.7685C54.1426 15.5935 54.0502 15.3654 54.0502 15.1098V14.5002L53.7279 14.7696C53.3899 15.0527 53.0146 15.3025 52.6157 15.5109C51.7825 15.9514 50.8549 16.1716 49.8586 16.1716ZM49.8586 5.93064C49.273 5.93064 48.7189 6.03879 48.2138 6.25509C47.7068 6.4714 47.2588 6.77029 46.8835 7.14587C46.5081 7.52145 46.2075 7.96782 45.9933 8.47319C45.7791 8.97658 45.669 9.52324 45.669 10.1014C45.669 10.6716 45.7771 11.2183 45.9933 11.7236C46.2094 12.2329 46.5081 12.6813 46.8835 13.0568C47.2608 13.4344 47.7108 13.7392 48.2178 13.9614C48.709 14.1777 49.2789 14.2917 49.8645 14.2917C50.4501 14.2917 51.02 14.1777 51.5113 13.9614C52.0202 13.7392 52.4663 13.4344 52.8397 13.0568C53.2111 12.6813 53.5098 12.2329 53.7259 11.7236C53.9401 11.2163 54.0502 10.6716 54.0502 10.1014C54.0502 9.52324 53.9421 8.97658 53.7279 8.47319C53.5118 7.96782 53.2131 7.52145 52.8377 7.14587C52.4624 6.77029 52.0143 6.46943 51.5073 6.25509C50.9984 6.03879 50.4442 5.93064 49.8586 5.93064Z" fill="#2F64A3"/>
<path d="M56.5989 19.4142C56.3474 19.4142 56.1194 19.3237 55.9406 19.1526C55.7579 18.9776 55.6596 18.7495 55.6596 18.4919C55.6596 18.2284 55.7559 17.9964 55.9367 17.8175C56.1155 17.6405 56.3435 17.5461 56.5989 17.5461H56.766C57.0313 17.5461 57.2828 17.495 57.5147 17.3908C57.7505 17.2865 57.9607 17.143 58.1396 16.964C58.3164 16.7871 58.4599 16.5767 58.566 16.3387C58.6701 16.1047 58.7193 15.8589 58.7193 15.5895V5.01427C58.7193 4.75668 58.8097 4.52268 58.9787 4.34177C59.1457 4.16283 59.3854 4.05861 59.6389 4.05664C59.9003 4.05664 60.144 4.15889 60.3149 4.33587C60.4918 4.51874 60.5842 4.75471 60.5842 5.01427V15.6446C60.5743 16.1618 60.4663 16.6593 60.258 17.1155C60.0536 17.5697 59.7765 17.9708 59.4365 18.3091C59.0926 18.6492 58.6859 18.9206 58.228 19.1153C57.7682 19.3099 57.2769 19.4102 56.7679 19.4102L56.6736 19.4063L56.6618 19.4083C56.6441 19.4122 56.6225 19.4142 56.5989 19.4142Z" fill="#2F64A3"/>
<path d="M68.7551 16.1835C67.9277 16.1835 67.1358 16.0222 66.3989 15.7056C65.6659 15.3891 65.0174 14.9545 64.4692 14.4098C63.9209 13.8651 63.4807 13.2162 63.1663 12.4827C62.8499 11.7473 62.6888 10.9529 62.6888 10.125C62.6888 9.2893 62.8499 8.49095 63.1663 7.74962C63.4827 7.01222 63.9209 6.36135 64.4692 5.81665C65.0174 5.27196 65.6659 4.83739 66.3989 4.5208C67.1338 4.20421 67.9277 4.04297 68.7551 4.04297C69.5902 4.04297 70.3841 4.20421 71.1171 4.5208C71.8462 4.83739 72.4927 5.27393 73.0351 5.81862C73.5794 6.36331 74.0156 7.01419 74.332 7.75158C74.6484 8.49095 74.8095 9.29127 74.8095 10.127C74.8095 10.9548 74.6484 11.7473 74.332 12.4847C74.0156 13.2182 73.5794 13.8671 73.0351 14.4098C72.4907 14.9545 71.8462 15.391 71.1171 15.7076C70.3861 16.0222 69.5902 16.1835 68.7551 16.1835ZM68.7551 5.91891C68.1695 5.91891 67.6173 6.02903 67.1122 6.24729C66.6033 6.46753 66.1552 6.76839 65.7779 7.14594C65.4026 7.52152 65.1039 7.96985 64.8877 8.48308C64.6735 8.99435 64.5635 9.5469 64.5635 10.125C64.5635 10.6953 64.6716 11.238 64.8877 11.7394C65.1039 12.2448 65.4046 12.6931 65.7799 13.0746C66.1552 13.4541 66.6052 13.7609 67.1142 13.9851C67.6055 14.2014 68.1754 14.3154 68.761 14.3154C69.3466 14.3154 69.9164 14.2014 70.4077 13.9851C70.9167 13.7628 71.3628 13.4561 71.7342 13.0766C72.1075 12.6971 72.4062 12.2468 72.6224 11.7414C72.8366 11.24 72.9466 10.6953 72.9466 10.127C72.9466 9.54887 72.8385 8.99631 72.6224 8.48505C72.4062 7.97379 72.1075 7.52348 71.7322 7.1479C71.3569 6.77232 70.9068 6.4695 70.3998 6.24926C69.8929 6.02903 69.3407 5.91891 68.7551 5.91891Z" fill="#2F64A3"/>
<path d="M83.0021 16.1716C82.1748 16.1716 81.3808 16.0104 80.642 15.6938C80.0819 15.4539 79.5671 15.1393 79.1111 14.7597L78.7889 14.4923V15.1137C78.7889 15.3693 78.6965 15.5955 78.5236 15.7705C78.3546 15.9415 78.1207 16.0359 77.8692 16.0359C77.6196 16.0359 77.3858 15.9435 77.2129 15.7744C77.0321 15.5994 76.9377 15.3693 76.9377 15.1117V0.922238C76.9377 0.664641 77.0321 0.436539 77.2129 0.26153C77.3858 0.0924205 77.6196 0 77.8692 0C78.1227 0 78.3546 0.0943868 78.5236 0.265463C78.6965 0.440472 78.7889 0.668573 78.7889 0.922238V5.71237L79.1111 5.44691C79.5671 5.07133 80.0819 4.75867 80.6439 4.52074C81.3808 4.21005 82.1748 4.05274 83.0021 4.05274C83.8372 4.05274 84.6351 4.21201 85.372 4.52467C86.1069 4.83733 86.7554 5.26993 87.3017 5.81462C87.848 6.35931 88.2823 7.00626 88.5967 7.73972C88.9111 8.47515 89.0703 9.27154 89.0703 10.1053C89.0703 10.939 88.9111 11.7335 88.5967 12.4669C88.2843 13.1965 87.848 13.8434 87.3037 14.392C86.7574 14.9407 86.1089 15.3792 85.3739 15.6938C84.6351 16.0104 83.8372 16.1716 83.0021 16.1716ZM82.9962 5.91884C82.4106 5.91884 81.8584 6.02699 81.3553 6.2433C80.8503 6.4596 80.4003 6.76046 80.021 7.138C79.6417 7.51359 79.3411 7.96192 79.1249 8.47122C78.9107 8.97855 78.8007 9.52914 78.8007 10.1073C78.8007 10.6775 78.9087 11.2242 79.1249 11.7315C79.3411 12.2408 79.6417 12.6911 80.0171 13.0667C80.3944 13.4442 80.8444 13.749 81.3533 13.9732C81.8466 14.1895 82.4165 14.3035 83.0021 14.3035C83.5877 14.3035 84.1575 14.1895 84.6508 13.9732C85.1597 13.749 85.6098 13.4442 85.9871 13.0667C86.3624 12.6911 86.663 12.2428 86.8792 11.7315C87.0934 11.2242 87.2035 10.6775 87.2035 10.1073C87.2035 9.52914 87.0954 8.97855 86.8792 8.47122C86.663 7.96192 86.3624 7.51359 85.9871 7.138C85.6117 6.76242 85.1617 6.46157 84.6547 6.24526C84.1497 6.02699 83.5916 5.91884 82.9962 5.91884Z" fill="#2F64A3"/>
<path d="M94.8222 16.1718C94.3781 16.1718 93.9418 16.1285 93.5311 16.044C93.1126 15.9594 92.7176 15.8257 92.356 15.6487C91.9905 15.4698 91.6584 15.2456 91.3676 14.9802C91.0669 14.7068 90.8252 14.3824 90.6464 14.0147C90.5049 13.7689 90.4734 13.5211 90.5501 13.2871C90.6208 13.0669 90.7584 12.8918 90.949 12.7837C91.0826 12.707 91.228 12.6696 91.3852 12.6696C91.4501 12.6696 91.5169 12.6755 91.5857 12.6893C91.8215 12.7345 92.0298 12.8702 92.2047 13.0904L92.2361 13.1357C92.4936 13.582 92.8257 13.9045 93.2403 14.109C93.6648 14.3175 94.1993 14.4237 94.8242 14.4237C95.1307 14.4237 95.4314 14.3784 95.7222 14.2899C96.0091 14.2015 96.2646 14.0756 96.4866 13.9144C96.7008 13.7571 96.8718 13.5683 96.9976 13.3539C97.1174 13.1494 97.1744 12.9253 97.1744 12.6696C97.1744 12.4081 97.1155 12.1938 96.9936 12.0148C96.86 11.8202 96.6714 11.6451 96.4336 11.4977C96.1762 11.3384 95.8676 11.1948 95.5179 11.071C95.1523 10.9431 94.7574 10.8173 94.3447 10.7013C93.9124 10.5715 93.482 10.4162 93.0713 10.2431C92.6468 10.0642 92.2617 9.84393 91.9276 9.58634C91.5798 9.31891 91.2968 9.00035 91.0865 8.63657C90.8664 8.25902 90.7564 7.80872 90.7564 7.29942C90.7564 6.74883 90.8822 6.25723 91.1298 5.83839C91.3715 5.43331 91.6859 5.0892 92.0691 4.81783C92.4444 4.5504 92.8728 4.34983 93.3425 4.22005C93.8023 4.09223 94.2798 4.02734 94.7613 4.02734C95.1209 4.02734 95.4825 4.06471 95.8323 4.13746C96.188 4.21022 96.526 4.32624 96.8384 4.47765C97.1548 4.63103 97.4437 4.8257 97.6991 5.0538C97.9605 5.2878 98.1786 5.56703 98.3496 5.88165C98.5441 6.271 98.5009 6.63871 98.2277 6.91204C98.0902 7.03592 97.9428 7.11458 97.7679 7.15391C97.7109 7.16767 97.652 7.17357 97.593 7.17357C97.4554 7.17357 97.3218 7.13621 97.2 7.06542L97.1371 7.02806L97.0939 6.97103C96.7853 6.56202 96.4454 6.25527 96.0838 6.06256C95.734 5.87575 95.2938 5.77743 94.8084 5.77743C94.5432 5.77743 94.268 5.80693 93.9929 5.86395C93.7296 5.91901 93.4918 6.00947 93.2835 6.13138C93.087 6.2474 92.9318 6.39685 92.806 6.58955C92.6901 6.76653 92.6311 6.99856 92.6311 7.27582C92.6311 7.51769 92.6802 7.72023 92.7805 7.87951C92.8905 8.05648 93.0399 8.21576 93.2265 8.34947C93.4289 8.49499 93.6648 8.62084 93.93 8.72506C94.217 8.83714 94.5215 8.94136 94.832 9.03181C95.3646 9.19306 95.8755 9.36217 96.353 9.53521C96.8541 9.71612 97.3022 9.94225 97.6795 10.2057C98.0745 10.481 98.3928 10.8134 98.6286 11.1909C98.8762 11.5881 99 12.0699 99 12.6224C99 13.1337 98.886 13.6135 98.6601 14.052C98.44 14.4807 98.1334 14.8582 97.7502 15.1768C97.3709 15.4914 96.9249 15.7372 96.4238 15.9103C95.9266 16.0853 95.3882 16.1718 94.8222 16.1718Z" fill="#2F64A3"/>
<path d="M18.4838 9.15584C17.7744 9.15584 17.1711 8.62491 17.0807 7.91898C17.0336 7.54536 17.1338 7.17371 17.3657 6.87286C17.5975 6.57396 17.9316 6.38126 18.305 6.33406C18.3659 6.3262 18.4268 6.32227 18.4858 6.32227C19.1952 6.32227 19.7985 6.85319 19.8889 7.55913C19.936 7.93274 19.8358 8.30439 19.6039 8.60525C19.372 8.90414 19.038 9.09685 18.6646 9.14404C18.6056 9.1519 18.5447 9.15584 18.4838 9.15584Z" fill="#414DA0"/>
<path d="M14.6321 21.9993C14.5063 21.9993 14.4179 21.9659 14.3472 21.8951C14.1232 21.665 14.1821 21.0849 14.585 19.5944C14.7205 19.0891 14.8876 18.4382 15.0664 17.7381C15.5321 15.9153 16.0588 13.8545 16.4184 12.8792L16.4852 12.6963L16.3025 12.6275C15.0409 12.1516 14.7107 10.4645 14.3924 8.83236C13.9227 6.42746 13.8913 1.8202 14.6852 1.3463C14.7382 1.31484 14.8345 1.25781 14.9367 1.25781C14.978 1.25781 15.0153 1.26764 15.0526 1.28731C15.3474 1.44462 15.3985 2.19971 15.5675 5.37544L15.6127 6.24655C15.7738 9.39081 15.8721 11.2884 16.8075 11.43C17.0119 11.4614 17.1985 11.4752 17.3793 11.4752C18.5761 11.4752 19.6569 10.7752 20.7829 9.27086C21.5041 8.3093 22.0425 7.54634 22.4748 6.93282C23.4554 5.54455 23.8622 4.97036 24.5068 4.7226C24.5696 4.699 24.6247 4.6872 24.6738 4.6872C24.7386 4.6872 24.7897 4.70883 24.8251 4.75406C24.998 4.96643 24.7033 5.57208 23.5616 7.35363C23.367 7.65842 23.2059 7.91012 23.1096 8.07726C22.8128 8.58852 20.3132 12.1044 17.963 12.6767L17.8431 12.7062L17.8175 12.8261C16.1551 20.5658 15.4162 21.842 15.1254 21.9128C14.9465 21.958 14.7756 21.9993 14.6321 21.9993Z" fill="#B32C7D"/>
<path d="M11.4133 15.8722C11.3543 15.8722 11.2934 15.8565 11.2345 15.827C10.8139 15.6146 10.4917 14.6393 10.3521 13.1527C10.2598 12.1794 10.1654 9.9947 10.0751 7.87886V7.8592C10.0161 6.51615 9.95125 4.99613 9.89623 4.10929L9.85299 3.41319L9.52679 4.03063C8.86848 5.27733 8.30253 7.23192 7.94291 8.65362C6.93874 12.6316 6.42389 14.071 5.90117 14.3581C5.83435 14.3955 5.76558 14.4132 5.69876 14.4132C5.65553 14.4132 5.61426 14.4053 5.57103 14.3916C4.85966 14.1536 3.77099 12.9856 3.57645 11.1254C3.4664 10.0773 3.22273 8.5789 3.03801 7.50722L2.65088 7.50132C1.75283 11.9945 1.08863 14.8969 0.87443 15.2627C0.709361 15.5419 0.538397 15.6953 0.39298 15.6953C0.367433 15.6953 0.343852 15.6913 0.318306 15.6835C0.202365 15.6481 -0.104192 15.5517 0.0353307 13.7328C0.121795 12.6021 0.603246 9.61125 1.11024 7.06478C1.5799 4.70707 2.23821 1.85187 2.71573 1.63753C2.92796 1.54118 3.12644 1.49399 3.30526 1.49399C3.48016 1.49399 3.63737 1.53921 3.77099 1.62967C4.1876 1.91086 4.36839 2.57354 4.32515 3.65898C4.25048 5.57032 4.78302 11.0959 5.23893 12.3622L5.39417 12.7929L5.60051 12.3839C5.95816 11.672 6.47301 9.42052 6.77957 8.07354C6.95839 7.29091 7.11167 6.61841 7.23547 6.17203C7.55775 5.00203 9.0473 1.12037 10.1301 0.687765C10.1969 0.662202 10.2617 0.648438 10.3227 0.648438C10.3993 0.648438 10.472 0.668101 10.5388 0.709396C10.7982 0.864741 11.1735 1.71816 11.429 7.30468C11.5685 10.3408 11.6 13.3926 11.6 13.4221C11.6 13.6699 11.655 14.0002 11.7081 14.3188C11.822 14.9913 11.9281 15.6245 11.6118 15.8152C11.5489 15.8526 11.4801 15.8722 11.4133 15.8722Z" fill="#B32C7D"/>
</g>
<defs>
<clipPath id="clip0_20931_10900">
<rect width="99" height="22" fill="white"/>
</clipPath>
</defs>
</svg>
