<svg width="32" height="32" viewBox="0 0 32 32" fill="none" xmlns="http://www.w3.org/2000/svg">
<rect width="32" height="32" rx="4" fill="#FCF3FA"/>
<path d="M23.1719 14.6367C23.3196 14.784 23.491 15.0015 23.6855 15.248C23.8653 15.4758 24.0739 15.7409 24.2627 15.9209C24.3188 15.9744 24.3924 16.0365 24.4775 16.0918V18.4199C24.2937 18.4044 24.1093 18.3953 23.9248 18.3955C22.3963 18.3955 20.9305 19.0033 19.8496 20.084C18.7687 21.1648 18.1611 22.6307 18.1611 24.1592C18.1612 24.3437 18.1706 24.5281 18.1865 24.7119H9.15039L9.11523 24.7168C8.76332 24.7669 8.40462 24.7344 8.06738 24.6221C7.7299 24.5096 7.42244 24.3199 7.1709 24.0684C6.91949 23.8169 6.72967 23.5102 6.61719 23.1729C6.50474 22.8355 6.47321 22.476 6.52344 22.124L6.52832 22.0889V16.1055C6.57991 16.0725 6.62371 16.0398 6.65625 16.0117C6.81994 15.8707 6.98492 15.6558 7.1084 15.4971C7.25083 15.314 7.36263 15.1704 7.46094 15.0781C8.93515 15.6476 10.4533 16.0963 12.001 16.417L12.0186 16.4209C12.3252 16.4731 12.6403 16.4334 12.9248 16.3076C13.2093 16.1818 13.4505 15.9749 13.6182 15.7129L13.6201 15.7109C13.8542 15.3413 14.1753 15.0348 14.5557 14.8184C14.6047 14.7905 14.6234 14.7911 14.625 14.791C14.6345 14.7908 14.6584 14.7923 14.7275 14.8145C14.8415 14.851 15.1311 14.9768 15.4883 14.9736V14.9746C15.4927 14.9747 15.4975 14.9735 15.502 14.9736C15.5068 14.9735 15.5117 14.9747 15.5166 14.9746L15.5156 14.9736C15.691 14.9756 15.87 14.9506 16.0234 14.9229C16.1062 14.9079 16.1904 14.8907 16.2686 14.875C16.3486 14.8589 16.4237 14.8441 16.4971 14.8311C16.647 14.8044 16.7677 14.7895 16.8652 14.791C16.9624 14.7926 17.0043 14.8103 17.0186 14.8184C17.3989 15.0348 17.72 15.3413 17.9541 15.7109L17.959 15.7178C18.1298 15.9775 18.3725 16.1829 18.6572 16.3076C18.9419 16.4323 19.2568 16.4714 19.5635 16.4209L19.583 16.417C20.4627 16.2353 21.0561 15.8698 21.5938 15.502C22.0907 15.162 22.5169 14.8412 23.1133 14.583C23.1299 14.5978 23.15 14.6149 23.1719 14.6367Z" fill="#84AFDD" stroke="#3C77AE"/>
<path d="M6.52832 12.543L6.52344 12.5078C6.47319 12.1557 6.50467 11.7964 6.61719 11.459C6.72971 11.1216 6.91941 10.8149 7.1709 10.5635C7.42244 10.312 7.7299 10.1223 8.06738 10.0098C8.4046 9.89743 8.76335 9.86587 9.11523 9.91602L9.15039 9.9209H21.8545L21.8896 9.91602C22.2417 9.86579 22.6011 9.89735 22.9385 10.0098C23.2758 10.1222 23.5825 10.3121 23.834 10.5635C24.0854 10.8149 24.2752 11.1217 24.3877 11.459C24.5002 11.7964 24.5327 12.1557 24.4824 12.5078L24.4775 12.543V15.4814C24.2265 15.7253 23.9304 15.9188 23.6045 16.0498C22.1482 16.6244 20.6453 17.0731 19.1123 17.3906C18.9978 17.4086 18.8806 17.3941 18.7744 17.3477C18.6669 17.3006 18.5753 17.223 18.5107 17.125H18.5098C18.1884 16.6202 17.7487 16.2013 17.2285 15.9053C16.7058 15.6079 16.1178 15.4429 15.5166 15.4258H15.4883C14.8872 15.4429 14.299 15.6079 13.7764 15.9053C13.2542 16.2025 12.8128 16.6233 12.4912 17.1309C12.4295 17.2271 12.3409 17.3034 12.2363 17.3496C12.1577 17.3844 12.0726 17.4013 11.9873 17.3994L11.9023 17.3906C10.3666 17.0714 8.86061 16.6227 7.40039 16.0498H7.39941C7.07154 15.9215 6.77555 15.7254 6.52832 15.4766V12.543Z" fill="#84AFDD" stroke="#3C77AE"/>
<path d="M20.5012 7.84211V9.42105H18.9221V7.84211C18.9224 7.80747 18.9157 7.77312 18.9026 7.74107C18.8895 7.70901 18.8701 7.67989 18.8456 7.6554C18.8211 7.63091 18.792 7.61153 18.7599 7.59841C18.7279 7.58528 18.6935 7.57867 18.6589 7.57895H12.3423C12.3077 7.57867 12.2733 7.58528 12.2413 7.59841C12.2092 7.61153 12.1801 7.63091 12.1556 7.6554C12.1311 7.67989 12.1117 7.70901 12.0986 7.74107C12.0855 7.77312 12.0789 7.80747 12.0791 7.84211V9.42105H10.5V7.84211C10.5006 7.35372 10.6948 6.8855 11.0402 6.54016C11.3856 6.19481 11.8539 6.00056 12.3423 6H18.6589C19.1468 6.00222 19.6141 6.197 19.9592 6.54199C20.3042 6.88697 20.499 7.35423 20.5012 7.84211Z" fill="#3C77AE"/>
<path d="M15.5023 19.9471C15.2231 19.9482 14.9549 19.8383 14.7566 19.6417C14.5584 19.4451 14.4464 19.1778 14.4453 18.8986C14.4442 18.6195 14.554 18.3513 14.7507 18.1531C14.9473 17.9549 15.2147 17.8429 15.4939 17.8418H15.5023C15.7815 17.8418 16.0493 17.9527 16.2467 18.1501C16.4441 18.3475 16.555 18.6153 16.555 18.8944C16.555 19.1736 16.4441 19.4413 16.2467 19.6388C16.0493 19.8362 15.7815 19.9471 15.5023 19.9471ZM24.9771 22.3155H23.6612V20.9997C23.6612 20.7903 23.578 20.5895 23.4299 20.4414C23.2818 20.2934 23.081 20.2102 22.8716 20.2102C22.6622 20.2102 22.4614 20.2934 22.3133 20.4414C22.1652 20.5895 22.082 20.7903 22.082 20.9997V22.3155H20.7661C20.5567 22.3155 20.3558 22.3987 20.2078 22.5467C20.0597 22.6948 19.9765 22.8956 19.9765 23.105C19.9765 23.3143 20.0597 23.5151 20.2078 23.6632C20.3558 23.8113 20.5567 23.8944 20.7661 23.8944H22.082V25.2102C22.082 25.4196 22.1652 25.6204 22.3133 25.7685C22.4614 25.9165 22.6622 25.9997 22.8716 25.9997C23.081 25.9997 23.2818 25.9165 23.4299 25.7685C23.578 25.6204 23.6612 25.4196 23.6612 25.2102V23.8944H24.9771C25.1865 23.8944 25.3874 23.8113 25.5354 23.6632C25.6835 23.5151 25.7667 23.3143 25.7667 23.105C25.7667 22.8956 25.6835 22.6948 25.5354 22.5467C25.3874 22.3987 25.1865 22.3155 24.9771 22.3155Z" fill="#C3599E"/>
<path d="M15.5026 20.705C15.0221 20.7069 14.5605 20.5179 14.2194 20.1796C13.8782 19.8412 13.6855 19.3812 13.6836 18.9008C13.6817 18.4203 13.8707 17.9588 14.2091 17.6177C14.5475 17.2766 15.0076 17.084 15.4881 17.082H15.5026C15.9831 17.082 16.4439 17.2729 16.7836 17.6126C17.1234 17.9523 17.3143 18.4131 17.3143 18.8935C17.3143 19.374 17.1234 19.8347 16.7836 20.1744C16.4439 20.5142 15.9831 20.705 15.5026 20.705Z" fill="white"/>
</svg>
