<svg width="100" height="80" viewBox="0 0 100 80" fill="none" xmlns="http://www.w3.org/2000/svg">
<g id="freepik--Character--inject-61">
<path id="Vector" d="M0.0563704 1.27326C0.0563704 1.27326 -0.716531 47.9931 5.73109 79.4176L86.1389 79.1677L65.0905 0.898438L0.0563704 1.27326Z" fill="#E0E0E0"/>
<path id="Vector_2" d="M0.0557191 1.27178L65.0898 0.835938H65.1363L65.1508 0.87952C71.1452 23.1658 78.3831 50.0575 86.2109 79.1459L86.2371 79.2418H86.1383L79.7459 79.2621L5.73044 79.4829H5.67523V79.4306C5.40404 77.9856 5.13769 76.557 4.87618 75.1448C4.75124 74.4359 4.60595 73.7356 4.49554 73.0324C4.38513 72.3293 4.28343 71.6319 4.17592 70.9375C3.96671 69.5447 3.75848 68.1703 3.55121 66.8144C3.3788 65.4584 3.20931 64.1121 3.04272 62.7755C2.95942 62.113 2.87613 61.4534 2.79283 60.7968C2.71148 60.1401 2.65046 59.4863 2.58072 58.8384C2.44706 57.5386 2.31437 56.2582 2.18265 54.9971C2.04027 53.7361 1.9531 52.4866 1.84269 51.2575C1.73227 50.0285 1.63348 48.8197 1.53178 47.6313C0.793751 38.0979 0.450886 29.7587 0.250397 22.8898C0.0499073 16.0208 0.02085 10.6134 0.0179443 6.92617C0.0179443 5.08108 0.0179442 3.66894 0.0382837 2.71589C0.0382837 2.23936 0.0440965 1.87906 0.0557191 1.63499C0.0557191 1.40544 0.0557191 1.30375 0.0557191 1.27178C0.0557191 1.41125 0.0557191 3.25634 0.0557191 6.92617C0.0557191 10.596 0.119643 16.0179 0.323038 22.8869C0.526433 29.7558 0.904165 38.0921 1.63639 47.6226C1.74099 48.811 1.84559 50.0226 1.9502 51.2488C2.0548 52.475 2.15069 53.7244 2.29306 54.9855C2.43544 56.2465 2.56038 57.5279 2.69695 58.8238C2.76668 59.4718 2.8277 60.1256 2.90906 60.7822C2.99042 61.4389 3.07468 62.0985 3.15894 62.761C3.32747 64.0918 3.49793 65.4371 3.67034 66.7969C3.87954 68.1539 4.08584 69.5282 4.29796 70.9171C4.40643 71.6106 4.51394 72.3089 4.62048 73.0121C4.72799 73.7153 4.87618 74.4155 5.00112 75.1216C5.26456 76.5337 5.53091 77.9614 5.80017 79.4045L5.73625 79.3522L79.7517 79.1081L86.1441 79.0907L86.0714 79.1837C78.2553 50.0953 71.026 23.1978 65.0375 0.914391L65.0985 0.957974L0.0557191 1.27178Z" fill="#263238"/>
<path id="Vector_3" d="M0.0557938 1.27273C0.0557938 1.27273 -0.0110379 7.42978 1.03209 18.3928C1.72072 25.6569 1.64518 35.1729 3.56871 47.3126C7.63661 72.9607 9.77226 76.8833 9.77226 76.8833L88.1955 76.3516L67.3243 0.125L0.0557938 1.27273Z" fill="#EBEBEB"/>
<path id="Vector_4" d="M0.0562771 1.26634L67.3248 0.0546875H67.3742V0.101179C73.3773 21.9226 80.5484 48.1198 88.2803 76.3452L88.3064 76.4411H88.2106L83.9363 76.4702L9.77275 76.9409H9.74369L9.72625 76.906C9.44228 76.2443 9.20158 75.5649 9.00566 74.8721C8.79645 74.195 8.61339 73.5122 8.42453 72.8381C8.23566 72.164 8.07585 71.4841 7.91604 70.8042C7.75623 70.1242 7.60223 69.4589 7.45114 68.7906C6.8487 66.1232 6.31406 63.5081 5.84722 60.9453C4.88836 55.8111 4.08059 50.9209 3.3629 46.3183C3.01131 44.0171 2.73237 41.7797 2.4912 39.6121C2.25004 37.4445 2.0786 35.3582 1.93623 33.3475C1.64566 29.3232 1.48585 25.6214 1.27665 22.2829C1.17785 20.6121 1.04419 19.0343 0.904724 17.5496C0.765253 16.0648 0.654838 14.673 0.558952 13.3771C0.364274 10.7823 0.239331 8.57403 0.163784 6.78125C0.0882378 4.98847 0.0533706 3.6141 0.041748 2.6872C0.041748 2.2223 0.041748 1.87071 0.041748 1.63536C0.041748 1.4 0.041748 1.28087 0.041748 1.28087C0.041748 1.3477 0.041748 1.77483 0.0620875 2.68429C0.0824269 3.59376 0.1202 4.98847 0.204463 6.77834C0.288727 8.56822 0.419481 10.7794 0.61997 13.3712C0.718762 14.6672 0.834988 16.0619 0.974459 17.5437C1.11393 19.0256 1.2505 20.6063 1.35219 22.277C1.56721 25.6185 1.73283 29.3203 2.02921 33.3388C2.17449 35.3495 2.36142 37.4377 2.59 39.6034C2.81954 41.7652 3.10139 44.0025 3.46169 46.3038C4.18229 50.9034 4.99296 55.7907 5.95764 60.9221C6.43416 63.4907 6.96977 66.1125 7.56446 68.7877C7.71264 69.4559 7.85502 70.1301 8.02936 70.8013C8.2037 71.4725 8.3606 72.1524 8.53785 72.8352C8.71509 73.518 8.90105 74.1892 9.11898 74.8692C9.31312 75.5501 9.55091 76.2178 9.83086 76.8682L9.77275 76.8334L83.9334 76.3336L88.2076 76.3045L88.135 76.4004C80.4089 48.1605 73.2378 21.9574 67.2754 0.136045L67.3364 0.182536L0.0562771 1.26634Z" fill="#263238"/>
<path id="Vector_5" d="M74.42 3.75L0.119799 5.01395C-0.19401 25.1646 6.90157 56.6152 12.1027 73.1571L90.0785 72.3406C82.0938 51.1439 72.9149 27.0445 74.42 3.75Z" fill="#F5F5F5"/>
<path id="Vector_6" d="M74.421 3.75C74.421 3.81683 74.421 4.20328 74.3832 5.04301C74.3832 5.47014 74.3512 6.00187 74.3309 6.6353C74.3106 7.26873 74.2582 8.00386 74.2931 8.83196C74.3309 10.4911 74.3164 12.5396 74.5227 14.9338C74.5633 15.5343 74.605 16.1571 74.6476 16.8021C74.7115 17.4443 74.79 18.1097 74.8655 18.7954C74.9411 19.4811 75.0224 20.1872 75.1038 20.9136C75.1852 21.64 75.3188 22.3868 75.4292 23.151C75.5396 23.9152 75.6646 24.7055 75.7895 25.5103C75.9145 26.3152 76.0946 27.1346 76.2515 27.9772C76.4084 28.8199 76.5595 29.6829 76.7571 30.5545C76.9547 31.4262 77.1523 32.3212 77.3557 33.2336C77.4603 33.6897 77.5591 34.1517 77.6724 34.6137L78.0269 36.0143C78.269 36.9557 78.514 37.9155 78.762 38.8937C79.0099 39.872 79.2889 40.8609 79.5988 41.8604C79.7412 42.3631 79.8894 42.8716 80.0318 43.38L80.4996 44.9171C82.9839 53.1982 86.3748 62.351 90.1405 72.3173L90.1724 72.4045H90.0795L14.6839 73.2094L12.0979 73.2355H12.0397L12.0252 73.1832C10.1453 67.125 8.53844 61.087 7.1292 55.1421C5.71996 49.1971 4.48216 43.3394 3.44194 37.6094C2.40172 31.8795 1.55327 26.2774 0.945995 20.8265C0.321268 15.5791 0.0214145 10.2982 0.0481504 5.01395V4.95003H0.112075L74.4122 3.75L0.114981 5.08078L0.178906 5.01686C0.155292 10.2955 0.458055 15.5706 1.08546 20.8119C1.69274 26.2542 2.53829 31.8534 3.58722 37.5833C4.63616 43.3132 5.85653 49.1652 7.27448 55.1072C8.69244 61.0493 10.2905 67.0843 12.1676 73.1367L12.0949 73.0844L14.6839 73.0583L90.0795 72.2854L90.0184 72.3725C86.2585 62.4062 82.8764 53.2447 80.3979 44.9578C80.241 44.4406 80.087 43.9263 79.9301 43.4178C79.7732 42.9093 79.6395 42.3979 79.5 41.8953L78.6661 38.9286C78.4201 37.9484 78.176 36.9876 77.9339 36.0462C77.8148 35.5755 77.6985 35.1077 77.5794 34.6457C77.4603 34.1837 77.3702 33.7188 77.2685 33.2626C77.0651 32.3502 76.8646 31.4582 76.6699 30.5807C76.4753 29.7032 76.3329 28.8373 76.1673 28.0005C76.0016 27.1637 75.8476 26.3385 75.7111 25.5336L75.3537 23.18C75.2462 22.4129 75.1096 21.6691 75.0312 20.9427C74.9527 20.2163 74.8742 19.5044 74.7987 18.8187C74.7232 18.1329 74.6476 17.4675 74.5866 16.8254C74.5256 16.1832 74.5023 15.5556 74.4645 14.9571C74.267 12.5541 74.2844 10.5056 74.2524 8.85521C74.2234 8.0242 74.2873 7.29779 74.3018 6.66436C74.3164 6.03093 74.3483 5.5021 74.3658 5.07497C74.4035 4.20909 74.4181 3.81683 74.421 3.75Z" fill="#263238"/>
<path id="Vector_7" d="M74.5571 0L0.0564475 1.26976C-0.257362 21.4175 3.04635 39.9293 8.25036 56.477L29.7521 69.7906L92.1566 68.7272C84.1661 47.5247 73.052 23.2945 74.5571 0Z" fill="#FAFAFA"/>
<path id="Vector_8" d="M74.5569 0C74.5569 0.0668298 74.5395 0.459089 74.5046 1.30463C74.4843 1.73757 74.4581 2.27802 74.4552 2.91436C74.4523 3.55069 74.4262 4.29163 74.4552 5.12846C74.539 9.96554 75.0328 14.7868 75.9313 19.5404C77.05 25.6946 79.02 33.0488 81.8646 41.2892C83.2797 45.4123 84.901 49.7591 86.6589 54.3268C88.4169 58.8945 90.3171 63.6742 92.2145 68.701L92.2465 68.7882H92.1535L29.7519 69.8633H29.7287H29.7113L20.4132 64.0985L8.22694 56.5438L8.20369 56.5293V56.5031C5.25847 47.149 3.08075 37.5703 1.69215 27.8622C0.448089 19.0556 -0.111471 10.1658 0.0185003 1.27267V1.20874H0.0824248L74.5831 0.00580809L0.085331 1.3395L0.149256 1.27558C0.0194609 10.1548 0.575118 19.0307 1.81128 27.8244C3.20032 37.5236 5.37707 47.0935 8.31992 56.4392L8.28796 56.3985L20.4742 63.9532L29.7723 69.7209H29.7316L92.1332 68.669L92.0751 68.7562C90.1806 63.7294 88.2832 58.9438 86.5311 54.3762C84.779 49.8085 83.1576 45.4588 81.7455 41.3327C78.9096 33.0865 76.9483 25.7236 75.8412 19.5637C74.9409 14.8059 74.4548 9.97896 74.3884 5.13717C74.3652 4.30035 74.3884 3.55941 74.4029 2.92307C74.4175 2.28674 74.4378 1.76082 74.4611 1.31916C74.5395 0.461995 74.554 0.0668298 74.5569 0Z" fill="#263238"/>
<path id="Vector_9" d="M8.31165 56.4714L27.2419 54.4375L29.7437 69.7909L8.31165 56.4714Z" fill="#E0E0E0"/>
<path id="Vector_10" d="M29.7428 69.7874C29.7336 69.7631 29.7278 69.7377 29.7254 69.7119C29.7254 69.6509 29.6992 69.5782 29.6789 69.4852L29.522 68.6136C29.3912 67.8377 29.2023 66.7336 28.9699 65.3621C28.5137 62.596 27.8803 58.7634 27.1655 54.4515L27.2498 54.5154L25.486 54.7042L13.2998 55.9914L9.60669 56.3634L8.60134 56.4592L8.33983 56.4796H8.24976C8.27796 56.4701 8.30725 56.4643 8.33693 56.4622L8.59843 56.4273L9.60088 56.3052L13.2881 55.8839L25.4715 54.5561L27.2323 54.3672H27.305V54.4369C27.9965 58.7518 28.6125 62.5727 29.0483 65.3563C29.2605 66.7278 29.4348 67.8377 29.5539 68.6136C29.6082 68.9893 29.6518 69.2799 29.6847 69.4852L29.7137 69.7148C29.7281 69.7369 29.738 69.7615 29.7428 69.7874Z" fill="#263238"/>
<path id="Vector_11" d="M60.572 21.0149C60.572 21.0555 50.533 21.2619 38.1521 21.474C25.7711 21.6861 15.7263 21.8197 15.7263 21.7791C15.7263 21.7384 25.7624 21.5321 38.1492 21.3229C50.5359 21.1137 60.572 20.9742 60.572 21.0149Z" fill="#263238"/>
<path id="Vector_12" d="M61.8249 27.9995C61.8249 28.0401 51.7859 28.2465 39.4021 28.4586C27.0182 28.6707 16.9792 28.8043 16.9792 28.7637C16.9792 28.723 27.0153 28.5167 39.4021 28.3046C51.7888 28.0925 61.822 27.9588 61.8249 27.9995Z" fill="#263238"/>
<path id="Vector_13" d="M64.6319 34.9612C64.6319 35.0019 54.5929 35.2082 42.212 35.4174C29.8311 35.6266 19.7863 35.7661 19.7863 35.7254C19.7863 35.6847 29.8223 35.4784 42.2091 35.2663C54.5959 35.0542 64.6319 34.9176 64.6319 34.9612Z" fill="#263238"/>
<path id="Vector_14" d="M67.5664 42.8509C67.5664 42.8945 57.5274 43.0979 45.1464 43.31C32.7655 43.5221 22.7207 43.6587 22.7207 43.6151C22.7207 43.5715 32.7568 43.371 45.1435 43.1589C57.5303 42.9468 67.5664 42.8102 67.5664 42.8509Z" fill="#263238"/>
<path id="Vector_15" d="M70.895 50.1956C70.895 50.2363 60.856 50.4426 48.4751 50.6518C36.0941 50.861 26.0493 51.0005 26.0493 50.9598C26.0493 50.9191 36.0854 50.7128 48.4722 50.5007C60.8589 50.2886 70.895 50.152 70.895 50.1956Z" fill="#263238"/>
<path id="Vector_16" d="M97.4443 72.8983C97.421 72.878 97.7901 72.4799 98.2608 71.7535C98.5341 71.3256 98.775 70.8779 98.9814 70.414C99.4889 69.2781 99.7843 68.059 99.8531 66.8168C99.8807 66.313 99.869 65.8078 99.8182 65.3059C99.7339 64.4342 99.5828 63.9228 99.6148 63.9141C99.6638 64.0313 99.7018 64.1529 99.7281 64.2773C99.7709 64.4193 99.8049 64.5639 99.8298 64.7102C99.8618 64.8816 99.9054 65.0763 99.9257 65.2913C99.9905 65.801 100.013 66.3151 99.9925 66.8284C99.9629 67.4568 99.8764 68.0811 99.7339 68.6938C99.5817 69.3046 99.3755 69.9007 99.1179 70.475C98.9023 70.9416 98.6487 71.3896 98.3596 71.8145C98.2404 72.0005 98.1126 72.1516 98.008 72.291C97.9175 72.4096 97.8205 72.5231 97.7174 72.631C97.6359 72.7293 97.5444 72.8189 97.4443 72.8983Z" fill="#263238"/>
<path id="Vector_17" d="M92.9755 74.5536C92.958 74.5362 93.3212 74.2049 93.8471 73.6122C95.1979 72.0641 96.1628 70.218 96.6627 68.2251C96.8545 67.4639 96.9184 66.9786 96.9533 66.9844C96.9516 67.1037 96.938 67.2224 96.9126 67.3389C96.8781 67.6497 96.8257 67.9582 96.7557 68.2629C96.3052 70.2928 95.3258 72.1673 93.9169 73.6965C93.7057 73.9279 93.4816 74.1471 93.2457 74.3531C93.165 74.4317 93.0741 74.4992 92.9755 74.5536Z" fill="#263238"/>
<path id="Vector_18" d="M81.3572 28.1093C86.7884 25.6433 89.1922 19.2414 86.7262 13.8102C84.2602 8.37896 77.8583 5.97518 72.4271 8.44117C66.9959 10.9072 64.5921 17.3091 67.0581 22.7403C69.5241 28.1715 75.926 30.5753 81.3572 28.1093Z" fill="#C63C92"/>
<path id="Vector_19" d="M76.6283 14.5053C76.6709 17.01 76.7135 19.5146 76.7561 22.0193C76.7736 22.952 78.2264 22.9549 78.209 22.0193C78.1683 19.5146 78.1257 17.01 78.0811 14.5053C78.0666 13.5726 76.6138 13.5697 76.6283 14.5053Z" fill="white"/>
<path id="Vector_20" d="M73.4 19.0532L81.4399 18.9138C82.3726 18.9138 82.3755 17.4609 81.4399 17.4609L73.4 17.6004C72.4673 17.6149 72.4643 19.0678 73.4 19.0532Z" fill="white"/>
</g>
</svg>
