<svg width="21" height="21" viewBox="0 0 21 21" fill="none" xmlns="http://www.w3.org/2000/svg">
<path d="M3.48842 8.59375C3.48842 9.00796 3.82421 9.34375 4.23842 9.34375C4.65263 9.34375 4.98842 9.00796 4.98842 8.59375H3.48842ZM13.3456 16.5938C12.9313 16.5938 12.5956 16.9295 12.5956 17.3438C12.5956 17.758 12.9313 18.0938 13.3456 18.0938V16.5938ZM2.65525 17.7955C2.35244 18.0781 2.33608 18.5527 2.6187 18.8555C2.90133 19.1583 3.37592 19.1747 3.67873 18.892L2.65525 17.7955ZM9.59556 12.3438H10.3456C10.3456 11.9295 10.0098 11.5938 9.59556 11.5938V12.3438ZM3.70271 11.5938C3.28849 11.5938 2.95271 11.9295 2.95271 12.3438C2.95271 12.758 3.28849 13.0938 3.70271 13.0938V11.5938ZM8.84556 17.8438C8.84556 18.258 9.18135 18.5938 9.59556 18.5938C10.0098 18.5938 10.3456 18.258 10.3456 17.8438H8.84556ZM4.23842 8.59375H4.98842V4.34375H4.23842H3.48842V8.59375H4.23842ZM5.30985 3.34375V4.09375H17.0956V3.34375V2.59375H5.30985V3.34375ZM18.167 4.34375H17.417V16.3438H18.167H18.917V4.34375H18.167ZM17.0956 17.3438V16.5938H13.3456V17.3438V18.0938H17.0956V17.3438ZM18.167 16.3438H17.417C17.417 16.4339 17.3227 16.5938 17.0956 16.5938V17.3438V18.0938C18.0519 18.0938 18.917 17.3581 18.917 16.3438H18.167ZM17.0956 3.34375V4.09375C17.3227 4.09375 17.417 4.25358 17.417 4.34375H18.167H18.917C18.917 3.32936 18.0519 2.59375 17.0956 2.59375V3.34375ZM4.23842 4.34375H4.98842C4.98842 4.25358 5.08275 4.09375 5.30985 4.09375V3.34375V2.59375C4.35348 2.59375 3.48842 3.32935 3.48842 4.34375H4.23842ZM3.16699 18.3438L3.67873 18.892L10.1073 12.892L9.59556 12.3438L9.08382 11.7955L2.65525 17.7955L3.16699 18.3438ZM3.70271 12.3438V13.0938H9.59556V12.3438V11.5938H3.70271V12.3438ZM9.59556 12.3438H8.84556V17.8438H9.59556H10.3456V12.3438H9.59556Z" fill="#98A2B3"/>
</svg>
