<svg width="32" height="32" viewBox="0 0 32 32" fill="none" xmlns="http://www.w3.org/2000/svg">
<rect width="32" height="32" rx="4" fill="#FCF3FA"/>
<path d="M11.8242 6.13379H16.6934C17.5309 6.13379 18.2119 6.81483 18.2119 7.65234V8.82324H16.8271V7.51855H11.6904V8.82324H10.3057V7.65234C10.3057 6.81483 10.9866 6.13379 11.8242 6.13379Z" fill="#84AFDD" stroke="#3C77AE" stroke-width="0.267129"/>
<path d="M7.66211 15.8721C7.99317 16.2031 8.4548 16.3944 8.9248 16.3945H9.7793V17.3916C9.7793 18.1367 10.3858 18.7432 11.1309 18.7432C11.8758 18.743 12.4814 18.1366 12.4814 17.3916V16.3955H16.041V16.8301C15.0176 17.8733 14.3887 19.2987 14.3887 20.8701C14.3887 21.3952 14.4598 21.903 14.5918 22.3887H8.34766C7.12771 22.3885 6.13399 21.3947 6.13379 20.1748V14.3438L7.66211 15.8721Z" fill="#84AFDD" stroke="#3C77AE" stroke-width="0.267129"/>
<path d="M22.3906 15.5273C22.1034 15.4075 21.8042 15.3104 21.4941 15.2393L22.3906 14.3438V15.5273Z" fill="#84AFDD" stroke="#3C77AE" stroke-width="0.267129"/>
<path d="M17.3906 14.7412C17.5456 14.7412 17.6858 14.8032 17.7861 14.9062L17.7881 14.9082C17.8911 15.0084 17.953 15.1479 17.9531 15.3027V15.5273C17.5526 15.695 17.1777 15.9074 16.8291 16.1562V15.3027C16.8293 14.9942 17.082 14.7414 17.3906 14.7412Z" fill="#84AFDD" stroke="#3C77AE" stroke-width="0.267129"/>
<path d="M11.1289 14.7412C11.2755 14.7412 11.4163 14.8148 11.5234 14.9297C11.6316 15.0457 11.6913 15.1882 11.6914 15.3027V17.3896C11.6914 17.7002 11.4395 17.9521 11.1289 17.9521C10.9826 17.952 10.8423 17.8783 10.7354 17.7637C10.627 17.6475 10.5674 17.5042 10.5674 17.3896V15.3027C10.5676 14.9924 10.8186 14.7414 11.1289 14.7412Z" fill="#84AFDD" stroke="#3C77AE" stroke-width="0.267129"/>
<path d="M8.34766 9.6123H20.1738C21.394 9.6123 22.3886 10.6061 22.3887 11.8262V13.2275L20.5205 15.0947C20.4055 15.0875 20.2909 15.084 20.1748 15.084C19.6803 15.084 19.1996 15.1482 18.7402 15.2676C18.7206 14.5395 18.1243 13.9531 17.3916 13.9531C16.6465 13.9532 16.041 14.5597 16.041 15.3047V15.6055H12.4814V15.3047C12.4814 14.5597 11.8758 13.9533 11.1309 13.9531C10.3858 13.9531 9.7793 14.5596 9.7793 15.3047V15.6055H8.9248C8.66124 15.6053 8.40324 15.4979 8.21973 15.3145L6.13379 13.2285V11.8262C6.13386 10.6062 7.12763 9.61243 8.34766 9.6123ZM12.1738 11.4316C11.9576 11.4317 11.7794 11.6099 11.7793 11.8262C11.7793 12.0425 11.9575 12.2206 12.1738 12.2207H16.3477C16.564 12.2207 16.7422 12.0426 16.7422 11.8262C16.7421 11.6099 16.564 11.4316 16.3477 11.4316H12.1738Z" fill="#84AFDD" stroke="#3C77AE" stroke-width="0.267129"/>
<path d="M20.1735 15.7402C17.3448 15.7402 15.043 18.0419 15.043 20.8706C15.043 23.6992 17.3448 26.0009 20.1735 26.0009C23.0023 26.0009 25.3041 23.6992 25.3041 20.8706C25.3041 18.0419 23.0023 15.7402 20.1735 15.7402Z" fill="#C3599E"/>
<path d="M18.6139 19.4336C18.5296 19.3492 18.4183 19.3066 18.3061 19.3066C18.1948 19.3066 18.0835 19.3492 17.9983 19.4336C17.8287 19.6032 17.8287 19.8788 17.9983 20.0484L19.4739 21.524C19.6383 21.6883 19.9244 21.6883 20.0887 21.524C20.2583 21.3544 20.2583 21.0788 20.0887 20.9092L18.6131 19.4336H18.6139Z" fill="white"/>
<path d="M21.4408 20.7773H20.5234C20.6634 21.0504 20.6634 21.3739 20.5234 21.6469H21.4408C21.6808 21.6469 21.8756 21.4521 21.8756 21.2121C21.8756 20.9721 21.6808 20.7773 21.4408 20.7773Z" fill="white"/>
</svg>
