<svg width="20" height="20" viewBox="0 0 20 20" fill="none" xmlns="http://www.w3.org/2000/svg">
<path fill-rule="evenodd" clip-rule="evenodd" d="M2.71094 13.3281C2.71094 12.983 2.99076 12.7031 3.33594 12.7031H4.79427C5.94486 12.7031 6.8776 13.6359 6.8776 14.7865C6.8776 15.937 5.94486 16.8698 4.79427 16.8698H3.96094V18.3281C3.96094 18.6733 3.68111 18.9531 3.33594 18.9531C2.99076 18.9531 2.71094 18.6733 2.71094 18.3281V13.3281ZM3.96094 15.6198H4.79427C5.2545 15.6198 5.6276 15.2467 5.6276 14.7865C5.6276 14.3262 5.2545 13.9531 4.79427 13.9531H3.96094V15.6198ZM7.71094 13.3281C7.71094 12.983 7.99076 12.7031 8.33594 12.7031H9.58594C10.8516 12.7031 11.8776 13.7291 11.8776 14.9948V16.6615C11.8776 17.9271 10.8516 18.9531 9.58594 18.9531H8.33594C7.99076 18.9531 7.71094 18.6733 7.71094 18.3281V13.3281ZM8.96094 13.9531V17.7031H9.58594C10.1613 17.7031 10.6276 17.2368 10.6276 16.6615V14.9948C10.6276 14.4195 10.1613 13.9531 9.58594 13.9531H8.96094ZM12.7109 13.3281C12.7109 12.983 12.9908 12.7031 13.3359 12.7031H16.2526C16.5978 12.7031 16.8776 12.983 16.8776 13.3281C16.8776 13.6733 16.5978 13.9531 16.2526 13.9531H13.9609V15.2031H15.8359C16.1811 15.2031 16.4609 15.483 16.4609 15.8281C16.4609 16.1733 16.1811 16.4531 15.8359 16.4531H13.9609V18.3281C13.9609 18.6733 13.6811 18.9531 13.3359 18.9531C12.9908 18.9531 12.7109 18.6733 12.7109 18.3281V13.3281Z" fill="#D92D20"/>
<path fill-rule="evenodd" clip-rule="evenodd" d="M2.71094 3.45113C2.71094 2.12226 3.80079 1.0454 5.1442 1.04688L10.8103 1.05312C11.0245 1.05336 11.23 1.13755 11.3817 1.28728L17.0564 6.8892C17.2087 7.03954 17.2943 7.24363 17.2943 7.45646V10.6621C17.2943 10.8747 17.2089 11.0785 17.0569 11.2288C16.905 11.3791 16.6989 11.4635 16.4841 11.4635H3.52112C3.07367 11.4635 2.71094 11.1047 2.71094 10.6621V3.45113ZM15.6746 7.78908L10.4746 2.65577V6.53908C10.4746 7.22943 11.0343 7.78908 11.7246 7.78908H15.6746Z" fill="#D92D20"/>
</svg>
