<svg width="35" height="36" viewBox="0 0 35 36" fill="none" xmlns="http://www.w3.org/2000/svg">
<g id="phone-call-01">
<path id="Icon" d="M20.4894 9.25033C21.9138 9.52823 23.2229 10.2249 24.2491 11.2511C25.2753 12.2773 25.9719 13.5863 26.2498 15.0107M20.4894 3.41699C23.4488 3.74575 26.2084 5.071 28.3152 7.17513C30.422 9.27926 31.7507 12.0372 32.0832 14.9962M14.9142 20.7173C13.1619 18.965 11.7782 16.9836 10.7632 14.8696C10.6759 14.6878 10.6323 14.5969 10.5987 14.4818C10.4796 14.073 10.5652 13.5709 10.8131 13.2247C10.8829 13.1272 10.9662 13.0439 11.1329 12.8772C11.6428 12.3673 11.8977 12.1124 12.0643 11.8561C12.6929 10.8894 12.6929 9.64309 12.0644 8.67637C11.8977 8.42003 11.6428 8.16511 11.1329 7.65527L10.8487 7.37108C10.0737 6.59606 9.6862 6.20855 9.27002 5.99805C8.44233 5.5794 7.46486 5.5794 6.63717 5.99805C6.22099 6.20855 5.83348 6.59606 5.05846 7.37108L4.82857 7.60096C4.0562 8.37333 3.67002 8.75952 3.37508 9.28456C3.0478 9.86717 2.81248 10.7721 2.81447 11.4403C2.81626 12.0425 2.93308 12.4541 3.16671 13.2772C4.42229 17.7009 6.79132 21.8752 10.2738 25.3577C13.7563 28.8402 17.9305 31.2092 22.3542 32.4648C23.1774 32.6984 23.589 32.8152 24.1912 32.817C24.8594 32.819 25.7643 32.5837 26.3469 32.2564C26.872 31.9615 27.2581 31.5753 28.0305 30.8029L28.2604 30.573C29.0354 29.798 29.4229 29.4105 29.6334 28.9943C30.0521 28.1666 30.0521 27.1891 29.6334 26.3615C29.4229 25.9453 29.0354 25.5578 28.2604 24.7827L27.9762 24.4986C27.4664 23.9887 27.2115 23.7338 26.9551 23.5671C25.9884 22.9386 24.7421 22.9386 23.7754 23.5671C23.5191 23.7338 23.2641 23.9887 22.7543 24.4986C22.5876 24.6653 22.5042 24.7486 22.4068 24.8184C22.0606 25.0663 21.5585 25.1519 21.1497 25.0327C21.0346 24.9992 20.9437 24.9556 20.7619 24.8682C18.6478 23.8533 16.6665 22.4696 14.9142 20.7173Z" stroke="#D92D20" stroke-width="2.5" stroke-linecap="round" stroke-linejoin="round"/>
</g>
</svg>
