<svg width="25" height="24" viewBox="0 0 25 24" fill="none" xmlns="http://www.w3.org/2000/svg">
<path d="M16.167 13C19.7568 13 22.667 12.1046 22.667 11C22.667 9.89543 19.7568 9 16.167 9C12.5771 9 9.66699 9.89543 9.66699 11C9.66699 12.1046 12.5771 13 16.167 13Z" stroke="#C63C92" stroke-width="1.5"/>
<path d="M22.667 15.5C22.667 16.6046 19.7569 17.5 16.167 17.5C12.5771 17.5 9.66699 16.6046 9.66699 15.5" stroke="#C63C92" stroke-width="1.5"/>
<path d="M22.667 11V19.8C22.667 21.015 19.7569 22 16.167 22C12.5771 22 9.66699 21.015 9.66699 19.8V11" stroke="#C63C92" stroke-width="1.5"/>
<path d="M9.16699 6C12.7568 6 15.667 5.10457 15.667 4C15.667 2.89543 12.7568 2 9.16699 2C5.57714 2 2.66699 2.89543 2.66699 4C2.66699 5.10457 5.57714 6 9.16699 6Z" stroke="#C63C92" stroke-width="1.5"/>
<path d="M6.66699 11C4.77518 10.7698 3.0369 10.1745 2.66699 9M6.66699 16C4.77518 15.7698 3.0369 15.1745 2.66699 14" stroke="#C63C92" stroke-width="1.5" stroke-linecap="round"/>
<path d="M6.66699 21C4.77518 20.7698 3.0369 20.1745 2.66699 19V4" stroke="#C63C92" stroke-width="1.5" stroke-linecap="round"/>
<path d="M15.667 6V4" stroke="#C63C92" stroke-width="1.5" stroke-linecap="round"/>
</svg>
