<svg width="20" height="20" viewBox="0 0 20 20" fill="none" xmlns="http://www.w3.org/2000/svg">
<path fill-rule="evenodd" clip-rule="evenodd" d="M4.16406 5.9375C2.43817 5.9375 1.03906 7.33661 1.03906 9.0625V14.0625C1.03906 14.8679 1.69198 15.5208 2.4974 15.5208H5.83073V13.6458H14.1641V15.5208H17.4974C18.3028 15.5208 18.9557 14.8679 18.9557 14.0625V9.0625C18.9557 7.33661 17.5566 5.9375 15.8307 5.9375H4.16406ZM15.4141 8.64583C14.9538 8.64583 14.5807 9.01892 14.5807 9.47917C14.5807 9.93942 14.9538 10.3125 15.4141 10.3125H15.4216C15.8818 10.3125 16.2549 9.93942 16.2549 9.47917C16.2549 9.01892 15.8818 8.64583 15.4216 8.64583H15.4141Z" fill="#101828"/>
<path fill-rule="evenodd" clip-rule="evenodd" d="M5.21094 2.8125C5.21094 1.77697 6.0504 0.9375 7.08594 0.9375H12.9193C13.9548 0.9375 14.7943 1.77697 14.7943 2.8125V4.47917C14.7943 4.82434 14.5144 5.10417 14.1693 5.10417H5.83594C5.49076 5.10417 5.21094 4.82434 5.21094 4.47917V2.8125Z" fill="#101828"/>
<path fill-rule="evenodd" clip-rule="evenodd" d="M5 13.224C5 12.7637 5.3731 12.3906 5.83333 12.3906H14.1667C14.6269 12.3906 15 12.7637 15 13.224V16.5573C15 17.938 13.8807 19.0573 12.5 19.0573H7.5C6.11929 19.0573 5 17.938 5 16.5573V13.224ZM6.66667 14.0573V16.5573C6.66667 17.0175 7.03977 17.3906 7.5 17.3906H12.5C12.9602 17.3906 13.3333 17.0175 13.3333 16.5573V14.0573H6.66667Z" fill="#101828"/>
</svg>
