<svg width="73" height="72" viewBox="0 0 73 72" fill="none" xmlns="http://www.w3.org/2000/svg">
<g clip-path="url(#clip0_20760_10428)">
<path d="M46.365 67.5L24.9606 67.4879C23.7242 67.4871 22.5387 66.9954 21.6647 66.1209C20.7907 65.2463 20.2998 64.0605 20.2998 62.8242L20.3104 9.16225C20.3131 7.92478 20.8067 6.73894 21.6827 5.8649C22.5587 4.99086 23.7457 4.5 24.9832 4.5L46.3876 4.51357C47.624 4.51437 48.8095 5.00608 49.6835 5.88062C50.5574 6.75515 51.0484 7.94094 51.0484 9.17733L51.0378 62.8392C51.0378 63.4523 50.9169 64.0594 50.6819 64.6256C50.4469 65.1919 50.1025 65.7062 49.6685 66.1391C49.2344 66.5721 48.7192 66.9152 48.1523 67.1487C47.5855 67.3822 46.9781 67.5016 46.365 67.5Z" fill="#407AA7"/>
<path d="M46.3571 6.40235H42.2074C41.9338 6.40867 41.6739 6.52336 41.4848 6.72121C41.2957 6.91906 41.1929 7.18388 41.1989 7.45749V8.21117C41.205 8.48478 41.1022 8.74961 40.9131 8.94746C40.724 9.14531 40.4641 9.26 40.1905 9.26632H32.1005C31.8272 9.2596 31.5677 9.14474 31.3789 8.94694C31.1901 8.74913 31.0875 8.48453 31.0936 8.21117V7.45749C31.0997 7.18388 30.9969 6.91906 30.8078 6.72121C30.6187 6.52336 30.3588 6.40867 30.0852 6.40235H24.9933C24.129 6.40154 23.2996 6.74352 22.687 7.35329C22.0744 7.96307 21.7286 8.79088 21.7254 9.65522L21.7148 62.0389C21.7164 62.9039 22.0611 63.733 22.6732 64.3442C23.2852 64.9554 24.1148 65.2989 24.9798 65.2993L46.3435 65.3114C46.7725 65.3116 47.1973 65.2273 47.5937 65.0633C47.9901 64.8993 48.3503 64.6589 48.6537 64.3557C48.9572 64.0525 49.1979 63.6926 49.3623 63.2963C49.5266 62.9001 49.6113 62.4754 49.6115 62.0464L49.6205 9.66276C49.6193 8.79789 49.275 7.96883 48.6632 7.35756C48.0514 6.74628 47.222 6.40274 46.3571 6.40235Z" fill="#FFFBF2"/>
<path d="M49.6173 17.4121V9.60849C49.6019 8.75333 49.2515 7.93835 48.6415 7.3388C48.0316 6.73925 47.2107 6.403 46.3554 6.40235H42.2056C42.0701 6.40528 41.9364 6.43492 41.8124 6.48956C41.6883 6.5442 41.5762 6.62277 41.4826 6.72078C41.3889 6.81878 41.3155 6.9343 41.2665 7.06072C41.2175 7.18713 41.194 7.32196 41.1972 7.45749V8.21117C41.2032 8.48478 41.1004 8.74961 40.9113 8.94746C40.7223 9.14531 40.4624 9.26 40.1888 9.26632H32.0988C31.8254 9.2596 31.5659 9.14474 31.3772 8.94694C31.1884 8.74913 31.0858 8.48453 31.0919 8.21117V7.45749C31.0979 7.18388 30.9951 6.91906 30.806 6.72121C30.6169 6.52336 30.357 6.40867 30.0834 6.40235H24.9916C24.1272 6.40154 23.2978 6.74352 22.6852 7.35329C22.0726 7.96307 21.7268 8.79088 21.7236 9.65522V17.4362H49.6173V17.4121Z" fill="#EBEBEB"/>
<path d="M47.2082 13.2426C47.3556 13.2426 47.475 13.1231 47.475 12.9758C47.475 12.8284 47.3556 12.709 47.2082 12.709C47.0609 12.709 46.9414 12.8284 46.9414 12.9758C46.9414 13.1231 47.0609 13.2426 47.2082 13.2426Z" fill="#407AA7"/>
<path d="M47.4692 13.7492C47.4695 13.8024 47.454 13.8545 47.4246 13.8989C47.3953 13.9432 47.3534 13.9778 47.3043 13.9983C47.2552 14.0188 47.2011 14.0243 47.149 14.014C47.0968 14.0037 47.0488 13.9781 47.0112 13.9405C46.9736 13.9028 46.948 13.8549 46.9377 13.8027C46.9274 13.7505 46.9328 13.6964 46.9533 13.6474C46.9738 13.5983 47.0084 13.5564 47.0528 13.527C47.0972 13.4976 47.1492 13.4821 47.2024 13.4824C47.2731 13.4828 47.3407 13.5111 47.3906 13.561C47.4406 13.611 47.4688 13.6786 47.4692 13.7492Z" fill="#407AA7"/>
<path d="M47.4692 14.5324C47.4695 14.5856 47.454 14.6377 47.4246 14.6821C47.3953 14.7264 47.3534 14.761 47.3043 14.7815C47.2552 14.802 47.2011 14.8075 47.149 14.7972C47.0968 14.7869 47.0488 14.7613 47.0112 14.7237C46.9736 14.686 46.948 14.6381 46.9377 14.5859C46.9274 14.5337 46.9328 14.4797 46.9533 14.4306C46.9738 14.3815 47.0084 14.3396 47.0528 14.3102C47.0972 14.2809 47.1492 14.2653 47.2024 14.2656C47.2732 14.2656 47.3411 14.2937 47.3911 14.3438C47.4411 14.3938 47.4692 14.4617 47.4692 14.5324Z" fill="#407AA7"/>
<path d="M25.5114 13.8784C25.495 13.8788 25.479 13.8735 25.4661 13.8634L24.7592 13.3448C24.7495 13.3377 24.7416 13.3283 24.7362 13.3176C24.7307 13.3069 24.7277 13.2951 24.7275 13.283C24.7276 13.2712 24.7305 13.2595 24.736 13.249C24.7415 13.2385 24.7495 13.2295 24.7592 13.2227L25.4661 12.7132C25.4742 12.7075 25.4834 12.7033 25.4931 12.7011C25.5028 12.6989 25.5129 12.6986 25.5227 12.7003C25.5325 12.702 25.5419 12.7056 25.5503 12.7109C25.5587 12.7162 25.5659 12.7232 25.5717 12.7313C25.583 12.7474 25.5876 12.7673 25.5845 12.7867C25.5815 12.8062 25.5709 12.8236 25.5551 12.8353L24.931 13.2876L25.5551 13.7398C25.571 13.7518 25.5816 13.7695 25.5847 13.7892C25.5878 13.8088 25.5831 13.829 25.5717 13.8453C25.5651 13.8553 25.5561 13.8635 25.5456 13.8693C25.5351 13.8751 25.5234 13.8782 25.5114 13.8784Z" fill="#407AA7"/>
<path d="M35.927 12.8584C36.1299 12.7733 36.2741 12.5642 36.2753 12.3177C36.2767 11.9949 36.0324 11.732 35.7295 11.7305C35.4269 11.7291 35.1803 11.9897 35.179 12.3126C35.178 12.5613 35.3233 12.7731 35.5283 12.8584C34.6846 12.9855 34.7229 13.9024 34.7229 13.9024L36.7178 13.9116C36.7178 13.9116 36.7633 12.9847 35.927 12.8584Z" fill="#F0AEC9"/>
<path d="M35.927 12.8584C36.1299 12.7733 36.2741 12.5642 36.2753 12.3177C36.2767 11.9949 36.0324 11.732 35.7295 11.7305C35.4269 11.7291 35.1803 11.9897 35.179 12.3126C35.178 12.5613 35.3233 12.7731 35.5283 12.8584C34.6846 12.9855 34.7229 13.9024 34.7229 13.9024L36.7178 13.9116C36.7178 13.9116 36.7633 12.9847 35.927 12.8584Z" fill="#CA72A7"/>
<path d="M39.1693 14.5093L32.0557 14.4766L32.0518 15.3272L39.1654 15.3599L39.1693 14.5093Z" fill="#F0AEC9"/>
<path opacity="0.2" d="M39.1693 14.5093L32.0557 14.4766L32.0518 15.3272L39.1654 15.3599L39.1693 14.5093Z" fill="white"/>
<g filter="url(#filter0_dddd_20760_10428)">
<path d="M57.2186 44.1443H30.0969C29.4507 44.1432 28.8314 43.8198 28.3745 43.2452C27.9176 42.6706 27.6606 41.8915 27.6596 41.0789V26.7557L24.6689 23.418H57.2186C57.5405 23.4151 57.8596 23.4924 58.1576 23.6454C58.4556 23.7984 58.7265 24.0241 58.9547 24.3095C59.183 24.595 59.364 24.9344 59.4874 25.3083C59.6108 25.6822 59.6741 26.0831 59.6736 26.488V41.0789C59.6731 41.4832 59.6092 41.8834 59.4854 42.2565C59.3617 42.6296 59.1805 42.9683 58.9524 43.2531C58.7243 43.5379 58.4537 43.7633 58.1562 43.9162C57.8587 44.0692 57.54 44.1467 57.2186 44.1443Z" fill="#EBEBEB"/>
<path d="M27.8848 26.6699L27.8271 26.6055L25.1729 23.6426H57.2207C57.4336 23.6406 57.646 23.6791 57.8516 23.7559L58.0547 23.8457C58.255 23.9485 58.4437 24.089 58.6143 24.2637L58.7793 24.4502C58.9369 24.6474 59.0707 24.8743 59.1768 25.123L59.2734 25.3789C59.3602 25.6418 59.4155 25.9196 59.4375 26.2031L59.4482 26.4873V41.0791L59.4375 41.3633C59.4224 41.5519 59.3926 41.7381 59.3486 41.9189L59.2715 42.1855C59.1555 42.5353 58.9865 42.8499 58.7764 43.1123C58.6187 43.3091 58.4408 43.473 58.249 43.6006L58.0537 43.7158C57.8538 43.8186 57.6443 43.8835 57.4326 43.9082L57.2207 43.9189H30.0977C29.53 43.9179 28.9716 43.6346 28.5508 43.1055C28.129 42.575 27.8857 41.8466 27.8848 41.0791V26.6699Z" stroke="black" stroke-opacity="0.1" stroke-width="0.45"/>
<path d="M56.2407 31.3147L44.3312 31.2599C44.0768 31.2588 43.8697 31.464 43.8685 31.7184L43.8647 32.5508C43.8635 32.8051 44.0688 33.0123 44.3231 33.0135L56.2326 33.0683C56.487 33.0694 56.6941 32.8642 56.6953 32.6098L56.6991 31.7774C56.7003 31.523 56.4951 31.3159 56.2407 31.3147Z" fill="#F3BED4"/>
<path fill-rule="evenodd" clip-rule="evenodd" d="M36.533 34.5793C36.533 34.5538 36.5124 34.5332 36.4869 34.5332H36.2336C36.2082 34.5332 36.1876 34.5538 36.1876 34.5793V34.7868C36.1876 34.8278 36.138 34.8483 36.1089 34.8193L35.9633 34.6737C35.9453 34.6557 35.9161 34.6557 35.8982 34.6737L35.719 34.8528C35.701 34.8708 35.701 34.9 35.719 34.9179L35.9456 35.1445C35.9746 35.1735 35.9541 35.2231 35.913 35.2231H35.5426C35.5172 35.2231 35.4966 35.2438 35.4966 35.2692V35.5225C35.4966 35.548 35.5172 35.5686 35.5426 35.5686H35.865C35.906 35.5686 35.9265 35.6182 35.8975 35.6472L35.6359 35.9088C35.6179 35.9268 35.6179 35.956 35.6359 35.974L35.815 36.1531C35.833 36.1711 35.8622 36.1711 35.8802 36.1531L36.1089 35.9243C36.138 35.8953 36.1876 35.9159 36.1876 35.9569V36.3295C36.1876 36.3549 36.2082 36.3756 36.2336 36.3756H36.4869C36.5124 36.3756 36.533 36.3549 36.533 36.3295V35.8431C36.533 35.8021 36.5826 35.7815 36.6116 35.8105L36.9566 36.1555C36.9746 36.1735 37.0038 36.1735 37.0218 36.1555L37.2009 35.9764C37.2189 35.9584 37.2189 35.9293 37.2009 35.9113L36.9368 35.6472C36.9078 35.6182 36.9284 35.5686 36.9694 35.5686H37.2929C37.3183 35.5686 37.3389 35.548 37.3389 35.5225V35.2692C37.3389 35.2438 37.3183 35.2231 37.2929 35.2231H36.9213C36.8803 35.2231 36.8597 35.1735 36.8888 35.1445L37.1178 34.9155C37.1358 34.8975 37.1358 34.8684 37.1178 34.8504L36.9386 34.6712C36.9207 34.6533 36.8915 34.6533 36.8735 34.6712L36.6116 34.9331C36.5826 34.9621 36.533 34.9416 36.533 34.9005V34.5793Z" fill="#CA72A7"/>
<path fill-rule="evenodd" clip-rule="evenodd" d="M39.2903 34.5793C39.2903 34.5538 39.2697 34.5332 39.2443 34.5332H38.9909C38.9655 34.5332 38.9449 34.5538 38.9449 34.5793V34.7868C38.9449 34.8278 38.8953 34.8483 38.8663 34.8193L38.7206 34.6737C38.7026 34.6557 38.6735 34.6557 38.6555 34.6737L38.4764 34.8528C38.4584 34.8708 38.4584 34.9 38.4764 34.9179L38.7029 35.1445C38.7319 35.1735 38.7114 35.2231 38.6704 35.2231H38.3C38.2745 35.2231 38.2539 35.2438 38.2539 35.2692V35.5225C38.2539 35.548 38.2745 35.5686 38.3 35.5686H38.6223C38.6633 35.5686 38.6839 35.6182 38.6549 35.6472L38.3932 35.9088C38.3752 35.9268 38.3752 35.956 38.3932 35.974L38.5724 36.1531C38.5903 36.1711 38.6195 36.1711 38.6375 36.1531L38.8663 35.9243C38.8953 35.8953 38.9449 35.9159 38.9449 35.9569V36.3295C38.9449 36.3549 38.9655 36.3756 38.9909 36.3756H39.2443C39.2697 36.3756 39.2903 36.3549 39.2903 36.3295V35.8431C39.2903 35.8021 39.3399 35.7815 39.369 35.8105L39.714 36.1555C39.7319 36.1735 39.7611 36.1735 39.7791 36.1555L39.9582 35.9764C39.9762 35.9584 39.9762 35.9293 39.9582 35.9113L39.6942 35.6472C39.6651 35.6182 39.6857 35.5686 39.7267 35.5686H40.0502C40.0756 35.5686 40.0963 35.548 40.0963 35.5225V35.2692C40.0963 35.2438 40.0756 35.2231 40.0502 35.2231H39.6786C39.6376 35.2231 39.6171 35.1735 39.6461 35.1445L39.8751 34.9155C39.8931 34.8975 39.8931 34.8684 39.8751 34.8504L39.696 34.6712C39.678 34.6533 39.6488 34.6533 39.6308 34.6712L39.369 34.9331C39.3399 34.9621 39.2903 34.9416 39.2903 34.9005V34.5793Z" fill="#CA72A7"/>
<path fill-rule="evenodd" clip-rule="evenodd" d="M42.0574 34.5793C42.0574 34.5538 42.0368 34.5332 42.0114 34.5332H41.758C41.7326 34.5332 41.712 34.5538 41.712 34.5793V34.7868C41.712 34.8278 41.6624 34.8483 41.6334 34.8193L41.4877 34.6737C41.4697 34.6557 41.4406 34.6557 41.4226 34.6737L41.2434 34.8528C41.2255 34.8708 41.2255 34.9 41.2434 34.9179L41.47 35.1445C41.499 35.1735 41.4785 35.2231 41.4375 35.2231H41.0671C41.0416 35.2231 41.021 35.2438 41.021 35.2692V35.5225C41.021 35.548 41.0416 35.5686 41.0671 35.5686H41.3894C41.4304 35.5686 41.451 35.6182 41.4219 35.6472L41.1603 35.9088C41.1423 35.9268 41.1423 35.956 41.1603 35.974L41.3394 36.1531C41.3574 36.1711 41.3866 36.1711 41.4046 36.1531L41.6334 35.9243C41.6624 35.8953 41.712 35.9159 41.712 35.9569V36.3295C41.712 36.3549 41.7326 36.3756 41.758 36.3756H42.0114C42.0368 36.3756 42.0574 36.3549 42.0574 36.3295V35.8431C42.0574 35.8021 42.107 35.7815 42.136 35.8105L42.481 36.1555C42.499 36.1735 42.5282 36.1735 42.5462 36.1555L42.7253 35.9764C42.7433 35.9584 42.7433 35.9293 42.7253 35.9113L42.4612 35.6472C42.4322 35.6182 42.4528 35.5686 42.4938 35.5686H42.8173C42.8427 35.5686 42.8633 35.548 42.8633 35.5225V35.2692C42.8633 35.2438 42.8427 35.2231 42.8173 35.2231H42.4457C42.4047 35.2231 42.3841 35.1735 42.4132 35.1445L42.6422 34.9155C42.6602 34.8975 42.6602 34.8684 42.6422 34.8504L42.4631 34.6712C42.4451 34.6533 42.4159 34.6533 42.3979 34.6712L42.136 34.9331C42.107 34.9621 42.0574 34.9416 42.0574 34.9005V34.5793Z" fill="#CA72A7"/>
<path fill-rule="evenodd" clip-rule="evenodd" d="M44.8221 34.5793C44.8221 34.5538 44.8014 34.5332 44.776 34.5332H44.5227C44.4972 34.5332 44.4766 34.5538 44.4766 34.5793V34.7868C44.4766 34.8278 44.427 34.8483 44.398 34.8193L44.2524 34.6737C44.2344 34.6557 44.2052 34.6557 44.1872 34.6737L44.0081 34.8528C43.9901 34.8708 43.9901 34.9 44.0081 34.9179L44.2347 35.1445C44.2637 35.1735 44.2431 35.2231 44.2021 35.2231H43.8317C43.8063 35.2231 43.7856 35.2438 43.7856 35.2692V35.5225C43.7856 35.548 43.8063 35.5686 43.8317 35.5686H44.154C44.1951 35.5686 44.2156 35.6182 44.1866 35.6472L43.925 35.9088C43.907 35.9268 43.907 35.956 43.925 35.974L44.1041 36.1531C44.1221 36.1711 44.1512 36.1711 44.1692 36.1531L44.398 35.9243C44.427 35.8953 44.4766 35.9159 44.4766 35.9569V36.3295C44.4766 36.3549 44.4972 36.3756 44.5227 36.3756H44.776C44.8014 36.3756 44.8221 36.3549 44.8221 36.3295V35.8431C44.8221 35.8021 44.8717 35.7815 44.9007 35.8105L45.2457 36.1555C45.2637 36.1735 45.2928 36.1735 45.3108 36.1555L45.49 35.9764C45.5079 35.9584 45.5079 35.9293 45.49 35.9113L45.2259 35.6472C45.1969 35.6182 45.2174 35.5686 45.2585 35.5686H45.5819C45.6074 35.5686 45.628 35.548 45.628 35.5225V35.2692C45.628 35.2438 45.6074 35.2231 45.5819 35.2231H45.2104C45.1693 35.2231 45.1488 35.1735 45.1778 35.1445L45.4068 34.9155C45.4248 34.8975 45.4248 34.8684 45.4068 34.8504L45.2277 34.6712C45.2097 34.6533 45.1806 34.6533 45.1626 34.6712L44.9007 34.9331C44.8717 34.9621 44.8221 34.9416 44.8221 34.9005V34.5793Z" fill="#CA72A7"/>
<path fill-rule="evenodd" clip-rule="evenodd" d="M47.5843 34.5793C47.5843 34.5538 47.5637 34.5332 47.5382 34.5332H47.2849C47.2595 34.5332 47.2388 34.5538 47.2388 34.5793V34.7868C47.2388 34.8278 47.1892 34.8483 47.1602 34.8193L47.0146 34.6737C46.9966 34.6557 46.9674 34.6557 46.9494 34.6737L46.7703 34.8528C46.7523 34.8708 46.7523 34.9 46.7703 34.9179L46.9969 35.1445C47.0259 35.1735 47.0053 35.2231 46.9643 35.2231H46.5939C46.5685 35.2231 46.5479 35.2438 46.5479 35.2692V35.5225C46.5479 35.548 46.5685 35.5686 46.5939 35.5686H46.9162C46.9573 35.5686 46.9778 35.6182 46.9488 35.6472L46.6872 35.9088C46.6692 35.9268 46.6692 35.956 46.6872 35.974L46.8663 36.1531C46.8843 36.1711 46.9134 36.1711 46.9314 36.1531L47.1602 35.9243C47.1892 35.8953 47.2388 35.9159 47.2388 35.9569V36.3295C47.2388 36.3549 47.2595 36.3756 47.2849 36.3756H47.5382C47.5637 36.3756 47.5843 36.3549 47.5843 36.3295V35.8431C47.5843 35.8021 47.6339 35.7815 47.6629 35.8105L48.0079 36.1555C48.0259 36.1735 48.0551 36.1735 48.073 36.1555L48.2522 35.9764C48.2702 35.9584 48.2702 35.9293 48.2522 35.9113L47.9881 35.6472C47.9591 35.6182 47.9796 35.5686 48.0207 35.5686H48.3441C48.3696 35.5686 48.3902 35.548 48.3902 35.5225V35.2692C48.3902 35.2438 48.3696 35.2231 48.3441 35.2231H47.9726C47.9316 35.2231 47.911 35.1735 47.94 35.1445L48.169 34.9155C48.187 34.8975 48.187 34.8684 48.169 34.8504L47.9899 34.6712C47.9719 34.6533 47.9428 34.6533 47.9248 34.6712L47.6629 34.9331C47.6339 34.9621 47.5843 34.9416 47.5843 34.9005V34.5793Z" fill="#CA72A7"/>
<path fill-rule="evenodd" clip-rule="evenodd" d="M50.3489 34.5793C50.3489 34.5538 50.3283 34.5332 50.3029 34.5332H50.0495C50.0241 34.5332 50.0035 34.5538 50.0035 34.5793V34.7868C50.0035 34.8278 49.9539 34.8483 49.9249 34.8193L49.7792 34.6737C49.7612 34.6557 49.7321 34.6557 49.7141 34.6737L49.5349 34.8528C49.517 34.8708 49.517 34.9 49.5349 34.9179L49.7615 35.1445C49.7905 35.1735 49.77 35.2231 49.729 35.2231H49.3586C49.3331 35.2231 49.3125 35.2438 49.3125 35.2692V35.5225C49.3125 35.548 49.3331 35.5686 49.3586 35.5686H49.6809C49.7219 35.5686 49.7425 35.6182 49.7134 35.6472L49.4518 35.9088C49.4338 35.9268 49.4338 35.956 49.4518 35.974L49.6309 36.1531C49.6489 36.1711 49.6781 36.1711 49.6961 36.1531L49.9249 35.9243C49.9539 35.8953 50.0035 35.9159 50.0035 35.9569V36.3295C50.0035 36.3549 50.0241 36.3756 50.0495 36.3756H50.3029C50.3283 36.3756 50.3489 36.3549 50.3489 36.3295V35.8431C50.3489 35.8021 50.3985 35.7815 50.4275 35.8105L50.7725 36.1555C50.7905 36.1735 50.8197 36.1735 50.8377 36.1555L51.0168 35.9764C51.0348 35.9584 51.0348 35.9293 51.0168 35.9113L50.7527 35.6472C50.7237 35.6182 50.7443 35.5686 50.7853 35.5686H51.1088C51.1342 35.5686 51.1548 35.548 51.1548 35.5225V35.2692C51.1548 35.2438 51.1342 35.2231 51.1088 35.2231H50.7372C50.6962 35.2231 50.6757 35.1735 50.7047 35.1445L50.9337 34.9155C50.9517 34.8975 50.9517 34.8684 50.9337 34.8504L50.7546 34.6712C50.7366 34.6533 50.7074 34.6533 50.6894 34.6712L50.4275 34.9331C50.3985 34.9621 50.3489 34.9416 50.3489 34.9005V34.5793Z" fill="#CA72A7"/>
<path fill-rule="evenodd" clip-rule="evenodd" d="M53.1092 34.5793C53.1092 34.5538 53.0886 34.5332 53.0631 34.5332H52.8098C52.7844 34.5332 52.7637 34.5538 52.7637 34.5793V34.7868C52.7637 34.8278 52.7141 34.8483 52.6851 34.8193L52.5395 34.6737C52.5215 34.6557 52.4923 34.6557 52.4743 34.6737L52.2952 34.8528C52.2772 34.8708 52.2772 34.9 52.2952 34.9179L52.5218 35.1445C52.5508 35.1735 52.5302 35.2231 52.4892 35.2231H52.1188C52.0934 35.2231 52.0728 35.2438 52.0728 35.2692V35.5225C52.0728 35.548 52.0934 35.5686 52.1188 35.5686H52.4411C52.4822 35.5686 52.5027 35.6182 52.4737 35.6472L52.2121 35.9088C52.1941 35.9268 52.1941 35.956 52.2121 35.974L52.3912 36.1531C52.4092 36.1711 52.4383 36.1711 52.4563 36.1531L52.6851 35.9243C52.7141 35.8953 52.7637 35.9159 52.7637 35.9569V36.3295C52.7637 36.3549 52.7844 36.3756 52.8098 36.3756H53.0631C53.0886 36.3756 53.1092 36.3549 53.1092 36.3295V35.8431C53.1092 35.8021 53.1588 35.7815 53.1878 35.8105L53.5328 36.1555C53.5508 36.1735 53.58 36.1735 53.5979 36.1555L53.7771 35.9764C53.7951 35.9584 53.7951 35.9293 53.7771 35.9113L53.513 35.6472C53.484 35.6182 53.5045 35.5686 53.5456 35.5686H53.869C53.8945 35.5686 53.9151 35.548 53.9151 35.5225V35.2692C53.9151 35.2438 53.8945 35.2231 53.869 35.2231H53.4975C53.4565 35.2231 53.4359 35.1735 53.4649 35.1445L53.6939 34.9155C53.7119 34.8975 53.7119 34.8684 53.6939 34.8504L53.5148 34.6712C53.4968 34.6533 53.4677 34.6533 53.4497 34.6712L53.1878 34.9331C53.1588 34.9621 53.1092 34.9416 53.1092 34.9005V34.5793Z" fill="#CA72A7"/>
<path fill-rule="evenodd" clip-rule="evenodd" d="M55.8763 34.5793C55.8763 34.5538 55.8556 34.5332 55.8302 34.5332H55.5769C55.5514 34.5332 55.5308 34.5538 55.5308 34.5793V34.7868C55.5308 34.8278 55.4812 34.8483 55.4522 34.8193L55.3066 34.6737C55.2886 34.6557 55.2594 34.6557 55.2414 34.6737L55.0623 34.8528C55.0443 34.8708 55.0443 34.9 55.0623 34.9179L55.2889 35.1445C55.3179 35.1735 55.2973 35.2231 55.2563 35.2231H54.8859C54.8605 35.2231 54.8398 35.2438 54.8398 35.2692V35.5225C54.8398 35.548 54.8605 35.5686 54.8859 35.5686H55.2082C55.2493 35.5686 55.2698 35.6182 55.2408 35.6472L54.9792 35.9088C54.9612 35.9268 54.9612 35.956 54.9792 35.974L55.1583 36.1531C55.1763 36.1711 55.2054 36.1711 55.2234 36.1531L55.4522 35.9243C55.4812 35.8953 55.5308 35.9159 55.5308 35.9569V36.3295C55.5308 36.3549 55.5514 36.3756 55.5769 36.3756H55.8302C55.8556 36.3756 55.8763 36.3549 55.8763 36.3295V35.8431C55.8763 35.8021 55.9259 35.7815 55.9549 35.8105L56.2999 36.1555C56.3179 36.1735 56.347 36.1735 56.365 36.1555L56.5442 35.9764C56.5621 35.9584 56.5621 35.9293 56.5442 35.9113L56.2801 35.6472C56.2511 35.6182 56.2716 35.5686 56.3127 35.5686H56.6361C56.6616 35.5686 56.6822 35.548 56.6822 35.5225V35.2692C56.6822 35.2438 56.6616 35.2231 56.6361 35.2231H56.2646C56.2235 35.2231 56.203 35.1735 56.232 35.1445L56.461 34.9155C56.479 34.8975 56.479 34.8684 56.461 34.8504L56.2819 34.6712C56.2639 34.6533 56.2348 34.6533 56.2168 34.6712L55.9549 34.9331C55.9259 34.9621 55.8763 34.9416 55.8763 34.9005V34.5793Z" fill="#CA72A7"/>
</g>
<rect x="47.7139" y="51.4512" width="10.7444" height="15.3492" fill="#FFFBF2"/>
<path d="M63.3205 45.4032L61.2976 45.4806L61.2683 42.8617C61.2141 38.0309 57.3762 34.2462 52.7191 34.4249C48.0592 34.6036 44.3141 38.6792 44.3683 43.5101L44.3976 46.129L42.368 46.2067C40.7899 46.2672 39.5071 47.6603 39.5253 49.2976L39.7158 66.3412C39.7343 68.0034 41.0473 69.3002 42.6255 69.2397L63.5788 68.436C65.1824 68.3746 66.4671 66.9779 66.4482 65.3158L66.2577 48.2723C66.2387 46.6348 64.9239 45.3413 63.3205 45.4032ZM48.1858 43.3631C48.1562 40.7157 50.2082 38.4814 52.7631 38.3834C55.3156 38.2855 57.4171 40.3604 57.4467 43.0078L57.4759 45.6271L48.2151 45.9821L48.1858 43.3631ZM54.4548 60.4065L54.5035 64.7589C54.5052 64.9429 54.3563 65.0833 54.1768 65.0904L52.1661 65.1674C52.0122 65.1733 51.8581 65.0444 51.8564 64.8604L51.8077 60.508C50.4268 60.0078 49.42 58.671 49.4014 57.0335C49.3781 54.9284 51.0124 53.1497 53.0503 53.0715C55.087 52.9933 56.7594 54.6449 56.7829 56.7505C56.8012 58.3878 55.825 59.8011 54.4548 60.4065Z" fill="#CA72A7"/>
<path d="M61.2321 45.4217C61.2344 45.4748 57.4483 45.6758 52.7765 45.8701C48.1035 46.0648 44.3147 46.1797 44.3124 46.1266C44.3101 46.0736 48.0954 45.8726 52.7688 45.6781C57.4398 45.4835 61.2298 45.3686 61.2321 45.4217Z" fill="#4979A0"/>
<path d="M65.0194 47.3141C65.0229 47.314 65.0268 47.3498 65.0309 47.4193C65.035 47.4997 65.0402 47.6014 65.0464 47.7283C65.056 48.014 65.0693 48.4115 65.0863 48.9163C65.113 49.963 65.1511 51.4522 65.1976 53.2866C65.2373 55.1362 65.2853 57.3317 65.3378 59.7687C65.3582 60.9902 65.399 62.2655 65.4032 63.6002C65.3896 64.2661 65.3325 64.9644 65.0578 65.6198C64.9209 65.9447 64.7237 66.2529 64.4647 66.5064C64.2031 66.7568 63.8874 66.9501 63.5502 67.0824C62.8713 67.3452 62.1565 67.3984 61.4717 67.4325C60.7863 67.4597 60.1105 67.4865 59.4471 67.5129C58.1202 67.5637 56.8403 67.6131 55.6204 67.6605C53.1845 67.7501 50.9895 67.8312 49.1405 67.8994C47.3064 67.96 45.8175 68.0091 44.7715 68.0437C44.2669 68.0562 43.8689 68.0661 43.5836 68.0732C43.4568 68.0744 43.3549 68.0752 43.2744 68.0759C43.2043 68.0755 43.1689 68.0736 43.1688 68.0701C43.1686 68.067 43.2042 68.0623 43.2736 68.0562C43.3541 68.0506 43.4557 68.0434 43.5819 68.0343C43.8676 68.0188 44.2647 67.9965 44.7687 67.9688C45.8144 67.9193 47.3024 67.8494 49.1357 67.7633C50.9837 67.6832 53.1781 67.5883 55.6137 67.4834C56.8332 67.4325 58.1131 67.3796 59.4398 67.3244C60.103 67.2972 60.7781 67.2694 61.4629 67.2412C62.1426 67.2075 62.8391 67.152 63.4799 66.9032C63.798 66.7785 64.0896 66.5989 64.3313 66.3686C64.57 66.1351 64.7526 65.851 64.8819 65.5453C65.1412 64.9301 65.2007 64.2527 65.2149 63.5971C65.2133 62.2764 65.1757 60.9909 65.1605 59.7726C65.1234 57.3358 65.0901 55.1395 65.0617 53.2895C65.0409 51.4547 65.0235 49.965 65.0116 48.9184C65.0098 48.4133 65.0087 48.0154 65.0079 47.7297C65.0092 47.6025 65.0106 47.5009 65.0119 47.4203C65.0132 47.3497 65.0159 47.3141 65.0194 47.3141Z" fill="#4979A0"/>
<path d="M56.6216 39.3373C56.6075 39.3499 56.4642 39.1833 56.1614 38.9344C55.8556 38.6922 55.3784 38.3716 54.7186 38.1405C54.064 37.9075 53.226 37.7559 52.3108 37.8539C51.3999 37.9486 50.4161 38.3162 49.5867 38.9767C48.747 39.6306 48.1902 40.5178 47.9136 41.3944C47.6288 42.2727 47.5687 43.1159 47.5455 43.816C47.5285 44.5189 47.5576 45.09 47.571 45.4844C47.5859 45.8792 47.5922 46.098 47.5783 46.0991C47.5656 46.0997 47.5342 45.8831 47.4961 45.4895C47.46 45.0957 47.4099 44.5246 47.4095 43.8143C47.4153 43.1068 47.4608 42.2481 47.7446 41.34C48.0194 40.4345 48.5971 39.5019 49.4668 38.8253C50.3271 38.1407 51.3485 37.7656 52.2928 37.6772C53.2411 37.5862 54.1006 37.7569 54.7659 38.0123C55.4369 38.2659 55.9143 38.613 56.2104 38.8773C56.3548 39.0147 56.4638 39.1243 56.5279 39.2077C56.5946 39.2888 56.6269 39.3327 56.6216 39.3373Z" fill="#4979A0"/>
<path d="M52.4353 53.1841C52.4346 53.1788 52.5052 53.1677 52.6422 53.1515C52.7786 53.1336 52.9829 53.1201 53.2483 53.1272C53.5139 53.1275 53.841 53.1701 54.2133 53.2637C54.5834 53.3605 55.0009 53.5336 55.3928 53.8381C56.1944 54.439 56.735 55.6223 56.7581 56.9719C56.76 57.6504 56.5516 58.372 56.1362 59.0025C55.7087 59.626 55.1143 60.1659 54.3817 60.5463L54.4344 60.4602C54.4978 61.8938 54.567 63.4541 54.6396 65.0776L54.6438 65.1762L54.5451 65.1781C54.2623 65.1832 53.9588 65.1889 53.6534 65.1943C52.9963 65.206 52.3484 65.2175 51.7127 65.229L51.6168 65.2305L51.6156 65.1344C51.5931 63.5194 51.498 61.9734 51.5287 60.5341L51.586 60.6181C50.8791 60.3422 50.3254 59.8346 49.933 59.2767C49.5397 58.7141 49.2981 58.0935 49.1942 57.4879C49.0953 56.882 49.1375 56.2853 49.3208 55.781C49.4948 55.2743 49.7584 54.8489 50.0463 54.511C50.6232 53.8283 51.2695 53.4882 51.7179 53.3327C52.1733 53.1787 52.4353 53.1841 52.4353 53.1841C52.4388 53.2026 52.1784 53.218 51.7373 53.3858C51.3034 53.5554 50.6795 53.9034 50.1284 54.5791C49.5836 55.2363 49.1088 56.2781 49.3398 57.4628C49.4458 58.0458 49.6845 58.6434 50.0667 59.1823C50.4479 59.7166 50.9822 60.1971 51.6479 60.4526L51.7064 60.4749L51.7052 60.5366C51.682 61.9681 51.7817 63.5093 51.8065 65.1317L51.709 65.0374C52.3445 65.0258 52.9925 65.0136 53.6498 65.0015C53.9552 64.9961 54.2583 64.9904 54.5415 64.9854L54.4471 65.0855C54.3788 63.4619 54.3128 61.901 54.2528 60.4677L54.2501 60.4099L54.3052 60.3815C54.9974 60.0259 55.5858 59.5 55.9951 58.9076C56.3964 58.306 56.5995 57.6219 56.6039 56.9702C56.5916 55.6636 56.0827 54.5128 55.3226 53.9254C54.9504 53.6259 54.5491 53.4498 54.189 53.3468C53.8273 53.2468 53.507 53.196 53.2448 53.1863C52.7214 53.1587 52.4368 53.2016 52.4353 53.1841Z" fill="#4979A0"/>
</g>
<defs>
<filter id="filter0_dddd_20760_10428" x="23.5439" y="21.168" width="58.6309" height="37.6016" filterUnits="userSpaceOnUse" color-interpolation-filters="sRGB">
<feFlood flood-opacity="0" result="BackgroundImageFix"/>
<feColorMatrix in="SourceAlpha" type="matrix" values="0 0 0 0 0 0 0 0 0 0 0 0 0 0 0 0 0 0 127 0" result="hardAlpha"/>
<feOffset dx="1.125"/>
<feGaussianBlur stdDeviation="1.125"/>
<feColorMatrix type="matrix" values="0 0 0 0 0 0 0 0 0 0 0 0 0 0 0 0 0 0 0.05 0"/>
<feBlend mode="normal" in2="BackgroundImageFix" result="effect1_dropShadow_20760_10428"/>
<feColorMatrix in="SourceAlpha" type="matrix" values="0 0 0 0 0 0 0 0 0 0 0 0 0 0 0 0 0 0 127 0" result="hardAlpha"/>
<feOffset dx="4.5" dy="2.25"/>
<feGaussianBlur stdDeviation="2.25"/>
<feColorMatrix type="matrix" values="0 0 0 0 0 0 0 0 0 0 0 0 0 0 0 0 0 0 0.04 0"/>
<feBlend mode="normal" in2="effect1_dropShadow_20760_10428" result="effect2_dropShadow_20760_10428"/>
<feColorMatrix in="SourceAlpha" type="matrix" values="0 0 0 0 0 0 0 0 0 0 0 0 0 0 0 0 0 0 127 0" result="hardAlpha"/>
<feOffset dx="9" dy="4.5"/>
<feGaussianBlur stdDeviation="2.8125"/>
<feColorMatrix type="matrix" values="0 0 0 0 0 0 0 0 0 0 0 0 0 0 0 0 0 0 0.03 0"/>
<feBlend mode="normal" in2="effect2_dropShadow_20760_10428" result="effect3_dropShadow_20760_10428"/>
<feColorMatrix in="SourceAlpha" type="matrix" values="0 0 0 0 0 0 0 0 0 0 0 0 0 0 0 0 0 0 127 0" result="hardAlpha"/>
<feOffset dx="15.75" dy="7.875"/>
<feGaussianBlur stdDeviation="3.375"/>
<feColorMatrix type="matrix" values="0 0 0 0 0 0 0 0 0 0 0 0 0 0 0 0 0 0 0.01 0"/>
<feBlend mode="normal" in2="effect3_dropShadow_20760_10428" result="effect4_dropShadow_20760_10428"/>
<feBlend mode="normal" in="SourceGraphic" in2="effect4_dropShadow_20760_10428" result="shape"/>
</filter>
<clipPath id="clip0_20760_10428">
<rect width="72" height="72" fill="white" transform="translate(0.0498047)"/>
</clipPath>
</defs>
</svg>
