<svg width="25" height="24" viewBox="0 0 25 24" fill="none" xmlns="http://www.w3.org/2000/svg">
<path d="M7.33301 7.5L10.275 9.23943C11.9902 10.2535 12.6758 10.2535 14.391 9.23943L17.333 7.5" stroke="#C63C92" stroke-width="1.5" stroke-linecap="round" stroke-linejoin="round"/>
<path d="M10.8043 19.4634C10.8043 19.4634 10.4021 19.4878 9.43184 19.4634C6.28334 19.3843 4.70909 19.3448 3.57797 18.2094C2.44684 17.0739 2.41415 15.5412 2.34878 12.4756C2.32776 11.4899 2.32775 10.5101 2.34877 9.52438C2.41415 6.45885 2.44683 4.92608 3.57796 3.79065C4.70909 2.65521 6.28334 2.61566 9.43183 2.53656C11.3723 2.48781 13.2937 2.48781 15.2342 2.53657C18.3827 2.61568 19.9569 2.65523 21.0881 3.79066C22.2192 4.92609 22.2519 6.45886 22.3172 9.52439C22.3248 9.88124 22.3151 10.7554 22.3172 11.2559" stroke="#C63C92" stroke-width="1.5" stroke-linecap="round" stroke-linejoin="round"/>
<path d="M22.1747 17.8731L18.7768 11.9985C18.3728 11.3 17.3794 11.3 16.9754 11.9985L13.5775 17.8731C13.1677 18.5815 13.67 19.4746 14.4782 19.4746H21.274C22.0822 19.4746 22.5844 18.5815 22.1747 17.8731Z" stroke="#C63C92" stroke-width="1.2" stroke-linejoin="round"/>
<path d="M18.0978 17.9844V16.1703C18.0978 16.059 17.9983 15.9688 17.8755 15.9688H17.6533" stroke="#C63C92" stroke-width="1.2" stroke-linecap="round" stroke-linejoin="round"/>
<path d="M17.876 14.1055H17.88" stroke="#C63C92" stroke-width="1.4" stroke-linecap="round" stroke-linejoin="round"/>
</svg>
