<svg width="12" height="12" viewBox="0 0 12 12" fill="none" xmlns="http://www.w3.org/2000/svg">
<g clip-path="url(#clip0_25283_46908)">
<path d="M11.7608 3.09344C11.693 2.83814 11.5593 2.60515 11.3731 2.41777C11.1869 2.23038 10.9548 2.09519 10.6999 2.02571C9.76172 1.77344 6.01172 1.77344 6.01172 1.77344C6.01172 1.77344 2.26172 1.77344 1.32354 2.02571C1.06868 2.09519 0.836548 2.23038 0.650363 2.41777C0.464177 2.60515 0.330472 2.83814 0.262628 3.09344C0.0117188 4.03571 0.0117188 6.00071 0.0117188 6.00071C0.0117188 6.00071 0.0117188 7.96571 0.262628 8.90798C0.330472 9.16328 0.464177 9.39627 0.650363 9.58365C0.836548 9.77104 1.06868 9.90623 1.32354 9.97571C2.26172 10.228 6.01172 10.228 6.01172 10.228C6.01172 10.228 9.76172 10.228 10.6999 9.97571C10.9548 9.90623 11.1869 9.77104 11.3731 9.58365C11.5593 9.39627 11.693 9.16328 11.7608 8.90798C12.0117 7.96571 12.0117 6.00071 12.0117 6.00071C12.0117 6.00071 12.0117 4.03571 11.7608 3.09344Z" fill="#FF0302"/>
<path d="M4.78467 7.78739V4.21875L7.92103 6.00307L4.78467 7.78739Z" fill="#FEFEFE"/>
</g>
<defs>
<clipPath id="clip0_25283_46908">
<rect width="12" height="12" fill="white"/>
</clipPath>
</defs>
</svg>
