<svg width="57" height="18" viewBox="0 0 57 18" fill="none" xmlns="http://www.w3.org/2000/svg">
<g id="tiger-logo" clip-path="url(#clip0_21309_101072)">
<g id="Clip path group">
<mask id="mask0_21309_101072" style="mask-type:luminance" maskUnits="userSpaceOnUse" x="0" y="0" width="57" height="18">
<g id="a">
<path id="Vector" d="M0 0H57V17.9994H0V0Z" fill="white"/>
</g>
</mask>
<g mask="url(#mask0_21309_101072)">
<g id="Group">
<path id="Vector_2" d="M52.8295 0.83308C52.7438 0.890176 52.8295 0.975819 52.8581 0.975819C52.8984 0.980091 52.9389 0.969977 52.9724 0.947271C52.9897 0.911604 52.9995 0.872713 53.001 0.83308C53.0295 0.83308 52.9438 0.775984 52.8295 0.83308ZM50.5438 3.97335C50.8035 4.09507 51.0707 4.19996 51.3438 4.28737C51.2867 4.25882 50.8581 4.08754 50.5438 3.97335ZM55.8867 5.80041C54.9911 5.3408 54.0258 5.03213 53.0295 4.88688C52.458 4.72635 51.8953 4.53577 51.3438 4.31592C51.0845 4.19345 50.8172 4.08854 50.5438 4.00189L50.4295 3.97335C50.3152 3.91625 50.2295 3.8877 50.1724 3.91625C50.3086 3.86326 50.4556 3.84368 50.601 3.85915C50.9724 3.80206 51.1438 3.74496 51.4581 3.68787C51.8581 3.60222 52.1438 3.74496 52.2295 3.9448C52.3438 4.14463 52.6867 4.08754 52.8867 4.08754C53.0867 4.05899 53.201 3.85915 53.2581 3.71641C53.2867 3.57368 53.2581 3.40239 53.2295 3.40239C53.1783 3.3803 53.1303 3.3515 53.0867 3.31674C53.0912 3.2776 53.1008 3.23921 53.1152 3.20255C53.1438 3.11691 53.1152 2.91707 53.0867 2.94562C53.0581 2.97417 52.9438 3.14546 52.9438 3.14546C52.9438 3.14546 52.6295 2.91707 52.7152 2.66014C52.7822 2.52164 52.878 2.39904 52.9963 2.30057C53.1146 2.2021 53.2525 2.13003 53.401 2.08919C53.594 2.02222 53.8024 2.01231 54.001 2.06064C54.0204 2.178 54.0003 2.29851 53.9438 2.40321C53.8867 2.5174 53.9724 2.48886 53.9724 2.48886C54.201 2.43176 54.3152 2.03209 54.3152 2.03209C54.7724 1.9179 54.6867 1.31839 54.6867 1.31839C54.6867 1.31839 54.201 1.00437 54.001 0.890176C53.8767 0.820271 53.7414 0.772003 53.601 0.747436C53.5397 0.692741 53.4726 0.644879 53.401 0.604697C53.3142 0.553127 53.2161 0.523712 53.1152 0.519053C53.0324 0.449931 52.9346 0.401058 52.8295 0.376314C52.6701 0.341843 52.5062 0.332213 52.3438 0.347766C52.1649 0.312807 51.9832 0.293701 51.801 0.29067H51.5152C51.53 0.321847 51.5493 0.3507 51.5724 0.376314L51.4581 0.262122C51.3212 0.169867 51.1644 0.111408 51.0004 0.091556C50.8365 0.0717036 50.6702 0.0910252 50.5152 0.147931C50.5651 0.220422 50.6226 0.28741 50.6867 0.347766L50.7438 0.404862C50.7438 0.404862 50.6581 0.376314 50.5438 0.347766C50.38 0.343023 50.2163 0.362259 50.0581 0.404862C49.9648 0.428467 49.8685 0.438088 49.7724 0.43341C49.4388 0.330228 49.0928 0.27261 48.7438 0.262122C47.1152 0.176479 46.2581 1.28985 44.6581 1.83226C43.8867 2.08919 42.9152 2.06064 41.9724 1.9179C41.0432 1.65104 40.0986 1.44129 39.1438 1.28985C38.5152 1.2042 38.0295 0.576149 36.5152 0.633245C36.0339 0.687136 35.5566 0.772969 35.0867 0.890176C34.3152 1.03291 31.401 0.747436 31.2581 0.718888C30.7152 0.576149 30.3152 0.747436 30.5152 1.14711C30.7152 1.54678 33.6295 1.80371 35.0581 1.54678C35.5724 1.46113 36.001 1.40404 36.3724 1.34694H36.4295C37.5152 1.11856 38.6581 2.00354 38.6581 2.00354C38.0822 2.00659 37.5149 2.14342 37.001 2.40321C36.9376 2.43112 36.8796 2.46975 36.8295 2.5174C36.2867 3.00272 36.2581 3.51658 35.6867 4.5443C35.0295 5.74331 33.2581 6.11444 32.4295 6.65685C31.601 7.19925 31.2295 8.22698 31.9438 8.25553C32.6581 8.25553 32.8581 7.45619 33.3724 6.94232C33.8867 6.42846 35.8581 5.9146 35.8581 5.9146C37.2581 5.68622 38.6295 4.74414 39.6867 4.31592C40.7438 3.8877 45.3438 5.60057 47.3724 5.258C49.401 4.91543 50.5438 5.51493 51.3438 5.65767C52.1152 5.77186 52.801 5.48638 54.1438 5.82896C55.5438 6.17153 55.4295 6.54265 56.401 7.08506C56.4528 7.12095 56.513 7.14284 56.5758 7.1486C56.6386 7.15436 56.7018 7.1438 56.7593 7.11795C56.8168 7.09209 56.8667 7.05182 56.904 7.00104C56.9413 6.95026 56.9649 6.89069 56.9724 6.82813C56.8867 6.6283 57.0581 6.39991 55.8867 5.80041ZM52.4581 0.747436C52.6529 0.715526 52.8527 0.745481 53.0295 0.83308V0.918723H53.001C52.9828 0.955523 52.9541 0.986062 52.9185 1.00641C52.8828 1.02676 52.8419 1.03599 52.801 1.03291C52.801 1.09001 52.3724 0.947271 52.4581 0.747436Z" fill="#231F20"/>
<path id="Vector_3" d="M2.08571 8.94082C0.428571 8.94082 0 11.0248 0 11.0248C0 11.0248 2.22857 11.0534 4.62857 11.0534L2.88571 17.5337H5.4L7.17143 11.0534C8.51429 11.0534 9.65714 11.0819 10.1429 11.0819C11.8286 11.0819 12.3143 8.94082 12.3143 8.94082H2.08571ZM11.3714 17.5337H13.8857L16.2286 8.79808L13.7429 8.76953L11.3714 17.5337ZM20.9714 13.9938L24.8286 13.9081L24.3714 15.3641C24.3714 15.3641 21.1429 15.3355 20.6 15.3355C20.0571 15.3355 18.4857 15.2499 18.7143 13.4514C18.9429 11.6529 21.1143 10.9106 21.9714 10.9106H26.4286C26.7054 10.9305 26.9833 10.8925 27.2447 10.7992C27.5061 10.7059 27.7451 10.5593 27.9467 10.3686C28.1482 10.178 28.3078 9.94749 28.4154 9.69185C28.523 9.43621 28.5761 9.161 28.5714 8.88372H22.1714C19.5143 8.88372 16.7429 10.7679 16.2857 13.6798C15.8286 16.5916 18.8571 17.5623 20.0857 17.5623C21.3143 17.5623 26.2286 17.4766 26.2286 17.4766L27.6857 12.2238H22.9429C21.6571 12.2238 20.9714 13.9938 20.9714 13.9938ZM37.5143 10.9392C39.3429 10.9392 39.3714 8.85518 39.3714 8.85518H30.4857L28.0571 17.5908H35.9429C37 17.5908 37.8 15.4212 37.8 15.4212H31.0857L31.6286 13.9652H36.3429C37.7714 13.9652 37.9429 12.3666 37.9429 12.3666H31.9143L32.4286 10.9677C32.4 10.9677 35.6857 10.9392 37.5143 10.9392ZM52.3143 11.0534C52.3143 9.05501 49.8857 8.76953 48.1714 8.76953H43V8.79808L41.1714 8.76953L38.8 17.5623H41.3143L42.2 14.3078H45.1429C45.6286 15.0215 46.6857 16.4775 47.1429 17.2482C47.8 18.2474 50.6 17.9619 50.6 17.9619L48.1143 14.3078H48.6C51.3714 14.2793 52.3143 13.0517 52.3143 11.0534ZM42.6571 12.4808L43.0286 11.1105H48.5714C49.4571 11.1105 49.6571 11.5387 49.5714 11.9098C49.4857 12.2809 49.3429 12.4808 48.7429 12.4808H42.6571Z" fill="#EC1C24"/>
<g id="Group_2">
<path id="Vector_4" d="M6.34344 2.85984C6.28007 2.73218 6.19183 2.61844 6.08389 2.5253C5.97596 2.43216 5.8505 2.36149 5.71487 2.31743C4.94344 2.0605 4.02915 2.80274 3.65773 3.94466C3.2863 5.08657 3.60058 6.22849 4.37201 6.45687C4.61361 6.51587 4.86681 6.50711 5.10374 6.43155C5.34067 6.356 5.55214 6.21658 5.71487 6.02865L5.62915 6.48542H6.6863L7.82915 0.71875H6.77201L6.34344 2.85984ZM6.0863 4.0874L6.00058 4.51562C6.00058 4.54416 5.97201 4.57271 5.97201 4.60126C5.74344 5.31496 5.25773 5.80027 4.8863 5.68608C4.51487 5.57189 4.40058 4.88674 4.62915 4.17304C4.85773 3.45934 5.34344 2.97403 5.71487 3.08822C6.00058 3.20241 6.14344 3.60208 6.0863 4.0874ZM12.0292 6.48542H13.0863L14.2006 0.71875H13.172L12.0292 6.48542ZM14.2292 6.48542H15.2863L16.0577 2.31743H15.0292L14.2292 6.48542ZM10.8006 2.31743C9.74344 1.97486 8.51487 2.40307 8.02915 4.0874C7.54344 5.77172 8.65773 7.14202 11.0292 6.19994V5.3435C10.6488 5.54404 10.2299 5.66085 9.80058 5.68608C9.20058 5.68608 9.02915 5.31496 9.02915 4.744H9.80058C10.0749 4.76243 10.3499 4.7209 10.6065 4.62229C10.8631 4.52368 11.0951 4.37038 11.2863 4.17304C11.8006 3.60208 11.8577 2.66 10.8006 2.31743ZM10.4863 3.68773C10.1434 4.17304 9.17201 4.0874 9.17201 4.0874C9.82915 2.34598 10.8577 3.14532 10.4863 3.68773ZM23.5434 2.31743C22.4863 1.97486 21.2577 2.40307 20.772 4.0874C20.2863 5.77172 21.4006 7.14202 23.772 6.19994V5.3435C23.3917 5.54404 22.9727 5.66085 22.5434 5.68608C21.9434 5.68608 21.772 5.31496 21.772 4.744H22.5434C22.8177 4.76243 23.0928 4.7209 23.3493 4.62229C23.6059 4.52368 23.8379 4.37038 24.0292 4.17304C24.5434 3.60208 24.6006 2.66 23.5434 2.31743ZM23.2292 3.68773C22.8863 4.17304 21.9149 4.0874 21.9149 4.0874C22.572 2.34598 23.6006 3.14532 23.2292 3.68773ZM19.572 2.31743L18.1434 5.20076L17.972 2.31743H16.8577L17.3434 6.42832H18.4863L20.6863 2.31743H19.572ZM27.8863 2.26033C26.972 2.0034 26.2292 3.05967 26.2292 3.05967L26.372 2.31743H25.5434L24.6292 6.42832H25.7149C25.834 5.68435 26.0058 4.94977 26.2292 4.23014C26.2625 4.07039 26.3281 3.91911 26.4219 3.78557C26.5158 3.65203 26.6359 3.53904 26.775 3.45352C26.9141 3.368 27.0692 3.31174 27.2308 3.2882C27.3924 3.26466 27.5571 3.27432 27.7149 3.31661L27.8863 2.26033ZM31.3434 2.31743L29.8863 5.17222L29.6577 2.31743H28.6577C28.6577 2.31743 29.1434 5.88591 29.1434 6.34268C29.1434 6.79945 28.6006 7.31331 28.3149 7.31331H27.6577V8.0841C28.8006 8.36958 29.4006 7.91281 29.8577 7.28476C30.3149 6.65671 32.4292 2.31743 32.4292 2.31743H31.3434Z" fill="#00844A"/>
<path id="Vector_5" d="M15.9041 1.74139C16.2474 1.6903 16.4919 1.42133 16.45 1.14063C16.4082 0.859923 16.0959 0.673786 15.7526 0.724876C15.4092 0.775966 15.1648 1.04494 15.2066 1.32564C15.2484 1.60634 15.5607 1.79248 15.9041 1.74139Z" fill="#00844A"/>
</g>
<path id="Vector_6" d="M53.0566 0.947948C53.0852 0.9194 53.0566 0.862305 53.0566 0.862305V0.947948Z" fill="#00844A"/>
<path id="Vector_7" d="M52.8848 0.833469C52.7991 0.890565 52.8848 0.976209 52.9133 0.976209C52.9536 0.980481 52.9941 0.970367 53.0276 0.947661C53.045 0.911993 53.0547 0.873103 53.0562 0.833469C53.0306 0.817221 53.0008 0.808594 52.9705 0.808594C52.9401 0.808594 52.9104 0.817221 52.8848 0.833469Z" fill="#1A1A1A"/>
<path id="Vector_8" d="M35.3997 0.804598C35.3711 1.02253 35.3711 1.24326 35.3997 1.4612C35.6282 1.43265 35.8568 1.37556 36.0568 1.34701C36.0535 1.11576 36.0823 0.885176 36.1425 0.661859C35.8854 0.718955 35.6282 0.747503 35.3997 0.804598ZM33.2282 0.890242C33.1798 1.13451 33.1606 1.38368 33.1711 1.63249H33.7997C33.8307 1.39158 33.8785 1.15311 33.9425 0.91879C33.7041 0.922976 33.4656 0.913445 33.2282 0.890242ZM30.4568 1.14717C30.6202 1.28332 30.8179 1.37218 31.0282 1.4041C31.0454 1.16112 31.0934 0.921305 31.1711 0.690407C30.6568 0.576215 30.2568 0.747502 30.4568 1.14717ZM31.4568 0.747503C31.3792 0.978401 31.3311 1.21822 31.314 1.4612C31.4854 1.48975 31.714 1.51829 31.914 1.54684C31.9126 1.29689 31.9414 1.04768 31.9997 0.804598C31.8201 0.774359 31.6388 0.75529 31.4568 0.747503ZM32.2282 1.57539C32.4368 1.5998 32.6469 1.60935 32.8568 1.60394C32.8463 1.35513 32.8655 1.10596 32.914 0.861694C32.7223 0.856824 32.5313 0.837739 32.3425 0.804598C32.2905 1.05927 32.2523 1.31658 32.2282 1.57539ZM34.2854 0.91879C34.1982 1.14847 34.1406 1.38829 34.114 1.63249C34.4282 1.60394 34.714 1.57539 34.9711 1.54684C35.0111 1.54803 35.0506 1.53815 35.0854 1.51829C35.0622 1.30023 35.0527 1.08094 35.0568 0.861694H35.0282C34.7845 0.915118 34.5345 0.934335 34.2854 0.91879ZM37.0282 5.08678C36.8973 5.24643 36.8001 5.43095 36.7425 5.62919C36.7997 5.60064 36.8568 5.60064 36.914 5.57209C36.9723 5.41576 37.0107 5.25271 37.0282 5.08678ZM36.914 4.43018C36.8567 4.22048 36.7524 4.02661 36.6088 3.86334C36.4652 3.70008 36.2862 3.57173 36.0854 3.4881C35.943 3.83955 35.7808 4.18268 35.5997 4.51582C34.9425 5.71483 33.1425 6.08595 32.3425 6.65691C31.514 7.19932 31.1425 8.22704 31.8568 8.25559C32.5711 8.25559 32.7711 7.45625 33.2854 6.94239C33.7997 6.42853 35.7711 5.91467 35.7711 5.91467C36.0633 5.86536 36.3503 5.7889 36.6282 5.68628V5.60064C36.6282 5.34371 37.0568 4.91549 36.914 4.43018ZM55.9139 5.77193C55.0184 5.31231 54.053 5.00365 53.0568 4.85839C52.4812 4.69929 51.9179 4.49893 51.3711 4.25889C51.0568 4.11615 50.7425 4.00196 50.5711 3.91632L50.4568 3.88777C50.3425 3.83067 50.2568 3.80212 50.1997 3.83067C50.3359 3.77768 50.4829 3.7581 50.6282 3.77358C50.9997 3.71648 51.1711 3.65938 51.4854 3.60229C51.8854 3.51665 52.1711 3.65938 52.2568 3.85922C52.3711 4.05905 52.7139 4.00196 52.9139 4.00196C53.114 3.97341 53.2282 3.77358 53.2854 3.63084C53.314 3.4881 53.2854 3.31681 53.2568 3.31681C53.2056 3.29472 53.1576 3.26592 53.1139 3.23117C53.1184 3.19202 53.128 3.15363 53.1425 3.11698C53.1711 3.03133 53.1425 2.8315 53.1139 2.86004C53.0854 2.88859 52.9711 3.05988 52.9711 3.05988C52.9711 3.05988 52.6568 2.8315 52.7425 2.57457C52.8095 2.43606 52.9053 2.31347 53.0236 2.21499C53.1418 2.11652 53.2798 2.04445 53.4282 2.00361C53.6213 1.93665 53.8297 1.92673 54.0282 1.97506C54.0477 2.09242 54.0276 2.21293 53.9711 2.31764C53.9139 2.40328 53.9997 2.40328 53.9997 2.40328C54.2282 2.34618 54.3425 1.94651 54.3425 1.94651C54.7997 1.83232 54.714 1.23282 54.714 1.23282C54.714 1.23282 54.2282 0.91879 54.0282 0.804598C53.904 0.734694 53.7687 0.686426 53.6282 0.661859C53.567 0.607164 53.4999 0.559302 53.4282 0.51912C53.3415 0.46755 53.2434 0.438135 53.1425 0.433476C53.0597 0.364354 52.9619 0.315481 52.8568 0.290737C52.678 0.256364 52.4954 0.246758 52.314 0.262189C52.135 0.22723 51.9534 0.208124 51.7711 0.205093H51.4854C51.5001 0.23627 51.5194 0.265123 51.5425 0.290737L51.4282 0.176545C51.2858 0.0845432 51.1242 0.0264071 50.9558 0.00661039C50.7874 -0.0131864 50.6167 0.00588391 50.4568 0.0623538C50.5067 0.134845 50.5642 0.201833 50.6282 0.262189L50.6854 0.319285C50.6854 0.319285 50.5997 0.290737 50.4854 0.262189C50.3216 0.257446 50.1579 0.276682 49.9997 0.319285C50.1225 0.610219 50.1996 0.918362 50.2282 1.23282C50.2568 1.83232 50.2568 2.66021 50.0282 2.94569C49.8282 3.23117 49.7997 4.1447 49.7997 4.1447C49.705 3.90746 49.6472 3.65715 49.6282 3.40245C49.6282 3.08843 49.9997 2.48892 50.0282 1.83232C50.0277 1.32317 49.9702 0.815671 49.8568 0.319285C49.8165 0.315013 49.776 0.325126 49.7425 0.347832C49.4259 0.255785 49.1002 0.198353 48.7711 0.176545C48.8713 0.301134 48.9399 0.448029 48.9711 0.604763C49.0568 1.03298 49.114 2.7744 48.4854 3.25971C47.8568 3.74503 46.7425 4.37308 46.7425 4.68711C46.6898 4.62464 46.6564 4.54825 46.6462 4.46718C46.6361 4.38611 46.6497 4.30385 46.6854 4.23034C46.7997 3.94486 47.8568 3.45955 47.8854 3.34536C47.433 3.40716 47.0072 3.59516 46.6568 3.88777C46.6568 3.88777 46.5997 3.74503 46.8282 3.4881C47.0854 3.23117 48.0282 3.20262 48.4568 2.46037C48.6432 2.10408 48.7309 1.70446 48.7108 1.30291C48.6907 0.901367 48.5636 0.512488 48.3425 0.176545C48.1408 0.191069 47.9403 0.219687 47.7425 0.262189C47.7711 0.347832 47.7711 0.404928 47.7997 0.490572C47.8282 0.833146 47.6568 1.17572 47.7425 1.48975C47.6346 1.26696 47.5761 1.02351 47.5711 0.77605C47.5999 0.625155 47.5999 0.47018 47.5711 0.319285C47.3264 0.397077 47.0877 0.492487 46.8568 0.604763C46.8568 0.604763 47.1711 1.43265 46.8854 1.83232C46.5997 2.23199 46.5425 2.14635 46.4282 2.66021C46.3239 2.99494 46.1901 3.31976 46.0282 3.63084C45.963 3.81605 45.8867 3.99718 45.7997 4.17325C45.7999 3.92147 45.8384 3.6712 45.914 3.431C45.9997 3.14552 46.1997 2.94569 46.2282 2.66021C46.2347 2.40949 46.3252 2.1682 46.4854 1.97506C46.5781 1.89756 46.6539 1.8018 46.708 1.69374C46.7621 1.58568 46.7933 1.46765 46.7997 1.34701C46.7711 1.17572 46.6854 0.747503 46.6854 0.690407C46.3997 0.833146 46.114 1.00443 45.8282 1.17572C45.8038 1.38413 45.7943 1.59401 45.7997 1.80377C45.7684 1.98849 45.7206 2.17003 45.6568 2.34618C45.6573 2.1935 45.6669 2.04098 45.6854 1.88942C45.6708 1.68032 45.6708 1.47046 45.6854 1.26136C45.4568 1.37556 45.2282 1.48975 44.9711 1.60394V1.74668C44.9226 2.08312 44.8559 2.41667 44.7711 2.74585C44.6568 3.14552 44.5425 3.74503 44.7997 4.20179C45.0568 4.65856 44.9711 4.88694 44.9711 4.88694C44.9711 4.88694 44.514 4.34453 44.4854 3.94486C44.4439 3.49708 44.4631 3.04576 44.5425 2.60311C44.608 2.39065 44.637 2.16864 44.6282 1.94651V1.74668L44.2854 1.83232C44.2282 2.14635 43.9997 2.40328 43.9997 2.71731C43.9997 2.71731 43.914 2.20344 44.0282 2.03216C44.0641 1.98212 44.084 1.92241 44.0854 1.86087C43.914 1.88942 43.7425 1.88942 43.5425 1.91796L43.4854 2.03216C43.5326 2.36741 43.5033 2.709 43.3997 3.03133C43.2568 3.40245 42.8854 3.71648 42.7997 4.11615C42.7997 4.11615 42.7997 3.431 42.9997 3.23117C43.2471 2.85148 43.3486 2.39516 43.2854 1.94651L43.3425 1.91796C43.1421 1.9227 42.9416 1.91316 42.7425 1.88942C42.6903 2.11402 42.6806 2.3464 42.714 2.57457C42.6187 2.35741 42.5608 2.12579 42.5425 1.88942C42.3425 1.86087 42.1711 1.86087 41.9711 1.83232H41.9425V2.20344C41.9744 2.47294 41.9451 2.74615 41.8568 3.00278C41.7425 3.28826 41.5425 3.17407 41.5425 3.60229C41.5607 3.81228 41.5106 4.02253 41.3997 4.20179C41.3997 4.20179 41.2568 3.4881 41.4568 3.20262C41.6295 2.99437 41.7208 2.73071 41.714 2.46037C41.7207 2.2411 41.7112 2.02163 41.6854 1.80377L41.3425 1.71813V1.74668C41.3113 1.9314 41.2635 2.11293 41.1997 2.28909C41.2002 2.1364 41.2097 1.98388 41.2282 1.83232V1.66103L40.7997 1.57539C40.7425 1.66103 40.6568 1.80377 40.5997 1.88942C40.5506 2.07103 40.5709 2.26441 40.6568 2.43183C40.7231 2.61503 40.7331 2.81388 40.6854 3.00278C40.6669 3.21247 40.6766 3.42368 40.714 3.63084C40.7 3.82519 40.6616 4.01702 40.5997 4.20179V3.74503C40.5585 3.48065 40.549 3.21233 40.5711 2.94569C40.5997 2.54602 40.5425 2.60311 40.4568 2.23199C40.4303 1.98618 40.5022 1.73989 40.6568 1.54684C40.1863 1.43206 39.7092 1.34625 39.2282 1.28991C38.6854 1.23282 37.5997 0.490572 36.5711 0.633311C36.5169 0.86835 36.4787 1.1068 36.4568 1.34701C37.5425 1.14717 38.6568 2.00361 38.6568 2.00361C38.1792 2.01225 37.7063 2.09905 37.2568 2.26054L37.2854 2.31764C37.5477 2.5932 37.7432 2.92527 37.8568 3.28826C37.9711 3.74503 37.8282 4.23034 38.0282 4.65856C38.0282 4.65856 37.5997 4.03051 37.6282 3.71648C37.6092 3.20585 37.4063 2.71926 37.0568 2.34618C37.0282 2.34618 37.0282 2.37473 36.9997 2.37473C36.9364 2.40263 36.8784 2.44127 36.8282 2.48892C36.5733 2.70288 36.3767 2.97787 36.2568 3.28826C36.3211 3.32197 36.388 3.35061 36.4568 3.37391C36.6568 3.54519 37.4282 4.28744 37.3425 4.77275C37.314 4.97259 37.2568 5.22952 37.1997 5.4579C38.114 5.08678 38.9711 4.54437 39.6854 4.28744C40.7711 3.88777 45.3711 5.57209 47.3997 5.22952C49.4282 4.88694 50.5997 5.48645 51.3711 5.62919C52.1425 5.74338 52.8282 5.4579 54.1711 5.80047C55.5711 6.14305 55.4568 6.51417 56.4282 7.05658C56.4801 7.09247 56.5403 7.11436 56.6031 7.12012C56.6659 7.12588 56.7291 7.11532 56.7866 7.08946C56.8441 7.06361 56.894 7.02333 56.9313 6.97255C56.9686 6.92177 56.9922 6.86221 56.9997 6.79965C56.9139 6.62836 57.0854 6.39998 55.9139 5.77193ZM52.4854 0.747503C52.6801 0.715592 52.88 0.745547 53.0568 0.833146V0.91879H53.0282C53.0101 0.95559 52.9814 0.986129 52.9457 1.00648C52.9101 1.02683 52.8692 1.03606 52.8282 1.03298C52.8282 1.06153 52.3997 0.947338 52.4854 0.747503ZM39.4282 4.23034C39.4282 4.23034 38.9997 3.94486 38.9425 3.68793C38.8757 3.40758 38.8468 3.11952 38.8568 2.8315C38.8861 2.69025 38.8861 2.54452 38.8568 2.40328C38.8374 2.27094 38.8279 2.13735 38.8282 2.00361L39.1425 1.97506L39.1711 2.20344C39.1711 2.20344 39.1425 2.60311 39.114 2.88859C39.0726 3.04866 39.0665 3.2158 39.0961 3.37845C39.1257 3.54111 39.1903 3.6954 39.2854 3.83067C39.341 3.87983 39.3833 3.94226 39.4083 4.01214C39.4332 4.08203 39.4401 4.15709 39.4282 4.23034Z" fill="#F9A51A"/>
</g>
</g>
</g>
</g>
<defs>
<clipPath id="clip0_21309_101072">
<rect width="57" height="18" fill="white"/>
</clipPath>
</defs>
</svg>
