<svg width="29" height="29" viewBox="0 0 29 29" fill="none" xmlns="http://www.w3.org/2000/svg">
<path d="M23.6667 15.4277V8.77773C23.6667 6.81755 23.6667 5.83746 23.2852 5.08877C22.9496 4.4302 22.4142 3.89477 21.7556 3.55921C21.0069 3.17773 20.0269 3.17773 18.0667 3.17773H10.6C8.63982 3.17773 7.65972 3.17773 6.91103 3.55921C6.25247 3.89477 5.71703 4.4302 5.38148 5.08877C5 5.83746 5 6.81755 5 8.77773V20.9111C5 22.8713 5 23.8513 5.38148 24.6C5.71703 25.2586 6.25247 25.794 6.91103 26.1296C7.65972 26.5111 8.63982 26.5111 10.6 26.5111H14.3333M16.6667 13.6777H9.66667M12 18.3444H9.66667M19 9.01107H9.66667M17.25 23.0111L19.5833 25.3444L24.8333 20.0944" stroke="#717BBC" stroke-width="2" stroke-linecap="round" stroke-linejoin="round"/>
</svg>
