<svg width="56" height="56" viewBox="0 0 56 56" fill="none" xmlns="http://www.w3.org/2000/svg">
<mask id="mask0_28649_64505" style="mask-type:alpha" maskUnits="userSpaceOnUse" x="0" y="0" width="56" height="56">
<rect width="56" height="56" fill="url(#paint0_linear_28649_64505)"/>
</mask>
<g mask="url(#mask0_28649_64505)">
<circle cx="28" cy="28" r="28" fill="#0DB14B" fill-opacity="0.1"/>
<circle cx="28" cy="28" r="27.5" stroke="#0DB14B" stroke-opacity="0.4"/>
</g>
<rect x="10" y="10" width="36" height="36" rx="18" fill="#0DB14B"/>
<path d="M33 26V24C33 21.2386 30.7614 19 28 19C25.2386 19 23 21.2386 23 24V26M28 30.5V32.5M24.8 37H31.2C32.8802 37 33.7202 37 34.362 36.673C34.9265 36.3854 35.3854 35.9265 35.673 35.362C36 34.7202 36 33.8802 36 32.2V30.8C36 29.1198 36 28.2798 35.673 27.638C35.3854 27.0735 34.9265 26.6146 34.362 26.327C33.7202 26 32.8802 26 31.2 26H24.8C23.1198 26 22.2798 26 21.638 26.327C21.0735 26.6146 20.6146 27.0735 20.327 27.638C20 28.2798 20 29.1198 20 30.8V32.2C20 33.8802 20 34.7202 20.327 35.362C20.6146 35.9265 21.0735 36.3854 21.638 36.673C22.2798 37 23.1198 37 24.8 37Z" stroke="white" stroke-width="1.5" stroke-linecap="round" stroke-linejoin="round"/>
<defs>
<linearGradient id="paint0_linear_28649_64505" x1="28" y1="0" x2="28" y2="56" gradientUnits="userSpaceOnUse">
<stop/>
<stop offset="1" stop-opacity="0"/>
</linearGradient>
</defs>
</svg>
