<svg width="44" height="44" viewBox="0 0 44 44" fill="none" xmlns="http://www.w3.org/2000/svg">
<path d="M22 0.5C33.8741 0.5 43.5 10.1259 43.5 22C43.5 33.8741 33.8741 43.5 22 43.5C10.1259 43.5 0.5 33.8741 0.5 22C0.5 10.1259 10.1259 0.5 22 0.5Z" fill="#DCFAE6"/>
<path d="M22 0.5C33.8741 0.5 43.5 10.1259 43.5 22C43.5 33.8741 33.8741 43.5 22 43.5C10.1259 43.5 0.5 33.8741 0.5 22C0.5 10.1259 10.1259 0.5 22 0.5Z" stroke="#75E0A7"/>
<path d="M29.0796 29H5L6.65281 20.6154C7.28845 17.359 10.1109 15 13.4165 15H38.6911L37.3181 22C36.5299 26.0769 33.0717 29 29.0796 29Z" fill="#0DB14B"/>
<path d="M32.2606 24.5638C30.3535 26.3586 27.6583 26.615 26.2598 25.1022C24.8612 23.5894 25.2935 20.9227 27.2006 19.1022C29.1076 17.2817 31.8029 17.051 33.2014 18.5638C34.5999 20.0766 34.1676 22.7689 32.2606 24.5638ZM31.4723 20.1792C30.7858 19.4356 29.4381 19.5381 28.472 20.4612C27.5057 21.3586 27.3022 22.7176 27.9888 23.4612C28.6753 24.2048 30.023 24.1022 30.9893 23.1791C31.9809 22.2817 32.1843 20.9484 31.4723 20.1792Z" fill="white"/>
<path d="M18.8568 25.8207C18.8314 25.7951 16.5938 25.7951 16.5938 25.7951L18.8568 17.7695C18.8568 17.7695 21.5267 17.7695 23.0777 17.7695C24.6288 17.7695 24.9847 19.5644 24.8068 20.6926C24.5271 22.2823 22.4674 23.1541 22.4674 23.1541L23.866 25.8465H21.2724L20.2808 23.2054H19.5687L18.8568 25.8207ZM21.2469 21.4875C21.2469 21.4875 22.0606 21.5644 22.3912 21.1541C22.7218 20.7439 22.8235 19.7952 22.086 19.7952C21.3487 19.7952 20.4333 19.7952 20.4333 19.7952L19.9756 21.3849L21.2469 21.4875Z" fill="white"/>
<path d="M11.5575 25.7949H9.52344L11.583 17.7949C11.583 17.7949 14.5325 17.7949 15.5497 17.7949C16.5668 17.7949 17.4567 18.6667 17.1516 20.2308C16.8465 21.8205 15.8039 22.8718 15.0157 23.2564C14.2274 23.6411 12.295 23.4359 12.295 23.4359L11.5575 25.7949ZM13.8715 21.5898C14.4309 21.6154 14.9139 21.4103 15.1428 21.0257C15.3716 20.6667 15.6005 19.718 14.558 19.718C13.5155 19.718 13.2866 19.718 13.2866 19.718C13.2866 19.718 12.7273 21.4616 12.7527 21.5129C12.7781 21.5129 13.312 21.5641 13.8715 21.5898Z" fill="white"/>
</svg>
