<svg width="40" height="40" viewBox="0 0 40 40" fill="none" xmlns="http://www.w3.org/2000/svg">
<path d="M20.0001 25C14.7166 25 10.0181 27.5511 7.02673 31.5099C6.38292 32.362 6.06101 32.788 6.07154 33.3638C6.07967 33.8086 6.35901 34.3698 6.70902 34.6445C7.16206 35 7.78986 35 9.04546 35H30.9547C32.2103 35 32.8381 35 33.2911 34.6445C33.6411 34.3698 33.9205 33.8086 33.9286 33.3638C33.9391 32.788 33.6172 32.362 32.9734 31.5099C29.9821 27.5511 25.2835 25 20.0001 25Z" stroke="#475467" stroke-width="2" stroke-linecap="round" stroke-linejoin="round"/>
<path d="M20.0001 20C24.1422 20 27.5001 16.6421 27.5001 12.5C27.5001 8.35786 24.1422 5 20.0001 5C15.8579 5 12.5001 8.35786 12.5001 12.5C12.5001 16.6421 15.8579 20 20.0001 20Z" stroke="#475467" stroke-width="2" stroke-linecap="round" stroke-linejoin="round"/>
</svg>
