<svg width="28" height="29" viewBox="0 0 28 29" fill="none" xmlns="http://www.w3.org/2000/svg">
<path d="M22.1667 16.0111V11.3444L14 3.17773H5.83333C4.54467 3.17773 3.5 4.2224 3.5 5.51107V24.1777C3.5 25.4664 4.54467 26.5111 5.83333 26.5111H10.5" stroke="#F670C7" stroke-width="2" stroke-linecap="round" stroke-linejoin="round"/>
<path d="M14 3.17773V9.01107C14 10.2997 15.0446 11.3444 16.3333 11.3444H22.1667" stroke="#F670C7" stroke-width="2" stroke-linejoin="round"/>
<path d="M21 23.5931L24.5 25.3431V20.6764L21 22.4264M21 23.5931V22.4264M21 23.5931V25.3431C21 25.9874 20.4777 26.5098 19.8333 26.5098H15.1667C14.5223 26.5098 14 25.9874 14 25.3431V20.6764C14 20.0321 14.5223 19.5098 15.1667 19.5098H19.8333C20.4777 19.5098 21 20.0321 21 20.6764V22.4264" stroke="#F670C7" stroke-width="2" stroke-linejoin="round"/>
</svg>
