<svg width="28" height="24" viewBox="0 0 28 24" fill="none" xmlns="http://www.w3.org/2000/svg">
<path d="M25.6662 2.66708V1.50053C25.6656 1.19134 25.5425 0.895004 25.3238 0.676374C25.1052 0.457744 24.8088 0.334632 24.4997 0.333984H17.4997C17.1906 0.334999 16.8945 0.45823 16.6759 0.676781C16.4574 0.895332 16.3341 1.19146 16.3331 1.50053V6.16708C16.3344 6.47611 16.4577 6.77211 16.6762 6.99066C16.8947 7.20921 17.1906 7.3326 17.4997 7.33398H24.4997C24.8088 7.33297 25.105 7.20969 25.3235 6.99107C25.5421 6.77244 25.6653 6.47622 25.6662 6.16708V5.00053L27.9997 7.33398V0.333984L25.6662 2.66708Z" fill="#C9589C"/>
<path d="M17.5 8.50042C15.5698 8.50042 15.1667 8.09734 15.1667 6.16709V2.66709H5.83345C3.9011 2.66709 2.33345 4.23404 2.33345 6.16709V17.834H25.6665V8.50042H17.5ZM18.6679 20.1671L17.501 21.334H10.501L9.33345 20.1671H0C0 22.0994 1.5666 23.6671 3.5 23.6671H24.5C26.4324 23.6671 28 22.1005 28 20.1671H18.6679Z" fill="#84AFDC"/>
<path d="M24.5 22.9673V23.6671H3.5V22.9673H24.5ZM9.33345 20.1671L10.501 21.334H17.501L18.6679 20.1671H28C28 22.1005 26.4324 23.6671 24.5 23.6671V22.9673C25.8044 22.9673 26.9013 22.0749 27.2122 20.8669H18.9578L17.9956 21.8291L17.7914 22.0342H10.2112L9.04395 20.8669H0.787842C1.09859 22.0744 2.19506 22.9673 3.5 22.9673V23.6671L3.3197 23.6628C1.47013 23.569 3.09477e-07 22.039 0 20.1671H9.33345ZM14.4666 3.36692H5.83362C4.28778 3.36692 3.03345 4.62073 3.03345 6.16709V17.1336H24.9666V9.20054H17.5C17.0025 9.20054 16.5552 9.17548 16.1713 9.09116C15.7793 9.00503 15.4093 8.8479 15.1143 8.55283C14.8192 8.25776 14.6621 7.88781 14.5759 7.49583C14.4916 7.11187 14.4666 6.66464 14.4666 6.16709V3.36692ZM15.1715 6.51145C15.2194 8.03716 15.6299 8.44765 17.1556 8.49558L17.5 8.50042H25.6665V17.834H2.33345V6.16709C2.33345 4.29447 3.80461 2.76513 5.65332 2.67136L5.83345 2.66709H15.1667V6.16709L15.1715 6.51145Z" fill="#4677A3"/>
<path d="M9.01427 5.00049C7.57589 5.00049 6.40567 6.17071 6.40567 7.60909C6.40567 9.04747 7.57589 10.2177 9.01427 10.2177C10.4526 10.2177 11.6229 9.04747 11.6229 7.60909C11.6229 6.17071 10.4526 5.00049 9.01427 5.00049ZM12.2599 11.9219C11.5457 11.1967 10.5989 10.7974 9.59395 10.7974H8.43458C7.42963 10.7974 6.48285 11.1967 5.76867 11.9219C5.058 12.6435 4.66661 13.596 4.66661 14.604C4.66661 14.7641 4.79638 14.8938 4.95645 14.8938H13.0721C13.2322 14.8938 13.3619 14.7641 13.3619 14.604C13.3619 13.596 12.9705 12.6435 12.2599 11.9219Z" fill="white"/>
</svg>
