<svg width="20" height="20" viewBox="0 0 20 20" fill="none" xmlns="http://www.w3.org/2000/svg">
<path d="M15.8333 10.8327V7.49935L10 1.66602H4.16667C3.24619 1.66602 2.5 2.41221 2.5 3.33268V16.666C2.5 17.5865 3.24619 18.3327 4.16667 18.3327H7.5" stroke="#667085" stroke-width="1.5" stroke-linecap="round" stroke-linejoin="round"/>
<path d="M10 1.66602V5.83268C10 6.75316 10.7462 7.49935 11.6667 7.49935H15.8333" stroke="#667085" stroke-width="1.5" stroke-linejoin="round"/>
<path d="M15 16.2507L17.5 17.5007V14.1673L15 15.4173M15 16.2507V15.4173M15 16.2507V17.5007C15 17.9609 14.6269 18.334 14.1667 18.334H10.8333C10.3731 18.334 10 17.9609 10 17.5007V14.1673C10 13.7071 10.3731 13.334 10.8333 13.334H14.1667C14.6269 13.334 15 13.7071 15 14.1673V15.4173" stroke="#667085" stroke-width="1.5" stroke-linejoin="round"/>
</svg>
