<?xml version="1.0" encoding="utf-8"?>
<!-- Generator: Adobe Illustrator 16.0.0, SVG Export Plug-In . SVG Version: 6.00 Build 0)  -->
<!DOCTYPE svg PUBLIC "-//W3C//DTD SVG 1.1//EN" "http://www.w3.org/Graphics/SVG/1.1/DTD/svg11.dtd">
<svg version="1.1" id="Layer_1" xmlns="http://www.w3.org/2000/svg" xmlns:xlink="http://www.w3.org/1999/xlink" x="0px" y="0px"
	 width="140px" height="140px" viewBox="0 0 140 140" enable-background="new 0 0 140 140" xml:space="preserve">
<path fill="#F5F6F6" d="M140,70c0,4.596-0.448,9.148-1.346,13.656c-0.896,4.508-2.224,8.885-3.982,13.132
	c-1.76,4.246-3.916,8.28-6.469,12.102c-2.554,3.821-5.455,7.358-8.705,10.608s-6.787,6.151-10.608,8.705
	c-3.821,2.553-7.855,4.709-12.103,6.469c-4.246,1.759-8.623,3.086-13.131,3.982C79.148,139.552,74.596,140,70,140
	c-4.596,0-9.148-0.448-13.656-1.346c-4.508-0.896-8.885-2.224-13.132-3.982c-4.246-1.76-8.28-3.916-12.102-6.469
	c-3.821-2.554-7.357-5.455-10.607-8.705s-6.152-6.787-8.706-10.608c-2.553-3.821-4.709-7.855-6.468-12.102
	c-1.759-4.247-3.087-8.624-3.983-13.132C0.448,79.148,0,74.596,0,70c0-4.596,0.448-9.148,1.345-13.656
	c0.896-4.508,2.224-8.885,3.983-13.132c1.759-4.246,3.915-8.28,6.468-12.102c2.554-3.822,5.456-7.358,8.706-10.608
	s6.786-6.152,10.607-8.706c3.822-2.553,7.856-4.709,12.102-6.469c4.247-1.759,8.624-3.086,13.132-3.983C60.852,0.448,65.404,0,70,0
	c4.596,0,9.148,0.448,13.656,1.345c4.508,0.897,8.885,2.225,13.131,3.983c4.247,1.759,8.281,3.916,12.103,6.469
	c3.821,2.554,7.358,5.456,10.608,8.706s6.151,6.786,8.705,10.608c2.553,3.821,4.709,7.855,6.469,12.102
	c1.759,4.247,3.086,8.624,3.982,13.132C139.552,60.852,140,65.404,140,70z"/>
<path fill="#EDEDED" d="M116.287,70.831c0,6.144-1.176,12.054-3.526,17.73s-5.699,10.687-10.044,15.03
	c-4.344,4.345-9.354,7.693-15.03,10.044s-11.587,3.526-17.73,3.526s-12.054-1.176-17.73-3.526s-10.687-5.699-15.031-10.044
	c-4.345-4.344-7.692-9.354-10.043-15.03s-3.527-11.587-3.527-17.73s1.176-12.054,3.527-17.73s5.699-10.687,10.043-15.031
	c4.344-4.345,9.354-7.692,15.031-10.043S63.813,24.5,69.956,24.5s12.054,1.176,17.73,3.527s10.687,5.699,15.03,10.043
	c4.345,4.344,7.693,9.354,10.044,15.031S116.287,64.688,116.287,70.831z"/>
<path fill="#FDCE07" d="M82.18,41.972H56.087h-2.784c0,0,0,27.172,11.304,33.461c1.333,0.741,2.142,2.163,2.142,3.688h1.985h3.819
	c0-1.524,0.809-2.946,2.142-3.688c1.226-0.682,2.317-1.608,3.29-2.719c5.728-6.533,7.361-19.43,7.828-26.258
	c0.186-2.726,0.186-4.485,0.186-4.485H82.18L82.18,41.972z"/>
<path fill="#EDBF1C" d="M41.975,52.019c0.122-10.361,11.514-5.562,11.514-5.562c0.071,1.045,0.17,2.231,0.307,3.516
	c-2.997-1.079-9.399-2.668-8.5,3.875c0.912,6.64,3.808,11.231,7.664,13.707c2.147,1.378,4.519,1.573,5.89,1.546
	c0.724,1.335,1.542,2.558,2.467,3.614c0,0-4.845,0.902-9.671-2.002C47.15,68.008,41.855,62.201,41.975,52.019z"/>
<rect x="66.748" y="83.01" fill="#FDCE07" width="5.805" height="5.146"/>
<rect x="66.652" y="83.01" fill="#DCB327" width="5.9" height="2.018"/>
<rect x="57.641" y="91.867" fill="#3F3E44" width="24.02" height="5.455"/>
<rect x="57.641" y="95.222" fill="#454545" width="24.02" height="2.1"/>
<rect x="62.164" y="88.156" fill="#78777F" width="14.973" height="3.71"/>
<rect x="62.164" y="90.012" fill="#3F3E44" width="14.973" height="1.854"/>
<path fill="#CBA52C" d="M72.649,83.01h-5.997c-1.074,0-1.944-0.871-1.944-1.944s0.87-1.944,1.944-1.944h5.997
	c1.073,0,1.944,0.871,1.944,1.944S73.723,83.01,72.649,83.01z"/>
<path fill="#DCB327" d="M82.18,41.972c0,0,0,1.759-0.186,4.485c-0.467,6.828-2.101,19.725-7.828,26.258
	c-0.974,1.11-2.065,2.037-3.291,2.719c-1.332,0.741-2.142,2.164-2.142,3.688h3.819c0-1.524,0.81-2.946,2.142-3.688
	c1.226-0.682,2.317-1.608,3.291-2.719c5.727-6.532,7.36-19.43,7.827-26.258c0.186-2.726,0.186-4.485,0.186-4.485H82.18z"/>
<path fill="#FDDA46" d="M67.391,75.434c-11.304-6.289-11.304-33.461-11.304-33.461h-2.784c0,0,0,27.172,11.304,33.461
	c1.333,0.741,2.142,2.163,2.142,3.688h1.985c0-0.632,0.141-1.246,0.399-1.802C68.769,76.535,68.17,75.867,67.391,75.434z"/>
<path fill="#EDBF1C" d="M97.326,52.019c-0.121-10.361-11.514-5.562-11.514-5.562c-0.071,1.045-0.17,2.231-0.307,3.516
	c2.998-1.079,9.399-2.668,8.5,3.875c-0.912,6.641-3.808,11.231-7.663,13.707c-2.147,1.378-4.519,1.574-5.89,1.546
	c-0.725,1.336-1.542,2.558-2.468,3.615c0,0,4.845,0.902,9.671-2.002C92.151,68.008,97.445,62.201,97.326,52.019z"/>
<path fill="#CBA52C" d="M51.527,49.3c0.84,0.192,1.63,0.444,2.267,0.673c-0.137-1.284-0.235-2.471-0.307-3.516
	c0,0-1.121-0.471-2.662-0.8C51.103,46.864,51.366,48.074,51.527,49.3z"/>
<path fill="#CBA52C" d="M58.848,69.101c-0.692,0.014-1.639-0.03-2.683-0.253c0.102,0.281,0.205,0.563,0.313,0.843
	c0.497,1.062,1.104,2.09,1.723,3.104c1.864,0.152,3.115-0.08,3.115-0.08C60.39,71.658,59.572,70.436,58.848,69.101z"/>
<path fill="#CBA52C" d="M87.771,49.3c-0.841,0.192-1.63,0.444-2.267,0.673c0.137-1.284,0.235-2.471,0.307-3.516
	c0,0,1.121-0.471,2.662-0.8C88.195,46.864,87.932,48.074,87.771,49.3z"/>
<path fill="#CBA52C" d="M80.451,69.101c0.691,0.014,1.639-0.03,2.684-0.253c-0.103,0.281-0.205,0.563-0.313,0.843
	c-0.497,1.062-1.104,2.09-1.723,3.104c-1.864,0.152-3.114-0.08-3.114-0.08C78.909,71.658,79.727,70.436,80.451,69.101z"/>
<path d="M67.595,87.309h4.11v-3.452h-4.11V87.309z M73.399,89.003h-7.499v-6.841h7.499V89.003z"/>
<path d="M66.651,79.969c-0.604,0-1.097,0.492-1.097,1.097s0.492,1.097,1.097,1.097h5.997c0.605,0,1.097-0.492,1.097-1.097
	s-0.491-1.097-1.097-1.097H66.651z M72.648,83.856h-5.997c-1.539,0-2.791-1.252-2.791-2.791s1.252-2.791,2.791-2.791h5.997
	c1.539,0,2.791,1.252,2.791,2.791S74.188,83.856,72.648,83.856z"/>
<path d="M63.011,91.02h13.278v-2.017H63.011V91.02z M77.984,92.714H61.316v-5.405h16.668V92.714z"/>
<path d="M58.487,96.475h22.326v-3.761H58.487V96.475z M82.508,98.169H56.792V91.02h25.715V98.169z"/>
<path d="M67.525,78.274h4.25c0.25-1.507,1.164-2.834,2.506-3.581c1.09-0.606,2.121-1.46,3.066-2.537
	c5.529-6.308,7.146-18.845,7.618-25.757c0.106-1.563,0.151-2.812,0.171-3.58H54.164c0.122,4.599,1.208,26.508,10.854,31.874
	C66.36,75.44,67.273,76.768,67.525,78.274z M73.398,79.969H65.9v-0.848c0-1.232-0.654-2.361-1.707-2.947
	c-2.738-1.523-5.057-4.305-6.892-8.266c-1.436-3.1-2.587-6.938-3.42-11.408c-1.411-7.569-1.427-14.459-1.427-14.528v-0.847h34.39
	v0.847c0,0.073-0.003,1.819-0.188,4.542c-0.486,7.125-2.177,20.077-8.035,26.759c-1.072,1.224-2.256,2.199-3.516,2.9
	c-1.053,0.586-1.707,1.715-1.707,2.948V79.969z"/>
<path d="M79.637,71.998C79.705,72,79.775,72,79.848,72c1.837,0,4.607-0.35,7.371-2.013c2.828-1.702,9.391-6.858,9.26-17.959
	c-0.046-3.926-1.773-5.834-5.283-5.834c-1.876,0-3.729,0.565-4.576,0.864c-0.043,0.568-0.09,1.138-0.143,1.706
	c1.151-0.338,2.509-0.627,3.781-0.627c1.629,0,2.863,0.468,3.669,1.392c0.876,1.004,1.185,2.497,0.919,4.435
	c-0.457,3.321-1.41,6.256-2.834,8.724c-1.359,2.355-3.113,4.233-5.212,5.581c-2.05,1.316-4.267,1.648-5.849,1.68
	C80.533,70.682,80.095,71.367,79.637,71.998z M79.848,73.694L79.848,73.694c-1.215,0-1.985-0.141-2.018-0.147l-1.463-0.271
	l0.98-1.119c0.843-0.961,1.637-2.125,2.36-3.459l0.246-0.454l0.516,0.01c0.071,0.001,0.144,0.002,0.22,0.002
	c1.365,0,3.375-0.246,5.195-1.414c3.876-2.489,6.463-7.145,7.281-13.109c0.197-1.432,0.023-2.472-0.516-3.09
	c-0.471-0.539-1.274-0.812-2.393-0.812c-1.534,0-3.275,0.511-4.465,0.939l-1.272,0.458l0.143-1.345
	c0.122-1.154,0.225-2.326,0.304-3.484l0.035-0.521l0.481-0.203c0.114-0.048,2.825-1.176,5.712-1.176
	c4.443,0,6.921,2.667,6.978,7.509c0.056,4.763-1.03,9.003-3.229,12.603c-2.158,3.534-4.917,5.664-6.851,6.827
	C84.995,73.303,81.898,73.694,79.848,73.694z"/>
<path d="M48.104,46.194c-3.509,0-5.237,1.908-5.283,5.834c-0.13,11.101,6.432,16.257,9.26,17.958C54.845,71.65,57.616,72,59.453,72
	c0.072,0,0.142-0.001,0.21-0.002c-0.458-0.631-0.897-1.316-1.315-2.051c-1.582-0.032-3.799-0.364-5.848-1.68
	c-2.099-1.348-3.852-3.225-5.212-5.581c-1.424-2.468-2.377-5.403-2.833-8.724c-0.266-1.938,0.042-3.43,0.918-4.435
	c0.805-0.924,2.04-1.392,3.668-1.392c1.273,0,2.63,0.289,3.782,0.627c-0.053-0.567-0.1-1.137-0.142-1.706
	C51.834,46.76,49.98,46.194,48.104,46.194z M59.453,73.694c-2.052,0-5.148-0.392-8.246-2.256c-1.934-1.164-4.693-3.293-6.851-6.827
	c-2.198-3.6-3.285-7.839-3.229-12.603c0.057-4.842,2.535-7.509,6.978-7.509c2.887,0,5.598,1.128,5.712,1.177l0.48,0.203l0.036,0.521
	c0.08,1.161,0.182,2.333,0.304,3.484l0.143,1.345l-1.272-0.458c-1.19-0.429-2.931-0.939-4.465-0.939
	c-1.118,0-1.922,0.273-2.392,0.812c-0.54,0.619-0.713,1.658-0.517,3.09c0.819,5.964,3.405,10.62,7.282,13.109
	c1.82,1.168,3.83,1.414,5.195,1.414c0.076,0,0.149-0.001,0.219-0.002l0.516-0.01l0.246,0.454c0.723,1.335,1.517,2.499,2.359,3.46
	l0.21,0.239v0.318c0,0.221-0.083,0.746-0.853,0.859c-0.125,0.019-0.262,0.035-0.407,0.05C60.446,73.671,59.958,73.694,59.453,73.694
	z"/>
<rect x="53.303" y="43.975" width="32.623" height="1.694"/>
<path fill="#FFFFFF" d="M62.687,71.473c-0.541-0.581-1.06-1.248-1.543-1.981l1.415-0.932c0.432,0.654,0.892,1.246,1.369,1.758
	L62.687,71.473z"/>
<path fill="#FFFFFF" d="M60.494,68.428c-1.327-2.335-2.411-5.325-3.224-8.887l1.652-0.377c0.776,3.4,1.8,6.235,3.045,8.427
	L60.494,68.428z"/>
<rect x="87.434" y="75.16" width="1.694" height="4.556"/>
<rect x="86.005" y="76.59" width="4.556" height="1.694"/>
<rect x="50.787" y="84.148" width="1.694" height="4.095"/>
<rect x="49.588" y="85.348" width="4.095" height="1.695"/>
<rect x="46.568" y="73.23" width="1.599" height="1.694"/>
<rect x="56.84" y="78.244" width="1.599" height="1.693"/>
<rect x="82.604" y="83.342" width="1.599" height="1.693"/>
</svg>
